<?xml version="1.0" encoding="UTF-8"?>
<svg id="_레이어_2" data-name="레이어 2" xmlns="http://www.w3.org/2000/svg" viewBox="0 0 779.48 1207.79">
  <g id="_레이어_1-2" data-name="레이어 1">
    <g>
      <rect width="779.48" height="1207.79" style="fill: none;"/>
      <g>
        <path d="M362.47,302.73l-43.01,5.79c-1.37,37.4-25.58,69.07-59.06,81.44l14.06,14.05c11.72-8.32,24.31-15.35,37.67-21,24.61-10.41,50.72-15.69,77.62-15.69,5.85,0,11.67.27,17.44.76l5.68-24.48c-21.08-7.51-38.83-22.09-50.39-40.87Z" style="fill: none;"/>
        <path d="M407.18,368.09c6.36.55,12.67,1.4,18.91,2.55l5.21-22.45c-6.37-.93-12.53-2.48-18.44-4.59l-5.68,24.48Z" style="fill: #d3d3d3;"/>
        <path d="M380.24,1036.84h-32.32c-6.35,0-11.73,4.67-12.63,10.95l-17.54,122.64c-1.1,7.69,4.87,14.57,12.63,14.57h118.72c7.77,0,13.73-6.88,12.63-14.57l-17.54-122.64c-.9-6.29-6.28-10.95-12.63-10.95h-32.32v-55.02h-19v55.02Z" style="fill: #d3d3d3;"/>
        <path d="M399.24,765.78c-3.16.15-6.32.23-9.5.23s-6.34-.08-9.5-.23v8.63h19v-8.63Z" style="fill: #d3d3d3;"/>
        <path d="M319.46,308.52l43.01-5.79c-3.47-5.65-6.39-11.68-8.66-18.01l-35.64,4.8c.89,5.08,1.36,10.31,1.36,15.65,0,1.12-.03,2.24-.07,3.35Z" style="fill: #d3d3d3;"/>
        <path d="M424.29,274.98c-1.52-2.37-2.8-5.66-2.8-9.99v-26.23c0-4.33,1.28-7.62,2.8-9.99-6.26,5.74-10.19,13.97-10.19,23.11s3.93,17.37,10.19,23.11Z" style="fill: #cbcbcb;"/>
        <path d="M467.74,244.68c.98,2.08,1.5,4.37,1.5,6.71s-.5,4.56-1.45,6.6c1.95,2.69,3.01,5.93,3.01,9.31,0,2.14-.43,4.21-1.23,6.11,5.33-5.62,8.61-13.21,8.61-21.55,0-9.19-3.97-17.46-10.29-23.2,1.36,2.38,2.1,5.07,2.1,7.86,0,2.93-.79,5.73-2.26,8.15Z" style="fill: #cbcbcb;"/>
        <path d="M446.84,220.52h-1.39c-1.39,0-2.76.1-4.1.28h9.6c-1.34-.18-2.71-.28-4.1-.28Z" style="fill: #cbcbcb;"/>
        <path d="M441.35,282.94c1.34.18,2.71.28,4.1.28h1.39c1.39,0,2.76-.1,4.1-.28h-9.59Z" style="fill: #cbcbcb;"/>
        <path d="M412.86,343.6c5.91,2.1,12.07,3.65,18.44,4.59,4.62.68,9.34,1.03,14.15,1.03h1.39c53.68,0,97.35-43.67,97.35-97.35s-43.67-97.35-97.35-97.35h-1.39c-53.68,0-97.35,43.67-97.35,97.35,0,11.52,2.02,22.59,5.71,32.86,2.28,6.33,5.19,12.36,8.66,18.01,11.56,18.78,29.31,33.36,50.39,40.87ZM424.28,228.76c.63-.99,1.3-1.82,1.93-2.5,2.34-2.5,6.55-5.47,13.37-5.47h1.75c1.34-.18,2.71-.28,4.1-.28h1.39c1.39,0,2.76.1,4.1.28h3.32c4.49,0,8.6,1.79,11.58,5.04.8.87,1.47,1.83,2.05,2.83,6.32,5.74,10.29,14.02,10.29,23.2,0,8.34-3.28,15.93-8.61,21.55-.77,1.83-1.88,3.51-3.32,4.95-2.97,2.96-6.93,4.57-11.19,4.57h-4.13c-1.34.18-2.71.28-4.1.28h-1.39c-1.39,0-2.76-.1-4.1-.28h-1.76c-6.82,0-11.03-2.97-13.36-5.46-.64-.68-1.31-1.52-1.94-2.51-6.26-5.74-10.19-13.97-10.19-23.11s3.93-17.37,10.19-23.11Z" style="fill: #ff73b0;"/>
        <path d="M421.49,264.98c0,4.33,1.28,7.62,2.8,9.99.63.99,1.3,1.82,1.94,2.51,2.33,2.49,6.54,5.46,13.36,5.46h15.48c4.26,0,8.22-1.61,11.19-4.57,1.44-1.44,2.55-3.12,3.32-4.95.8-1.91,1.23-3.97,1.23-6.11,0-3.38-1.06-6.62-3.01-9.31.95-2.04,1.45-4.28,1.45-6.6s-.52-4.63-1.5-6.71c1.47-2.42,2.26-5.22,2.26-8.15s-.74-5.49-2.1-7.86c-.58-1.01-1.25-1.96-2.05-2.83-2.98-3.25-7.09-5.04-11.58-5.04h-14.68c-6.82,0-11.03,2.97-13.37,5.47-.63.68-1.3,1.51-1.93,2.5-1.51,2.37-2.8,5.66-2.8,9.99v26.23ZM440.49,269.28c-1.54,0-2.68-.38-3.38-1.13-.7-.75-1.05-1.81-1.05-3.16v-26.23c0-1.35.35-2.42,1.05-3.16.7-.75,1.84-1.13,3.38-1.13h14.68c.63,0,1.14.21,1.51.61.37.4.55.89.55,1.46s-.19,1.04-.56,1.41c-.37.37-.88.56-1.51.56h-12.92c-.59,0-1.01.13-1.23.38-.23.26-.35.71-.35,1.34v9.15h13.79c.6,0,1.09.21,1.47.61.37.4.55.88.55,1.41s-.19,1-.56,1.37c-.37.37-.86.56-1.46.56h-13.79v10.2c0,.63.12,1.08.35,1.34.23.25.64.38,1.23.38h13.73c.63,0,1.14.21,1.51.61h0c.37.4.55.89.55,1.46s-.19,1.04-.56,1.41c-.37.37-.88.56-1.51.56h-15.48Z" style="fill: #fae585;"/>
        <path d="M457.48,268.72c.37-.37.56-.85.56-1.41s-.19-1.06-.55-1.46h0c-.37-.4-.88-.61-1.51-.61h-13.73c-.59,0-1.01-.13-1.23-.38-.23-.26-.35-.71-.35-1.34v-10.2h13.79c.6,0,1.09-.19,1.46-.56.37-.37.56-.83.56-1.37s-.19-1.01-.55-1.41c-.37-.4-.86-.61-1.47-.61h-13.79v-9.15c0-.63.12-1.08.35-1.34.23-.25.64-.38,1.23-.38h12.92c.63,0,1.14-.19,1.51-.56.37-.37.56-.85.56-1.41s-.19-1.06-.55-1.46c-.37-.4-.88-.61-1.51-.61h-14.68c-1.54,0-2.68.38-3.38,1.13-.7.75-1.05,1.81-1.05,3.16v26.23c0,1.35.35,2.42,1.05,3.16.7.75,1.84,1.13,3.38,1.13h15.48c.63,0,1.14-.19,1.51-.56Z" style="fill: #8e8e8e;"/>
        <path d="M260.4,389.96c-6.91,2.55-14.22,4.28-21.8,5.07l20.8,20.8c4.84-4.19,9.86-8.13,15.05-11.82l-14.06-14.05Z" style="fill: #d3d3d3;"/>
        <path d="M229.18,240.81h-82.79c-17.77,0-33.86,7.21-45.5,18.85-11.65,11.65-18.85,27.74-18.85,45.5,0,35.54,28.81,64.36,64.35,64.36h82.79c17.77,0,33.86-7.2,45.5-18.85,11.65-11.65,18.85-27.74,18.85-45.51,0-35.53-28.81-64.35-64.35-64.35ZM271.57,330.17c-2.59,2.59-5.64,4.91-9,6.83-.28.16-.55.31-.83.46l-17.37,9.34c-2.24,1.24-4.58,2.26-6.99,3.05-6.64,4.63-14.54,7.14-22.7,7.14-2.46,0-4.87-.22-7.23-.65-4.73.86-9.71.85-14.4,0-2.34.43-4.74.65-7.16.65-2.18,0-4.33-.18-6.44-.52-3.34.65-6.78.99-10.27.99-6.34,0-12.49-1.17-18.3-3.48-1.79-.71-3.52-1.53-5.19-2.44-5.07-.63-10.01-2.23-14.54-4.74l-17.37-9.34c-.28-.15-.55-.3-.83-.46-3.34-1.9-6.37-4.21-9.02-6.86-7.36-7.35-11.41-17.17-11.41-27.65,0-11.15,4.69-21.77,12.87-29.14,2.62-2.36,5.52-4.38,8.64-6.01l17.46-9.39s.1-.05.14-.07c6.21-3.3,13.2-4.94,20.22-4.73,5.38.16,10.51,1.4,15.19,3.55.49-.02.98-.04,1.47-.04,3.63,0,7.15.38,10.56,1.11,2.23-.38,4.51-.59,6.82-.59.51,0,1.03.01,1.54.03,4.81-.75,9.83-.71,14.52-.01,2.17-.34,4.37-.51,6.58-.53,4.65-2.13,9.74-3.36,15.07-3.52,7.09-.21,14.08,1.43,20.29,4.73.05.02.09.05.14.07l17.46,9.39c3.12,1.64,6.02,3.66,8.64,6.01,8.18,7.37,12.87,17.99,12.87,29.14,0,10.49-4.06,20.32-11.43,27.68Z" style="fill: #ececec;"/>
        <path d="M318.17,289.52c-7.43-42.39-44.51-74.71-88.99-74.71h-82.79c-49.82,0-90.35,40.54-90.35,90.35s40.53,90.36,90.35,90.36h82.79c3.18,0,6.32-.17,9.42-.49,7.58-.79,14.89-2.52,21.8-5.08,33.48-12.37,57.69-44.03,59.06-81.43.04-1.12.07-2.23.07-3.36,0-5.33-.47-10.56-1.36-15.64ZM274.68,350.67c-11.64,11.65-27.73,18.85-45.5,18.85h-82.79c-35.54,0-64.35-28.82-64.35-64.36,0-17.76,7.2-33.85,18.85-45.5,11.64-11.64,27.73-18.85,45.5-18.85h82.79c35.54,0,64.35,28.82,64.35,64.35,0,17.77-7.2,33.86-18.85,45.51Z" style="fill: #fae585;"/>
        <path d="M162.38,302.53c-.2.75-.34,1.43-.41,2.02h12.75c-.04-.59-.16-1.27-.34-2.02-.2-.8-.55-1.58-1.02-2.31-.48-.72-1.11-1.34-1.88-1.83-.77-.49-1.76-.74-2.96-.74-1.26,0-2.31.25-3.11.74-.8.49-1.46,1.11-1.95,1.83-.5.73-.86,1.5-1.07,2.31Z" style="fill: #99f464;"/>
        <path d="M270.13,273.35c-2.62-2.35-5.52-4.37-8.64-6.01l-17.46-9.39c-.05-.02-.09-.05-.14-.07-6.21-3.3-13.2-4.94-20.29-4.73-5.33.16-10.42,1.39-15.07,3.52-2.21.02-4.41.19-6.58.53-4.69-.7-9.71-.74-14.52.01-.51-.02-1.03-.03-1.54-.03-2.31,0-4.59.21-6.82.59-3.41-.73-6.93-1.11-10.56-1.11-.49,0-.98.02-1.47.04-4.68-2.15-9.81-3.39-15.19-3.55-7.02-.21-14.01,1.43-20.22,4.73-.04.02-.09.05-.14.07l-17.46,9.39c-3.12,1.63-6.02,3.65-8.64,6.01-8.18,7.37-12.87,17.99-12.87,29.14,0,10.48,4.05,20.3,11.41,27.65,2.65,2.65,5.68,4.96,9.02,6.86.28.16.55.31.83.46l17.37,9.34c4.53,2.51,9.47,4.11,14.54,4.74,1.67.91,3.4,1.73,5.19,2.44,5.81,2.31,11.96,3.48,18.3,3.48,3.49,0,6.93-.34,10.27-.99,2.11.34,4.26.52,6.44.52,2.42,0,4.82-.22,7.16-.65,4.69.85,9.67.86,14.4,0,2.36.43,4.77.65,7.23.65,8.16,0,16.06-2.51,22.7-7.14,2.41-.79,4.75-1.81,6.99-3.05l17.37-9.34c.28-.15.55-.3.83-.46,3.36-1.92,6.41-4.24,9-6.83,7.37-7.36,11.43-17.19,11.43-27.68,0-11.15-4.69-21.77-12.87-29.14ZM151.24,310.86c.47.23.81.61,1.03,1.12.22.53.15,1.12-.22,1.75-.27.48-.71.73-1.29.75h-.09c-.52,0-1.02-.14-1.49-.42l-17.7-9.52c-.45-.25-.83-.53-1.12-.82-.31-.31-.46-.72-.46-1.23,0-.6.17-1.06.51-1.37.32-.29.68-.53,1.07-.73l17.7-9.51c.5-.27,1.03-.39,1.58-.37.58.01,1.02.27,1.29.75.37.63.44,1.21.22,1.74-.22.51-.56.89-1.03,1.13l-16.02,8.36,16.02,8.37ZM178.46,307.35c-.51.61-1.51.9-3.08.9h-13.41c.04,1.41.26,2.63.65,3.64.4,1.04.95,1.91,1.63,2.59s1.48,1.18,2.39,1.51c.91.32,1.89.49,2.92.49,2.14,0,4.32-.57,6.47-1.7.11-.03.24-.08.39-.14.18-.07.37-.1.58-.08s.42.09.62.2c.21.13.4.34.57.64.17.38.23.7.2.98-.03.27-.11.5-.23.69-.12.19-.26.34-.41.46-.15.12-.28.19-.39.23-1.31.78-2.64,1.37-3.93,1.75-1.3.38-2.73.58-4.25.58s-3.1-.28-4.5-.84c-1.4-.56-2.64-1.4-3.69-2.49-1.05-1.1-1.89-2.47-2.51-4.09-.62-1.62-.93-3.51-.93-5.63,0-1.87.24-3.62.74-5.2.49-1.59,1.21-2.97,2.15-4.12.94-1.14,2.1-2.05,3.45-2.7,1.35-.66,2.91-.99,4.62-.99s3.17.27,4.41.79c1.24.53,2.3,1.28,3.14,2.24.85.95,1.52,2.1,1.99,3.4.48,1.3.8,2.72.96,4.24.13,1.17-.06,2.06-.55,2.65ZM216.93,317.41c0,.66-.23,1.2-.68,1.6-.45.4-.98.6-1.57.6-.64,0-1.16-.2-1.56-.6-.4-.4-.61-.94-.61-1.6v-15.44c0-1.59-.38-2.73-1.13-3.36-.77-.64-1.9-.97-3.38-.97-.98,0-1.99.31-2.99.91-.99.6-1.82,1.49-2.47,2.65v16.21c0,.66-.23,1.2-.68,1.6-.45.4-.98.6-1.58.6-.63,0-1.15-.2-1.55-.6-.41-.4-.61-.94-.61-1.6v-15.44c0-1.59-.39-2.72-1.16-3.36-.78-.64-1.92-.97-3.4-.97-.98,0-1.98.31-2.97.91-.97.6-1.8,1.46-2.45,2.55v16.31c0,.66-.22,1.2-.68,1.6-.44.4-.97.6-1.57.6-.63,0-1.16-.2-1.56-.6-.4-.4-.6-.94-.6-1.6v-20.6c0-.69.2-1.25.6-1.65.4-.4.93-.61,1.56-.61s1.13.21,1.57.6c.46.4.68.96.68,1.66v.05c.82-.9,1.77-1.59,2.84-2.06,1.16-.51,2.36-.77,3.57-.77,1.82,0,3.35.36,4.56,1.06,1.16.67,2.03,1.64,2.61,2.88.93-1.4,2.06-2.41,3.34-3,1.33-.62,2.64-.94,3.89-.94,2.48,0,4.45.72,5.86,2.15,1.41,1.42,2.12,3.35,2.12,5.74v15.49ZM245.16,303.72c-.29.29-.66.56-1.11.82l-17.71,9.52c-.47.28-.97.42-1.49.42h-.09c-.58-.02-1.02-.27-1.29-.75-.37-.64-.44-1.22-.22-1.75.22-.51.56-.89,1.03-1.13l16.02-8.36-16.02-8.36c-.47-.23-.81-.61-1.03-1.13-.22-.53-.15-1.11.22-1.75.27-.47.71-.73,1.29-.74.55-.02,1.08.1,1.57.37l17.71,9.51c.39.2.75.44,1.07.73.34.31.51.77.51,1.37,0,.51-.15.92-.46,1.23Z" style="fill: #99f464;"/>
        <path d="M152.27,311.98c.22.53.15,1.12-.22,1.75-.27.48-.71.73-1.29.75h-.09c-.52,0-1.02-.14-1.49-.42l-17.7-9.52c-.45-.25-.83-.53-1.12-.82-.31-.31-.46-.72-.46-1.23,0-.6.17-1.06.51-1.37.32-.29.68-.53,1.07-.73l17.7-9.51c.5-.27,1.03-.39,1.58-.37.58.01,1.02.27,1.29.75.37.63.44,1.21.22,1.74-.22.51-.56.89-1.03,1.13l-16.02,8.36,16.02,8.37c.47.23.81.61,1.03,1.12Z" style="fill: #ff73b0;"/>
        <path d="M178.46,307.35c.49-.59.68-1.48.55-2.65-.16-1.52-.48-2.94-.96-4.24-.47-1.3-1.14-2.45-1.99-3.4-.84-.96-1.9-1.71-3.14-2.24-1.24-.52-2.73-.79-4.41-.79s-3.27.33-4.62.99c-1.35.65-2.51,1.56-3.45,2.7-.94,1.15-1.66,2.53-2.15,4.12-.5,1.58-.74,3.33-.74,5.2,0,2.12.31,4.01.93,5.63.62,1.62,1.46,2.99,2.51,4.09,1.05,1.09,2.29,1.93,3.69,2.49,1.4.56,2.91.84,4.5.84s2.95-.2,4.25-.58c1.29-.38,2.62-.97,3.93-1.75.11-.04.24-.11.39-.23.15-.12.29-.27.41-.46.12-.19.2-.42.23-.69.03-.28-.03-.6-.2-.98-.17-.3-.36-.51-.57-.64-.2-.11-.41-.18-.62-.2s-.4.01-.58.08c-.15.06-.28.11-.39.14-2.15,1.13-4.33,1.7-6.47,1.7-1.03,0-2.01-.17-2.92-.49-.91-.33-1.72-.84-2.39-1.51s-1.23-1.55-1.63-2.59c-.39-1.01-.61-2.23-.65-3.64h13.41c1.57,0,2.57-.29,3.08-.9ZM161.98,304.54c.06-.58.2-1.26.4-2.02.22-.8.58-1.57,1.08-2.3.49-.73,1.15-1.34,1.95-1.84.79-.49,1.84-.74,3.1-.74s2.2.25,2.97.74c.77.5,1.4,1.11,1.88,1.84.47.72.82,1.5,1.02,2.3.19.75.3,1.43.35,2.02h-12.75Z" style="fill: #ff73b0;"/>
        <path d="M216.93,301.92v15.49c0,.66-.23,1.2-.68,1.6-.45.4-.98.6-1.57.6-.64,0-1.16-.2-1.56-.6-.4-.4-.61-.94-.61-1.6v-15.44c0-1.59-.38-2.73-1.13-3.36-.77-.64-1.9-.97-3.38-.97-.98,0-1.99.31-2.99.91-.99.6-1.82,1.49-2.47,2.65v16.21c0,.66-.23,1.2-.68,1.6-.45.4-.98.6-1.58.6-.63,0-1.15-.2-1.55-.6-.41-.4-.61-.94-.61-1.6v-15.44c0-1.59-.39-2.72-1.16-3.36-.78-.64-1.92-.97-3.4-.97-.98,0-1.98.31-2.97.91-.97.6-1.8,1.46-2.45,2.55v16.31c0,.66-.22,1.2-.68,1.6-.44.4-.97.6-1.57.6-.63,0-1.16-.2-1.56-.6-.4-.4-.6-.94-.6-1.6v-20.6c0-.69.2-1.25.6-1.65.4-.4.93-.61,1.56-.61s1.13.21,1.57.6c.46.4.68.96.68,1.66v.05c.82-.9,1.77-1.59,2.84-2.06,1.16-.51,2.36-.77,3.57-.77,1.82,0,3.35.36,4.56,1.06,1.16.67,2.03,1.64,2.61,2.88.93-1.4,2.06-2.41,3.34-3,1.33-.62,2.64-.94,3.89-.94,2.48,0,4.45.72,5.86,2.15,1.41,1.42,2.12,3.35,2.12,5.74Z" style="fill: #ff73b0;"/>
        <path d="M245.62,302.49c0,.51-.15.92-.46,1.23-.29.29-.66.56-1.11.82l-17.71,9.52c-.47.28-.97.42-1.49.42h-.09c-.58-.02-1.02-.27-1.29-.75-.37-.64-.44-1.22-.22-1.75.22-.51.56-.89,1.03-1.13l16.02-8.36-16.02-8.36c-.47-.23-.81-.61-1.03-1.13-.22-.53-.15-1.11.22-1.75.27-.47.71-.73,1.29-.74.55-.02,1.08.1,1.57.37l17.71,9.51c.39.2.75.44,1.07.73.34.31.51.77.51,1.37Z" style="fill: #ff73b0;"/>
        <path d="M380.48,549c-.39-.06-.76-.18-1.12-.34.36.15.73.28,1.12.34-.33,1.44-1.26,2.66-2.62,3.57,1.36-.9,2.29-2.12,2.62-3.57Z" style="fill: #ececec;"/>
        <path d="M371.13,554.47c-.03.06-.06.13-.06.2,0,.09.04.17.09.24-.05-.07-.08-.15-.08-.24,0-.07.02-.14.05-.2Z" style="fill: #ececec;"/>
        <path d="M390.94,554.98c.08-.08.13-.19.13-.3s-.05-.23-.13-.31c.08.08.13.19.13.31s-.05.23-.13.31Z" style="fill: #ececec;"/>
        <path d="M381.07,542.05c1.34,0,2.55.26,3.43.72-.88-.47-2.09-.73-3.43-.73-1.57,0-2.94.36-3.83.99.89-.62,2.26-.98,3.83-.98Z" style="fill: #ececec;"/>
        <path d="M381.07,550.11c.06.14.14.26.21.4-.06-.13-.15-.26-.21-.4,0,0,0,0,0,0Z" style="fill: #ececec;"/>
        <path d="M383.54,552.03c-.96-.83-1.62-1.85-1.88-3.02.44-.07.86-.22,1.26-.4-.4.19-.82.34-1.26.4.27,1.17.92,2.2,1.89,3.02Z" style="fill: #ececec;"/>
        <path d="M399.24,765.78c23.54-1.1,46.42-6.28,68.12-15.46,23.74-10.04,45.05-24.4,63.35-42.7,18.29-18.3,32.65-39.61,42.68-63.32,10.41-24.61,15.69-50.73,15.69-77.62s-5.28-53.01-15.69-77.62c-10.04-23.73-24.4-45.04-42.68-63.32-18.28-18.3-39.6-32.67-63.34-42.71-13.35-5.65-27.15-9.78-41.27-12.38-6.24-1.15-12.55-2-18.91-2.55-5.77-.5-11.58-.76-17.44-.76-26.89,0-53.01,5.28-77.62,15.69-13.36,5.65-25.95,12.67-37.67,21-5.19,3.69-10.21,7.63-15.05,11.82-3.64,3.16-7.18,6.45-10.62,9.89-18.29,18.29-32.66,39.6-42.69,63.32-10.41,24.61-15.69,50.73-15.69,77.62s5.28,53.01,15.69,77.62c10.03,23.72,24.39,45.03,42.7,63.35,18.3,18.29,39.61,32.65,63.32,42.68,21.7,9.18,44.58,14.37,68.12,15.47,3.16.15,6.32.23,9.5.23s6.34-.08,9.5-.23ZM326.73,715.78c-19.27-8.16-36.58-19.82-51.44-34.67-14.85-14.86-26.51-32.17-34.67-51.44-8.44-19.97-12.73-41.17-12.73-63s4.28-43.04,12.73-63.01c8.16-19.27,19.82-36.58,34.67-51.43,14.86-14.86,32.17-26.52,51.44-34.68,19.97-8.44,41.17-12.73,63.01-12.73s43.03,4.28,63,12.73c19.27,8.16,36.58,19.82,51.44,34.68,14.85,14.85,26.51,32.16,34.67,51.43,8.44,19.97,12.73,41.17,12.73,63.01s-4.28,43.03-12.73,63c-8.16,19.27-19.82,36.58-34.67,51.44-14.86,14.85-32.17,26.51-51.44,34.67-19.97,8.44-41.17,12.73-63,12.73s-43.04-4.28-63.01-12.73Z" style="fill: #99f464;"/>
        <path d="M389.74,728.5c21.83,0,43.03-4.28,63-12.73,19.27-8.16,36.58-19.82,51.44-34.67,14.85-14.86,26.51-32.17,34.67-51.44,8.44-19.97,12.73-41.17,12.73-63s-4.28-43.04-12.73-63.01c-8.16-19.27-19.82-36.58-34.67-51.43-14.86-14.86-32.17-26.52-51.44-34.68-19.97-8.44-41.17-12.73-63-12.73s-43.04,4.28-63.01,12.73c-19.27,8.16-36.58,19.82-51.44,34.68-14.85,14.85-26.51,32.16-34.67,51.43-8.44,19.97-12.73,41.17-12.73,63.01s4.28,43.03,12.73,63c8.16,19.27,19.82,36.58,34.67,51.44,14.86,14.85,32.17,26.51,51.44,34.67,19.97,8.44,41.17,12.73,63.01,12.73ZM361.85,431.1c8.94-1.83,18.2-2.79,27.68-2.81h.21c9.55,0,18.88.97,27.88,2.81,2.25.46,4.49.98,6.69,1.55,9.95,2.56,19.47,6.19,28.41,10.78,5.97,3.05,11.68,6.54,17.11,10.39.9.64,1.8,1.29,2.69,1.96,2.66,1.99,5.25,4.08,7.76,6.25,2.51,2.18,4.94,4.44,7.29,6.79,14.87,14.87,26.37,33.11,33.26,53.47.36,1.07.72,2.15,1.05,3.24,2.7,8.66,4.56,17.7,5.51,27,.11,1.16.21,2.33.31,3.5.18,2.35.3,4.7.36,7.08.03,1.18.04,2.37.04,3.57,0,76.43-61.95,138.37-138.37,138.37h-.21c-76.33-.11-138.17-62.02-138.17-138.37,0-1.2,0-2.39.05-3.57.06-2.37.18-4.73.35-7.08.09-1.17.2-2.34.31-3.5.95-9.3,2.81-18.34,5.51-27,.33-1.09.69-2.17,1.05-3.24,6.89-20.36,18.39-38.6,33.25-53.47,2.35-2.35,4.79-4.61,7.29-6.79,2.51-2.17,5.1-4.25,7.76-6.25.89-.67,1.79-1.32,2.69-1.96,5.43-3.85,11.14-7.34,17.11-10.39,8.95-4.59,18.46-8.22,28.41-10.78,2.21-.57,4.44-1.09,6.69-1.55Z" style="fill: #fae585;"/>
        <path d="M368.41,545.44c0,.22.02.46.06.69-.04-.22-.07-.46-.05-.68.04-1.19.7-1.48.98-2.33.08-.23.13-.58.13-.91,0,.33-.04.68-.13.92-.28.84-.94,1.13-.98,2.32Z" style="fill: #ff73b0;"/>
        <path d="M368.94,550.45c.34-.5.64-1.04.59-1.67.05-.83-.56-1.45-.91-2.19.34.73.96,1.36.91,2.19.05.63-.25,1.17-.58,1.67Z" style="fill: #ff73b0;"/>
        <path d="M368.6,552.42c.09.21.21.4.34.59-.12-.19-.25-.38-.33-.6-.13-.25-.19-.65-.15-1.01-.05.36.01.76.14,1.01Z" style="fill: #ff73b0;"/>
        <path d="M369.47,555.12c.06-.43.05-.92-.1-1.32-.03-.08-.07-.16-.11-.24.04.08.08.16.11.25.15.39.16.89.1,1.32Z" style="fill: #ff73b0;"/>
        <path d="M368.4,538.96c0,1.07.48,1.46.81,2.05-.33-.6-.8-.98-.8-2.06,0-.62.23-1.05.49-1.42.06,0,.14,0,.2,0-.07,0-.14,0-.21-.01-.26.37-.49.79-.49,1.42Z" style="fill: #ff73b0;"/>
        <path d="M362.43,551.23c.06.15.11.32.12.5,0,.3-.08.56-.21.8.12-.24.21-.5.21-.8-.01-.18-.06-.35-.12-.5Z" style="fill: #ff73b0;"/>
        <path d="M368.55,558.91c-.19-.58-.18-1.29,0-1.8.11-.32.31-.6.49-.88-.18.28-.38.57-.49.88-.19.5-.19,1.21,0,1.79Z" style="fill: #ff73b0;"/>
        <path d="M366.36,535.66c0-.7.62-1.31,1.54-1.64-.92.33-1.54.94-1.54,1.64,0,.3.12.59.32.84h0c-.2-.25-.32-.54-.32-.84Z" style="fill: #ff73b0;"/>
        <path d="M372.6,535.66c0,.51-.33.98-.87,1.32.54-.34.87-.81.87-1.32,0-.66-.55-1.24-1.38-1.58.83.34,1.38.92,1.38,1.58Z" style="fill: #ff73b0;"/>
        <path d="M361.48,536.49h0c.23.79,1.12,1.24,1.12,2.46.05,1-.58,1.56-.91,2.33.33-.77.96-1.33.91-2.32,0-1.23-.89-1.67-1.12-2.46Z" style="fill: #ff73b0;"/>
        <path d="M361.88,547.47c.2-.34.42-.64.57-1-.14.36-.37.67-.57,1Z" style="fill: #ff73b0;"/>
        <path d="M370.11,533.79s.02,0,.04,0c-.01,0-.02,0-.04,0Z" style="fill: #ff73b0;"/>
        <path d="M361.59,541.54s.01-.06.02-.08c0,.03-.01.06-.02.08Z" style="fill: #ff73b0;"/>
        <path d="M362.58,557.7c-.03-.72-.53-1.24-.86-1.87-.26-.53-.29-1.23-.16-1.79.05-.24.16-.46.28-.67-.12.21-.23.42-.28.66-.13.56-.1,1.26.16,1.8.34.62.83,1.15.86,1.87.22,1.69-1.22,2.23-1.09,3.69,0,.32.05.57.14.8-.08-.23-.14-.48-.14-.8-.13-1.46,1.31-2,1.09-3.69Z" style="fill: #ff73b0;"/>
        <path d="M368.97,559.69c-.05-.08-.1-.17-.16-.25-.08-.12-.14-.26-.2-.4.06.14.11.28.2.39.06.08.1.17.16.25Z" style="fill: #ff73b0;"/>
        <path d="M370.7,533.9c.16.04.31.1.46.15-.15-.06-.3-.11-.46-.15Z" style="fill: #ff73b0;"/>
        <path d="M368.41,564.72c.13.61.36,1.01.59,1.34-.23-.33-.46-.73-.58-1.34-.04-.14-.06-.28-.06-.4,0,.13.02.26.06.41Z" style="fill: #ff73b0;"/>
        <path d="M369.11,562.63c.11-.18.22-.36.3-.55.08-.23.12-.46.12-.68,0,.23-.05.46-.12.68-.08.2-.18.38-.29.56Z" style="fill: #ff73b0;"/>
        <path d="M369.46,555.32h0s-.02.06-.03.09c0-.03.02-.06.03-.09Z" style="fill: #ff73b0;"/>
        <path d="M369.08,556.17s-.02.04-.03.06c.01-.02.02-.04.03-.06Z" style="fill: #ff73b0;"/>
        <path d="M399.56,551.71c-.01-.31.04-.63.22-.84.32-.46.69-.95.82-1.52-.13.57-.5,1.06-.82,1.52-.17.2-.23.52-.22.84Z" style="fill: #ff73b0;"/>
        <path d="M400.65,536.49h0c-.15.5-.55.86-.83,1.36.28-.5.69-.86.83-1.36Z" style="fill: #ff73b0;"/>
        <path d="M400.02,544.03c-.21.32-.4.67-.46,1.22.06-.55.25-.9.46-1.22Z" style="fill: #ff73b0;"/>
        <path d="M399.97,559.49c.13.17.24.35.34.53-.1-.18-.21-.36-.34-.53Z" style="fill: #ff73b0;"/>
        <path d="M400.53,562.05c.22-.66.12-1.35-.19-1.98.31.63.41,1.31.19,1.98Z" style="fill: #ff73b0;"/>
        <path d="M400.62,542.64c.03-.25.04-.52,0-.76-.1-.8-.5-1.16-.79-1.68.29.52.69.88.79,1.68.03.24.03.51,0,.76Z" style="fill: #ff73b0;"/>
        <path d="M400.21,556.17c.17-.27.33-.54.38-.85.03-.14.02-.3.03-.46,0,.16,0,.32-.03.46-.05.31-.21.59-.38.86Z" style="fill: #ff73b0;"/>
        <path d="M399.82,552.59c-.03-.06-.07-.12-.09-.18-.03-.05-.04-.13-.07-.19.02.07.04.14.07.19.03.06.06.12.09.17Z" style="fill: #ff73b0;"/>
        <path d="M399.99,547.06c-.13-.22-.25-.45-.34-.69-.07-.22-.1-.47-.1-.72,0,.25.03.51.1.73.09.24.21.46.34.68Z" style="fill: #ff73b0;"/>
        <path d="M395.46,536.49c.09-.12.17-.25.22-.38-.05.13-.13.26-.22.38h0Z" style="fill: #ff73b0;"/>
        <path d="M389.53,535.66c0-.92,1.07-1.69,2.49-1.87-1.42.18-2.49.95-2.49,1.87,0,.55.39,1.05.99,1.39-.61-.35-.99-.84-.99-1.39Z" style="fill: #ff73b0;"/>
        <path d="M395.77,535.66c0,.15-.03.3-.08.44.05-.14.09-.29.09-.44,0-.65-.53-1.22-1.34-1.56.81.35,1.34.92,1.34,1.56Z" style="fill: #ff73b0;"/>
        <path d="M393.04,537.55c.06,0,.13,0,.19,0,.04.06.08.12.12.18-.04-.06-.08-.13-.12-.19-.06,0-.13,0-.19.01Z" style="fill: #ff73b0;"/>
        <path d="M393.32,565.91s.05-.07.07-.11c-.02.04-.05.07-.07.11Z" style="fill: #ff73b0;"/>
        <path d="M393.59,565.38s.03-.06.04-.09c-.01.03-.03.06-.04.09Z" style="fill: #ff73b0;"/>
        <path d="M392.62,548.68c.07-1.33,1.15-1.76,1.1-3.04.13-1.29-1.05-1.89-1.1-3.18-.03-.33,0-.61.08-.87-.07.26-.12.54-.08.87.05,1.28,1.24,1.88,1.1,3.17.06,1.28-1.03,1.71-1.1,3.04-.05.45.05.93.24,1.35.13.25.28.46.42.68-.14-.22-.29-.44-.41-.69-.19-.41-.29-.9-.24-1.34Z" style="fill: #ff73b0;"/>
        <path d="M309.63,453.81c-.9.64-1.8,1.29-2.69,1.96-2.66,1.99-5.25,4.08-7.76,6.25-2.5,2.18-4.94,4.44-7.29,6.79-14.87,14.87-26.37,33.11-33.25,53.47-.36,1.07-.72,2.15-1.05,3.24-2.7,8.66-4.56,17.7-5.51,27-.11,1.16-.21,2.33-.31,3.5-.18,2.35-.3,4.7-.35,7.08-.04,1.18-.05,2.37-.05,3.57,0,76.35,61.84,138.26,138.17,138.37h.21c76.43,0,138.37-61.95,138.37-138.37,0-1.2,0-2.39-.04-3.57-.07-2.37-.19-4.73-.36-7.08-.09-1.17-.2-2.34-.31-3.5-.95-9.3-2.81-18.34-5.51-27-.33-1.09-.69-2.17-1.05-3.24-6.89-20.36-18.39-38.6-33.26-53.47-2.35-2.35-4.78-4.61-7.29-6.79-2.51-2.17-5.1-4.25-7.76-6.25-.89-.67-1.79-1.32-2.69-1.96-5.43-3.85-11.14-7.34-17.11-10.39-8.95-4.59-18.46-8.22-28.41-10.78-2.21-.57-4.44-1.09-6.69-1.55-9-1.84-18.33-2.81-27.88-2.81h-.21c-9.48.02-18.74.98-27.68,2.81-2.25.46-4.49.98-6.69,1.55-9.95,2.56-19.47,6.19-28.41,10.78-5.97,3.05-11.68,6.54-17.11,10.39ZM380.97,510.78l10.75-20.68.78,23.24,18.75-14.01-9.48,21.28,23.02-4.57-4.39,3.71c11.62.47,20.96,16.81,20.96,36.91s-9.62,36.92-21.48,36.92c-9.84,0-18.13-11.39-20.67-26.92h1.29s0,0,0,0h-7.71s0,0,0,0h5.57c1.12,2.23,1.81,4.7,1.96,7.34l1.28,21.48c.27,4.57-1.01,8.86-3.37,12.4l.31,7.76c3.38-2.99,7.36-4.72,11.64-4.72,12.14,0,21.99,13.95,21.99,31.15,0,11.4-4.34,21.38-10.79,26.8,1.37.97,2.27,2.55,2.27,4.35,0,2.94-2.41,5.33-5.38,5.33-1.87,0-3.51-.93-4.48-2.36-.97,1.42-2.61,2.36-4.47,2.36-1.4,0-2.66-.53-3.62-1.39-.95.86-2.22,1.39-3.61,1.39-2.98,0-5.39-2.38-5.39-5.33,0-1.8.9-3.38,2.27-4.35-6.45-5.43-10.79-15.4-10.79-26.8,0-8.24,2.26-15.72,5.96-21.3l-.33-8.12c-1.75,1.38-3.73,2.47-5.87,3.22-2.15.75-4.47,1.16-6.88,1.16-4.83,0-9.25-1.64-12.75-4.39l-.33,8.12c3.7,5.58,5.96,13.06,5.96,21.3,0,11.4-4.33,21.38-10.79,26.8,1.37.97,2.27,2.55,2.27,4.35,0,2.94-2.41,5.33-5.38,5.33-1.87,0-3.51-.93-4.48-2.36-.97,1.42-2.61,2.36-4.47,2.36-1.4,0-2.66-.53-3.62-1.39-.95.86-2.22,1.39-3.61,1.39-2.98,0-5.39-2.38-5.39-5.33,0-1.8.9-3.38,2.27-4.35-6.45-5.43-10.79-15.4-10.79-26.8,0-17.2,9.85-31.15,22-31.15,4.26,0,8.25,1.73,11.63,4.72l.31-7.76c-2.36-3.54-3.64-7.83-3.37-12.4l1.28-21.48c.16-2.63.85-5.11,1.96-7.34h5.65c-.05-.08-.11-.17-.17-.25.06.08.12.17.17.25h-7.72c.34-.56.92-1.04.92-2.03,0-.2-.02-.37-.05-.53.03.16.05.34.05.53,0,.99-.58,1.47-.92,2.04h1.23c-2.53,15.53-10.83,26.92-20.67,26.92-11.86,0-21.48-16.53-21.48-36.92s9.11-36.04,20.53-36.9l-4.11-3.43,23.06,4.41-9.63-21.21,18.84,13.88.62-23.25,10.89,20.6ZM438.4,507.33c1.96,0,3.33,1.42,3.33,3.44s-1.4,3.44-3.33,3.44-3.33-1.48-3.33-3.44,1.43-3.44,3.33-3.44ZM435.52,482h5.76l-.65,22.12h-4.46l-.65-22.12ZM448.08,523.54l29.18-40.71,4.24,2.97-29.19,40.71-4.23-2.97ZM473.39,470.03l-.48,5.12-50.2-4.67.48-5.11,50.2,4.66Z" style="fill: #ff73b0;"/>
        <path d="M369.46,513.42l-18.84-13.88,9.63,21.21-23.06-4.41,4.11,3.43c-11.42.86-20.53,17.04-20.53,36.9s9.62,36.92,21.48,36.92c9.84,0,18.14-11.39,20.67-26.92h-1.23c.34-.57.92-1.05.92-2.04,0-.2-.02-.37-.05-.53-.16-.83-.68-1.25-.92-1.91-.09-.23-.14-.48-.14-.8-.13-1.46,1.31-2,1.09-3.69-.03-.72-.52-1.25-.86-1.87-.26-.54-.29-1.24-.16-1.8.05-.24.16-.46.28-.66.16-.28.35-.55.5-.83.12-.24.21-.5.21-.8-.01-.18-.06-.35-.12-.5-.17-.42-.47-.77-.69-1.22-.19-.41-.29-.9-.24-1.34.02-.5.19-.87.39-1.21.2-.34.42-.64.57-1,.1-.24.15-.51.14-.83.13-1.29-1.05-1.89-1.1-3.18-.04-.35.01-.65.09-.92,0-.03.01-.06.02-.08.02-.06.05-.12.08-.18.33-.77.96-1.33.91-2.33,0-1.22-.88-1.67-1.12-2.46h0s0,0,0,0h5.19c-.2-.25-.32-.54-.32-.84,0-.7.62-1.3,1.54-1.64.47-.17,1-.27,1.58-.27.22,0,.43.01.63.04.01,0,.02,0,.04,0,.19.03.37.06.55.1.16.04.31.1.46.15.02,0,.05.01.07.02.83.34,1.38.92,1.38,1.58,0,.52-.33.98-.87,1.32-.57.36-1.36.59-2.25.59-.13,0-.25-.01-.38-.02-.07,0-.14,0-.2,0-.26.36-.49.79-.49,1.42,0,1.08.48,1.46.8,2.06.13.24.24.51.29.87.01.1.02.21.02.32,0,.33-.04.68-.13.91-.28.85-.94,1.14-.98,2.33-.01.22.01.46.05.68.02.08.03.17.05.25.03.07.06.15.09.22.34.74.96,1.36.91,2.19.05.63-.25,1.18-.59,1.67-.09.14-.19.28-.29.41-.12.14-.17.33-.2.54-.04.36.02.75.15,1.01.09.21.21.41.33.6.12.18.23.36.33.55.04.08.08.16.11.24.15.4.16.89.1,1.32,0,.06,0,.14-.01.19,0,0,0,0,0,0h0s-.02.06-.03.09c-.06.27-.19.52-.34.76-.01.02-.02.04-.03.06,0,0,0,0,0,0-.18.28-.38.56-.49.88-.19.5-.2,1.21,0,1.8.02.05.05.09.07.13.06.14.11.28.2.4.06.08.1.17.16.25.35.53.57,1.11.55,1.7,0,.23-.04.46-.12.68-.08.2-.18.38-.3.55-.34.55-.76,1.04-.75,1.69,0,.13.02.26.06.4.12.61.36,1.01.58,1.34.08.12.16.24.23.35.06.08.12.17.17.25h-5.65c-1.11,2.23-1.8,4.7-1.96,7.34l-1.28,21.48c-.27,4.57,1.01,8.86,3.37,12.4l-.31,7.76c-3.38-2.99-7.36-4.72-11.63-4.72-12.15,0-22,13.95-22,31.15,0,11.4,4.34,21.38,10.79,26.8-1.37.97-2.27,2.55-2.27,4.35,0,2.94,2.41,5.33,5.39,5.33,1.39,0,2.66-.53,3.61-1.39.96.86,2.23,1.39,3.62,1.39,1.86,0,3.5-.93,4.47-2.36.97,1.42,2.61,2.36,4.48,2.36,2.97,0,5.38-2.38,5.38-5.33,0-1.8-.9-3.38-2.27-4.35,6.46-5.43,10.79-15.4,10.79-26.8,0-8.24-2.26-15.72-5.96-21.3l.33-8.12c3.5,2.75,7.92,4.39,12.75,4.39,2.41,0,4.73-.41,6.88-1.16,2.14-.75,4.12-1.84,5.87-3.22l.33,8.12c-3.7,5.58-5.96,13.06-5.96,21.3,0,11.4,4.34,21.38,10.79,26.8-1.37.97-2.27,2.55-2.27,4.35,0,2.94,2.41,5.33,5.39,5.33,1.39,0,2.66-.53,3.61-1.39.96.86,2.23,1.39,3.62,1.39,1.86,0,3.5-.93,4.47-2.36.97,1.42,2.61,2.36,4.48,2.36,2.97,0,5.38-2.38,5.38-5.33,0-1.8-.9-3.38-2.27-4.35,6.45-5.43,10.79-15.4,10.79-26.8,0-17.2-9.85-31.15-21.99-31.15-4.27,0-8.26,1.73-11.64,4.72l-.31-7.76c2.36-3.54,3.64-7.83,3.37-12.4l-1.28-21.48c-.16-2.63-.85-5.11-1.96-7.34h-5.57s0,0,0,0h0c.15-.25.34-.48.52-.75.02-.04.05-.07.07-.11.08-.13.14-.27.19-.43.01-.03.03-.06.04-.09.06-.19.1-.41.1-.66,0-1.57-1.14-1.84-1.11-3.24-.13-1.46,1.31-2,1.09-3.69-.03-.72-.53-1.24-.86-1.87-.26-.53-.29-1.23-.16-1.79.18-.85,1.01-1.39.99-2.3-.03-.4-.2-.72-.4-1.03-.14-.22-.29-.44-.42-.68-.2-.42-.29-.9-.24-1.35.06-1.32,1.15-1.76,1.1-3.04.14-1.29-1.05-1.89-1.1-3.17-.03-.33,0-.61.08-.87.27-.95,1.07-1.51,1.02-2.63,0-.53-.17-.91-.37-1.23-.04-.06-.08-.13-.12-.18-.06,0-.13,0-.19,0-.13.01-.26.02-.39.02-.83,0-1.57-.2-2.13-.52-.61-.35-.99-.84-.99-1.39,0-.92,1.07-1.69,2.49-1.87.2-.03.41-.04.63-.04.66,0,1.28.13,1.78.35.81.35,1.34.92,1.34,1.56,0,.15-.03.3-.09.44,0,0,0,.01-.01.02-.05.13-.13.26-.22.38h5.19s0,0,0,0c-.15.5-.55.86-.83,1.36-.17.3-.29.65-.29,1.1,0,.56.14.93.31,1.25.29.52.69.88.79,1.68.03.23.02.51,0,.76-.02.18-.05.34-.1.47-.12.37-.32.63-.5.91-.21.32-.4.67-.46,1.22,0,.06-.02.12-.02.19,0,.07,0,.14,0,.21,0,.25.03.5.1.72.09.24.21.47.34.69.33.55.7,1.08.66,1.72.02.2,0,.38-.05.56-.13.57-.5,1.06-.82,1.52-.17.21-.23.52-.22.84,0,.19.04.36.09.52.02.06.04.14.07.19.03.06.06.12.09.18.22.41.53.77.69,1.21.12.31.14.69.12,1.05,0,.16,0,.32-.03.46-.05.31-.21.58-.38.85-.19.31-.41.61-.53.95-.25.66-.18,1.71.26,2.32.01.02.02.03.03.05.13.17.24.35.34.53,0,.02.02.03.03.05.31.63.42,1.31.19,1.98,0,0,0,.01,0,.02-.37.94-1.3,1.56-.99,2.65.21,1.01.7,1.45.99,1.94h0s0,0,0,0h-1.29c2.54,15.53,10.83,26.92,20.67,26.92,11.86,0,21.48-16.53,21.48-36.92s-9.34-36.44-20.96-36.91l4.39-3.71-23.02,4.57,9.48-21.28-18.75,14.01-.78-23.24-10.75,20.68-10.89-20.6-.62,23.25ZM390.62,554.24c.12,0,.23.05.31.13.08.08.13.19.13.31s-.05.22-.13.3c-.08.08-.19.13-.31.13-4.54,0-7.99-1.8-9.35-4.6-.07-.13-.15-.26-.21-.4-1.21,3.03-4.8,4.99-9.55,4.99-.15,0-.28-.08-.36-.19-.05-.07-.09-.15-.09-.24,0-.07.02-.14.06-.2.07-.14.22-.24.39-.24,2.57,0,4.76-.61,6.35-1.66,1.36-.9,2.29-2.12,2.62-3.57-.39-.06-.76-.18-1.12-.34-1.84-.79-3.15-2.66-3.15-3.93,0-.68.39-1.25,1.03-1.7.89-.62,2.26-.99,3.83-.99,1.34,0,2.55.26,3.43.73.88.47,1.42,1.14,1.42,1.96,0,1.24-1.25,3.05-3.01,3.87-.4.19-.81.34-1.26.4.27,1.17.92,2.19,1.88,3.02,1.61,1.39,4.1,2.21,7.09,2.21Z" style="fill: #fff;"/>
        <path d="M366.36,535.66c0,.3.12.58.32.84h2.84c-.11.39-.38.69-.63,1.04.07,0,.14,0,.21.01.13,0,.25.02.38.02.89,0,1.68-.23,2.25-.59.54-.34.87-.81.87-1.32,0-.66-.55-1.24-1.38-1.58-.02,0-.05-.01-.07-.02-.15-.06-.3-.11-.46-.15-.17-.05-.36-.08-.55-.1-.01,0-.02,0-.04,0-.2-.03-.42-.04-.63-.04-.58,0-1.12.1-1.58.27-.92.33-1.54.94-1.54,1.64Z" style="fill: #606060;"/>
        <path d="M392.61,536.49h2.85c.1-.12.17-.25.22-.38,0,0,0-.01.01-.02.05-.14.08-.29.08-.44,0-.65-.53-1.22-1.34-1.56-.51-.22-1.12-.35-1.78-.35-.22,0-.43.01-.63.04-1.42.18-2.49.95-2.49,1.87,0,.55.38,1.04.99,1.39.56.32,1.3.52,2.13.52.13,0,.26-.01.39-.02.06,0,.13,0,.19-.01-.25-.35-.51-.66-.63-1.04Z" style="fill: #606060;"/>
        <path d="M381.65,549c.44-.06.86-.22,1.26-.4,1.76-.82,3.01-2.63,3.01-3.87,0-.82-.54-1.49-1.42-1.96-.88-.46-2.09-.72-3.43-.72-1.56,0-2.94.36-3.83.98-.63.44-1.03,1.01-1.03,1.7,0,1.27,1.31,3.15,3.15,3.93.36.15.73.28,1.12.34-.33,1.45-1.26,2.67-2.62,3.57-1.59,1.05-3.78,1.66-6.35,1.66-.17,0-.31.1-.39.24-.03.06-.05.13-.05.2,0,.09.04.17.08.24.08.11.21.19.36.19,4.75,0,8.35-1.97,9.55-4.99,0,0,0,0,0,0,.06.14.14.26.21.4,1.36,2.8,4.81,4.6,9.35,4.6.12,0,.23-.05.31-.13.08-.08.13-.19.13-.31s-.05-.23-.13-.31-.19-.13-.31-.13c-2.99,0-5.47-.82-7.09-2.21-.96-.83-1.62-1.85-1.89-3.02Z" style="fill: #606060;"/>
        <path d="M368.41,564.72c-.04-.14-.06-.28-.06-.41,0-.64.41-1.13.75-1.69.11-.18.22-.36.29-.56.08-.23.12-.45.12-.68.02-.59-.2-1.17-.55-1.7-.05-.08-.1-.17-.16-.25-.08-.11-.14-.25-.2-.39-.02-.05-.05-.08-.07-.13-.19-.58-.19-1.3,0-1.79.12-.32.31-.6.49-.88,0,0,0,0,0,0,.01-.02.02-.04.03-.06.15-.24.28-.49.34-.76,0-.03.02-.06.03-.09,0,0,0,0,0,0,.01-.06,0-.13.01-.19.06-.43.05-.92-.1-1.32-.03-.09-.07-.17-.11-.25-.1-.19-.21-.37-.33-.55-.12-.19-.25-.38-.34-.59-.13-.26-.19-.65-.14-1.01.03-.21.08-.4.2-.54.09-.13.19-.27.29-.41.33-.5.64-1.04.58-1.67.05-.83-.57-1.46-.91-2.19-.03-.07-.07-.14-.09-.22-.02-.08-.03-.17-.05-.25-.04-.23-.07-.46-.06-.69.04-1.19.7-1.48.98-2.32.09-.23.13-.59.13-.92,0-.11,0-.22-.02-.32-.05-.37-.16-.63-.29-.87-.33-.6-.8-.98-.81-2.05,0-.63.23-1.05.49-1.42.25-.35.51-.66.63-1.04h-8.04s0,0,0,0c.23.79,1.12,1.24,1.12,2.46.04.99-.58,1.55-.91,2.32-.03.06-.06.11-.08.18,0,.03-.01.06-.02.08-.08.27-.13.56-.09.92.05,1.28,1.23,1.89,1.1,3.18.01.32-.05.59-.14.83-.14.36-.37.67-.57,1-.2.34-.37.71-.39,1.21-.05.44.05.93.24,1.34.23.44.53.79.69,1.22.06.15.11.32.12.5,0,.3-.08.56-.21.8-.14.29-.33.55-.5.83-.12.21-.23.42-.28.67-.13.56-.1,1.26.16,1.79.33.63.83,1.16.86,1.87.23,1.69-1.22,2.23-1.09,3.69,0,.32.05.57.14.8.24.66.76,1.08.92,1.91.03.16.05.34.05.53,0,.99-.58,1.47-.92,2.03h7.72c-.05-.08-.11-.17-.17-.25-.08-.11-.15-.23-.23-.35-.23-.33-.46-.73-.59-1.34Z" style="fill: #bdbdbd;"/>
        <path d="M399.54,564.72c-.31-1.08.62-1.71.99-2.65,0,0,0-.01,0-.02.22-.66.12-1.35-.19-1.98,0-.02-.02-.03-.03-.05-.1-.18-.21-.36-.34-.53-.01-.02-.02-.03-.03-.05-.44-.61-.51-1.66-.26-2.32.12-.34.34-.64.53-.95.17-.27.32-.54.38-.86.03-.14.03-.3.03-.46.02-.36,0-.74-.12-1.05-.15-.44-.47-.8-.69-1.21-.03-.06-.07-.11-.09-.17-.03-.05-.04-.13-.07-.19-.05-.16-.09-.33-.09-.52-.01-.31.04-.63.22-.84.32-.46.69-.95.82-1.52.04-.18.06-.37.05-.56.04-.65-.33-1.17-.66-1.72-.13-.22-.26-.45-.34-.68-.07-.22-.1-.48-.1-.73,0-.07-.01-.14,0-.21,0-.07.01-.13.02-.19.06-.55.25-.9.46-1.22.18-.28.38-.54.5-.91.05-.13.08-.3.1-.47.03-.25.04-.53,0-.76-.1-.8-.5-1.16-.79-1.68-.17-.31-.3-.69-.31-1.25,0-.46.12-.8.29-1.1.28-.5.68-.86.83-1.36h0s-5.19,0-5.19,0h-2.85c.11.39.38.69.63,1.04.04.06.08.12.12.19.21.33.37.71.37,1.23.05,1.12-.75,1.69-1.02,2.63-.07.26-.12.54-.08.87.05,1.28,1.23,1.89,1.1,3.18.05,1.28-1.03,1.71-1.1,3.04-.05.44.05.93.24,1.34.13.25.28.47.41.69.2.31.37.63.4,1.03.02.91-.8,1.46-.99,2.3-.13.56-.1,1.26.16,1.79.33.63.83,1.16.86,1.87.23,1.69-1.22,2.23-1.09,3.69-.03,1.41,1.1,1.67,1.11,3.24,0,.25-.04.46-.1.66-.01.03-.03.06-.04.09-.06.15-.12.3-.19.43-.02.04-.05.07-.07.11-.17.27-.36.5-.52.75h7.72c-.28-.49-.78-.93-.99-1.94Z" style="fill: #bdbdbd;"/>
        <polygon points="477.26 482.83 448.08 523.54 452.31 526.51 481.49 485.8 477.26 482.83" style="fill: #fff;"/>
        <polygon points="423.19 465.37 422.71 470.48 472.91 475.15 473.39 470.03 423.19 465.37" style="fill: #fff;"/>
        <polygon points="440.63 504.12 441.28 482 435.52 482 436.17 504.12 440.63 504.12" style="fill: #fae585;"/>
        <path d="M438.4,514.21c1.94,0,3.33-1.45,3.33-3.44s-1.37-3.44-3.33-3.44-3.33,1.48-3.33,3.44,1.43,3.44,3.33,3.44Z" style="fill: #fae585;"/>
        <path d="M632.54,878.12c0-41.81-33.9-75.71-75.71-75.71H222.64c-41.81,0-75.71,33.89-75.71,75.71h0c0,41.81,33.89,75.71,75.71,75.71h334.19c41.81,0,75.71-33.89,75.71-75.71h0ZM548.55,887.3c.42,0,.79.14,1.11.42.33.29.49.67.49,1.16l-.17,14.42c0,.42-.15.76-.45,1.01-.29.24-.62.36-.98.36-.38,0-.7-.12-.96-.35-.26-.24-.39-.57-.39-.99l-.17-14.45c0-.48.15-.87.45-1.15.29-.28.65-.43,1.07-.43ZM526.02,845.62c0-.44.15-.8.43-1.05.28-.25.63-.38,1.03-.38s.74.13,1.03.38c.29.26.43.61.43,1.05v5.38c0,.37.07.64.2.79.13.15.37.22.72.22h13.37c.38,0,.69.12.92.36.23.24.34.54.34.9,0,.34-.11.64-.34.87-.23.24-.53.36-.92.36h-14.45c-.96,0-1.67-.24-2.11-.71-.44-.47-.66-1.13-.66-1.97v-6.19ZM521.93,891.23c.45-.87,1.1-1.62,1.94-2.24.83-.62,1.85-1.1,3.03-1.43,1.18-.33,2.52-.5,4-.5s2.83.17,4.02.5c1.19.33,2.21.81,3.03,1.43.83.62,1.47,1.37,1.91,2.24.44.87.67,1.83.67,2.88s-.22,2.01-.67,2.88c-.44.87-1.08,1.62-1.91,2.24-.82.62-1.84,1.1-3.03,1.43-1.19.33-2.54.5-4.02.5s-2.83-.17-4-.5c-1.18-.33-2.2-.81-3.03-1.43-.84-.62-1.49-1.37-1.94-2.24-.45-.87-.68-1.83-.68-2.88s.23-2.01.68-2.88ZM493.78,887.22c.23-.24.55-.36.95-.36h6.1c.4,0,.72.12.95.36.23.24.34.54.34.9s-.11.66-.34.9c-.23.24-.54.36-.95.36h-6.1c-.4,0-.72-.12-.95-.36-.23-.24-.34-.54-.34-.9s.11-.66.34-.9ZM469.94,857.72c.05-.18.15-.34.28-.47.12-.12.26-.22.39-.3.14-.07.25-.12.33-.14,1.03-.27,2.04-.64,2.98-1.1.94-.46,1.79-1.04,2.51-1.74.72-.69,1.3-1.52,1.73-2.45.43-.93.64-2.01.64-3.2v-1.48c0-.48.15-.86.45-1.12.29-.26.65-.4,1.07-.4s.77.13,1.05.4c.28.27.42.64.42,1.12v1.48c0,1.2.21,2.27.63,3.19.42.92.99,1.73,1.7,2.42.71.69,1.55,1.27,2.48,1.74.94.47,1.93.84,2.97,1.11.09.02.2.07.33.14.14.07.27.17.39.3.13.13.22.29.28.47.06.19.04.41-.05.64-.08.27-.21.48-.37.61-.16.13-.33.21-.52.26-.18.04-.35.05-.51.03-.15-.02-.26-.04-.32-.06-.97-.23-1.92-.55-2.81-.94-.9-.39-1.74-.86-2.49-1.39-.76-.54-1.43-1.15-2-1.81-.5-.59-.91-1.22-1.22-1.89-.32.69-.75,1.33-1.27,1.92-.59.66-1.27,1.27-2.03,1.81-.76.54-1.6,1-2.51,1.39-.9.39-1.85.7-2.82.94-.06.02-.16.04-.32.06-.05,0-.11.01-.16.01-.11,0-.22-.01-.33-.04-.17-.04-.34-.13-.5-.26-.17-.13-.29-.34-.38-.61-.08-.23-.1-.45-.04-.64ZM468.05,864.86c.23-.24.55-.36.95-.36h9.84v-4.26c0-.44.15-.8.43-1.05.28-.25.63-.38,1.03-.38s.74.13,1.03.38c.29.26.43.61.43,1.05v4.26h9.7c.4,0,.72.12.95.36.23.24.34.54.34.9s-.12.66-.34.89c-.23.23-.54.34-.95.34h-22.47c-.4,0-.72-.12-.95-.34-.23-.23-.34-.53-.34-.89s.11-.66.34-.9ZM435.92,845.62c0-.44.15-.8.43-1.05.28-.25.63-.38,1.03-.38s.74.13,1.03.38c.29.26.43.61.43,1.05v5.38c0,.37.07.64.2.79.13.15.37.22.72.22h13.37c.38,0,.69.12.92.36.23.24.34.54.34.9,0,.34-.11.64-.34.87-.23.24-.53.36-.92.36h-14.45c-.96,0-1.67-.24-2.11-.71-.44-.47-.66-1.13-.66-1.97v-6.19ZM432.59,857.56c.23-.24.55-.36.95-.36h22.47c.4,0,.72.12.95.36.23.24.34.54.34.9s-.12.66-.34.89c-.23.23-.54.34-.95.34h-22.47c-.4,0-.72-.12-.95-.34-.23-.23-.34-.53-.34-.89s.11-.66.34-.9ZM438.75,867.77c.13.15.37.22.72.22h13.52c.38,0,.69.12.92.36.23.24.34.54.34.9,0,.34-.11.63-.34.87-.23.24-.54.36-.92.36h-14.59c-.96,0-1.67-.24-2.11-.71-.44-.47-.66-1.13-.66-1.97v-4.59c0-.44.15-.8.43-1.05.28-.25.63-.38,1.03-.38s.74.13,1.03.38c.29.26.43.61.43,1.05v3.78c0,.37.07.64.2.79ZM431.87,887.22c.23-.24.55-.36.95-.36h6.77c.4,0,.72.12.95.36.23.24.34.54.34.9s-.11.67-.34.9c-.23.24-.54.36-.95.36h-6.77c-.4,0-.72-.12-.95-.36-.23-.24-.34-.54-.34-.9s.11-.66.34-.9ZM404.98,863.61c.11-.16.24-.29.4-.39.16-.09.32-.16.49-.19.16-.03.3-.05.4-.05,1.05-.02,2.11-.05,3.15-.09,1.02-.04,2.07-.08,3.12-.14v-5.02h-2.49c-.96,0-1.67-.24-2.11-.71-.44-.47-.66-1.13-.66-1.97v-6.69c0-.84.22-1.51.66-1.97.44-.47,1.15-.71,2.11-.71h9.13c.38,0,.69.13.92.37.22.25.34.54.34.88,0,.36-.12.66-.34.89-.23.23-.53.34-.92.34h-8.05c-.35,0-.59.07-.72.22-.13.15-.2.42-.2.79v5.06c0,.37.07.64.2.79.13.15.37.22.72.22h8.34c.38,0,.69.12.92.36.23.24.34.54.34.9,0,.34-.11.64-.34.87-.23.24-.54.36-.92.36h-4v4.83c1.13-.08,2.26-.17,3.38-.27,1.14-.1,2.28-.23,3.4-.36.09,0,.2,0,.34-.01.16-.01.33.01.5.06.17.05.33.15.47.29.15.15.24.37.28.67.04.28.01.51-.09.69-.09.17-.21.31-.35.42-.14.11-.29.18-.45.23-.15.04-.26.07-.34.09-1.26.16-2.58.3-3.93.42-1.34.12-2.71.23-4.07.32-1.37.09-2.74.16-4.09.22-1.36.06-2.68.1-3.93.12-.1,0-.24,0-.4-.01-.17,0-.35-.05-.54-.11-.2-.06-.37-.18-.52-.34-.16-.17-.24-.4-.27-.7-.04-.27,0-.5.11-.67ZM377.09,887.1c0-.44.14-.8.42-1.06.27-.26.62-.4,1.02-.4s.75.13,1.04.4c.3.27.45.62.45,1.07v1.04h12.33v-1.04c0-.44.14-.8.42-1.06.27-.26.62-.4,1.02-.4s.75.13,1.03.4c.29.27.43.62.43,1.07v5.44c0,.84-.22,1.51-.66,1.97-.44.47-1.15.71-2.11.71h-12.61c-.96,0-1.67-.24-2.11-.71-.44-.47-.66-1.13-.66-1.97v-5.44ZM368.81,845.03c0-.44.14-.8.42-1.06.28-.26.62-.4,1.02-.4s.75.13,1.03.4c.29.27.43.62.43,1.07v6.47h3.16c.38,0,.69.12.92.36.23.24.34.53.34.87,0,.36-.11.66-.34.9-.23.24-.54.36-.92.36h-3.16v8.16c0,.44-.15.8-.43,1.05-.28.25-.63.38-1.03.38s-.74-.13-1.01-.38c-.28-.26-.42-.61-.42-1.05v-17.12ZM351.19,846.43c0-.44.14-.8.42-1.06.27-.26.62-.4,1.02-.4s.75.13,1.03.4c.29.27.43.62.43,1.07v3.07h7.51v-3.16c0-.44.14-.8.42-1.06.27-.26.62-.4,1.02-.4s.75.13,1.03.4c.29.27.43.62.43,1.07v9.16c0,.84-.22,1.51-.66,1.97-.44.47-1.15.71-2.11.71h-7.76c-.96,0-1.67-.24-2.11-.71-.44-.47-.66-1.13-.66-1.97v-9.07ZM343.65,886.69c1.69-.79,4.07-1.19,7.06-1.19s5.38.4,7.06,1.19c1.71.8,2.57,2.08,2.57,3.79s-.87,2.99-2.57,3.79c-1.68.79-4.05,1.19-7.06,1.19s-5.36-.4-7.06-1.19c-1.73-.8-2.6-2.08-2.6-3.79s.88-2.99,2.6-3.79ZM318.4,846.11c.23-.24.55-.36.95-.36h14.1c1.09,0,1.88.21,2.35.63.47.42.71,1.09.71,2,0,.85-.04,1.81-.12,2.86-.08,1.04-.17,2.09-.29,3.12-.11,1-.24,1.97-.38,2.87-.14.88-.26,1.58-.38,2.09-.02.1-.06.23-.12.39-.06.17-.16.33-.28.47-.13.15-.31.27-.53.35-.13.05-.28.07-.45.07-.12,0-.25-.01-.39-.04-.34-.06-.58-.18-.74-.34-.15-.16-.25-.34-.31-.53-.05-.19-.06-.38-.03-.56.03-.17.05-.3.07-.4.08-.42.18-1.03.29-1.81.12-.8.22-1.67.32-2.6.1-.91.18-1.85.26-2.79.08-.93.12-1.73.12-2.4,0-.57-.13-.73-.2-.78-.15-.09-.37-.14-.63-.14h-13.37c-.84,0-1.29-.42-1.29-1.2,0-.36.11-.66.34-.9ZM315.17,864.71c.23-.24.55-.36.95-.36h8.36v-7.93c0-.44.15-.8.43-1.05.28-.25.63-.38,1.03-.38s.74.13,1.03.38c.29.26.43.61.43,1.05v7.93h11.18c.4,0,.72.12.95.36.23.24.34.54.34.9s-.12.66-.34.89c-.23.23-.54.34-.95.34h-22.47c-.4,0-.72-.12-.95-.34-.23-.23-.34-.52-.34-.89s.11-.66.34-.9ZM314.31,888.62c0-.84.22-1.51.66-1.97.44-.47,1.15-.71,2.11-.71h13.98c.38,0,.69.13.92.37.22.25.34.54.34.88,0,.36-.11.66-.34.89-.23.23-.53.34-.92.34h-12.91c-.35,0-.59.07-.72.22-.13.15-.2.42-.2.79v2.01c0,.37.07.64.2.79.13.15.37.22.72.22h13.2c.38,0,.69.12.92.36.23.24.34.54.34.9,0,.34-.11.64-.34.87-.23.24-.54.36-.92.36h-14.27c-.96,0-1.67-.24-2.11-.71-.44-.47-.66-1.13-.66-1.97v-3.63ZM262.42,857.72c.05-.18.15-.34.28-.47.12-.12.26-.22.39-.3.14-.07.25-.12.33-.14,1.03-.27,2.04-.64,2.98-1.1.94-.46,1.79-1.04,2.51-1.74.72-.69,1.3-1.52,1.73-2.45.43-.93.64-2.01.64-3.2v-.28h-6.88c-.4,0-.72-.11-.95-.34-.23-.23-.34-.53-.34-.89,0-.79.45-1.2,1.29-1.2h16.68c.84,0,1.29.42,1.29,1.2,0,.36-.11.66-.34.89-.23.23-.55.34-.95.34h-6.82v.28c0,1.2.21,2.27.63,3.19.42.92.99,1.73,1.7,2.42.71.69,1.55,1.27,2.48,1.74.94.47,1.93.84,2.97,1.11.09.02.2.07.33.14.14.07.27.17.39.3.13.13.22.29.28.47.06.19.04.41-.05.64-.08.27-.21.48-.37.61-.16.13-.33.21-.52.26-.18.04-.35.05-.51.03-.15-.02-.26-.04-.33-.06-.96-.23-1.91-.55-2.8-.93-.9-.39-1.74-.86-2.49-1.39-.76-.54-1.43-1.15-2-1.81-.5-.59-.91-1.22-1.22-1.89-.32.69-.75,1.33-1.27,1.92-.59.66-1.27,1.27-2.03,1.81-.76.54-1.6,1-2.51,1.39-.9.39-1.85.7-2.82.94-.06.02-.16.04-.32.06-.05,0-.11.01-.16.01-.11,0-.22-.01-.33-.04-.17-.04-.34-.13-.5-.26-.17-.13-.29-.34-.38-.61-.08-.23-.1-.45-.04-.64ZM260.53,864.86c.23-.24.55-.36.95-.36h9.84v-4.26c0-.44.15-.8.43-1.05.28-.25.63-.38,1.03-.38s.74.13,1.03.38c.29.26.43.61.43,1.05v4.26h9.7c.4,0,.72.12.95.36.23.24.34.54.34.9s-.12.66-.34.89c-.23.23-.54.34-.95.34h-22.47c-.4,0-.72-.12-.95-.34-.23-.23-.34-.53-.34-.89s.11-.66.34-.9ZM251.39,845.03c0-.44.14-.8.42-1.06.28-.26.62-.4,1.02-.4s.75.13,1.03.4c.29.27.43.62.43,1.07v4.99h3.16c.38,0,.69.12.92.36.23.24.34.53.34.87,0,.36-.11.66-.34.9-.23.24-.54.36-.92.36h-3.16v5.69c0,.44-.15.8-.43,1.05-.28.25-.63.38-1.03.38s-.74-.13-1.01-.38c-.28-.26-.42-.61-.42-1.05v-13.17ZM233.17,857.84c.04-.18.12-.34.23-.48.11-.14.23-.25.37-.32.13-.07.23-.12.31-.16,1.14-.39,2.25-.87,3.3-1.44,1.04-.56,2-1.2,2.86-1.88.85-.68,1.6-1.42,2.22-2.22.62-.79,1.08-1.61,1.36-2.45.14-.38.14-.66,0-.83-.14-.17-.39-.26-.73-.26h-7.76c-.4,0-.72-.11-.95-.34-.23-.23-.34-.52-.34-.89s.11-.66.34-.9c.23-.24.55-.36.95-.36h8.98c.96,0,1.68.22,2.13.64.47.43.62,1.12.46,2.03-.22,1.25-.66,2.44-1.32,3.54-.66,1.1-1.51,2.13-2.54,3.07-1.02.93-2.2,1.78-3.51,2.53-1.31.75-2.73,1.39-4.22,1.91-.09.04-.22.08-.38.13-.14.04-.3.07-.47.07-.03,0-.07,0-.1,0-.21-.01-.42-.07-.61-.18-.2-.11-.36-.3-.49-.58-.11-.24-.14-.46-.09-.65ZM230.88,901.07c-.14.04-.3.07-.46.07-.03,0-.07,0-.1,0-.21-.01-.42-.07-.61-.18-.2-.11-.36-.3-.49-.58-.11-.24-.14-.46-.09-.65.04-.18.12-.34.23-.48.11-.14.23-.25.37-.32.13-.07.23-.12.31-.16,1.14-.39,2.25-.87,3.3-1.44,1.04-.56,2-1.2,2.86-1.88.85-.68,1.6-1.43,2.22-2.22.62-.79,1.08-1.61,1.36-2.45.14-.38.14-.66,0-.83-.14-.17-.39-.26-.73-.26h-7.76c-.4,0-.72-.11-.95-.34-.23-.23-.34-.52-.34-.89s.11-.66.34-.9c.23-.24.55-.36.95-.36h8.98c.96,0,1.68.22,2.13.64.47.43.62,1.12.46,2.03-.22,1.25-.66,2.44-1.32,3.54-.66,1.1-1.51,2.13-2.54,3.07-1.02.93-2.2,1.79-3.51,2.53-1.31.75-2.73,1.39-4.22,1.91-.1.04-.22.08-.38.13ZM248.33,911.26c-1.69.93-4.06,1.4-7.05,1.4s-5.36-.47-7.05-1.4c-1.71-.94-2.58-2.3-2.58-4.05s.87-3.11,2.58-4.05c1.69-.93,4.06-1.4,7.05-1.4s5.36.47,7.05,1.4c1.71.94,2.58,2.3,2.58,4.05s-.87,3.11-2.58,4.05ZM254.32,894.05c-.23.24-.54.36-.92.36h-3.16v5.69c0,.44-.15.8-.43,1.05-.28.25-.63.38-1.03.38s-.74-.13-1.01-.38c-.28-.26-.42-.61-.42-1.05v-13.17c0-.44.14-.8.42-1.06.28-.26.62-.4,1.02-.4s.75.13,1.03.4c.29.27.43.62.43,1.07v4.99h3.16c.38,0,.69.12.92.36.23.24.34.53.34.87,0,.36-.11.66-.34.9ZM252.37,869.37c-1.69.93-4.06,1.4-7.05,1.4s-5.36-.47-7.05-1.4c-1.71-.94-2.58-2.3-2.58-4.05s.87-3.11,2.58-4.05c1.69-.93,4.06-1.4,7.05-1.4s5.36.47,7.05,1.4c1.71.94,2.58,2.3,2.58,4.05s-.87,3.11-2.58,4.05ZM270.54,900.95c-.28,1.16-.72,2.17-1.3,2.99-.58.83-1.33,1.48-2.23,1.93-.9.45-1.96.68-3.15.68s-2.28-.23-3.17-.68c-.89-.45-1.63-1.1-2.21-1.93-.58-.82-1.02-1.83-1.3-2.99-.28-1.16-.43-2.46-.43-3.88s.14-2.72.43-3.88c.28-1.16.72-2.17,1.3-2.99.58-.83,1.32-1.48,2.21-1.93.89-.45,1.95-.68,3.17-.68s2.26.23,3.15.68c.9.45,1.65,1.1,2.23,1.93.58.82,1.01,1.83,1.3,2.99.28,1.16.42,2.46.42,3.88s-.14,2.72-.42,3.88ZM281.93,897.83c-.23.24-.54.36-.92.36h-3.45v12.75c0,.44-.15.8-.43,1.05-.28.25-.63.38-1.03.38s-.74-.13-1.01-.38c-.28-.26-.42-.61-.42-1.05v-24.01c0-.44.14-.8.42-1.06.28-.26.62-.4,1.02-.4s.75.13,1.03.4c.29.27.43.62.43,1.07v8.74h3.45c.38,0,.69.13.92.37.22.25.34.54.34.88,0,.36-.11.67-.34.9ZM299.86,905.57c-.18.22-.37.36-.57.43-.2.06-.39.09-.58.08-.19-.01-.37-.05-.53-.13-.15-.07-.27-.14-.36-.2-.6-.43-1.21-.92-1.8-1.46-.59-.54-1.16-1.14-1.68-1.77-.52-.63-1-1.29-1.42-1.98-.36-.58-.66-1.18-.9-1.78-.26.64-.58,1.27-.95,1.88-.44.71-.94,1.4-1.49,2.05-.55.65-1.14,1.26-1.75,1.83-.61.56-1.24,1.07-1.86,1.49-.08.06-.21.13-.37.2-.17.07-.35.12-.54.14-.05,0-.1,0-.15,0-.15,0-.3-.02-.45-.07-.21-.07-.39-.21-.54-.43-.17-.21-.26-.42-.27-.62-.01-.2.02-.38.1-.54.07-.16.16-.29.27-.41.1-.11.2-.2.28-.26.94-.65,1.8-1.4,2.57-2.22.76-.82,1.43-1.72,1.97-2.67.55-.95.98-1.96,1.28-3.01.31-1.05.46-2.15.46-3.28v-2.17h-4.7c-.4,0-.72-.12-.95-.36-.23-.23-.34-.54-.34-.9s.11-.66.34-.9c.23-.24.55-.36.95-.36h12.32c.4,0,.72.12.95.36.23.24.34.54.34.9s-.11.66-.34.9c-.23.24-.54.36-.95.36h-4.67v2.17c0,2.31.53,4.39,1.58,6.17,1.05,1.79,2.53,3.36,4.38,4.68.09.06.18.15.28.26.11.12.19.26.26.42.06.16.09.34.08.55-.01.21-.09.42-.24.63ZM306.34,910.94c0,.44-.15.8-.43,1.05-.28.25-.63.38-1.03.38s-.74-.13-1.01-.38c-.28-.26-.42-.61-.42-1.05v-24.01c0-.44.14-.8.42-1.06.28-.26.62-.4,1.02-.4s.75.13,1.03.4c.29.27.43.62.43,1.07v24.01ZM306.33,863.64c-.09.17-.21.31-.35.42-.14.11-.29.18-.45.23-.15.04-.26.07-.34.09-1.26.16-2.58.3-3.93.42-1.34.12-2.71.23-4.07.32-1.37.09-2.74.16-4.09.22-1.36.06-2.68.1-3.93.12-.1,0-.24,0-.4-.01-.17,0-.35-.05-.54-.11-.2-.06-.37-.18-.52-.34-.16-.17-.24-.4-.27-.7-.04-.27,0-.5.11-.67.11-.16.24-.29.4-.39.16-.09.32-.16.49-.19.16-.03.3-.05.4-.05,1.05-.02,2.11-.05,3.15-.09,1.02-.04,2.07-.08,3.12-.14v-5.02h-2.49c-.96,0-1.67-.24-2.11-.71-.44-.47-.66-1.13-.66-1.97v-6.69c0-.84.22-1.51.66-1.97.44-.47,1.15-.71,2.11-.71h9.13c.38,0,.69.13.92.37.22.25.34.54.34.88,0,.36-.12.66-.34.89-.23.23-.53.34-.92.34h-8.05c-.35,0-.59.07-.72.22-.13.15-.2.42-.2.79v5.06c0,.37.07.64.2.79.13.15.37.22.72.22h8.34c.38,0,.69.12.92.36.23.24.34.54.34.9,0,.34-.11.64-.34.87-.23.24-.54.36-.92.36h-4v4.83c1.13-.08,2.26-.17,3.38-.27,1.14-.1,2.28-.23,3.4-.36.09,0,.2,0,.34-.01.16-.01.33.01.5.06.17.05.33.15.47.29.15.15.24.37.28.67.04.28.01.51-.09.69ZM310.38,869.04c0,.44-.15.8-.43,1.05-.28.25-.63.38-1.03.38s-.74-.13-1.01-.38c-.28-.26-.42-.61-.42-1.05v-24.01c0-.44.14-.8.42-1.06.28-.26.62-.4,1.02-.4s.75.13,1.03.4c.29.27.43.62.43,1.07v24.01ZM332.85,912.03c-.23.23-.53.34-.92.34h-15c-.96,0-1.67-.24-2.11-.71-.44-.47-.66-1.13-.66-1.97v-1.31c0-.84.22-1.51.66-1.97.44-.47,1.15-.71,2.11-.71h12.09c.19,0,.36-.03.5-.1.14-.07.16-.29.16-.47v-.55c0-.18-.03-.4-.16-.47-.14-.07-.3-.1-.5-.1h-13.6c-.38,0-.69-.11-.92-.34-.23-.23-.34-.53-.34-.89,0-.34.11-.63.34-.86.23-.23.54-.34.92-.34h14.42c.96,0,1.67.24,2.11.71.44.47.66,1.13.66,1.98v1.19c0,.84-.22,1.51-.66,1.97-.44.47-1.15.71-2.11.71h-12.12c-.18,0-.33.03-.47.1-.14.07-.16.29-.16.47v.67c0,.26.05.42.16.47.14.07.29.1.47.1h14.21c.38,0,.69.12.92.34.23.23.34.52.34.89,0,.34-.11.63-.34.86ZM335.49,899.12c-.23.23-.54.34-.95.34h-22.47c-.4,0-.72-.12-.95-.34-.23-.23-.34-.53-.34-.89s.11-.66.34-.9c.23-.24.55-.36.95-.36h22.47c.4,0,.72.12.95.36.23.24.34.54.34.9s-.12.66-.34.89ZM360.17,912.03c-.23.23-.53.34-.92.34h-15c-.96,0-1.67-.24-2.11-.71-.44-.47-.66-1.13-.66-1.97v-1.31c0-.84.22-1.51.66-1.97.44-.47,1.15-.71,2.11-.71h12.09c.19,0,.36-.03.5-.1.14-.07.16-.29.16-.47v-.55c0-.18-.03-.4-.16-.47-.14-.07-.3-.1-.5-.1h-13.6c-.38,0-.69-.11-.92-.34-.23-.23-.34-.53-.34-.89,0-.34.11-.63.34-.86.23-.23.54-.34.92-.34h14.42c.96,0,1.67.24,2.11.71.44.47.66,1.13.66,1.98v1.19c0,.84-.22,1.51-.66,1.97-.44.47-1.15.71-2.11.71h-12.12c-.18,0-.33.03-.47.1-.14.07-.16.29-.16.47v.67c0,.26.05.42.16.47.14.07.29.1.47.1h14.21c.38,0,.69.12.92.34.23.23.34.52.34.89,0,.34-.11.63-.34.86ZM362.81,899.24c-.23.23-.54.34-.95.34h-22.47c-.4,0-.72-.12-.95-.34-.23-.23-.34-.53-.34-.89s.11-.66.34-.9c.23-.24.55-.36.95-.36h22.47c.4,0,.72.12.95.36.23.24.34.54.34.9s-.12.66-.34.89ZM371.94,869.83c-.23.24-.54.36-.92.36h-14.15c-.96,0-1.67-.24-2.11-.71-.44-.47-.66-1.13-.66-1.98v-5.23c0-.44.15-.8.43-1.05.28-.25.63-.38,1.03-.38s.74.13,1.03.38c.29.26.43.61.43,1.05v4.42c0,.37.07.64.2.79.13.15.37.22.72.22h13.08c.38,0,.69.12.92.36.23.24.34.54.34.9,0,.34-.11.63-.34.87ZM398.27,899.27c-.23.23-.54.34-.95.34h-9.73v1.96h5.02c.96,0,1.67.24,2.11.71.44.47.66,1.13.66,1.98v1.19c0,.84-.22,1.51-.66,1.97-.44.47-1.15.71-2.11.71h-12.12c-.18,0-.33.03-.47.1-.14.07-.16.29-.16.47v.67c0,.26.05.42.16.47.14.07.29.1.47.1h14.21c.38,0,.69.12.92.34.23.23.34.52.34.89,0,.34-.11.63-.34.86-.23.23-.53.34-.92.34h-15c-.96,0-1.67-.24-2.11-.71-.44-.47-.66-1.13-.66-1.97v-1.31c0-.84.22-1.51.66-1.97.44-.47,1.15-.71,2.11-.71h12.09c.19,0,.36-.03.5-.1.14-.07.16-.29.16-.47v-.55c0-.18-.03-.4-.16-.47-.14-.07-.3-.1-.5-.1h-13.6c-.38,0-.69-.11-.92-.34-.23-.23-.34-.53-.34-.89,0-.34.11-.63.34-.86.23-.23.54-.34.92-.34h6.47v-1.96h-9.82c-.4,0-.72-.12-.95-.34-.23-.23-.34-.52-.34-.89s.11-.66.34-.9c.23-.24.55-.36.95-.36h22.47c.4,0,.72.12.95.36.23.24.34.54.34.9s-.12.66-.34.89ZM399.43,869.16c0,.44-.15.8-.43,1.05-.28.25-.63.38-1.03.38s-.74-.13-1.01-.38c-.28-.26-.42-.61-.42-1.05v-4.5c0-.37-.07-.64-.2-.79-.13-.15-.37-.22-.72-.22h-13.66c-.38,0-.69-.12-.92-.34-.23-.23-.34-.52-.34-.89,0-.34.11-.63.34-.87.23-.24.54-.36.92-.36h14.71c.96,0,1.67.24,2.11.71.44.47.66,1.13.66,1.97v5.29ZM378.9,859.11c-.4,0-.72-.12-.95-.34-.23-.23-.34-.53-.34-.89s.11-.66.34-.9c.23-.24.55-.36.95-.36h9.82v-2.42h-4.82c-.96,0-1.67-.24-2.11-.71-.44-.47-.66-1.13-.66-1.97v-6.02c0-.44.14-.8.42-1.06.27-.26.62-.4,1.02-.4s.75.13,1.04.4c.3.27.45.62.45,1.07v1.47h12.33v-1.47c0-.44.14-.8.42-1.06.27-.26.62-.4,1.02-.4s.75.13,1.03.4c.29.27.43.62.43,1.07v6.02c0,.84-.22,1.51-.66,1.97-.44.47-1.15.71-2.11.71h-4.87v2.42h9.73c.4,0,.72.12.95.36.23.24.34.54.34.9s-.12.66-.34.89c-.23.23-.54.34-.95.34h-22.47ZM402.07,896.32c-.37-.84-.56-1.79-.56-2.83s.19-1.97.56-2.81c.37-.84.88-1.58,1.51-2.18.63-.6,1.38-1.07,2.24-1.39.85-.32,1.77-.49,2.73-.49s1.88.16,2.75.49c.86.32,1.62.79,2.25,1.38.63.59,1.14,1.32,1.51,2.16.37.85.56,1.8.56,2.84s-.19,1.99-.56,2.84c-.37.84-.88,1.57-1.51,2.16-.63.59-1.39,1.05-2.25,1.38-.86.32-1.79.49-2.75.49s-1.88-.16-2.73-.49c-.86-.32-1.61-.79-2.24-1.39-.63-.6-1.14-1.33-1.51-2.16ZM422.54,911.72c-.23.24-.54.36-.92.36h-14.15c-.96,0-1.67-.24-2.11-.71-.44-.47-.66-1.13-.66-1.97v-5.23c0-.44.15-.8.43-1.05.28-.25.63-.38,1.03-.38s.74.13,1.03.38c.29.26.43.61.43,1.05v4.42c0,.37.07.64.2.79.13.15.37.22.72.22h13.08c.38,0,.69.12.92.36.23.24.34.54.34.9,0,.34-.11.63-.34.87ZM426.38,895.53c-.23.24-.54.36-.92.36h-3.16v8.16c0,.44-.15.8-.43,1.05-.28.25-.63.38-1.03.38s-.74-.13-1.01-.38c-.28-.26-.42-.61-.42-1.05v-17.12c0-.44.14-.8.42-1.06.28-.26.62-.4,1.02-.4s.75.13,1.03.4c.29.27.43.62.43,1.07v6.47h3.16c.38,0,.69.12.92.36.23.24.34.53.34.87,0,.36-.11.66-.34.9ZM427.8,869.04c0,.44-.15.8-.43,1.05-.28.25-.63.38-1.03.38s-.74-.13-1.01-.38c-.28-.26-.42-.61-.42-1.05v-24.01c0-.44.14-.8.42-1.06.28-.26.62-.4,1.02-.4s.75.13,1.03.4c.29.27.43.62.43,1.07v24.01ZM442.45,904.14c-.32.78-.79,1.45-1.38,2-.59.55-1.3.98-2.12,1.28-.81.29-1.71.44-2.67.44s-1.88-.15-2.69-.44c-.81-.3-1.52-.72-2.11-1.28-.59-.55-1.06-1.23-1.38-2-.32-.78-.49-1.66-.49-2.62s.16-1.84.49-2.62c.32-.78.79-1.45,1.38-2,.59-.55,1.3-.98,2.11-1.28.8-.29,1.71-.44,2.69-.44s1.86.15,2.67.44c.82.29,1.53.72,2.12,1.28.59.55,1.06,1.23,1.38,2,.32.78.49,1.66.49,2.62s-.16,1.84-.49,2.62ZM443.73,893.24c-.23.24-.55.36-.95.36h-13.2c-.4,0-.72-.12-.95-.36-.22-.24-.34-.54-.34-.9s.11-.66.34-.9c.23-.24.55-.36.95-.36h13.2c.4,0,.72.12.95.36.23.24.34.54.34.9s-.11.67-.34.9ZM453.99,897.83c-.23.24-.54.36-.92.36h-3.45v12.75c0,.44-.15.8-.43,1.05-.28.25-.63.38-1.03.38s-.74-.13-1.01-.38c-.28-.26-.42-.61-.42-1.05v-24.01c0-.44.14-.8.42-1.06.28-.26.62-.4,1.02-.4s.75.13,1.03.4c.29.27.43.62.43,1.07v8.74h3.45c.38,0,.69.13.92.37.22.25.34.54.34.88,0,.36-.11.67-.34.9ZM473.81,909.72c0,.44-.14.79-.42,1.04-.27.24-.6.37-.98.37-.4,0-.74-.12-1-.37-.27-.25-.4-.6-.4-1.04v-11.53h-4.62c-1.65,3.6-4.48,6.51-8.39,8.65-.11.05-.24.09-.41.15-.36.13-.77.14-1.18-.05-.22-.1-.39-.27-.52-.51-.13-.23-.18-.46-.16-.67.02-.2.08-.38.18-.53.09-.15.21-.27.35-.38.13-.1.25-.18.35-.24,2.57-1.48,4.62-3.36,6.11-5.6,1.48-2.24,2.35-4.73,2.58-7.41.04-.59-.08-.75-.16-.8-.16-.09-.38-.14-.65-.14h-6.48c-.4,0-.72-.11-.95-.34-.23-.23-.34-.53-.34-.89s.11-.66.34-.9c.23-.24.55-.36.95-.36h7.21c1.09,0,1.89.21,2.38.63.49.42.71,1.1.65,2.01-.13,1.74-.43,3.39-.89,4.9h3.66v-8.22c0-.44.14-.79.4-1.05.27-.25.6-.38,1-.38.38,0,.71.13.99.38.28.26.42.61.42,1.05v22.23ZM479.01,911.05c0,.44-.14.79-.42,1.04-.27.24-.61.37-.98.37-.4,0-.74-.12-1.01-.37-.28-.25-.42-.6-.42-1.04v-24.15c0-.44.14-.79.42-1.05.27-.25.61-.38,1.01-.38s.71.13.99.38c.28.26.42.61.42,1.05v24.15ZM503.26,904.1c-.27.78-.66,1.45-1.16,2.01-.5.55-1.13.99-1.86,1.3-.73.31-1.56.46-2.46.46s-1.73-.15-2.45-.46c-.72-.31-1.34-.75-1.85-1.31-.5-.56-.9-1.24-1.17-2-.28-.76-.41-1.63-.41-2.57s.14-1.81.41-2.57c.27-.77.67-1.44,1.17-2,.5-.56,1.12-1,1.85-1.31.72-.31,1.54-.46,2.45-.46s1.73.15,2.46.46c.73.31,1.36.74,1.86,1.3.5.55.89,1.23,1.16,2.01.27.78.4,1.64.4,2.58s-.13,1.81-.4,2.58ZM504.25,893.24c-.23.24-.55.36-.95.36h-11.04c-.4,0-.72-.12-.95-.36-.22-.24-.34-.54-.34-.9s.11-.66.34-.9c.23-.24.55-.36.95-.36h11.04c.4,0,.72.12.95.36.23.24.34.54.34.9s-.11.66-.34.9ZM499.14,864.28c-.91,0-1.58-.27-2-.79-.41-.51-.62-1.16-.62-1.92v-5.26c0-.84.22-1.51.66-1.97.44-.47,1.15-.71,2.11-.71h6.28c.21,0,.4-.04.55-.13.13-.07.2-.27.2-.59v-3.55c0-.32-.07-.52-.2-.59-.15-.09-.34-.13-.55-.13h-7.85c-.38,0-.69-.13-.92-.38-.22-.25-.34-.55-.34-.91,0-.34.11-.63.34-.87.23-.24.54-.36.92-.36h8.78c.96,0,1.67.24,2.11.71.44.47.66,1.13.66,1.97v4.65c0,.84-.22,1.51-.66,1.97-.44.47-1.15.71-2.11.71h-6.31c-.21,0-.39.04-.55.13-.16.09-.2.37-.2.59v3.95c0,.34.06.58.19.73.12.14.38.22.76.22,1.55-.04,3.22-.16,4.94-.35,1.72-.19,3.41-.48,5.03-.87.1-.02.23-.04.39-.06.17-.02.34-.01.52.03.18.04.35.13.5.26.15.13.27.33.33.59.06.3.05.55-.04.75-.08.19-.2.35-.36.47-.14.11-.3.2-.47.27-.17.06-.31.1-.43.12-1.87.44-3.83.77-5.84.97-2,.2-3.97.32-5.84.33ZM514.47,911.05c0,.44-.14.79-.42,1.04-.27.24-.61.37-.98.37-.4,0-.74-.12-1.01-.37-.28-.25-.42-.6-.42-1.04v-12.87h-2.66v11.53c0,.44-.14.79-.42,1.04-.28.24-.61.37-.98.37-.4,0-.74-.12-1-.37-.27-.25-.4-.6-.4-1.04v-22.23c0-.44.14-.79.4-1.05.27-.25.6-.38,1-.38.38,0,.71.13.99.38.28.26.42.61.42,1.05v8.22h2.66v-8.8c0-.44.14-.79.42-1.05.27-.25.61-.38,1.01-.38s.71.13.99.38c.28.26.42.61.42,1.05v24.15ZM517.9,869.04c0,.44-.15.8-.43,1.05-.28.25-.63.38-1.03.38s-.74-.13-1.01-.38c-.28-.26-.42-.61-.42-1.05v-24.01c0-.44.14-.8.42-1.06.28-.26.62-.4,1.02-.4s.75.13,1.03.4c.29.27.43.62.43,1.07v24.01ZM543.01,908.54c-.23.23-.54.34-.95.34h-22.47c-.4,0-.72-.12-.95-.34-.23-.23-.34-.53-.34-.89s.11-.66.34-.9c.23-.24.55-.36.95-.36h4.58v-3.65c0-.44.15-.8.43-1.07.28-.26.63-.4,1.03-.4s.75.13,1.03.4c.29.27.43.62.43,1.07v3.65h7.6v-3.65c0-.44.15-.8.43-1.07.28-.26.63-.4,1.03-.4s.75.13,1.03.4c.29.27.43.62.43,1.07v3.65h4.44c.4,0,.72.12.95.36.23.24.34.54.34.9s-.12.66-.34.89ZM544.01,870.12c-.23.24-.54.36-.92.36h-14.59c-.96,0-1.67-.24-2.11-.71-.44-.47-.66-1.13-.66-1.97v-4.59c0-.44.15-.8.43-1.05.28-.25.63-.38,1.03-.38s.74.13,1.03.38c.29.26.43.61.43,1.05v3.78c0,.37.07.64.2.79.13.15.37.22.72.22h13.52c.38,0,.69.12.92.36.23.24.34.54.34.9,0,.34-.11.63-.34.87ZM523.64,859.69c-.4,0-.72-.12-.95-.34-.23-.23-.34-.53-.34-.89s.11-.66.34-.9c.23-.24.55-.36.95-.36h22.47c.4,0,.72.12.95.36.23.24.34.54.34.9s-.12.66-.34.89c-.23.23-.54.34-.95.34h-22.47ZM549.99,910.37c-.38.38-.86.57-1.41.57s-1.03-.19-1.42-.57c-.39-.38-.59-.86-.59-1.41s.2-1.04.59-1.43c.39-.39.87-.59,1.43-.59s1.03.2,1.41.59c.38.39.57.87.57,1.42s-.19,1.03-.57,1.41Z" style="fill: #ececec;"/>
        <path d="M405.54,896.62c.36.38.81.68,1.32.89.51.21,1.08.31,1.68.31,1.29,0,2.33-.4,3.08-1.18.75-.79,1.13-1.84,1.13-3.14s-.38-2.35-1.13-3.14c-.75-.78-1.78-1.18-3.08-1.18-1.22,0-2.23.39-3.01,1.17-.78.78-1.17,1.83-1.17,3.12,0,.66.1,1.26.31,1.79.21.52.5.99.86,1.37Z" style="fill: #ececec;"/>
        <path d="M500.65,903.06c.11-.47.17-.99.17-1.54s-.06-1.07-.17-1.54c-.11-.47-.3-.88-.55-1.22-.25-.34-.57-.61-.94-.81-.38-.19-.84-.29-1.38-.29-1.05,0-1.8.36-2.29,1.09-.5.74-.75,1.66-.75,2.74,0,.55.06,1.07.18,1.55.12.48.31.89.56,1.24.25.34.57.61.94.81.38.19.83.29,1.35.29s1-.1,1.38-.29c.38-.19.7-.46.94-.81.25-.34.43-.75.55-1.22Z" style="fill: #ececec;"/>
        <path d="M432.72,900.01c-.16.46-.24.96-.24,1.48,0,1.09.33,2.01.97,2.74.64.72,1.59,1.09,2.83,1.09s2.23-.37,2.86-1.09c.63-.73.94-1.64.94-2.71s-.32-1.98-.94-2.71c-.62-.72-1.58-1.09-2.86-1.09-.62,0-1.17.1-1.64.3-.47.2-.87.47-1.19.8-.32.33-.57.73-.73,1.19Z" style="fill: #ececec;"/>
        <path d="M537.15,896.07c.31-.57.46-1.23.46-1.96s-.16-1.42-.46-1.99c-.31-.57-.76-1.06-1.34-1.45-.59-.4-1.3-.7-2.11-.9-.82-.2-1.76-.3-2.79-.3-2.06,0-3.72.4-4.93,1.2-1.2.79-1.8,1.94-1.8,3.44s.61,2.63,1.8,3.43c1.21.81,2.87,1.21,4.93,1.21,1.03,0,1.97-.11,2.79-.32.82-.21,1.53-.52,2.11-.91.58-.39,1.03-.88,1.34-1.45Z" style="fill: #ececec;"/>
        <path d="M247.55,905.89c-.32-.38-.77-.69-1.36-.94-.6-.25-1.32-.43-2.15-.54-.83-.12-1.76-.17-2.76-.17s-1.95.06-2.77.17c-.82.11-1.54.3-2.13.54-.59.24-1.05.56-1.36.94-.31.37-.47.82-.47,1.33s.16.98.46,1.34c.31.37.77.68,1.36.92.6.25,1.32.43,2.13.54.82.12,1.76.17,2.77.17s1.93-.06,2.76-.17c.83-.11,1.55-.3,2.15-.54.59-.24,1.05-.55,1.36-.92.31-.36.46-.81.46-1.34s-.16-.96-.47-1.33Z" style="fill: #ececec;"/>
        <path d="M345.69,892.42c1.18.42,2.87.63,5.01.63s3.8-.21,4.99-.63c1.16-.41,1.72-1.05,1.72-1.95s-.57-1.56-1.73-1.96c-1.19-.41-2.87-.62-4.97-.62s-3.81.21-5,.62c-1.17.4-1.73,1.04-1.73,1.96s.56,1.54,1.72,1.95Z" style="fill: #ececec;"/>
        <path d="M380.94,892.79h10.49c.35,0,.59-.07.72-.22.13-.15.2-.42.2-.79v-1.21h-12.33v1.21c0,.37.07.64.2.79.13.15.37.22.72.22Z" style="fill: #ececec;"/>
        <path d="M355.01,855.75h5.67c.35,0,.59-.07.72-.22.13-.15.2-.42.2-.79v-2.75h-7.51v2.75c0,.37.07.64.2.79.13.15.37.22.72.22Z" style="fill: #ececec;"/>
        <path d="M268.07,897.07c0-2.23-.36-3.96-1.06-5.14-.7-1.17-1.73-1.74-3.15-1.74s-2.46.59-3.15,1.74c-.7,1.18-1.06,2.91-1.06,5.14s.36,3.96,1.06,5.14c.7,1.17,1.73,1.74,3.15,1.74s2.45-.57,3.15-1.74c.7-1.18,1.06-2.9,1.06-5.14Z" style="fill: #ececec;"/>
        <path d="M251.59,863.99c-.32-.38-.77-.69-1.36-.94-.6-.25-1.32-.43-2.15-.54-.83-.12-1.76-.17-2.76-.17s-1.95.06-2.77.17c-.82.11-1.54.3-2.13.54-.59.24-1.05.56-1.36.94-.31.37-.47.82-.47,1.33,0,.54.15.98.46,1.34.31.37.77.68,1.36.92.6.25,1.32.43,2.13.54.82.12,1.76.17,2.77.17s1.93-.06,2.76-.17c.83-.11,1.55-.3,2.15-.54.59-.24,1.05-.55,1.36-.92.31-.37.46-.81.46-1.34s-.16-.96-.47-1.33Z" style="fill: #ececec;"/>
        <path d="M396.39,849.4h-12.33v1.36c0,.37.07.64.2.79.13.15.37.22.72.22h10.49c.35,0,.59-.07.72-.22.13-.15.2-.42.2-.79v-1.36Z" style="fill: #ececec;"/>
        <path d="M556.83,774.41H222.64c-57.18,0-103.71,46.52-103.71,103.71s46.52,103.71,103.71,103.71h334.19c57.18,0,103.71-46.52,103.71-103.71s-46.52-103.71-103.71-103.71ZM556.83,953.82H222.64c-41.81,0-75.71-33.89-75.71-75.71h0c0-41.81,33.89-75.71,75.71-75.71h334.19c41.81,0,75.71,33.89,75.71,75.71h0c0,41.81-33.9,75.71-75.71,75.71Z" style="fill: #fae585;"/>
        <path d="M252.37,861.27c-1.69-.93-4.06-1.4-7.05-1.4s-5.36.47-7.05,1.4c-1.71.94-2.58,2.3-2.58,4.05s.87,3.11,2.58,4.05c1.69.93,4.06,1.4,7.05,1.4s5.36-.47,7.05-1.4c1.71-.94,2.58-2.3,2.58-4.05s-.87-3.11-2.58-4.05ZM250.23,867.59c-.6.25-1.32.43-2.15.54-.83.12-1.76.17-2.76.17s-1.95-.06-2.77-.17c-.82-.11-1.54-.3-2.13-.54-.59-.24-1.05-.55-1.36-.92-.31-.37-.46-.81-.46-1.34s.16-.96.47-1.33c.31-.38.77-.69,1.36-.94.6-.25,1.32-.43,2.13-.54.82-.12,1.76-.17,2.77-.17s1.93.06,2.76.17c.83.11,1.55.3,2.15.54.59.24,1.05.56,1.36.94.31.37.47.82.47,1.33,0,.54-.15.97-.46,1.34-.32.37-.77.68-1.36.92Z" style="fill: #666;"/>
        <path d="M252.82,859.63c.4,0,.74-.13,1.03-.38.29-.26.43-.61.43-1.05v-5.69h3.16c.38,0,.69-.12.92-.36.23-.24.34-.54.34-.9,0-.34-.11-.63-.34-.87-.23-.24-.54-.36-.92-.36h-3.16v-4.99c0-.44-.15-.8-.43-1.07-.28-.26-.63-.4-1.03-.4s-.74.13-1.02.4c-.28.27-.42.62-.42,1.06v13.17c0,.44.14.79.42,1.05.27.25.62.38,1.01.38Z" style="fill: #666;"/>
        <path d="M233.75,859.07c.19.11.39.17.61.18.03,0,.07,0,.1,0,.17,0,.33-.02.47-.07.16-.05.29-.09.38-.13,1.49-.52,2.91-1.17,4.22-1.91,1.31-.75,2.49-1.6,3.51-2.53,1.02-.93,1.88-1.97,2.54-3.07.66-1.1,1.11-2.29,1.32-3.54.16-.91,0-1.6-.46-2.03-.46-.43-1.18-.64-2.13-.64h-8.98c-.4,0-.72.12-.95.36-.23.24-.34.54-.34.9s.11.66.34.89c.23.23.55.34.95.34h7.76c.35,0,.59.09.73.26.13.17.13.44,0,.83-.29.84-.74,1.66-1.36,2.45-.62.79-1.37,1.54-2.22,2.22-.85.68-1.82,1.31-2.86,1.88-1.05.57-2.15,1.05-3.3,1.44-.08.04-.18.09-.31.16-.14.08-.27.19-.37.32-.11.14-.18.3-.23.48-.05.19-.01.41.09.65.13.28.29.47.49.58Z" style="fill: #666;"/>
        <path d="M262.84,858.97c.16.13.33.21.5.26.11.03.22.04.33.04.06,0,.11,0,.16-.01.15-.02.26-.04.32-.06.98-.23,1.93-.55,2.82-.94.91-.39,1.75-.86,2.51-1.39.76-.53,1.44-1.14,2.03-1.81.52-.59.95-1.24,1.27-1.92.31.67.71,1.31,1.22,1.89.57.66,1.24,1.27,2,1.81.76.53,1.59,1,2.49,1.39.89.39,1.84.7,2.8.93.07.02.17.04.33.06.16.02.33.01.51-.03.18-.04.36-.13.52-.26.16-.13.29-.34.37-.61.09-.24.1-.46.05-.64-.05-.19-.15-.34-.28-.47-.12-.12-.26-.22-.39-.3-.14-.07-.24-.12-.33-.14-1.04-.27-2.03-.64-2.97-1.11-.93-.47-1.77-1.05-2.48-1.74-.71-.68-1.29-1.5-1.7-2.42-.42-.92-.63-1.99-.63-3.19v-.28h6.82c.4,0,.72-.11.95-.34.23-.23.34-.53.34-.89,0-.79-.45-1.2-1.29-1.2h-16.68c-.84,0-1.29.42-1.29,1.2,0,.36.12.66.34.89.23.23.54.34.95.34h6.88v.28c0,1.2-.22,2.27-.64,3.2-.43.93-1.01,1.75-1.73,2.45-.72.69-1.57,1.28-2.51,1.74-.95.46-1.95.83-2.98,1.1-.09.02-.2.07-.33.14-.14.07-.27.17-.39.3-.13.13-.23.29-.28.47-.06.19-.04.41.04.64.08.27.21.48.38.61Z" style="fill: #666;"/>
        <path d="M261.48,866.99h22.47c.4,0,.72-.12.95-.34.23-.23.34-.53.34-.89s-.11-.66-.34-.9c-.23-.24-.55-.36-.95-.36h-9.7v-4.26c0-.44-.15-.8-.43-1.05-.28-.25-.63-.38-1.03-.38s-.74.13-1.03.38c-.29.26-.43.61-.43,1.05v4.26h-9.84c-.4,0-.72.12-.95.36-.23.24-.34.54-.34.9s.12.66.34.89c.23.23.54.34.95.34Z" style="fill: #666;"/>
        <path d="M306.14,862.28c-.14-.14-.3-.24-.47-.29-.17-.05-.34-.08-.5-.06-.14,0-.25.01-.34.01-1.11.14-2.26.26-3.4.36-1.12.1-2.25.19-3.38.27v-4.83h4c.38,0,.69-.12.92-.36.23-.24.34-.53.34-.87,0-.36-.11-.66-.34-.9-.23-.24-.54-.36-.92-.36h-8.34c-.35,0-.59-.07-.72-.22-.13-.15-.2-.42-.2-.79v-5.06c0-.37.07-.64.2-.79.13-.15.37-.22.72-.22h8.05c.38,0,.69-.12.92-.34.23-.23.34-.53.34-.89,0-.34-.11-.64-.34-.88-.23-.25-.54-.37-.92-.37h-9.13c-.96,0-1.67.24-2.11.71-.44.47-.66,1.13-.66,1.97v6.69c0,.84.22,1.51.66,1.97.44.47,1.15.71,2.11.71h2.49v5.02c-1.05.05-2.1.1-3.12.14-1.04.04-2.1.07-3.15.09-.11,0-.24.02-.4.05-.17.03-.33.1-.49.19-.16.1-.3.23-.4.39-.11.17-.15.4-.11.67.02.3.11.53.27.7.15.16.32.27.52.34.19.06.37.1.54.11.17.01.3.01.4.01,1.24-.02,2.56-.06,3.93-.12,1.34-.06,2.72-.13,4.09-.22,1.37-.09,2.74-.19,4.07-.32,1.35-.13,2.67-.27,3.93-.42.08-.02.19-.05.34-.09.16-.04.31-.12.45-.23.14-.11.26-.25.35-.42.1-.18.13-.41.09-.69-.04-.3-.14-.52-.28-.67Z" style="fill: #666;"/>
        <path d="M308.91,843.57c-.4,0-.74.13-1.02.4-.28.27-.42.62-.42,1.06v24.01c0,.44.14.8.42,1.05.27.25.62.38,1.01.38s.74-.13,1.03-.38c.29-.26.43-.61.43-1.05v-24.01c0-.44-.15-.8-.43-1.07-.28-.26-.63-.4-1.03-.4Z" style="fill: #666;"/>
        <path d="M319.35,848.21h13.37c.27,0,.48.05.63.14.08.05.2.21.2.78,0,.67-.04,1.48-.12,2.4-.08.94-.17,1.88-.26,2.79-.1.93-.2,1.8-.32,2.6-.11.78-.21,1.39-.29,1.81-.02.1-.04.23-.07.4-.03.18-.02.37.03.56.05.19.16.37.31.53.15.17.4.28.74.34.14.03.27.04.39.04.17,0,.32-.02.45-.07.22-.08.4-.2.53-.35.12-.15.22-.3.28-.47.06-.16.1-.29.12-.39.12-.51.24-1.21.38-2.09.14-.9.27-1.87.38-2.87.12-1.02.21-2.07.29-3.12.08-1.05.12-2.01.12-2.86,0-.9-.24-1.58-.71-2-.47-.42-1.26-.63-2.35-.63h-14.1c-.4,0-.72.12-.95.36-.23.24-.34.54-.34.9,0,.79.45,1.2,1.29,1.2Z" style="fill: #666;"/>
        <path d="M316.12,866.84h22.47c.4,0,.72-.12.95-.34.23-.23.34-.52.34-.89s-.11-.66-.34-.9c-.23-.24-.55-.36-.95-.36h-11.18v-7.93c0-.44-.15-.8-.43-1.05-.28-.25-.63-.38-1.03-.38s-.74.13-1.03.38c-.29.26-.43.61-.43,1.05v7.93h-8.36c-.4,0-.72.12-.95.36-.23.24-.34.54-.34.9s.12.66.34.89c.23.23.54.34.95.34Z" style="fill: #666;"/>
        <path d="M353.96,858.18h7.76c.96,0,1.67-.24,2.11-.71.44-.47.66-1.13.66-1.97v-9.16c0-.44-.15-.8-.43-1.07-.28-.26-.63-.4-1.03-.4s-.74.13-1.02.4c-.28.27-.42.62-.42,1.06v3.16h-7.51v-3.07c0-.44-.15-.8-.43-1.07-.28-.26-.63-.4-1.03-.4s-.74.13-1.02.4c-.28.27-.42.62-.42,1.06v9.07c0,.84.22,1.51.66,1.97.44.47,1.15.71,2.11.71ZM354.09,854.74v-2.75h7.51v2.75c0,.37-.07.64-.2.79-.13.15-.37.22-.72.22h-5.67c-.35,0-.59-.07-.72-.22-.13-.15-.2-.42-.2-.79Z" style="fill: #666;"/>
        <path d="M371.02,867.7h-13.08c-.35,0-.59-.07-.72-.22-.13-.15-.2-.42-.2-.79v-4.42c0-.44-.15-.8-.43-1.05-.28-.25-.63-.38-1.03-.38s-.74.13-1.03.38c-.29.26-.43.61-.43,1.05v5.23c0,.84.22,1.51.66,1.98.44.47,1.15.71,2.11.71h14.15c.38,0,.69-.12.92-.36.23-.24.34-.53.34-.87,0-.36-.11-.67-.34-.9-.23-.24-.54-.36-.92-.36Z" style="fill: #666;"/>
        <path d="M370.24,863.59c.4,0,.74-.13,1.03-.38.29-.26.43-.61.43-1.05v-8.16h3.16c.38,0,.69-.12.92-.36.23-.24.34-.54.34-.9,0-.34-.11-.63-.34-.87-.23-.24-.54-.36-.92-.36h-3.16v-6.47c0-.44-.15-.8-.43-1.07-.28-.26-.63-.4-1.03-.4s-.74.13-1.02.4c-.28.27-.42.62-.42,1.06v17.12c0,.44.14.79.42,1.05.27.25.62.38,1.01.38Z" style="fill: #666;"/>
        <path d="M402.66,857.88c0-.36-.11-.66-.34-.9-.23-.24-.55-.36-.95-.36h-9.73v-2.42h4.87c.96,0,1.67-.24,2.11-.71.44-.47.66-1.13.66-1.97v-6.02c0-.44-.15-.8-.43-1.07-.28-.26-.63-.4-1.03-.4s-.74.13-1.02.4c-.28.27-.42.62-.42,1.06v1.47h-12.33v-1.47c0-.44-.15-.8-.45-1.07-.29-.26-.64-.4-1.04-.4s-.74.13-1.02.4c-.28.27-.42.62-.42,1.06v6.02c0,.84.22,1.51.66,1.97.44.47,1.15.71,2.11.71h4.82v2.42h-9.82c-.4,0-.72.12-.95.36-.23.24-.34.54-.34.9s.12.66.34.89c.23.23.54.34.95.34h22.47c.4,0,.72-.12.95-.34.23-.23.34-.53.34-.89ZM395.47,851.77h-10.49c-.35,0-.59-.07-.72-.22-.13-.15-.2-.42-.2-.79v-1.36h12.33v1.36c0,.37-.07.64-.2.79-.13.15-.37.22-.72.22Z" style="fill: #666;"/>
        <path d="M398.77,861.89c-.44-.47-1.15-.71-2.11-.71h-14.71c-.38,0-.69.12-.92.36-.23.24-.34.53-.34.87,0,.36.12.66.34.89.23.23.53.34.92.34h13.66c.35,0,.59.07.72.22.13.15.2.42.2.79v4.5c0,.44.14.8.42,1.05.27.25.61.38,1.01.38s.74-.13,1.03-.38c.29-.26.43-.61.43-1.05v-5.29c0-.84-.22-1.51-.66-1.97Z" style="fill: #666;"/>
        <path d="M426.33,843.57c-.4,0-.74.13-1.02.4-.28.27-.42.62-.42,1.06v24.01c0,.44.14.8.42,1.05.27.25.62.38,1.01.38s.74-.13,1.03-.38c.29-.26.43-.61.43-1.05v-24.01c0-.44-.15-.8-.43-1.07-.28-.26-.63-.4-1.03-.4Z" style="fill: #666;"/>
        <path d="M405.14,864.99c.15.16.32.27.52.34.19.06.37.1.54.11.17.01.3.01.4.01,1.24-.02,2.56-.06,3.93-.12,1.34-.06,2.72-.13,4.09-.22,1.37-.09,2.74-.19,4.07-.32,1.35-.13,2.67-.27,3.93-.42.08-.02.19-.05.34-.09.16-.04.31-.12.45-.23.14-.11.26-.25.35-.42.1-.18.13-.41.09-.69-.04-.3-.14-.52-.28-.67-.14-.14-.3-.24-.47-.29-.17-.05-.33-.08-.5-.06-.14,0-.25.01-.34.01-1.11.14-2.26.26-3.4.36-1.12.1-2.25.19-3.38.27v-4.83h4c.38,0,.69-.12.92-.36.23-.24.34-.53.34-.87,0-.36-.11-.66-.34-.9-.23-.24-.54-.36-.92-.36h-8.34c-.35,0-.59-.07-.72-.22-.13-.15-.2-.42-.2-.79v-5.06c0-.37.07-.64.2-.79.13-.15.37-.22.72-.22h8.05c.38,0,.69-.12.92-.34.23-.23.34-.53.34-.89,0-.34-.11-.64-.34-.88-.23-.25-.54-.37-.92-.37h-9.13c-.96,0-1.67.24-2.11.71-.44.47-.66,1.13-.66,1.97v6.69c0,.84.22,1.51.66,1.97.44.47,1.15.71,2.11.71h2.49v5.02c-1.05.05-2.1.1-3.12.14-1.04.04-2.1.07-3.15.09-.11,0-.24.02-.4.05-.17.03-.33.1-.49.19-.16.1-.3.23-.4.39-.11.17-.15.4-.11.67.02.3.11.53.27.7Z" style="fill: #666;"/>
        <path d="M433.54,859.69h22.47c.4,0,.72-.12.95-.34.23-.23.34-.53.34-.89s-.11-.66-.34-.9c-.23-.24-.55-.36-.95-.36h-22.47c-.4,0-.72.12-.95.36-.23.24-.34.54-.34.9s.12.66.34.89c.23.23.54.34.95.34Z" style="fill: #666;"/>
        <path d="M438.12,862.15c-.28-.25-.63-.38-1.03-.38s-.74.13-1.03.38c-.29.26-.43.61-.43,1.05v4.59c0,.84.22,1.51.66,1.97.44.47,1.15.71,2.11.71h14.59c.38,0,.69-.12.92-.36.23-.24.34-.53.34-.87,0-.36-.11-.66-.34-.9-.23-.24-.54-.36-.92-.36h-13.52c-.35,0-.59-.07-.72-.22-.13-.15-.2-.42-.2-.79v-3.78c0-.44-.15-.8-.43-1.05Z" style="fill: #666;"/>
        <path d="M438.69,854.49h14.45c.38,0,.69-.12.92-.36.23-.24.34-.53.34-.87,0-.36-.11-.66-.34-.9-.23-.24-.54-.36-.92-.36h-13.37c-.35,0-.59-.07-.72-.22-.13-.15-.2-.42-.2-.79v-5.38c0-.44-.15-.8-.43-1.05-.28-.25-.63-.38-1.03-.38s-.74.13-1.03.38c-.29.26-.43.61-.43,1.05v6.19c0,.84.22,1.51.66,1.97.44.47,1.15.71,2.11.71Z" style="fill: #666;"/>
        <path d="M469,866.99h22.47c.4,0,.72-.12.95-.34.23-.23.34-.53.34-.89s-.11-.66-.34-.9c-.23-.24-.55-.36-.95-.36h-9.7v-4.26c0-.44-.15-.8-.43-1.05-.28-.25-.63-.38-1.03-.38s-.74.13-1.03.38c-.29.26-.43.61-.43,1.05v4.26h-9.84c-.4,0-.72.12-.95.36-.23.24-.34.54-.34.9s.12.66.34.89c.23.23.54.34.95.34Z" style="fill: #666;"/>
        <path d="M470.36,858.97c.16.13.33.21.5.26.11.03.22.04.33.04.06,0,.11,0,.16-.01.15-.02.26-.04.32-.06.98-.23,1.93-.55,2.82-.94.91-.39,1.75-.86,2.51-1.39.76-.53,1.44-1.14,2.03-1.81.52-.59.95-1.24,1.27-1.92.31.67.71,1.31,1.22,1.89.57.66,1.24,1.27,2,1.81.76.53,1.59,1,2.49,1.39.89.39,1.83.7,2.81.94.07.02.17.04.32.06.16.02.33.01.51-.03.18-.04.36-.13.52-.26.16-.13.29-.34.37-.61.09-.24.1-.46.05-.64-.05-.19-.15-.34-.28-.47-.12-.12-.26-.22-.39-.3-.14-.07-.24-.12-.33-.14-1.04-.27-2.03-.64-2.97-1.11-.93-.47-1.77-1.05-2.48-1.74-.71-.68-1.29-1.5-1.7-2.42-.42-.92-.63-1.99-.63-3.19v-1.48c0-.48-.14-.86-.42-1.12-.27-.26-.63-.4-1.05-.4s-.78.13-1.07.4c-.3.27-.45.64-.45,1.12v1.48c0,1.2-.22,2.27-.64,3.2-.43.93-1.01,1.75-1.73,2.45-.72.69-1.57,1.28-2.51,1.74-.95.46-1.95.83-2.98,1.1-.09.02-.2.07-.33.14-.14.07-.27.17-.39.3-.13.13-.23.29-.28.47-.06.19-.04.41.04.64.08.27.21.48.38.61Z" style="fill: #666;"/>
        <path d="M516.43,843.57c-.4,0-.74.13-1.02.4-.28.27-.42.62-.42,1.06v24.01c0,.44.14.8.42,1.05.27.25.62.38,1.01.38s.74-.13,1.03-.38c.29-.26.43-.61.43-1.05v-24.01c0-.44-.15-.8-.43-1.07-.28-.26-.63-.4-1.03-.4Z" style="fill: #666;"/>
        <path d="M511.25,862.85c.17-.06.33-.15.47-.27.15-.12.27-.28.36-.47.09-.2.1-.45.04-.75-.06-.26-.18-.45-.33-.59-.15-.13-.32-.22-.5-.26-.18-.04-.35-.05-.52-.03-.16.02-.29.04-.39.06-1.62.39-3.31.68-5.03.87-1.72.19-3.39.31-4.94.35-.39,0-.64-.07-.76-.22-.13-.15-.19-.4-.19-.73v-3.95c0-.22.03-.5.2-.59.16-.09.34-.13.55-.13h6.31c.96,0,1.67-.24,2.11-.71.44-.47.66-1.13.66-1.97v-4.65c0-.84-.22-1.51-.66-1.97-.44-.47-1.15-.71-2.11-.71h-8.78c-.38,0-.69.12-.92.36-.23.24-.34.53-.34.87,0,.36.11.67.34.91.23.25.54.38.92.38h7.85c.21,0,.39.04.55.13.13.07.2.27.2.59v3.55c0,.32-.07.52-.2.59-.15.09-.34.13-.55.13h-6.28c-.96,0-1.67.24-2.11.71-.44.47-.66,1.13-.66,1.97v5.26c0,.76.21,1.41.62,1.92.42.52,1.09.79,2,.79,1.87-.02,3.84-.13,5.84-.33,2-.2,3.97-.53,5.84-.97.12-.02.26-.06.43-.12Z" style="fill: #666;"/>
        <path d="M528.79,854.49h14.45c.38,0,.69-.12.92-.36.23-.24.34-.53.34-.87,0-.36-.11-.66-.34-.9-.23-.24-.54-.36-.92-.36h-13.37c-.35,0-.59-.07-.72-.22-.13-.15-.2-.42-.2-.79v-5.38c0-.44-.15-.8-.43-1.05-.28-.25-.63-.38-1.03-.38s-.74.13-1.03.38c-.29.26-.43.61-.43,1.05v6.19c0,.84.22,1.51.66,1.97.44.47,1.15.71,2.11.71Z" style="fill: #666;"/>
        <path d="M543.09,867.99h-13.52c-.35,0-.59-.07-.72-.22-.13-.15-.2-.42-.2-.79v-3.78c0-.44-.15-.8-.43-1.05-.28-.25-.63-.38-1.03-.38s-.74.13-1.03.38c-.29.26-.43.61-.43,1.05v4.59c0,.84.22,1.51.66,1.97.44.47,1.15.71,2.11.71h14.59c.38,0,.69-.12.92-.36.23-.24.34-.53.34-.87,0-.36-.11-.66-.34-.9-.23-.24-.54-.36-.92-.36Z" style="fill: #666;"/>
        <path d="M547.4,858.46c0-.36-.11-.66-.34-.9-.23-.24-.55-.36-.95-.36h-22.47c-.4,0-.72.12-.95.36-.23.24-.34.54-.34.9s.12.66.34.89c.23.23.54.34.95.34h22.47c.4,0,.72-.12.95-.34.23-.23.34-.53.34-.89Z" style="fill: #666;"/>
        <path d="M239,896.5c1.02-.93,1.88-1.97,2.54-3.07.66-1.1,1.11-2.29,1.32-3.54.16-.91,0-1.6-.46-2.03-.46-.43-1.18-.64-2.13-.64h-8.98c-.4,0-.72.12-.95.36-.23.24-.34.54-.34.9s.11.66.34.89c.23.23.55.34.95.34h7.76c.35,0,.59.09.73.26.13.17.13.44,0,.83-.29.84-.74,1.66-1.36,2.45-.62.79-1.37,1.54-2.22,2.22-.85.68-1.82,1.31-2.86,1.88-1.05.57-2.15,1.05-3.3,1.44-.08.04-.18.09-.31.16-.14.08-.27.19-.37.32-.11.14-.18.3-.23.48-.05.19-.01.41.09.65.13.28.29.47.49.58.19.11.39.17.61.18.04,0,.07,0,.1,0,.17,0,.32-.02.46-.07.16-.05.29-.09.38-.13,1.49-.52,2.91-1.17,4.22-1.91,1.31-.74,2.49-1.6,3.51-2.53Z" style="fill: #666;"/>
        <path d="M253.4,891.92h-3.16v-4.99c0-.44-.15-.8-.43-1.07-.28-.26-.63-.4-1.03-.4s-.74.13-1.02.4c-.28.27-.42.62-.42,1.06v13.17c0,.44.14.8.42,1.05.27.25.62.38,1.01.38s.74-.13,1.03-.38c.29-.26.43-.61.43-1.05v-5.69h3.16c.38,0,.69-.12.92-.36.23-.24.34-.54.34-.9,0-.34-.11-.63-.34-.87-.23-.24-.54-.36-.92-.36Z" style="fill: #666;"/>
        <path d="M248.33,903.17c-1.69-.93-4.06-1.4-7.05-1.4s-5.36.47-7.05,1.4c-1.71.94-2.58,2.3-2.58,4.05s.87,3.11,2.58,4.05c1.69.93,4.06,1.4,7.05,1.4s5.36-.47,7.05-1.4c1.71-.94,2.58-2.3,2.58-4.05s-.87-3.11-2.58-4.05ZM246.19,909.48c-.6.25-1.32.43-2.15.54-.83.12-1.76.17-2.76.17s-1.95-.06-2.77-.17c-.82-.11-1.54-.3-2.13-.54-.59-.24-1.05-.55-1.36-.92-.31-.36-.46-.81-.46-1.34s.16-.96.47-1.33c.31-.38.77-.69,1.36-.94.6-.25,1.32-.43,2.13-.54.82-.12,1.76-.17,2.77-.17s1.93.06,2.76.17c.83.11,1.55.3,2.15.54.59.24,1.05.56,1.36.94.31.37.47.82.47,1.33s-.16.98-.46,1.34c-.32.37-.77.68-1.36.92Z" style="fill: #666;"/>
        <path d="M269.24,890.2c-.58-.83-1.33-1.48-2.23-1.93-.9-.45-1.96-.68-3.15-.68s-2.28.23-3.17.68c-.89.45-1.63,1.1-2.21,1.93-.58.82-1.02,1.83-1.3,2.99-.28,1.16-.43,2.46-.43,3.88s.14,2.72.43,3.88c.28,1.16.72,2.17,1.3,2.99.58.83,1.32,1.48,2.21,1.93.89.45,1.95.68,3.17.68s2.26-.23,3.15-.68c.9-.45,1.64-1.1,2.23-1.93.58-.82,1.01-1.83,1.3-2.99.28-1.16.42-2.46.42-3.88s-.14-2.72-.42-3.88c-.28-1.16-.72-2.17-1.3-2.99ZM263.86,903.95c-1.42,0-2.45-.57-3.15-1.74-.7-1.18-1.06-2.9-1.06-5.14s.36-3.96,1.06-5.14c.69-1.16,1.75-1.74,3.15-1.74s2.45.57,3.15,1.74c.7,1.18,1.06,2.91,1.06,5.14s-.36,3.96-1.06,5.14c-.7,1.17-1.73,1.74-3.15,1.74Z" style="fill: #666;"/>
        <path d="M281.01,895.67h-3.45v-8.74c0-.44-.15-.8-.43-1.07-.28-.26-.63-.4-1.03-.4s-.74.13-1.02.4c-.28.27-.42.62-.42,1.06v24.01c0,.44.14.79.42,1.05.27.25.62.38,1.01.38s.74-.13,1.03-.38c.29-.26.43-.61.43-1.05v-12.75h3.45c.38,0,.69-.12.92-.36.23-.24.34-.54.34-.9,0-.34-.11-.64-.34-.88-.23-.25-.54-.37-.92-.37Z" style="fill: #666;"/>
        <path d="M299.76,903.98c-.1-.11-.2-.2-.28-.26-1.86-1.32-3.33-2.9-4.38-4.68-1.05-1.78-1.58-3.86-1.58-6.17v-2.17h4.67c.4,0,.72-.12.95-.36.23-.24.34-.54.34-.9s-.11-.66-.34-.9c-.23-.24-.55-.36-.95-.36h-12.32c-.4,0-.72.12-.95.36-.23.24-.34.54-.34.9s.11.66.34.9c.23.24.54.36.95.36h4.7v2.17c0,1.13-.15,2.23-.46,3.28-.3,1.05-.74,2.06-1.28,3.01-.55.95-1.21,1.84-1.97,2.67-.77.82-1.63,1.57-2.57,2.22-.08.06-.18.15-.28.26-.1.11-.19.25-.27.41-.08.16-.11.34-.1.54.01.2.1.41.27.62.15.22.33.36.54.43.15.05.3.07.45.07.05,0,.1,0,.15,0,.2-.02.38-.07.54-.14.17-.07.29-.14.37-.2.62-.43,1.25-.93,1.86-1.49.61-.57,1.21-1.18,1.75-1.83.55-.65,1.06-1.34,1.49-2.05.38-.61.7-1.24.95-1.88.24.6.54,1.2.9,1.78.42.68.9,1.35,1.42,1.98.52.63,1.09,1.23,1.68,1.77.59.54,1.2,1.04,1.8,1.46.09.06.2.13.36.2.16.07.34.12.53.13.19.01.38-.02.58-.08.21-.06.4-.21.57-.43.15-.21.23-.42.24-.63.01-.2-.02-.39-.08-.55-.06-.16-.15-.3-.26-.42Z" style="fill: #666;"/>
        <path d="M304.87,885.47c-.4,0-.74.13-1.02.4-.28.27-.42.62-.42,1.06v24.01c0,.44.14.79.42,1.05.27.25.62.38,1.01.38s.74-.13,1.03-.38c.29-.26.43-.61.43-1.05v-24.01c0-.44-.15-.8-.43-1.07-.28-.26-.63-.4-1.03-.4Z" style="fill: #666;"/>
        <path d="M334.55,896.98h-22.47c-.4,0-.72.12-.95.36-.23.24-.34.54-.34.9s.12.66.34.89c.23.23.54.34.95.34h22.47c.4,0,.72-.12.95-.34.23-.23.34-.53.34-.89s-.11-.66-.34-.9c-.23-.24-.55-.36-.95-.36Z" style="fill: #666;"/>
        <path d="M317.08,894.93h14.27c.38,0,.69-.12.92-.36.23-.24.34-.53.34-.87,0-.36-.11-.66-.34-.9-.23-.24-.54-.36-.92-.36h-13.2c-.35,0-.59-.07-.72-.22-.13-.15-.2-.42-.2-.79v-2.01c0-.37.07-.64.2-.79.13-.15.37-.22.72-.22h12.91c.38,0,.69-.12.92-.34.23-.23.34-.53.34-.89,0-.34-.11-.64-.34-.88-.23-.25-.54-.37-.92-.37h-13.98c-.96,0-1.67.24-2.11.71-.44.47-.66,1.13-.66,1.97v3.63c0,.84.22,1.51.66,1.97.44.47,1.15.71,2.11.71Z" style="fill: #666;"/>
        <path d="M331.93,909.94h-14.21c-.18,0-.33-.03-.47-.1-.11-.05-.16-.21-.16-.47v-.67c0-.18.03-.4.16-.47.14-.07.29-.1.47-.1h12.12c.96,0,1.67-.24,2.11-.71.44-.47.66-1.13.66-1.97v-1.19c0-.84-.22-1.51-.66-1.98-.44-.47-1.15-.71-2.11-.71h-14.42c-.38,0-.69.11-.92.34-.23.23-.34.52-.34.86,0,.36.11.66.34.89.23.23.54.34.92.34h13.6c.19,0,.36.03.5.1.14.07.16.29.16.47v.55c0,.18-.03.4-.16.47-.14.07-.3.1-.5.1h-12.09c-.96,0-1.67.24-2.11.71-.44.47-.66,1.13-.66,1.97v1.31c0,.84.22,1.51.66,1.97.44.47,1.15.71,2.11.71h15c.38,0,.69-.12.92-.34.23-.23.34-.52.34-.86,0-.36-.11-.66-.34-.89-.23-.23-.53-.34-.92-.34Z" style="fill: #666;"/>
        <path d="M359.25,909.94h-14.21c-.18,0-.33-.03-.47-.1-.11-.05-.16-.21-.16-.47v-.67c0-.18.03-.4.16-.47.14-.07.29-.1.47-.1h12.12c.96,0,1.67-.24,2.11-.71.44-.47.66-1.13.66-1.97v-1.19c0-.84-.22-1.51-.66-1.98-.44-.47-1.15-.71-2.11-.71h-14.42c-.38,0-.69.11-.92.34-.23.23-.34.52-.34.86,0,.36.11.66.34.89.23.23.54.34.92.34h13.6c.19,0,.36.03.5.1.14.07.16.29.16.47v.55c0,.18-.03.4-.16.47-.14.07-.3.1-.5.1h-12.09c-.96,0-1.67.24-2.11.71-.44.47-.66,1.13-.66,1.97v1.31c0,.84.22,1.51.66,1.97.44.47,1.15.71,2.11.71h15c.38,0,.69-.12.92-.34.23-.23.34-.52.34-.86,0-.36-.11-.66-.34-.89-.23-.23-.53-.34-.92-.34Z" style="fill: #666;"/>
        <path d="M361.87,897.09h-22.47c-.4,0-.72.12-.95.36-.23.24-.34.54-.34.9s.12.66.34.89c.23.23.54.34.95.34h22.47c.4,0,.72-.12.95-.34.23-.23.34-.53.34-.89s-.11-.66-.34-.9c-.23-.24-.55-.36-.95-.36Z" style="fill: #666;"/>
        <path d="M343.65,894.27c1.69.79,4.07,1.19,7.06,1.19s5.38-.4,7.06-1.19c1.71-.8,2.57-2.08,2.57-3.79s-.87-2.99-2.57-3.79c-1.68-.79-4.05-1.19-7.06-1.19s-5.36.4-7.06,1.19c-1.73.8-2.6,2.08-2.6,3.79s.88,2.99,2.6,3.79ZM345.71,888.52c1.19-.41,2.88-.62,5-.62s3.78.21,4.97.62c1.17.4,1.73,1.04,1.73,1.96s-.56,1.54-1.72,1.95c-1.18.42-2.86.63-4.99.63s-3.83-.21-5.01-.63c-1.16-.41-1.72-1.05-1.72-1.95s.57-1.56,1.73-1.96Z" style="fill: #666;"/>
        <path d="M379.86,895.22h12.61c.96,0,1.67-.24,2.11-.71.44-.47.66-1.13.66-1.97v-5.44c0-.44-.15-.8-.43-1.07-.28-.26-.63-.4-1.03-.4s-.74.13-1.02.4c-.28.27-.42.62-.42,1.06v1.04h-12.33v-1.04c0-.44-.15-.8-.45-1.07-.29-.26-.64-.4-1.04-.4s-.74.13-1.02.4c-.28.27-.42.62-.42,1.06v5.44c0,.84.22,1.51.66,1.97.44.47,1.15.71,2.11.71ZM380.01,891.78v-1.21h12.33v1.21c0,.37-.07.64-.2.79-.13.15-.37.22-.72.22h-10.49c-.35,0-.59-.07-.72-.22-.13-.15-.2-.42-.2-.79Z" style="fill: #666;"/>
        <path d="M397.33,897.12h-22.47c-.4,0-.72.12-.95.36-.23.24-.34.54-.34.9s.12.66.34.89c.23.23.54.34.95.34h9.82v1.96h-6.47c-.38,0-.69.11-.92.34-.23.23-.34.52-.34.86,0,.36.11.66.34.89.23.23.54.34.92.34h13.6c.19,0,.36.03.5.1.14.07.16.29.16.47v.55c0,.18-.03.4-.16.47-.14.07-.3.1-.5.1h-12.09c-.96,0-1.67.24-2.11.71-.44.47-.66,1.13-.66,1.97v1.31c0,.84.22,1.51.66,1.97.44.47,1.15.71,2.11.71h15c.38,0,.69-.12.92-.34.23-.23.34-.52.34-.86,0-.36-.11-.66-.34-.89-.23-.23-.53-.34-.92-.34h-14.21c-.18,0-.33-.03-.47-.1-.11-.05-.16-.21-.16-.47v-.67c0-.18.03-.4.16-.47.14-.07.29-.1.47-.1h12.12c.96,0,1.67-.24,2.11-.71.44-.47.66-1.13.66-1.97v-1.19c0-.84-.22-1.51-.66-1.98-.44-.47-1.15-.71-2.11-.71h-5.02v-1.96h9.73c.4,0,.72-.12.95-.34.23-.23.34-.52.34-.89s-.11-.66-.34-.9c-.23-.24-.55-.36-.95-.36Z" style="fill: #666;"/>
        <path d="M408.55,900.37c.96,0,1.88-.16,2.75-.49.86-.32,1.62-.79,2.25-1.38.63-.59,1.14-1.32,1.51-2.16.37-.85.56-1.8.56-2.84s-.19-1.99-.56-2.84c-.37-.84-.88-1.57-1.51-2.16-.63-.59-1.39-1.05-2.25-1.38-.86-.32-1.79-.49-2.75-.49s-1.88.16-2.73.49c-.86.32-1.61.79-2.24,1.39-.63.6-1.14,1.33-1.51,2.18-.37.85-.56,1.79-.56,2.81s.19,1.99.56,2.83c.37.83.88,1.56,1.51,2.16.63.6,1.38,1.07,2.24,1.39.85.32,1.77.49,2.73.49ZM404.37,893.47c0-1.3.39-2.35,1.17-3.12.78-.78,1.79-1.17,3.01-1.17,1.29,0,2.33.4,3.08,1.18.75.79,1.13,1.84,1.13,3.14s-.38,2.35-1.13,3.14c-.75.78-1.78,1.18-3.08,1.18-.6,0-1.17-.1-1.68-.31-.51-.21-.96-.5-1.32-.89-.37-.38-.66-.84-.86-1.37-.21-.52-.31-1.13-.31-1.79Z" style="fill: #666;"/>
        <path d="M421.63,909.59h-13.08c-.35,0-.59-.07-.72-.22-.13-.15-.2-.42-.2-.79v-4.42c0-.44-.15-.8-.43-1.05-.28-.25-.63-.38-1.03-.38s-.74.13-1.03.38c-.29.26-.43.61-.43,1.05v5.23c0,.84.22,1.51.66,1.97.44.47,1.15.71,2.11.71h14.15c.38,0,.69-.12.92-.36.23-.24.34-.53.34-.87,0-.36-.11-.67-.34-.9-.23-.24-.54-.36-.92-.36Z" style="fill: #666;"/>
        <path d="M425.46,893.4h-3.16v-6.47c0-.44-.15-.8-.43-1.07-.28-.26-.63-.4-1.03-.4s-.74.13-1.02.4c-.28.27-.42.62-.42,1.06v17.12c0,.44.14.79.42,1.05.27.25.62.38,1.01.38s.74-.13,1.03-.38c.29-.26.43-.61.43-1.05v-8.16h3.16c.38,0,.69-.12.92-.36.23-.24.34-.54.34-.9,0-.34-.11-.63-.34-.87-.23-.24-.54-.36-.92-.36Z" style="fill: #666;"/>
        <path d="M441.07,896.89c-.59-.55-1.3-.98-2.12-1.28-.81-.29-1.71-.44-2.67-.44s-1.88.15-2.69.44c-.81.29-1.51.72-2.11,1.28-.59.55-1.06,1.23-1.38,2-.32.78-.49,1.66-.49,2.62s.16,1.84.49,2.62c.32.78.79,1.45,1.38,2,.59.55,1.3.98,2.11,1.28.8.29,1.71.44,2.69.44s1.86-.15,2.67-.44c.82-.3,1.53-.73,2.12-1.28.59-.55,1.06-1.23,1.38-2,.32-.78.49-1.66.49-2.62s-.16-1.84-.49-2.62c-.32-.78-.79-1.45-1.38-2ZM436.27,897.72c1.27,0,2.23.37,2.86,1.09.63.73.94,1.64.94,2.71s-.32,1.98-.94,2.71c-.62.72-1.58,1.09-2.86,1.09s-2.19-.37-2.83-1.09c-.64-.73-.97-1.65-.97-2.74,0-.53.08-1.03.24-1.48.16-.46.4-.86.73-1.19.33-.33.73-.6,1.19-.8.47-.2,1.02-.3,1.64-.3Z" style="fill: #666;"/>
        <path d="M432.82,889.38h6.77c.4,0,.72-.12.95-.36.23-.24.34-.54.34-.9s-.11-.66-.34-.9c-.23-.24-.55-.36-.95-.36h-6.77c-.4,0-.72.12-.95.36-.23.24-.34.54-.34.9s.11.67.34.9c.23.24.55.36.95.36Z" style="fill: #666;"/>
        <path d="M442.78,891.08h-13.2c-.4,0-.72.12-.95.36-.23.24-.34.54-.34.9s.11.66.34.9c.23.24.55.36.95.36h13.2c.4,0,.72-.12.95-.36.23-.24.34-.54.34-.9s-.11-.66-.34-.9c-.23-.24-.55-.36-.95-.36Z" style="fill: #666;"/>
        <path d="M453.07,895.67h-3.45v-8.74c0-.44-.15-.8-.43-1.07-.28-.26-.63-.4-1.03-.4s-.74.13-1.02.4c-.28.27-.42.62-.42,1.06v24.01c0,.44.14.79.42,1.05.27.25.62.38,1.01.38s.74-.13,1.03-.38c.29-.26.43-.61.43-1.05v-12.75h3.45c.38,0,.69-.12.92-.36.23-.24.34-.54.34-.9,0-.34-.11-.64-.34-.88-.23-.25-.54-.37-.92-.37Z" style="fill: #666;"/>
        <path d="M472.4,886.05c-.4,0-.74.13-1,.38-.27.26-.4.61-.4,1.05v8.22h-3.66c.46-1.51.76-3.15.89-4.9.06-.91-.16-1.58-.65-2.01-.49-.42-1.29-.63-2.38-.63h-7.21c-.4,0-.72.12-.95.36-.23.24-.34.54-.34.9s.11.66.34.89c.23.23.55.34.95.34h6.48c.27,0,.49.05.65.14.08.05.2.21.16.8-.23,2.68-1.1,5.17-2.58,7.41-1.48,2.24-3.54,4.12-6.11,5.6-.1.06-.22.14-.35.24-.14.11-.25.23-.35.38-.1.15-.16.33-.18.53-.02.21.03.43.16.67.13.24.31.41.52.51.41.19.82.17,1.18.05.17-.06.3-.11.41-.15,3.91-2.14,6.74-5.05,8.39-8.65h4.62v11.53c0,.44.14.79.4,1.04.26.24.6.37,1,.37.38,0,.71-.12.98-.37.28-.25.42-.6.42-1.04v-22.23c0-.44-.14-.8-.42-1.05-.27-.25-.61-.38-.99-.38Z" style="fill: #666;"/>
        <path d="M477.6,885.47c-.4,0-.74.13-1.01.38-.28.26-.42.61-.42,1.05v24.15c0,.44.14.79.42,1.04.27.24.61.37,1.01.37s.71-.12.98-.37c.28-.25.42-.6.42-1.04v-24.15c0-.44-.14-.79-.42-1.05-.27-.25-.61-.38-.99-.38Z" style="fill: #666;"/>
        <path d="M513.06,885.47c-.4,0-.74.13-1.01.38-.28.26-.42.61-.42,1.05v8.8h-2.66v-8.22c0-.44-.14-.79-.42-1.05-.28-.25-.61-.38-.99-.38-.4,0-.74.13-1,.38-.27.26-.4.61-.4,1.05v22.23c0,.44.14.79.4,1.04.26.24.6.37,1,.37.38,0,.71-.12.98-.37.28-.25.42-.6.42-1.04v-11.53h2.66v12.87c0,.44.14.79.42,1.04.27.24.61.37,1.01.37s.71-.12.98-.37c.28-.25.42-.6.42-1.04v-24.15c0-.44-.14-.79-.42-1.05-.27-.25-.61-.38-.99-.38Z" style="fill: #666;"/>
        <path d="M502.1,896.93c-.5-.55-1.13-.99-1.86-1.3-.73-.31-1.56-.46-2.46-.46s-1.73.15-2.45.46c-.72.31-1.34.75-1.85,1.31-.5.56-.9,1.24-1.17,2-.28.76-.41,1.63-.41,2.57s.14,1.81.41,2.57c.27.77.67,1.44,1.17,2,.5.56,1.13,1,1.85,1.31.72.31,1.54.46,2.45.46s1.73-.15,2.46-.46c.73-.31,1.36-.74,1.86-1.3.5-.55.89-1.23,1.16-2.01.27-.78.4-1.64.4-2.58s-.13-1.81-.4-2.58c-.27-.78-.66-1.45-1.16-2.01ZM499.16,905.09c-.38.19-.84.29-1.38.29s-.98-.1-1.35-.29c-.38-.19-.7-.47-.94-.81-.25-.35-.44-.76-.56-1.24-.12-.48-.18-1-.18-1.55,0-1.07.25-1.99.75-2.74.49-.74,1.24-1.09,2.29-1.09.54,0,1,.1,1.38.29.38.19.69.46.94.81.25.34.43.75.55,1.22.11.47.17.99.17,1.54s-.06,1.07-.17,1.54c-.11.47-.3.88-.55,1.22-.25.34-.57.61-.94.81Z" style="fill: #666;"/>
        <path d="M503.3,891.08h-11.04c-.4,0-.72.12-.95.36-.23.24-.34.54-.34.9s.11.66.34.9c.23.24.55.36.95.36h11.04c.4,0,.72-.12.95-.36.23-.24.34-.54.34-.9s-.11-.66-.34-.9c-.23-.24-.55-.36-.95-.36Z" style="fill: #666;"/>
        <path d="M494.72,889.38h6.1c.4,0,.72-.12.95-.36.23-.24.34-.54.34-.9s-.11-.66-.34-.9c-.23-.24-.55-.36-.95-.36h-6.1c-.4,0-.72.12-.95.36-.23.24-.34.54-.34.9s.11.67.34.9c.23.24.55.36.95.36Z" style="fill: #666;"/>
        <path d="M523.87,899.22c.83.62,1.85,1.1,3.03,1.43,1.18.33,2.52.5,4,.5s2.83-.17,4.02-.5c1.19-.33,2.21-.81,3.03-1.43.83-.62,1.47-1.37,1.91-2.24.44-.87.67-1.83.67-2.88s-.22-2.01-.67-2.88c-.44-.87-1.09-1.62-1.91-2.24-.82-.62-1.84-1.1-3.03-1.43-1.19-.33-2.54-.5-4.02-.5s-2.82.17-4,.5c-1.18.33-2.2.81-3.03,1.43-.83.62-1.49,1.37-1.94,2.24-.45.87-.68,1.83-.68,2.88s.23,2.01.68,2.88c.45.86,1.1,1.62,1.94,2.24ZM530.91,898.75c-2.06,0-3.72-.41-4.93-1.21-1.2-.8-1.8-1.95-1.8-3.43s.61-2.66,1.8-3.44c1.21-.8,2.87-1.2,4.93-1.2,1.03,0,1.97.1,2.79.3.82.2,1.53.5,2.11.9.58.39,1.03.88,1.34,1.45.31.57.46,1.24.46,1.99s-.16,1.39-.46,1.96c-.31.57-.76,1.06-1.34,1.45-.59.4-1.3.7-2.11.91-.82.21-1.76.32-2.79.32Z" style="fill: #666;"/>
        <path d="M542.07,906.39h-4.44v-3.65c0-.44-.15-.8-.43-1.07-.28-.26-.63-.4-1.03-.4s-.74.13-1.03.4c-.29.27-.43.62-.43,1.07v3.65h-7.6v-3.65c0-.44-.15-.8-.43-1.07-.28-.26-.63-.4-1.03-.4s-.74.13-1.03.4c-.29.27-.43.62-.43,1.07v3.65h-4.58c-.4,0-.72.12-.95.36-.23.24-.34.54-.34.9s.12.66.34.89c.23.23.54.34.95.34h22.47c.4,0,.72-.12.95-.34.23-.23.34-.53.34-.89s-.11-.66-.34-.9c-.23-.24-.55-.36-.95-.36Z" style="fill: #666;"/>
        <path d="M548.58,906.95c-.55,0-1.03.2-1.43.59-.39.39-.59.87-.59,1.43s.2,1.03.59,1.41c.39.38.87.57,1.42.57s1.03-.19,1.41-.57c.38-.38.57-.86.57-1.41s-.19-1.03-.57-1.42c-.38-.39-.86-.59-1.41-.59Z" style="fill: #666;"/>
        <path d="M547.2,903.32c0,.42.13.76.39.99.25.23.58.35.96.35.36,0,.69-.12.98-.36.3-.25.45-.59.45-1.01l.17-14.42c0-.48-.17-.87-.49-1.16-.32-.28-.7-.42-1.11-.42s-.78.14-1.07.43c-.3.28-.45.67-.45,1.15l.17,14.45Z" style="fill: #666;"/>
      </g>
    </g>
  </g>
</svg>