<?xml version="1.0" encoding="UTF-8"?>
<svg id="_레이어_2" data-name="레이어 2" xmlns="http://www.w3.org/2000/svg" viewBox="0 0 779.48 1207.79">
  <g id="_레이어_1-2" data-name="레이어 1">
    <g>
      <rect width="779.48" height="1207.79" style="fill: none;"/>
      <g>
        <polygon points="285.31 642.65 300.51 657.79 285.31 642.65 285.31 642.65" style="fill: none;"/>
        <path d="M452.88,679.75c.12-.05.25-.09.37-.14.14-.06.28-.12.42-.18-.26.11-.52.22-.79.33Z" style="fill: none;"/>
        <path d="M472.31,294.31c-39.03,0-72.35-24.88-84.96-59.61h-53.4c2.87,8.8,4.43,18.19,4.43,27.94,0,16.12-4.25,31.26-11.67,44.38,4.34-.56,8.74-.86,13.19-.86h99.7c26.84,0,52.09,10.43,71.11,29.37l6.92,6.89,19.87-48.11h-65.18Z" style="fill: none;"/>
        <path d="M339.89,682.3c-6.21,0-12.18-1.58-17.46-4.54.22.12.44.25.66.37,5.11,2.73,10.85,4.17,16.8,4.17h99.7c1.79,0,3.55-.13,5.29-.39.58-.09,1.15-.18,1.73-.3,1.14-.23,2.27-.51,3.38-.84.19-.06.38-.13.56-.19-3.5,1.12-7.18,1.71-10.96,1.71h-99.7Z" style="fill: none;"/>
        <path d="M439.59,747.3h-99.7c-19.65,0-38.45-5.6-54.58-16.03v34.3h208.69v-34.19c-16.09,10.36-34.82,15.92-54.41,15.92Z" style="fill: none;"/>
        <path d="M266.31,623.73l-22.13-22.04c-1.67-1.67-3.17-3.49-4.47-5.44.65.98,1.35,1.92,2.09,2.83.75.91,1.54,1.78,2.37,2.61l22.13,22.04h0Z" style="fill: none;"/>
        <polygon points="535.3 601.68 535.3 601.68 535.16 601.82 535.3 601.68" style="fill: none;"/>
        <path d="M285.31,731.27c-5.9-3.81-11.44-8.27-16.53-13.34l-2.47-2.46v50.1h19v-34.3Z" style="fill: #d3d3d3;"/>
        <path d="M266.31,1036.84h-32.32c-6.35,0-11.73,4.67-12.63,10.95l-17.54,122.64c-1.1,7.69,4.87,14.57,12.63,14.57h118.72c7.77,0,13.73-6.88,12.63-14.57l-17.54-122.64c-.9-6.29-6.28-10.95-12.63-10.95h-32.32v-63.86h-19v63.86Z" style="fill: #d3d3d3;"/>
        <rect x="262.4" y="633.19" width="26.82" height="0" style="fill: #d3d3d3;"/>
        <path d="M494,972.98v63.86h-32.32c-6.35,0-11.73,4.67-12.63,10.95l-17.54,122.64c-1.1,7.69,4.87,14.57,12.63,14.57h118.72c7.77,0,13.73-6.88,12.63-14.57l-17.54-122.64c-.9-6.29-6.28-10.95-12.63-10.95h-32.32v-63.86h-19Z" style="fill: #d3d3d3;"/>
        <path d="M494,731.38v34.19h19v-49.93l-2.3,2.29c-5.14,5.12-10.74,9.61-16.7,13.45Z" style="fill: #d3d3d3;"/>
        <path d="M443.07,859.24h2.27c.35,0,.59-.07.72-.22.13-.15.2-.42.2-.79v-2.03h-4.11v2.03c0,.37.07.64.2.79.13.15.37.22.72.22Z" style="fill: #ececec;"/>
        <path d="M318.53,896.48h-10.75c-.35,0-.59.07-.72.22-.13.15-.2.42-.2.79v2.62c0,.37.07.64.2.79.13.15.37.22.72.22h10.75c.35,0,.59-.07.72-.22.13-.15.2-.42.2-.79v-2.62c0-.37-.07-.64-.2-.79-.13-.15-.37-.22-.72-.22Z" style="fill: #ececec;"/>
        <path d="M466.83,846.38c0,2.23.36,3.96,1.06,5.14.69,1.16,1.75,1.74,3.15,1.74s2.45-.57,3.15-1.74c.7-1.18,1.06-2.91,1.06-5.14s-.36-3.96-1.06-5.14c-.7-1.17-1.73-1.74-3.15-1.74s-2.46.59-3.15,1.74c-.7,1.18-1.06,2.9-1.06,5.14Z" style="fill: #ececec;"/>
        <path d="M368.06,888.55h5.67c.35,0,.59-.07.72-.22.13-.15.2-.42.2-.79v-5.7c0-.37-.07-.64-.2-.79-.13-.15-.37-.22-.72-.22h-5.67c-.35,0-.59.07-.72.22-.13.15-.2.42-.2.79v5.7c0,.37.07.64.2.79.13.15.37.22.72.22Z" style="fill: #ececec;"/>
        <path d="M260.5,843.4c.71.52,1.76.79,3.12.79,1.44,0,2.51-.26,3.19-.77.68-.51,1.01-1.2,1.01-2.09s-.33-1.59-1.01-2.11c-.68-.52-1.76-.79-3.19-.79-1.36,0-2.41.26-3.12.78-.71.51-1.05,1.2-1.05,2.09s.34,1.59,1.05,2.11Z" style="fill: #ececec;"/>
        <path d="M378.16,845.93c.36.38.81.68,1.32.89.52.21,1.08.31,1.68.31,1.29,0,2.33-.4,3.08-1.18.75-.79,1.13-1.84,1.13-3.14s-.38-2.35-1.13-3.14c-.75-.78-1.78-1.18-3.08-1.18-1.22,0-2.23.39-3.01,1.17-.78.78-1.17,1.83-1.17,3.12,0,.66.1,1.26.31,1.79.21.53.5.99.86,1.37Z" style="fill: #ececec;"/>
        <path d="M287.84,846.66h5.67c.35,0,.59-.07.72-.22.13-.15.2-.42.2-.79v-2.61h-7.51v2.61c0,.37.07.64.2.79.13.15.37.22.72.22Z" style="fill: #ececec;"/>
        <path d="M417.82,838.35c-1.18-.57-2.85-.86-4.97-.86s-3.82.29-5,.86c-1.17.56-1.73,1.35-1.73,2.42s.57,1.85,1.73,2.42c1.18.57,2.86.86,5,.86s3.8-.29,4.97-.86c1.17-.56,1.73-1.35,1.73-2.42s-.57-1.85-1.73-2.42Z" style="fill: #ececec;"/>
        <path d="M439.74,840.73c-.18.45-.27.94-.27,1.47,0,1.09.36,1.99,1.07,2.7.71.71,1.75,1.07,3.11,1.07,1.43,0,2.5-.36,3.18-1.07.68-.71,1.03-1.61,1.03-2.67s-.35-1.97-1.03-2.67c-.68-.71-1.75-1.07-3.18-1.07-.68,0-1.29.1-1.8.28-.52.19-.96.45-1.31.79-.35.33-.62.73-.8,1.18Z" style="fill: #ececec;"/>
        <path d="M233.04,944.98h313.4c41.81,0,75.71-33.89,75.71-75.71h0c0-41.81-33.89-75.71-75.71-75.71H233.04c-41.81,0-75.71,33.89-75.71,75.71h0c0,41.81,33.89,75.71,75.71,75.71ZM263.56,889.03c-.23.24-.53.36-.92.36h-3.45v12.75c0,.44-.15.8-.43,1.05-.28.25-.63.38-1.03.38s-.74-.13-1.01-.38c-.28-.26-.42-.61-.42-1.05v-24.01c0-.44.14-.8.42-1.06.28-.26.62-.4,1.02-.4s.75.13,1.03.4c.29.27.43.62.43,1.07v8.74h3.45c.38,0,.69.13.92.38.22.25.34.54.34.88,0,.36-.11.66-.34.9ZM262.09,861.38c-.96,0-1.67-.24-2.11-.71-.44-.47-.66-1.13-.66-1.97v-4.21c0-.44.15-.8.43-1.05.28-.25.63-.38,1.03-.38s.74.13,1.03.38c.29.26.43.61.43,1.05v3.4c0,.37.07.64.2.79.13.15.37.22.72.22h13.08c.38,0,.69.12.92.36.23.24.34.54.34.9,0,.34-.11.63-.34.87-.23.24-.54.36-.92.36h-14.15ZM316.94,858.68c.13.15.37.22.72.22h13.22c.38,0,.69.12.92.36.23.24.34.54.34.9,0,.34-.11.63-.34.87-.23.24-.54.36-.92.36h-14.3c-.96,0-1.67-.24-2.11-.71-.44-.47-.66-1.13-.66-1.97v-3.6c0-.44.15-.8.43-1.05.28-.25.63-.38,1.03-.38s.74.13,1.03.38c.29.26.43.61.43,1.05v2.79c0,.37.07.64.2.79ZM322.59,851.34c-1.08.86-2.59,1.29-4.47,1.29s-3.33-.43-4.42-1.29c-1.1-.86-1.66-2.08-1.66-3.63s.56-2.77,1.66-3.63c1.09-.86,2.58-1.29,4.42-1.29s3.38.43,4.47,1.29c1.09.86,1.65,2.09,1.65,3.63s-.55,2.77-1.65,3.63ZM319.17,877.57c1.09,0,1.89.21,2.38.63.49.42.71,1.1.65,2.01-.04,1.05-.13,2.1-.28,3.12-.14,1.02-.33,2.07-.54,3.12-.02.11-.06.24-.12.4-.06.17-.16.33-.28.47-.13.15-.31.27-.53.35-.13.05-.28.07-.45.07-.12,0-.25-.01-.39-.04-.33-.06-.59-.18-.75-.34s-.27-.34-.32-.53c-.05-.19-.06-.38-.03-.56.03-.17.05-.3.07-.4.17-.8.31-1.62.42-2.45.11-.83.19-1.65.25-2.45h0c.03-.43-.02-.7-.16-.79-.16-.1-.38-.15-.65-.15h-13.37c-.84,0-1.29-.42-1.29-1.2,0-.36.11-.66.34-.9.23-.24.55-.36.95-.36h14.1ZM305.69,860.36c0,.44-.15.8-.43,1.05-.28.25-.63.38-1.03.38s-.74-.13-1.01-.38c-.28-.26-.42-.61-.42-1.05v-5.14c0-.37-.07-.64-.2-.79-.13-.15-.37-.22-.72-.22h-13.43c-.38,0-.69-.11-.92-.34s-.34-.53-.34-.89c0-.34.11-.63.34-.87.23-.24.54-.36.92-.36h14.47c.96,0,1.67.24,2.11.71.44.47.66,1.13.66,1.97v5.93ZM294.15,878.7c.84,0,1.29.42,1.29,1.2,0,.36-.11.66-.34.89-.23.23-.55.34-.95.34h-6.82v.28c0,1.2.21,2.27.63,3.19.42.92.99,1.73,1.7,2.42.71.69,1.55,1.27,2.48,1.74.94.47,1.94.84,2.97,1.11.09.02.19.07.33.14.14.07.27.17.39.3.13.13.23.29.28.48.06.19.04.41-.05.64-.08.27-.21.48-.37.61-.16.13-.33.21-.52.26-.18.04-.35.05-.51.03-.15-.02-.26-.04-.33-.06-.96-.23-1.91-.54-2.8-.93-.9-.39-1.74-.86-2.49-1.39-.76-.54-1.43-1.15-2-1.81-.5-.59-.91-1.22-1.22-1.89-.32.69-.75,1.33-1.27,1.92-.59.67-1.27,1.27-2.03,1.81-.76.54-1.6,1-2.51,1.39-.9.39-1.85.7-2.82.94-.06.02-.16.04-.32.06-.05,0-.11.01-.16.01-.11,0-.22-.01-.33-.04-.17-.04-.34-.13-.5-.26-.16-.13-.29-.34-.38-.61-.08-.23-.1-.45-.04-.64.05-.18.15-.34.28-.47.12-.12.26-.22.39-.3.14-.07.25-.12.33-.14,1.03-.27,2.03-.64,2.98-1.1.94-.46,1.79-1.04,2.51-1.74.72-.69,1.3-1.52,1.73-2.45.43-.93.64-2.01.64-3.2v-.28h-6.88c-.4,0-.72-.12-.95-.34-.23-.23-.34-.53-.34-.89,0-.79.45-1.2,1.29-1.2h16.68ZM297.94,899.74c-.23.23-.54.34-.95.34h-22.47c-.4,0-.72-.11-.95-.34-.23-.23-.34-.53-.34-.89s.11-.66.34-.9c.23-.24.55-.36.95-.36h9.84v-4.26c0-.44.15-.8.43-1.05.28-.25.63-.38,1.03-.38s.74.13,1.03.38c.29.26.43.61.43,1.05v4.26h9.7c.4,0,.72.12.95.36.23.24.34.54.34.9s-.12.66-.34.89ZM322.37,900.89c0,.84-.22,1.51-.66,1.97-.44.47-1.15.71-2.11.71h-12.91c-.96,0-1.67-.24-2.11-.71-.44-.47-.66-1.13-.66-1.97v-4.21c0-.84.22-1.51.66-1.97.44-.47,1.15-.71,2.11-.71h12.91c.96,0,1.67.24,2.11.71.44.47.66,1.13.66,1.97v4.21ZM325.26,891.14c-.23.23-.54.34-.95.34h-22.47c-.4,0-.72-.12-.95-.34-.23-.23-.34-.53-.34-.89s.11-.66.34-.9c.23-.24.55-.36.95-.36h22.47c.4,0,.72.12.95.36.23.24.34.54.34.9s-.12.66-.34.89ZM350.74,902.25c0,.44-.15.8-.43,1.05-.28.25-.63.38-1.03.38s-.74-.13-1.01-.38c-.28-.26-.42-.61-.42-1.05v-5.14c0-.37-.07-.64-.2-.79-.13-.15-.37-.22-.72-.22h-13.43c-.38,0-.69-.12-.92-.34-.23-.23-.34-.53-.34-.89,0-.34.11-.63.34-.87.23-.24.54-.36.92-.36h14.47c.96,0,1.67.24,2.11.71.44.47.66,1.13.66,1.97v5.93ZM350.74,891.01c0,.44-.15.8-.43,1.05-.28.25-.63.38-1.03.38s-.74-.13-1.01-.38c-.28-.26-.42-.61-.42-1.05v-12.88c0-.44.14-.8.42-1.06.27-.26.62-.4,1.02-.4s.75.13,1.03.4c.29.27.43.62.43,1.07v12.88ZM364.24,888.3v-7.21c0-.84.22-1.51.66-1.97.44-.47,1.15-.71,2.11-.71h7.76c.96,0,1.67.24,2.11.71.44.47.66,1.13.66,1.97v7.21c0,.84-.22,1.51-.66,1.97-.44.47-1.15.71-2.11.71h-7.76c-.96,0-1.67-.24-2.11-.71-.44-.47-.66-1.13-.66-1.97ZM386.31,902.9c-.08.3-.23.51-.43.63-.19.12-.4.19-.62.22-.11.02-.21.02-.32.02s-.22,0-.32-.02c-.2-.03-.37-.05-.48-.07-.82-.16-1.64-.37-2.46-.64-.82-.27-1.6-.61-2.32-1-.72-.39-1.39-.85-1.98-1.37-.54-.47-1.01-1.01-1.39-1.59-.38.58-.84,1.11-1.39,1.59-.6.52-1.26.98-1.97,1.37-.71.39-1.49.73-2.3,1-.82.27-1.64.49-2.46.64-.12.02-.28.04-.49.07-.21.03-.43.03-.65,0-.22-.03-.42-.1-.61-.22-.2-.12-.35-.34-.43-.64-.07-.26-.06-.49.02-.69.07-.19.18-.35.32-.48.13-.12.29-.23.46-.3.17-.07.32-.12.47-.14.84-.15,1.69-.38,2.52-.68.83-.3,1.59-.67,2.27-1.12.67-.45,1.26-.98,1.75-1.57.45-.55.75-1.17.92-1.85h-6.35c-.38,0-.69-.12-.92-.34-.23-.23-.34-.52-.34-.86s.11-.63.34-.87c.23-.24.54-.36.92-.36h15.9c.36,0,.66.12.89.36.23.24.34.53.34.87s-.12.63-.34.86c-.23.23-.52.34-.89.34h-6.38c.16.67.47,1.29.92,1.85.48.6,1.08,1.13,1.76,1.57.69.45,1.45.83,2.29,1.14.83.31,1.68.53,2.52.66.14.02.31.07.48.14.18.07.34.17.48.3.15.13.26.3.33.49.07.2.06.43-.03.69ZM388.83,885.25c-.23.24-.54.36-.92.36h-3.16v5.4c0,.44-.15.8-.43,1.05-.28.25-.63.38-1.03.38s-.74-.13-1.01-.38c-.28-.26-.42-.61-.42-1.05v-12.88c0-.44.14-.8.42-1.06.27-.26.62-.4,1.02-.4s.75.13,1.03.4c.29.27.43.62.43,1.07v4.99h3.16c.38,0,.69.12.92.36.23.24.34.53.34.87,0,.36-.11.66-.34.9ZM401.2,901.7c0,.44-.15.8-.43,1.05-.28.25-.63.38-1.03.38s-.74-.13-1.03-.38c-.29-.26-.43-.61-.43-1.05v-7.11c-1.01.06-2,.1-2.95.12-1.01.03-2.01.05-2.99.07h0c-.1,0-.24,0-.4-.01-.17,0-.35-.05-.54-.11-.19-.06-.37-.18-.52-.34-.16-.17-.25-.4-.27-.7-.04-.27,0-.5.11-.67.11-.16.24-.29.4-.39.16-.09.32-.16.49-.19.17-.03.3-.05.4-.05,1.24-.02,2.55-.06,3.9-.12,1.34-.06,2.71-.13,4.07-.22,1.36-.09,2.73-.19,4.08-.3,1.36-.12,2.68-.25,3.92-.41.09,0,.2,0,.34-.02.16-.01.33.01.5.06.17.05.33.15.47.29.15.15.24.37.28.67.04.28.01.51-.09.69-.09.17-.21.31-.35.42-.14.11-.29.18-.45.23-.15.04-.26.07-.34.09-1.16.16-2.35.29-3.55.4-1.14.1-2.35.2-3.59.3v7.3ZM393.55,883.72c-.4,0-.72-.12-.95-.36-.23-.24-.34-.54-.34-.9s.11-.66.34-.9c.23-.24.55-.36.95-.36h12.29c.4,0,.72.12.95.36.23.24.34.54.34.9s-.11.67-.34.9c-.23.24-.55.36-.95.36h-4.55c.14.56.36,1.06.66,1.49.33.47.73.89,1.19,1.24.47.35,1,.66,1.57.92.59.26,1.2.49,1.83.68.11.05.23.11.35.19.13.09.24.2.34.34.1.14.16.31.17.5.01.19-.05.4-.17.64-.13.23-.29.4-.49.5-.19.09-.38.15-.56.16-.17.01-.34,0-.5-.03-.15-.03-.26-.06-.32-.08-1.22-.37-2.33-.86-3.3-1.47-.92-.57-1.68-1.36-2.27-2.33-.66,1.09-1.53,1.98-2.59,2.65-1.12.7-2.32,1.27-3.56,1.7-.06.02-.16.05-.32.08-.12.02-.24.04-.37.04-.04,0-.09,0-.13,0-.18-.01-.36-.06-.54-.16-.19-.1-.35-.27-.47-.5-.13-.24-.18-.45-.16-.64.02-.19.08-.35.18-.48.09-.13.21-.23.34-.32.12-.08.24-.14.34-.19,1.5-.56,2.77-1.24,3.79-2.02.97-.74,1.59-1.71,1.85-2.89h-4.61ZM406.75,858.97c.13.15.37.22.72.22h13.52c.38,0,.69.12.92.36.23.24.34.54.34.9,0,.34-.11.63-.34.87-.23.24-.54.36-.92.36h-14.59c-.96,0-1.67-.24-2.11-.71-.44-.47-.66-1.13-.66-1.98v-4.59c0-.44.15-.8.43-1.05.28-.25.63-.38,1.03-.38s.74.13,1.03.38c.29.26.43.61.43,1.05v3.78c0,.37.07.64.2.79ZM404.03,877.69c.23.24.34.54.34.9s-.11.66-.34.9c-.23.24-.55.36-.95.36h-6.77c-.4,0-.72-.12-.95-.36-.23-.24-.34-.54-.34-.9s.11-.66.34-.9c.23-.24.55-.36.95-.36h6.77c.4,0,.72.12.95.36ZM413.52,902.14c0,.44-.15.8-.43,1.05-.28.25-.63.38-1.03.38s-.74-.13-1.01-.38c-.28-.26-.42-.61-.42-1.05v-4.15h-4.64c-.38,0-.69-.12-.92-.36-.23-.24-.34-.54-.34-.9,0-.34.11-.64.34-.88.23-.25.54-.38.92-.38h4.64v-17.34c0-.44.14-.8.42-1.06.27-.26.62-.4,1.02-.4s.75.13,1.03.4c.29.27.43.62.43,1.07v24.01ZM466.95,903.21c-.23.24-.54.36-.92.36h-14.59c-.96,0-1.67-.24-2.11-.71-.44-.47-.66-1.13-.66-1.97v-4.59c0-.44.15-.8.43-1.05.28-.25.63-.38,1.03-.38s.74.13,1.03.38c.29.26.43.61.43,1.05v3.78c0,.37.07.64.2.79.13.15.37.22.72.22h13.52c.38,0,.69.12.92.36.23.24.34.54.34.9,0,.34-.11.63-.34.87ZM470,892.45c-.23.23-.54.34-.95.34h-22.47c-.4,0-.72-.12-.95-.34-.23-.23-.34-.53-.34-.89s.11-.66.34-.9c.23-.24.55-.36.95-.36h22.47c.4,0,.72.12.95.36.23.24.34.54.34.9s-.12.66-.34.89ZM446.26,853.78v-1.91c0-.44.14-.79.42-1.05.27-.25.62-.38,1.01-.38s.74.13,1.03.38c.29.26.43.61.43,1.05v7.12c0,.84-.22,1.51-.66,1.98-.44.47-1.15.71-2.11.71h-4.39c-.96,0-1.67-.24-2.11-.71-.44-.47-.66-1.13-.66-1.98v-7.12c0-.44.15-.8.43-1.05.28-.25.63-.38,1.03-.38s.74.13,1.03.38c.29.26.43.61.43,1.05v1.91h4.11ZM452.09,884.88c.13.15.37.22.72.22h13.37c.38,0,.69.12.92.36.23.24.34.54.34.9,0,.34-.11.64-.34.87-.23.24-.54.36-.92.36h-14.45c-.96,0-1.67-.24-2.11-.71-.44-.47-.66-1.13-.66-1.98v-6.19c0-.44.15-.8.43-1.05.28-.25.63-.38,1.03-.38s.74.13,1.03.38c.29.26.43.61.43,1.05v5.38c0,.37.07.64.2.79ZM494.08,887.07c-.6,1.57-1.41,3.05-2.4,4.39-.99,1.34-2.17,2.57-3.49,3.67-1.33,1.09-2.81,2.07-4.4,2.91-.11.04-.24.09-.41.15-.18.06-.37.09-.56.09s-.41-.05-.62-.14c-.22-.1-.39-.27-.52-.5-.13-.24-.18-.46-.16-.67.02-.2.08-.38.18-.53.09-.15.21-.27.35-.38.13-.1.25-.18.35-.24,1.29-.69,2.51-1.52,3.63-2.46,1.12-.94,2.13-1.98,3-3.11s1.59-2.32,2.15-3.58c.55-1.25.91-2.55,1.07-3.87.05-.43,0-.71-.14-.79-.17-.1-.4-.14-.67-.14h-7.64c-.4,0-.72-.12-.95-.34-.23-.23-.34-.52-.34-.89s.11-.66.34-.9c.23-.24.55-.36.95-.36h8.37c1.09,0,1.89.21,2.38.63.5.42.72,1.1.65,2.01-.14,1.79-.51,3.49-1.11,5.06ZM503.62,902.14c0,.44-.15.8-.43,1.05-.28.25-.63.38-1.03.38s-.74-.13-1.01-.38c-.28-.26-.42-.61-.42-1.05v-12.75h-4.18c-.38,0-.69-.12-.92-.36-.22-.24-.34-.54-.34-.9,0-.34.11-.64.34-.88.23-.25.54-.38.92-.38h4.18v-8.74c0-.44.14-.8.42-1.06.27-.26.62-.4,1.02-.4s.75.13,1.03.4c.29.27.43.62.43,1.07v24.01ZM537.1,897.75c.39-.39.87-.59,1.43-.59s1.03.2,1.41.59c.38.39.57.87.57,1.42s-.19,1.03-.57,1.41c-.38.38-.86.57-1.41.57s-1.03-.19-1.42-.57c-.39-.38-.59-.86-.59-1.41s.2-1.03.59-1.43ZM532.78,897.95c.23.24.34.54.34.9s-.12.66-.34.89c-.23.23-.54.34-.95.34h-22.47c-.4,0-.72-.11-.95-.34-.23-.23-.34-.53-.34-.89s.11-.66.34-.9c.23-.24.55-.36.95-.36h5.89v-3.25c0-.44.15-.8.43-1.05.28-.25.63-.38,1.03-.38s.74.13,1.03.38c.29.26.43.61.43,1.05v3.25h4.98v-3.25c0-.44.15-.8.43-1.05.28-.25.63-.38,1.03-.38s.74.13,1.03.38c.29.26.43.61.43,1.05v3.25h5.75c.4,0,.72.12.95.36ZM530.27,879.9c0,.36-.11.66-.34.89-.23.23-.55.34-.95.34h-6.82v.28c0,1.2.21,2.27.63,3.19.42.92.99,1.73,1.7,2.42.71.69,1.55,1.27,2.48,1.74.94.47,1.94.84,2.97,1.11.09.02.19.07.33.14.14.07.27.17.39.3.13.13.23.29.28.48.06.19.04.41-.05.64-.08.27-.21.48-.37.61-.16.13-.33.21-.52.26-.18.04-.35.05-.51.03-.15-.02-.26-.04-.33-.06-.96-.23-1.91-.54-2.8-.93-.9-.39-1.74-.86-2.49-1.39-.76-.54-1.43-1.15-2-1.81-.5-.59-.91-1.22-1.22-1.89-.32.69-.75,1.33-1.27,1.92-.59.67-1.27,1.27-2.03,1.81-.76.54-1.6,1-2.51,1.39-.9.39-1.85.7-2.82.94-.06.02-.16.04-.32.06-.05,0-.11.01-.16.01-.11,0-.22-.01-.33-.04-.17-.04-.34-.13-.5-.26-.16-.13-.29-.34-.38-.61-.08-.23-.1-.45-.04-.64.05-.18.15-.34.28-.47.12-.12.26-.22.39-.3.14-.07.25-.12.33-.14,1.03-.27,2.03-.64,2.98-1.1.94-.46,1.79-1.04,2.51-1.74.72-.69,1.3-1.52,1.73-2.45.43-.93.64-2.01.64-3.2v-.28h-6.88c-.4,0-.72-.12-.95-.34-.23-.23-.34-.53-.34-.89,0-.79.45-1.2,1.29-1.2h16.68c.84,0,1.29.42,1.29,1.2ZM519.37,855.85c.39-.39.87-.59,1.43-.59s1.03.2,1.41.59c.38.39.57.87.57,1.42s-.19,1.03-.57,1.41c-.38.38-.86.57-1.41.57s-1.03-.19-1.42-.57c-.39-.38-.59-.86-.59-1.41s.2-1.03.59-1.43ZM493.97,840.54c.45-.86,1.1-1.62,1.94-2.24.83-.62,1.85-1.1,3.03-1.43,1.18-.33,2.52-.5,4-.5s2.83.17,4.02.5c1.19.33,2.21.81,3.03,1.43.83.62,1.47,1.37,1.91,2.24.44.87.67,1.83.67,2.88s-.22,2.01-.67,2.88c-.44.87-1.08,1.62-1.91,2.24-.82.62-1.84,1.1-3.03,1.43-1.19.33-2.54.5-4.02.5s-2.82-.17-4-.5c-1.18-.33-2.2-.81-3.03-1.43-.84-.62-1.49-1.37-1.94-2.24-.45-.87-.68-1.83-.68-2.88s.23-2.01.68-2.88ZM490.69,856.06c.23-.24.55-.36.95-.36h4.58v-3.65c0-.44.15-.8.43-1.07.28-.26.63-.4,1.03-.4s.75.13,1.03.4c.29.27.43.62.43,1.07v3.65h7.6v-3.65c0-.44.15-.8.43-1.07.28-.26.63-.4,1.03-.4s.75.13,1.03.4c.29.27.43.62.43,1.07v3.65h4.44c.4,0,.72.12.95.36.23.24.34.54.34.9s-.12.66-.34.89c-.23.23-.54.34-.95.34h-22.47c-.4,0-.72-.12-.95-.34-.23-.23-.34-.52-.34-.89s.11-.66.34-.9ZM479.06,845.35c.23-.25.54-.38.92-.38h3.01v-8.74c0-.44.14-.8.42-1.06.27-.26.62-.4,1.02-.4s.75.13,1.03.4c.29.27.43.62.43,1.07v24.01c0,.44-.15.8-.43,1.05-.28.25-.63.38-1.03.38s-.74-.13-1.01-.38c-.28-.26-.42-.61-.42-1.05v-12.75h-3.01c-.38,0-.69-.12-.92-.36-.23-.24-.34-.54-.34-.9,0-.34.11-.64.34-.88ZM464.36,842.5c.28-1.16.72-2.17,1.3-2.99.58-.83,1.32-1.48,2.21-1.93.89-.45,1.95-.68,3.17-.68s2.26.23,3.15.68c.9.45,1.65,1.1,2.23,1.93.58.82,1.02,1.83,1.3,2.99.28,1.16.43,2.46.43,3.88s-.14,2.72-.43,3.88c-.28,1.16-.72,2.17-1.3,2.99-.58.83-1.33,1.48-2.23,1.93-.9.45-1.96.68-3.15.68s-2.28-.23-3.17-.68c-.89-.45-1.63-1.1-2.21-1.93-.58-.82-1.01-1.83-1.3-2.99-.28-1.16-.42-2.46-.42-3.88s.14-2.72.42-3.88ZM460.39,859.48c.12.1.24.22.34.35.11.14.18.31.21.49.03.19,0,.4-.11.62-.15.26-.34.43-.55.51-.2.07-.41.1-.62.08-.21-.02-.4-.07-.59-.16-.19-.08-.32-.15-.42-.21-.69-.39-1.34-.94-1.93-1.62-.53-.61-.96-1.25-1.28-1.91-.7,1.48-1.86,2.76-3.45,3.82-.11.07-.25.13-.43.2-.18.07-.38.12-.57.14-.04,0-.09,0-.13,0-.16,0-.32-.03-.48-.09-.21-.08-.39-.24-.52-.48-.13-.22-.18-.42-.14-.61.03-.17.1-.33.19-.48.09-.15.21-.27.33-.37.11-.08.19-.15.25-.21.65-.41,1.18-.87,1.62-1.36.44-.5.8-1.02,1.09-1.56.28-.54.49-1.1.63-1.66.13-.56.2-1.11.2-1.64v-1.51c0-.42.14-.77.4-1.02.27-.25.59-.38.97-.38s.71.13.99.38c.28.26.42.6.42,1.02v1.63c0,1.08.25,2.14.73,3.16.48,1.01,1.34,1.9,2.55,2.64.08.04.18.11.31.21ZM451.74,841.11c.23-.25.54-.37.92-.37h3.01v-4.5c0-.44.14-.8.42-1.06.27-.26.62-.4,1.02-.4s.75.13,1.03.4c.29.27.43.62.43,1.07v11.57c0,.44-.15.8-.43,1.05-.28.25-.63.38-1.03.38s-.74-.13-1.01-.38c-.28-.26-.42-.61-.42-1.05v-4.55h-3.01c-.38,0-.69-.12-.92-.36-.23-.23-.34-.54-.34-.9,0-.34.11-.64.34-.88ZM437.13,839.67c.34-.77.83-1.44,1.45-1.99.62-.55,1.37-.98,2.22-1.29.85-.3,1.81-.46,2.85-.46s2,.15,2.86.46c.86.3,1.62.74,2.24,1.29.62.55,1.11,1.22,1.46,1.99.35.77.52,1.63.52,2.55s-.17,1.78-.52,2.55c-.35.77-.84,1.44-1.46,1.99-.62.55-1.37.98-2.24,1.29-.86.3-1.82.46-2.86.46s-2-.15-2.85-.46c-.85-.3-1.6-.74-2.22-1.29-.62-.55-1.11-1.22-1.46-1.99-.34-.77-.52-1.63-.52-2.55s.17-1.78.52-2.55ZM436.49,878.13c0-.44.14-.8.42-1.06.27-.26.62-.4,1.02-.4s.75.13,1.03.4c.29.27.43.62.43,1.07v8.74h3.45c.38,0,.69.13.92.38.22.25.34.54.34.88,0,.36-.11.66-.34.9-.23.24-.53.36-.92.36h-3.45v12.75c0,.44-.15.8-.43,1.05-.28.25-.63.38-1.03.38s-.74-.13-1.01-.38c-.28-.26-.42-.61-.42-1.05v-24.01ZM431.47,880c.49.42.71,1.1.65,2.01-.14,1.79-.51,3.49-1.11,5.06-.6,1.57-1.41,3.05-2.4,4.39-.99,1.34-2.17,2.57-3.49,3.67-1.33,1.1-2.81,2.07-4.4,2.91-.11.04-.24.09-.41.15-.18.06-.37.09-.56.09s-.41-.05-.62-.14c-.22-.1-.39-.27-.52-.5-.13-.24-.18-.46-.16-.67.02-.2.08-.38.18-.53.1-.15.21-.28.35-.38.13-.1.24-.18.35-.24,1.29-.69,2.51-1.52,3.63-2.46,1.12-.94,2.13-1.98,3-3.11.87-1.12,1.59-2.32,2.15-3.58.55-1.25.91-2.55,1.07-3.87.05-.43,0-.71-.14-.79-.18-.1-.4-.14-.67-.14h-7.64c-.4,0-.72-.12-.95-.34-.23-.23-.34-.53-.34-.89s.11-.66.34-.9c.23-.24.55-.36.95-.36h8.37c1.09,0,1.89.21,2.38.63ZM403.86,838.36c.44-.7,1.09-1.3,1.92-1.78.82-.48,1.84-.85,3.03-1.1,1.18-.25,2.54-.38,4.04-.38,3.05,0,5.44.49,7.1,1.47,1.68.99,2.53,2.4,2.53,4.21s-.85,3.22-2.53,4.21c-1.66.98-4.05,1.47-7.1,1.47-1.5,0-2.85-.13-4.04-.38-1.19-.25-2.21-.62-3.03-1.1-.83-.48-1.47-1.08-1.92-1.78-.45-.71-.67-1.52-.67-2.41s.23-1.7.67-2.41ZM400.59,848.76c.23-.24.55-.36.95-.36h22.47c.4,0,.72.12.95.36.23.24.34.54.34.9s-.12.66-.34.89c-.23.23-.54.34-.95.34h-22.47c-.4,0-.72-.12-.95-.34-.23-.23-.34-.53-.34-.89s.11-.66.34-.9ZM396.37,860.15c0,.34-.11.63-.34.87-.23.24-.54.36-.92.36h-14.45c-.96,0-1.67-.24-2.11-.71-.44-.47-.66-1.13-.66-1.97v-5.23c0-.44.15-.8.43-1.05.28-.25.63-.38,1.03-.38s.74.13,1.03.38c.29.26.43.61.43,1.05v4.42c0,.37.07.64.2.79.13.15.37.22.72.22h13.37c.38,0,.69.12.92.36.23.24.34.54.34.9ZM392.9,836.23c0-.44.14-.8.42-1.06.27-.26.62-.4,1.02-.4s.75.13,1.03.4c.29.27.43.62.43,1.07v17.12c0,.44-.15.8-.43,1.05-.28.25-.63.38-1.03.38s-.74-.13-1.01-.38c-.28-.26-.42-.61-.42-1.05v-17.12ZM374.68,839.99c.37-.84.88-1.58,1.51-2.18.63-.6,1.38-1.07,2.24-1.39.85-.32,1.77-.49,2.73-.49s1.88.16,2.75.49c.86.32,1.62.79,2.25,1.38.63.59,1.14,1.32,1.51,2.16.37.85.56,1.8.56,2.84s-.19,1.99-.56,2.84c-.37.84-.88,1.57-1.51,2.16-.63.59-1.39,1.05-2.25,1.38s-1.79.49-2.75.49-1.88-.16-2.73-.49c-.85-.32-1.61-.79-2.24-1.39-.63-.6-1.14-1.33-1.51-2.16s-.56-1.79-.56-2.83.19-1.97.56-2.81ZM364.12,836.23c0-.44.14-.8.42-1.06.27-.26.62-.4,1.02-.4s.75.13,1.03.4c.29.27.43.62.43,1.07v8.74h3.45c.38,0,.69.13.92.38.22.25.34.54.34.88,0,.36-.11.66-.34.9-.23.24-.54.36-.92.36h-3.45v12.75c0,.44-.15.8-.43,1.05-.28.25-.63.38-1.03.38s-.74-.13-1.01-.38c-.28-.26-.42-.61-.42-1.05v-24.01ZM346.51,840.01c0-.84.22-1.51.66-1.97.44-.47,1.15-.71,2.11-.71h9.59c.38,0,.69.13.92.38.22.25.34.54.34.88,0,.36-.11.66-.34.9-.23.24-.53.36-.92.36h-8.52c-.35,0-.59.07-.72.22-.13.15-.2.42-.2.79v3.8h9.15c.38,0,.69.13.92.38.22.25.34.54.34.88,0,.36-.11.66-.34.9-.23.24-.54.36-.92.36h-9.15v4.84c0,.34.06.58.19.73.12.14.38.22.76.22,1.55-.04,3.17-.15,4.8-.32,1.63-.17,3.27-.46,4.88-.84.1-.02.23-.04.39-.06.17-.02.35-.01.52.03.18.04.35.13.5.26.15.13.27.33.33.59.06.3.05.55-.04.75-.08.19-.2.35-.36.47-.14.11-.3.2-.47.27-.17.06-.31.1-.43.12-1.86.44-3.78.76-5.69.95-1.91.18-3.82.29-5.69.31-.91,0-1.58-.27-2-.79-.41-.51-.62-1.16-.62-1.92v-12.76ZM339.19,879.38c0-.42.13-.76.39-1.02s.58-.39.96-.39.71.13.99.38c.28.26.42.6.42,1.02v1.13c0,1.79.32,3.34.96,4.59.64,1.25,1.51,2.25,2.59,2.98.07.05.15.13.23.25.09.12.15.26.19.42.04.16.05.34.03.54-.02.21-.12.42-.29.63-.32.37-.68.52-1.07.47-.37-.05-.66-.17-.85-.36-.56-.41-1.15-.95-1.73-1.61-.52-.59-.97-1.28-1.34-2.04-.33.94-.8,1.84-1.4,2.67-.66.91-1.35,1.7-2.05,2.34-.11.09-.24.17-.39.25-.16.08-.34.14-.53.17-.08.01-.15.02-.23.02-.13,0-.25-.02-.38-.05-.21-.05-.4-.19-.57-.41-.17-.21-.26-.43-.26-.63,0-.19.04-.37.11-.54.07-.17.17-.32.28-.44.11-.12.19-.21.25-.27,2.45-2.27,3.68-5.22,3.68-8.75v-1.37ZM336.58,885.8s.1.12.18.24c.07.12.13.25.17.41.04.16.05.34.02.52-.03.18-.12.37-.27.56-.33.37-.67.51-1.03.44-.33-.07-.58-.18-.75-.33-.32-.28-.62-.6-.92-.96-.24-.29-.45-.61-.62-.95-.33.74-.79,1.49-1.36,2.23-.64.82-1.31,1.54-1.99,2.12-.08.08-.21.17-.37.26-.17.09-.35.16-.53.19-.07.01-.15.02-.22.02-.12,0-.25-.02-.37-.05-.21-.06-.4-.19-.57-.41-.17-.21-.26-.43-.27-.64-.01-.2.02-.39.1-.55.07-.16.17-.3.28-.42.11-.12.19-.21.25-.27,1.23-1.15,2.14-2.35,2.71-3.57.57-1.22.86-2.56.86-3.99v-1.13c0-.42.14-.77.4-1.02.26-.25.59-.38.97-.38s.71.13,1,.38c.29.26.43.6.43,1.02v1.19c0,1.26.18,2.31.54,3.12.36.81.82,1.47,1.36,1.96h0ZM328.66,836.23c0-.44.14-.8.42-1.06.27-.26.62-.4,1.02-.4s.75.13,1.03.4c.29.27.43.62.43,1.07v7.34h3.16c.38,0,.69.12.92.36.23.24.34.53.34.87,0,.36-.11.66-.34.9-.23.24-.54.36-.92.36h-3.16v7.87c0,.44-.15.8-.43,1.05-.28.25-.63.38-1.03.38s-.74-.13-1.01-.38c-.28-.26-.42-.61-.42-1.05v-17.7ZM313.8,835.65c.23-.24.55-.36.95-.36h6.77c.4,0,.72.12.95.36.23.24.34.54.34.9s-.11.66-.34.9c-.23.24-.54.36-.95.36h-6.77c-.4,0-.72-.12-.95-.36-.23-.24-.34-.54-.34-.9s.11-.66.34-.9ZM310.58,839.58c.23-.24.55-.36.95-.36h13.2c.4,0,.72.12.95.36.23.24.34.54.34.9s-.11.66-.34.9c-.23.24-.54.36-.95.36h-13.2c-.4,0-.72-.12-.95-.36-.23-.24-.34-.54-.34-.9s.11-.66.34-.9ZM299.49,841.24c-.38,0-.69-.12-.92-.36s-.34-.54-.34-.9c0-.34.11-.64.34-.88.23-.25.54-.38.92-.38h3.3v-2.49c0-.44.14-.8.42-1.06.27-.26.62-.4,1.02-.4s.75.13,1.03.4c.29.27.43.62.43,1.07v12.88c0,.44-.15.8-.43,1.05-.28.25-.63.38-1.03.38s-.74-.13-1.01-.38c-.28-.26-.42-.61-.42-1.05v-2.37h-3.3c-.38,0-.69-.12-.92-.36-.23-.24-.34-.54-.34-.9,0-.34.11-.64.34-.88.23-.25.54-.38.92-.38h3.3v-2.98h-3.3ZM284.02,837.63c0-.44.14-.8.42-1.06.28-.26.62-.4,1.02-.4s.74.13,1.03.4c.29.27.43.62.43,1.07v2.93h7.51v-3.01c0-.44.14-.8.42-1.06.27-.26.62-.4,1.02-.4s.75.13,1.03.4c.29.27.43.62.43,1.07v8.86c0,.84-.22,1.51-.66,1.97-.44.47-1.15.71-2.11.71h-7.76c-.96,0-1.67-.24-2.11-.71-.44-.47-.66-1.13-.66-1.97v-8.78ZM274.02,836.23c0-.44.14-.8.42-1.06.27-.26.62-.4,1.02-.4s.75.13,1.03.4c.29.27.43.62.43,1.07v7.02h3.16c.38,0,.69.12.92.36.23.24.34.53.34.87,0,.36-.11.66-.34.9-.23.24-.54.36-.92.36h-3.16v7.81c0,.44-.15.8-.43,1.05-.28.25-.63.38-1.03.38s-.74-.13-1.01-.38c-.28-.26-.42-.61-.42-1.05v-17.32ZM254.98,849.75c.11-.16.24-.29.4-.39.16-.09.32-.16.49-.19.16-.03.3-.05.4-.05,1.05-.02,2.07-.05,3.05-.09.93-.04,1.91-.08,2.93-.14v-2.24c-1.73-.19-3.11-.74-4.11-1.63-1.03-.92-1.55-2.17-1.55-3.71,0-.83.17-1.59.51-2.26.34-.67.82-1.26,1.45-1.73.62-.47,1.37-.84,2.22-1.08.85-.24,1.82-.37,2.87-.37s2.02.12,2.88.37c.86.25,1.62.6,2.23,1.07.62.47,1.11,1.04,1.45,1.72s.51,1.45.51,2.29c0,1.5-.51,2.73-1.52,3.65-.98.9-2.33,1.46-4,1.69v2.05l3.02-.28c1.05-.1,2.12-.21,3.18-.35.09,0,.2,0,.34-.01.16-.01.33,0,.5.06.17.05.33.15.47.29.15.15.24.37.28.67.04.28.01.51-.09.69-.09.17-.21.31-.35.42-.14.11-.29.18-.45.22-.15.04-.26.07-.34.09-2.54.33-5.08.58-7.56.74-2.48.16-5.03.28-7.58.33h0c-.1,0-.23,0-.4-.01-.18-.01-.36-.05-.54-.11-.19-.06-.37-.18-.52-.34-.15-.17-.24-.4-.27-.7-.04-.27,0-.5.11-.67ZM238.97,882.2c0-.84.22-1.51.66-1.97.44-.47,1.15-.71,2.11-.71h9.59c.38,0,.69.13.92.38.22.25.34.54.34.88,0,.36-.11.66-.34.9-.23.24-.54.36-.92.36h-8.52c-.35,0-.59.07-.72.22-.13.15-.2.42-.2.79v10.58c0,.34.06.58.19.73.12.14.38.22.76.22,1.55-.04,3.21-.15,4.94-.35,1.72-.19,3.42-.48,5.03-.87.1-.02.23-.04.39-.06.17-.02.35-.01.52.03.19.04.35.13.5.26.16.13.27.33.33.59.06.3.05.55-.04.75-.09.19-.21.35-.36.47-.15.11-.3.2-.47.27-.17.06-.31.1-.43.12-1.87.44-3.83.77-5.83.97-2,.2-3.96.32-5.84.33-.91,0-1.58-.27-2-.79-.41-.51-.62-1.16-.62-1.92v-12.18Z" style="fill: #ececec;"/>
        <path d="M320.67,845.98c-.25-.22-.59-.4-1-.54-.42-.14-.94-.21-1.54-.21-1.14,0-1.97.25-2.47.75-.5.5-.75,1.07-.75,1.71,0,.68.25,1.28.75,1.77.5.5,1.33.75,2.47.75.6,0,1.12-.07,1.54-.21.42-.14.76-.32,1-.54.24-.22.42-.48.53-.78.11-.31.17-.63.17-.96s-.06-.65-.17-.96c-.11-.3-.29-.56-.53-.78Z" style="fill: #ececec;"/>
        <path d="M509.19,845.37c.31-.57.46-1.23.46-1.96s-.16-1.42-.46-1.99c-.31-.57-.76-1.06-1.34-1.45-.59-.4-1.3-.7-2.11-.9-.82-.2-1.76-.3-2.79-.3-2.06,0-3.72.4-4.93,1.2-1.2.79-1.8,1.94-1.8,3.44s.61,2.63,1.8,3.43c1.21.81,2.87,1.21,4.93,1.21,1.03,0,1.97-.11,2.79-.32.82-.21,1.53-.52,2.11-.91.58-.39,1.03-.88,1.34-1.45Z" style="fill: #ececec;"/>
        <path d="M546.44,972.98c57.18,0,103.71-46.52,103.71-103.71s-46.52-103.71-103.71-103.71H233.04c-57.18,0-103.71,46.52-103.71,103.71s46.52,103.71,103.71,103.71h313.4ZM157.33,869.28c0-41.81,33.89-75.71,75.71-75.71h313.4c41.81,0,75.71,33.89,75.71,75.71h0c0,41.81-33.89,75.71-75.71,75.71H233.04c-41.81,0-75.71-33.89-75.71-75.71h0Z" style="fill: #99f464;"/>
        <path d="M255.14,851.13c.15.16.32.27.52.34.18.06.37.1.54.11.17,0,.3.01.4.01h0c2.55-.06,5.1-.17,7.58-.33,2.48-.16,5.02-.41,7.56-.74.08-.02.19-.05.34-.09.16-.04.31-.12.45-.22.14-.11.26-.25.35-.42.1-.18.13-.41.09-.69-.04-.3-.14-.52-.28-.67-.14-.14-.3-.24-.47-.29-.17-.05-.34-.08-.5-.06-.14,0-.25.01-.34.01-1.06.13-2.13.25-3.18.35l-3.02.28v-2.05c1.67-.23,3.02-.79,4-1.69,1.01-.92,1.52-2.15,1.52-3.65,0-.85-.17-1.62-.51-2.29s-.82-1.25-1.45-1.72c-.62-.46-1.37-.82-2.23-1.07-.86-.24-1.83-.37-2.88-.37s-2.02.12-2.87.37c-.85.25-1.6.61-2.22,1.08-.62.47-1.11,1.06-1.45,1.73-.34.67-.51,1.44-.51,2.26,0,1.54.52,2.79,1.55,3.71,1,.9,2.39,1.44,4.11,1.63v2.24c-1.02.06-2,.1-2.93.14-.98.04-2,.07-3.05.09-.11,0-.24.02-.4.05-.17.03-.33.1-.49.19-.16.1-.3.23-.4.39-.12.17-.15.4-.11.67.02.3.11.54.27.7ZM259.45,841.29c0-.9.34-1.58,1.05-2.09.71-.51,1.76-.78,3.12-.78,1.44,0,2.51.27,3.19.79.68.52,1.01,1.21,1.01,2.11s-.33,1.58-1.01,2.09c-.68.51-1.76.77-3.19.77-1.36,0-2.41-.27-3.12-.79-.71-.52-1.05-1.21-1.05-2.11Z" style="fill: #666;"/>
        <path d="M275.46,854.99c.4,0,.74-.13,1.03-.38.29-.26.43-.61.43-1.05v-7.81h3.16c.38,0,.69-.12.92-.36.23-.24.34-.54.34-.9,0-.34-.11-.63-.34-.87-.23-.24-.54-.36-.92-.36h-3.16v-7.02c0-.44-.15-.8-.43-1.07-.28-.26-.63-.4-1.03-.4s-.74.13-1.02.4c-.28.27-.42.62-.42,1.06v17.32c0,.44.14.79.42,1.05.27.25.62.38,1.01.38Z" style="fill: #666;"/>
        <path d="M277.16,861.03c.23-.24.34-.53.34-.87,0-.36-.11-.66-.34-.9-.23-.24-.54-.36-.92-.36h-13.08c-.35,0-.59-.07-.72-.22-.13-.15-.2-.42-.2-.79v-3.4c0-.44-.15-.8-.43-1.05-.28-.25-.63-.38-1.03-.38s-.74.13-1.03.38c-.29.26-.43.61-.43,1.05v4.21c0,.84.22,1.51.66,1.97.44.47,1.15.71,2.11.71h14.15c.38,0,.69-.12.92-.36Z" style="fill: #666;"/>
        <path d="M302.92,851.75h-14.47c-.38,0-.69.12-.92.36-.23.24-.34.53-.34.87,0,.36.11.66.34.89s.54.34.92.34h13.43c.35,0,.59.07.72.22.13.15.2.42.2.79v5.14c0,.44.14.79.42,1.05.27.25.62.38,1.01.38s.74-.13,1.03-.38c.29-.26.43-.61.43-1.05v-5.93c0-.84-.22-1.51-.66-1.97-.44-.47-1.15-.71-2.11-.71Z" style="fill: #666;"/>
        <path d="M299.49,844.22c-.38,0-.69.13-.92.38-.22.25-.34.54-.34.88,0,.36.11.66.34.9.23.24.54.36.92.36h3.3v2.37c0,.44.14.79.42,1.05.27.25.62.38,1.01.38s.74-.13,1.03-.38c.29-.26.43-.61.43-1.05v-12.88c0-.44-.15-.8-.43-1.07-.28-.26-.63-.4-1.03-.4s-.74.13-1.02.4c-.28.27-.42.62-.42,1.06v2.49h-3.3c-.38,0-.69.13-.92.38-.22.25-.34.54-.34.88,0,.36.11.66.34.9s.54.36.92.36h3.3v2.98h-3.3Z" style="fill: #666;"/>
        <path d="M286.79,849.09h7.76c.96,0,1.67-.24,2.11-.71.44-.47.66-1.13.66-1.97v-8.86c0-.44-.15-.8-.43-1.07-.28-.26-.63-.4-1.03-.4s-.74.13-1.02.4c-.28.27-.42.62-.42,1.06v3.01h-7.51v-2.93c0-.44-.15-.8-.43-1.07-.29-.26-.63-.4-1.03-.4s-.74.13-1.02.4c-.28.27-.42.62-.42,1.06v8.78c0,.84.22,1.51.66,1.97.44.47,1.15.71,2.11.71ZM286.92,845.65v-2.61h7.51v2.61c0,.37-.07.64-.2.79-.13.15-.37.22-.72.22h-5.67c-.35,0-.59-.07-.72-.22-.13-.15-.2-.42-.2-.79Z" style="fill: #666;"/>
        <path d="M316.3,854.05c-.28-.25-.63-.38-1.03-.38s-.74.13-1.03.38c-.29.26-.43.61-.43,1.05v3.6c0,.84.22,1.51.66,1.97.44.47,1.15.71,2.11.71h14.3c.38,0,.69-.12.92-.36.23-.24.34-.53.34-.87,0-.36-.11-.66-.34-.9-.23-.24-.54-.36-.92-.36h-13.22c-.35,0-.59-.07-.72-.22-.13-.15-.2-.42-.2-.79v-2.79c0-.44-.15-.8-.43-1.05Z" style="fill: #666;"/>
        <path d="M311.53,841.74h13.2c.4,0,.72-.12.95-.36.23-.24.34-.54.34-.9s-.11-.66-.34-.9c-.23-.24-.55-.36-.95-.36h-13.2c-.4,0-.72.12-.95.36-.23.24-.34.54-.34.9s.11.66.34.9c.23.24.54.36.95.36Z" style="fill: #666;"/>
        <path d="M322.59,844.09c-1.08-.86-2.59-1.29-4.47-1.29s-3.33.43-4.42,1.29c-1.1.86-1.66,2.08-1.66,3.63s.56,2.77,1.66,3.63c1.09.86,2.58,1.29,4.42,1.29s3.38-.43,4.47-1.29c1.09-.86,1.65-2.08,1.65-3.63s-.55-2.77-1.65-3.63ZM321.2,848.68c-.11.3-.29.56-.53.78-.25.22-.59.4-1,.54-.42.14-.94.21-1.54.21-1.14,0-1.97-.25-2.47-.75-.5-.5-.75-1.09-.75-1.77,0-.64.25-1.22.75-1.71.5-.5,1.33-.75,2.47-.75.6,0,1.12.07,1.54.21.42.14.76.32,1,.54.24.22.42.48.53.78.11.31.17.63.17.96s-.06.65-.17.96Z" style="fill: #666;"/>
        <path d="M330.1,855.37c.4,0,.74-.13,1.03-.38.29-.26.43-.61.43-1.05v-7.87h3.16c.38,0,.69-.12.92-.36.23-.24.34-.54.34-.9,0-.34-.11-.63-.34-.87-.23-.24-.54-.36-.92-.36h-3.16v-7.34c0-.44-.15-.8-.43-1.07-.28-.26-.63-.4-1.03-.4s-.74.13-1.02.4c-.28.27-.42.62-.42,1.06v17.7c0,.44.14.79.42,1.05.27.25.62.38,1.01.38Z" style="fill: #666;"/>
        <path d="M314.75,837.81h6.77c.4,0,.72-.12.95-.36.23-.24.34-.54.34-.9s-.11-.66-.34-.9c-.23-.24-.55-.36-.95-.36h-6.77c-.4,0-.72.12-.95.36-.23.24-.34.54-.34.9s.11.66.34.9c.23.24.54.36.95.36Z" style="fill: #666;"/>
        <path d="M365.56,861.68c.4,0,.74-.13,1.03-.38.29-.26.43-.61.43-1.05v-12.75h3.45c.38,0,.69-.12.92-.36.23-.24.34-.54.34-.9,0-.34-.11-.64-.34-.88-.23-.25-.54-.38-.92-.38h-3.45v-8.74c0-.44-.15-.8-.43-1.07-.28-.26-.63-.4-1.03-.4s-.74.13-1.02.4c-.28.27-.42.62-.42,1.06v24.01c0,.44.14.79.42,1.05.28.25.62.38,1.01.38Z" style="fill: #666;"/>
        <path d="M349.14,855.48c1.87-.02,3.79-.12,5.69-.31,1.91-.18,3.83-.5,5.69-.95.12-.02.26-.06.43-.12.17-.06.33-.15.47-.27.15-.12.27-.28.36-.47.09-.2.1-.45.04-.75-.06-.26-.18-.46-.33-.59-.15-.13-.32-.22-.5-.26-.18-.04-.35-.05-.52-.03-.16.02-.29.04-.39.06-1.61.38-3.26.67-4.88.84-1.63.17-3.25.28-4.8.32-.39,0-.64-.07-.76-.22-.13-.15-.19-.4-.19-.73v-4.84h9.15c.38,0,.69-.12.92-.36.23-.24.34-.54.34-.9,0-.34-.11-.64-.34-.88-.23-.25-.54-.38-.92-.38h-9.15v-3.8c0-.37.07-.64.2-.79.13-.15.37-.22.72-.22h8.52c.38,0,.69-.12.92-.36.23-.24.34-.54.34-.9,0-.34-.11-.64-.34-.88-.23-.25-.54-.38-.92-.38h-9.59c-.96,0-1.67.24-2.11.71-.44.47-.66,1.13-.66,1.97v12.76c0,.76.21,1.41.62,1.92.42.52,1.09.79,2,.79Z" style="fill: #666;"/>
        <path d="M394.33,854.79c.4,0,.74-.13,1.03-.38.29-.26.43-.61.43-1.05v-17.12c0-.44-.15-.8-.43-1.07-.28-.26-.63-.4-1.03-.4s-.74.13-1.02.4c-.28.27-.42.62-.42,1.06v17.12c0,.44.14.8.42,1.05.27.25.62.38,1.01.38Z" style="fill: #666;"/>
        <path d="M381.74,858.9c-.35,0-.59-.07-.72-.22-.13-.15-.2-.42-.2-.79v-4.42c0-.44-.15-.8-.43-1.05-.28-.25-.63-.38-1.03-.38s-.74.13-1.03.38c-.29.26-.43.61-.43,1.05v5.23c0,.84.22,1.51.66,1.97.44.47,1.15.71,2.11.71h14.45c.38,0,.69-.12.92-.36.23-.24.34-.53.34-.87,0-.36-.11-.66-.34-.9-.23-.24-.54-.36-.92-.36h-13.37Z" style="fill: #666;"/>
        <path d="M376.19,847.79c.63.6,1.38,1.07,2.24,1.39.85.32,1.77.49,2.73.49s1.88-.16,2.75-.49,1.62-.79,2.25-1.38c.63-.59,1.14-1.32,1.51-2.16.37-.85.56-1.8.56-2.84s-.19-1.99-.56-2.84c-.37-.84-.88-1.57-1.51-2.16-.63-.59-1.39-1.05-2.25-1.38-.86-.32-1.79-.49-2.75-.49s-1.88.16-2.73.49c-.85.32-1.61.79-2.24,1.39-.63.6-1.14,1.33-1.51,2.18-.37.84-.56,1.79-.56,2.81s.19,1.99.56,2.83.88,1.56,1.51,2.16ZM376.99,842.77c0-1.3.39-2.35,1.17-3.12.78-.78,1.79-1.17,3.01-1.17,1.29,0,2.33.4,3.08,1.18.75.79,1.13,1.84,1.13,3.14s-.38,2.35-1.13,3.14c-.75.78-1.78,1.18-3.08,1.18-.6,0-1.17-.1-1.68-.31-.51-.21-.96-.5-1.32-.89-.36-.38-.65-.84-.86-1.37-.21-.52-.31-1.12-.31-1.79Z" style="fill: #666;"/>
        <path d="M406.11,853.35c-.28-.25-.63-.38-1.03-.38s-.74.13-1.03.38c-.29.26-.43.61-.43,1.05v4.59c0,.84.22,1.51.66,1.98.44.47,1.15.71,2.11.71h14.59c.38,0,.69-.12.92-.36.23-.24.34-.53.34-.87,0-.36-.11-.67-.34-.9-.23-.24-.54-.36-.92-.36h-13.52c-.35,0-.59-.07-.72-.22-.13-.15-.2-.42-.2-.79v-3.78c0-.44-.15-.8-.43-1.05Z" style="fill: #666;"/>
        <path d="M401.54,850.89h22.47c.4,0,.72-.12.95-.34.23-.23.34-.53.34-.89s-.11-.66-.34-.9c-.23-.24-.55-.36-.95-.36h-22.47c-.4,0-.72.12-.95.36-.23.24-.34.54-.34.9s.12.66.34.89c.23.23.54.34.95.34Z" style="fill: #666;"/>
        <path d="M405.78,844.96c.82.48,1.84.85,3.03,1.1,1.18.25,2.54.38,4.04.38,3.05,0,5.44-.49,7.1-1.47,1.68-.99,2.53-2.4,2.53-4.21s-.85-3.22-2.53-4.21c-1.66-.98-4.05-1.47-7.1-1.47-1.49,0-2.85.13-4.04.38-1.19.25-2.21.62-3.03,1.1-.83.48-1.47,1.08-1.92,1.78-.45.71-.67,1.52-.67,2.41s.23,1.7.67,2.41c.44.7,1.09,1.3,1.92,1.78ZM417.82,843.18c-1.18.57-2.85.86-4.97.86s-3.82-.29-5-.86c-1.17-.56-1.73-1.35-1.73-2.42s.57-1.85,1.73-2.42c1.18-.57,2.86-.86,5-.86s3.8.29,4.97.86c1.17.56,1.73,1.35,1.73,2.42s-.57,1.85-1.73,2.42Z" style="fill: #666;"/>
        <path d="M438.59,846.76c.62.55,1.37.98,2.22,1.29.85.3,1.81.46,2.85.46s2-.15,2.86-.46c.86-.3,1.62-.74,2.24-1.29.62-.55,1.11-1.22,1.46-1.99.34-.77.52-1.63.52-2.55s-.17-1.78-.52-2.55c-.35-.77-.84-1.44-1.46-1.99-.62-.55-1.37-.98-2.24-1.29-.86-.3-1.82-.46-2.86-.46s-1.99.15-2.85.46c-.85.3-1.6.74-2.22,1.29-.62.55-1.11,1.22-1.45,1.99-.35.77-.52,1.63-.52,2.55s.17,1.78.52,2.55c.35.77.83,1.44,1.46,1.99ZM443.65,838.48c1.43,0,2.5.36,3.18,1.07.68.71,1.03,1.61,1.03,2.67s-.35,1.97-1.03,2.67c-.68.71-1.75,1.07-3.18,1.07-1.35,0-2.4-.36-3.11-1.07-.71-.71-1.07-1.62-1.07-2.7,0-.53.09-1.02.27-1.47.18-.45.45-.84.8-1.18.35-.33.79-.6,1.31-.79.52-.19,1.12-.28,1.8-.28Z" style="fill: #666;"/>
        <path d="M452.66,843.25h3.01v4.55c0,.44.14.79.42,1.05.27.25.62.38,1.01.38s.74-.13,1.03-.38c.29-.26.43-.61.43-1.05v-11.57c0-.44-.15-.8-.43-1.07-.28-.26-.63-.4-1.03-.4s-.74.13-1.02.4c-.28.27-.42.62-.42,1.06v4.5h-3.01c-.38,0-.69.13-.92.37-.22.25-.34.54-.34.88,0,.36.11.67.34.9.23.24.54.36.92.36Z" style="fill: #666;"/>
        <path d="M457.53,856.63c-.48-1.01-.73-2.08-.73-3.16v-1.63c0-.42-.14-.77-.42-1.02-.27-.25-.61-.38-.99-.38s-.71.13-.97.38c-.27.26-.4.6-.4,1.02v1.51c0,.53-.07,1.08-.2,1.64-.13.56-.34,1.12-.63,1.66-.28.54-.65,1.06-1.09,1.56-.44.49-.98.95-1.62,1.36-.06.06-.14.12-.25.21-.13.1-.24.22-.33.37-.1.15-.16.31-.19.48-.03.19.01.39.14.61.13.24.3.4.52.48.16.06.32.09.48.09.04,0,.09,0,.13,0,.19-.02.38-.07.57-.14.18-.07.32-.14.43-.2,1.59-1.05,2.75-2.34,3.45-3.82.32.66.75,1.3,1.28,1.91.6.68,1.25,1.23,1.93,1.62.1.06.23.13.42.21.19.08.39.14.59.16.21.02.42,0,.62-.08.21-.08.39-.25.55-.51.11-.22.15-.43.11-.62-.03-.18-.1-.35-.21-.49-.1-.13-.22-.25-.34-.35-.12-.1-.23-.18-.31-.21-1.21-.74-2.07-1.63-2.55-2.64Z" style="fill: #666;"/>
        <path d="M441.72,850.82c-.28-.25-.63-.38-1.03-.38s-.74.13-1.03.38c-.29.26-.43.61-.43,1.05v7.12c0,.84.22,1.51.66,1.98.44.47,1.15.71,2.11.71h4.39c.96,0,1.67-.24,2.11-.71.44-.47.66-1.13.66-1.98v-7.12c0-.44-.15-.8-.43-1.05-.28-.25-.63-.38-1.03-.38s-.74.13-1.01.38c-.28.26-.42.61-.42,1.05v1.91h-4.11v-1.91c0-.44-.15-.8-.43-1.05ZM442.15,858.24v-2.03h4.11v2.03c0,.37-.07.64-.2.79-.13.15-.37.22-.72.22h-2.27c-.35,0-.59-.07-.72-.22-.13-.15-.2-.42-.2-.79Z" style="fill: #666;"/>
        <path d="M465.65,853.25c.58.83,1.32,1.48,2.21,1.93.89.45,1.95.68,3.17.68s2.26-.23,3.15-.68c.9-.45,1.64-1.1,2.23-1.93.58-.82,1.02-1.83,1.3-2.99.28-1.16.43-2.46.43-3.88s-.14-2.72-.43-3.88c-.28-1.16-.72-2.17-1.3-2.99-.58-.83-1.33-1.48-2.23-1.93-.9-.45-1.96-.68-3.15-.68s-2.28.23-3.17.68c-.89.45-1.63,1.1-2.21,1.93-.58.82-1.01,1.83-1.3,2.99-.28,1.16-.42,2.46-.42,3.88s.14,2.72.42,3.88c.28,1.16.72,2.17,1.3,2.99ZM471.03,839.5c1.42,0,2.45.57,3.15,1.74.7,1.18,1.06,2.91,1.06,5.14s-.36,3.96-1.06,5.14c-.7,1.17-1.73,1.74-3.15,1.74s-2.46-.59-3.15-1.74c-.7-1.18-1.06-2.9-1.06-5.14s.36-3.96,1.06-5.14c.69-1.16,1.75-1.74,3.15-1.74Z" style="fill: #666;"/>
        <path d="M479.98,847.49h3.01v12.75c0,.44.14.79.42,1.05.28.25.62.38,1.01.38s.74-.13,1.03-.38c.29-.26.43-.61.43-1.05v-24.01c0-.44-.15-.8-.43-1.07-.28-.26-.63-.4-1.03-.4s-.74.13-1.02.4c-.28.27-.42.62-.42,1.06v8.74h-3.01c-.38,0-.69.13-.92.38-.22.25-.34.54-.34.88,0,.36.11.66.34.9.23.24.54.36.92.36Z" style="fill: #666;"/>
        <path d="M491.64,858.19h22.47c.4,0,.72-.12.95-.34.23-.23.34-.52.34-.89s-.11-.66-.34-.9c-.23-.24-.55-.36-.95-.36h-4.44v-3.65c0-.44-.15-.8-.43-1.07-.28-.26-.63-.4-1.03-.4s-.75.13-1.03.4c-.29.27-.43.62-.43,1.07v3.65h-7.6v-3.65c0-.44-.15-.8-.43-1.07-.28-.26-.63-.4-1.03-.4s-.75.13-1.03.4c-.29.27-.43.62-.43,1.07v3.65h-4.58c-.4,0-.72.12-.95.36-.23.24-.34.54-.34.9s.12.66.34.89c.23.23.54.34.95.34Z" style="fill: #666;"/>
        <path d="M495.91,848.53c.83.62,1.85,1.1,3.03,1.43,1.18.33,2.52.5,4,.5s2.83-.17,4.02-.5c1.19-.33,2.21-.81,3.03-1.43.83-.62,1.47-1.37,1.91-2.24.44-.87.67-1.83.67-2.88s-.22-2.01-.67-2.88c-.44-.87-1.09-1.62-1.91-2.24-.82-.62-1.84-1.1-3.03-1.43-1.19-.33-2.54-.5-4.02-.5s-2.82.17-4,.5c-1.18.33-2.2.81-3.03,1.43-.84.62-1.49,1.37-1.94,2.24-.45.87-.68,1.83-.68,2.88s.23,2.01.68,2.88c.45.86,1.1,1.62,1.94,2.24ZM502.94,848.05c-2.06,0-3.72-.41-4.93-1.21-1.2-.79-1.8-1.95-1.8-3.43s.61-2.66,1.8-3.44c1.21-.8,2.87-1.2,4.93-1.2,1.03,0,1.97.1,2.79.3.81.2,1.52.5,2.11.9.58.39,1.03.88,1.34,1.45.31.57.46,1.24.46,1.99s-.16,1.39-.46,1.96c-.31.57-.76,1.06-1.34,1.45-.59.4-1.3.7-2.11.91-.82.21-1.76.32-2.79.32Z" style="fill: #666;"/>
        <path d="M520.79,859.26c.56,0,1.03-.19,1.41-.57.38-.38.57-.86.57-1.41s-.19-1.03-.57-1.42c-.38-.39-.86-.59-1.41-.59s-1.04.2-1.43.59c-.39.39-.59.87-.59,1.43s.2,1.03.59,1.41c.39.38.87.57,1.42.57Z" style="fill: #666;"/>
        <path d="M241.6,897.09c1.88-.02,3.84-.13,5.84-.33,2-.2,3.97-.53,5.83-.97.12-.02.27-.06.43-.12.17-.06.32-.15.47-.27.15-.12.27-.28.36-.47.09-.2.1-.45.04-.75-.06-.26-.17-.45-.33-.59-.15-.13-.32-.22-.5-.26-.18-.04-.35-.05-.52-.03-.16.02-.29.04-.39.06-1.61.38-3.3.68-5.03.87-1.73.19-3.39.31-4.94.35-.39,0-.64-.07-.76-.22-.13-.15-.19-.4-.19-.73v-10.58c0-.37.07-.64.2-.79.13-.15.37-.22.72-.22h8.52c.38,0,.69-.12.92-.36.23-.24.34-.54.34-.9,0-.34-.11-.64-.34-.88-.23-.25-.54-.38-.92-.38h-9.59c-.96,0-1.67.24-2.11.71-.44.47-.66,1.13-.66,1.97v12.18c0,.76.21,1.41.62,1.92.42.52,1.09.79,2,.79Z" style="fill: #666;"/>
        <path d="M262.64,886.87h-3.45v-8.74c0-.44-.15-.8-.43-1.07-.28-.26-.63-.4-1.03-.4s-.74.13-1.02.4c-.28.27-.42.62-.42,1.06v24.01c0,.44.14.79.42,1.05.27.25.62.38,1.01.38s.74-.13,1.03-.38c.29-.26.43-.61.43-1.05v-12.75h3.45c.38,0,.69-.12.92-.36.23-.24.34-.54.34-.9,0-.34-.11-.64-.34-.88-.23-.25-.54-.38-.92-.38Z" style="fill: #666;"/>
        <path d="M296.99,897.59h-9.7v-4.26c0-.44-.15-.8-.43-1.05-.28-.25-.63-.38-1.03-.38s-.74.13-1.03.38c-.29.26-.43.61-.43,1.05v4.26h-9.84c-.4,0-.72.12-.95.36-.23.24-.34.54-.34.9s.12.66.34.89c.23.23.54.34.95.34h22.47c.4,0,.72-.11.95-.34.23-.23.34-.53.34-.89s-.11-.66-.34-.9c-.23-.24-.55-.36-.95-.36Z" style="fill: #666;"/>
        <path d="M277.46,878.7c-.84,0-1.29.42-1.29,1.2,0,.36.12.66.34.89.23.23.54.34.95.34h6.88v.28c0,1.2-.22,2.27-.64,3.2-.43.93-1.01,1.76-1.73,2.45-.72.69-1.57,1.28-2.51,1.74-.95.46-1.95.83-2.98,1.1-.09.02-.2.07-.33.14-.14.07-.27.17-.39.3-.13.13-.23.29-.28.47-.06.19-.04.41.04.64.08.28.21.48.38.61.16.13.33.21.5.26.11.03.23.04.33.04.06,0,.11,0,.16-.01.16-.02.26-.04.32-.06.97-.23,1.92-.55,2.82-.94.9-.39,1.75-.86,2.51-1.39.76-.53,1.44-1.14,2.03-1.81.52-.59.95-1.24,1.27-1.92.31.67.71,1.31,1.22,1.89.56.66,1.24,1.27,2,1.81.76.53,1.59,1,2.49,1.39.89.39,1.84.7,2.8.93.07.02.17.04.33.06.16.02.33.01.51-.03.18-.04.36-.13.52-.26.16-.13.29-.34.37-.61.09-.24.1-.46.05-.64-.05-.19-.15-.35-.28-.48-.12-.12-.26-.22-.39-.3-.14-.07-.25-.12-.33-.14-1.03-.27-2.03-.64-2.97-1.11-.93-.47-1.77-1.05-2.48-1.74-.71-.68-1.29-1.5-1.7-2.42-.42-.92-.63-1.99-.63-3.19v-.28h6.82c.4,0,.72-.11.95-.34.23-.23.34-.53.34-.89,0-.79-.45-1.2-1.29-1.2h-16.68Z" style="fill: #666;"/>
        <path d="M324.31,888.99h-22.47c-.4,0-.72.12-.95.36-.23.24-.34.54-.34.9s.12.66.34.89c.23.23.54.34.95.34h22.47c.4,0,.72-.12.95-.34.23-.23.34-.53.34-.89s-.11-.66-.34-.9c-.23-.24-.55-.36-.95-.36Z" style="fill: #666;"/>
        <path d="M304.12,877.93c-.23.24-.34.54-.34.9,0,.79.45,1.2,1.29,1.2h13.37c.27,0,.48.05.65.15.14.09.19.36.16.79h0c-.06.8-.14,1.62-.25,2.45-.11.83-.25,1.65-.42,2.45-.02.1-.04.23-.07.4-.03.18-.02.37.03.56.05.19.16.37.32.53s.41.28.75.34c.14.03.27.04.39.04.17,0,.32-.02.45-.07.22-.08.4-.2.53-.35.13-.15.22-.31.28-.47.06-.16.1-.29.12-.4.21-1.05.4-2.1.54-3.12.15-1.02.24-2.07.28-3.12.06-.91-.16-1.59-.65-2.01-.49-.42-1.29-.63-2.38-.63h-14.1c-.4,0-.72.12-.95.36Z" style="fill: #666;"/>
        <path d="M319.61,893.99h-12.91c-.96,0-1.67.24-2.11.71-.44.47-.66,1.13-.66,1.97v4.21c0,.84.22,1.51.66,1.97.44.47,1.15.71,2.11.71h12.91c.96,0,1.67-.24,2.11-.71.44-.47.66-1.13.66-1.97v-4.21c0-.84-.22-1.51-.66-1.97-.44-.47-1.15-.71-2.11-.71ZM319.45,897.49v2.62c0,.37-.07.64-.2.79-.13.15-.37.22-.72.22h-10.75c-.35,0-.59-.07-.72-.22-.13-.15-.2-.42-.2-.79v-2.62c0-.37.07-.64.2-.79.13-.15.37-.22.72-.22h10.75c.35,0,.59.07.72.22.13.15.2.42.2.79Z" style="fill: #666;"/>
        <path d="M349.28,876.67c-.4,0-.74.13-1.02.4-.28.27-.42.62-.42,1.06v12.88c0,.44.14.79.42,1.05.28.25.62.38,1.01.38s.74-.13,1.03-.38c.29-.26.43-.61.43-1.05v-12.88c0-.44-.15-.8-.43-1.07-.28-.26-.63-.4-1.03-.4Z" style="fill: #666;"/>
        <path d="M334.67,880.72v-1.19c0-.42-.15-.77-.43-1.02-.28-.25-.62-.38-1-.38s-.71.13-.97.38c-.27.25-.4.6-.4,1.02v1.13c0,1.43-.29,2.77-.86,3.99-.57,1.22-1.48,2.42-2.71,3.57-.06.06-.14.15-.25.27-.11.12-.21.27-.28.42-.08.16-.11.35-.1.55.01.21.1.43.27.64.17.21.37.35.57.41.12.03.25.05.37.05.07,0,.15,0,.22-.02.19-.03.37-.09.53-.19.16-.09.29-.18.37-.26.68-.59,1.35-1.3,1.99-2.12.58-.74,1.03-1.49,1.36-2.23.18.34.38.66.62.95.29.36.6.68.92.96.17.15.42.26.75.33.35.08.7-.07,1.03-.44.15-.19.24-.38.27-.56.03-.18.03-.36-.02-.52-.04-.16-.1-.3-.17-.41-.07-.11-.13-.19-.18-.24h0c-.55-.49-1.01-1.15-1.36-1.97-.36-.81-.54-1.86-.54-3.12Z" style="fill: #666;"/>
        <path d="M335.25,889.76c-.11.12-.21.27-.28.44-.07.17-.11.35-.11.54,0,.2.09.42.26.63.17.22.37.35.57.41.12.03.25.05.38.05.08,0,.15,0,.23-.02.2-.03.38-.09.53-.17.15-.08.28-.16.39-.25.7-.64,1.39-1.43,2.05-2.34.6-.83,1.07-1.73,1.4-2.67.37.76.82,1.45,1.34,2.04.58.66,1.16,1.2,1.73,1.61.19.19.48.31.85.36.39.05.75-.1,1.07-.47.17-.21.27-.42.29-.63.02-.2,0-.38-.03-.54-.04-.16-.11-.3-.19-.42-.09-.12-.16-.2-.23-.25-1.08-.72-1.95-1.72-2.59-2.98-.64-1.26-.96-2.8-.96-4.59v-1.13c0-.42-.14-.77-.42-1.02-.28-.25-.61-.38-.99-.38s-.7.13-.96.39-.39.6-.39,1.02v1.37c0,3.53-1.24,6.47-3.68,8.75-.06.06-.14.15-.25.27Z" style="fill: #666;"/>
        <path d="M347.97,893.64h-14.47c-.38,0-.69.12-.92.36-.22.24-.34.53-.34.87,0,.36.11.66.34.89.23.23.54.34.92.34h13.43c.35,0,.59.07.72.22.13.15.2.42.2.79v5.14c0,.44.14.79.42,1.05.27.25.62.38,1.01.38s.74-.13,1.03-.38c.29-.26.43-.61.43-1.05v-5.93c0-.84-.22-1.51-.66-1.97-.44-.47-1.15-.71-2.11-.71Z" style="fill: #666;"/>
        <path d="M387.91,883.12h-3.16v-4.99c0-.44-.15-.8-.43-1.07-.28-.26-.63-.4-1.03-.4s-.74.13-1.02.4c-.28.27-.42.62-.42,1.06v12.88c0,.44.14.79.42,1.05.28.25.62.38,1.01.38s.74-.13,1.03-.38c.29-.26.43-.61.43-1.05v-5.4h3.16c.38,0,.69-.12.92-.36.23-.24.34-.54.34-.9,0-.34-.11-.63-.34-.87-.23-.24-.54-.36-.92-.36Z" style="fill: #666;"/>
        <path d="M374.77,890.98c.96,0,1.67-.24,2.11-.71.44-.47.66-1.13.66-1.97v-7.21c0-.84-.22-1.51-.66-1.97-.44-.47-1.15-.71-2.11-.71h-7.76c-.96,0-1.67.24-2.11.71-.44.47-.66,1.13-.66,1.97v7.21c0,.84.22,1.51.66,1.97.44.47,1.15.71,2.11.71h7.76ZM367.13,887.55v-5.7c0-.37.07-.64.2-.79.13-.15.37-.22.72-.22h5.67c.35,0,.59.07.72.22.13.15.2.42.2.79v5.7c0,.37-.07.64-.2.79-.13.15-.37.22-.72.22h-5.67c-.35,0-.59-.07-.72-.22-.13-.15-.2-.42-.2-.79Z" style="fill: #666;"/>
        <path d="M386.01,901.72c-.15-.12-.31-.23-.48-.3-.17-.07-.33-.12-.48-.14-.84-.13-1.69-.36-2.52-.66-.83-.31-1.6-.69-2.29-1.14-.68-.45-1.28-.97-1.76-1.57-.45-.55-.75-1.17-.92-1.85h6.38c.36,0,.66-.12.89-.34.23-.23.34-.52.34-.86s-.11-.63-.34-.87c-.23-.24-.53-.36-.89-.36h-15.9c-.38,0-.69.12-.92.36-.23.24-.34.53-.34.87s.12.63.34.86c.23.23.53.34.92.34h6.35c-.16.67-.47,1.29-.92,1.85-.48.6-1.07,1.13-1.75,1.57-.68.45-1.44.83-2.27,1.12-.83.3-1.68.52-2.52.68-.15.02-.3.07-.47.14-.17.07-.32.17-.46.3-.14.13-.25.29-.32.48-.08.2-.08.43-.02.69.09.3.23.52.43.64.19.11.4.19.61.22.21.03.43.03.65,0,.21-.03.37-.05.49-.07.81-.15,1.64-.37,2.46-.64.82-.27,1.59-.61,2.3-1,.71-.39,1.37-.85,1.97-1.37.54-.47,1.01-1.01,1.39-1.59.38.58.84,1.12,1.39,1.59.6.52,1.26.98,1.98,1.37.72.39,1.5.72,2.32,1,.82.27,1.64.49,2.46.64.12.02.28.04.48.07.11.02.22.02.32.02s.22,0,.32-.02c.22-.03.43-.1.62-.22.2-.12.35-.34.43-.63.09-.26.1-.49.03-.69-.06-.19-.17-.36-.33-.49Z" style="fill: #666;"/>
        <path d="M408.34,893.71c.08-.02.19-.05.34-.09.16-.04.31-.12.45-.23.14-.11.26-.25.35-.42.1-.18.13-.41.09-.69-.04-.3-.14-.52-.28-.67-.14-.14-.3-.24-.47-.29-.17-.05-.34-.08-.5-.06-.14,0-.25.01-.34.02-1.24.15-2.56.29-3.92.41-1.35.12-2.72.22-4.08.3-1.36.09-2.73.16-4.07.22-1.35.06-2.67.1-3.9.12-.1,0-.24.02-.4.05-.17.03-.33.1-.49.19-.16.1-.3.23-.4.39-.11.17-.15.4-.11.67.02.3.11.53.27.7.15.16.32.27.52.34.19.06.37.1.54.11.17.01.3.01.4.01h0c.99-.02,1.99-.04,2.99-.07.95-.03,1.94-.07,2.95-.12v7.11c0,.44.15.8.43,1.05.28.25.63.38,1.03.38s.74-.13,1.03-.38c.29-.26.43-.61.43-1.05v-7.3c1.24-.09,2.45-.19,3.59-.3,1.2-.11,2.39-.24,3.55-.4Z" style="fill: #666;"/>
        <path d="M412.06,876.67c-.4,0-.74.13-1.02.4-.28.27-.42.62-.42,1.06v17.34h-4.64c-.38,0-.69.13-.92.38-.22.25-.34.54-.34.88,0,.36.11.66.34.9.23.24.54.36.92.36h4.64v4.15c0,.44.14.79.42,1.05.27.25.62.38,1.01.38s.74-.13,1.03-.38c.29-.26.43-.61.43-1.05v-24.01c0-.44-.15-.8-.43-1.07-.28-.26-.63-.4-1.03-.4Z" style="fill: #666;"/>
        <path d="M396.31,877.34c-.4,0-.72.12-.95.36-.23.24-.34.54-.34.9s.11.66.34.9c.23.24.55.36.95.36h6.77c.4,0,.72-.12.95-.36.23-.24.34-.54.34-.9s-.11-.66-.34-.9c-.23-.24-.55-.36-.95-.36h-6.77Z" style="fill: #666;"/>
        <path d="M396.3,886.6c-1.02.78-2.3,1.46-3.79,2.02-.11.04-.22.1-.34.19-.13.09-.24.19-.34.32-.1.13-.16.3-.18.48-.02.19.03.41.16.64.13.23.29.4.47.5.18.1.36.15.54.16.04,0,.09,0,.13,0,.13,0,.25-.01.37-.04.16-.03.26-.06.32-.08,1.24-.43,2.44-1,3.56-1.7,1.07-.67,1.94-1.56,2.59-2.65.59.97,1.36,1.76,2.27,2.33.97.6,2.08,1.1,3.3,1.47.06.02.17.05.32.08.16.03.33.04.5.03.18-.01.37-.06.56-.16.2-.1.36-.27.49-.5.13-.23.19-.44.17-.64-.01-.19-.07-.35-.17-.5-.1-.14-.21-.25-.34-.34-.12-.08-.24-.14-.35-.19-.63-.19-1.25-.42-1.83-.68-.58-.26-1.11-.56-1.57-.92-.46-.35-.86-.77-1.19-1.24-.3-.43-.52-.93-.66-1.49h4.55c.4,0,.72-.12.95-.36.23-.24.34-.54.34-.9s-.11-.66-.34-.9c-.23-.24-.55-.36-.95-.36h-12.29c-.4,0-.72.12-.95.36-.23.24-.34.54-.34.9s.11.67.34.9c.23.24.55.36.95.36h4.61c-.26,1.17-.89,2.15-1.85,2.89Z" style="fill: #666;"/>
        <path d="M437.93,903.57c.4,0,.74-.13,1.03-.38.29-.26.43-.61.43-1.05v-12.75h3.45c.38,0,.69-.12.92-.36.23-.24.34-.54.34-.9,0-.34-.11-.64-.34-.88-.23-.25-.54-.38-.92-.38h-3.45v-8.74c0-.44-.15-.8-.43-1.07-.28-.26-.63-.4-1.03-.4s-.74.13-1.02.4c-.28.27-.42.62-.42,1.06v24.01c0,.44.14.79.42,1.05.27.25.62.38,1.01.38Z" style="fill: #666;"/>
        <path d="M419.77,879.73c-.23.24-.34.54-.34.9s.12.66.34.89c.23.23.54.34.95.34h7.64c.27,0,.49.05.67.14.14.08.19.36.14.79-.15,1.32-.51,2.62-1.07,3.87-.56,1.25-1.28,2.46-2.15,3.58-.87,1.12-1.88,2.17-3,3.11-1.12.94-2.34,1.77-3.63,2.46-.1.06-.22.14-.35.24-.14.1-.25.23-.35.38-.1.15-.16.33-.18.53-.02.21.03.43.16.67.13.24.31.41.52.5.21.09.42.14.62.14s.39-.03.56-.09c.17-.06.3-.11.41-.15,1.59-.83,3.07-1.81,4.4-2.91,1.33-1.1,2.5-2.33,3.49-3.67.99-1.34,1.8-2.82,2.4-4.39.6-1.57.98-3.28,1.11-5.06.06-.91-.16-1.58-.65-2.01-.49-.42-1.29-.63-2.38-.63h-8.37c-.4,0-.72.12-.95.36Z" style="fill: #666;"/>
        <path d="M451.45,877.66c-.28-.25-.63-.38-1.03-.38s-.74.13-1.03.38c-.29.26-.43.61-.43,1.05v6.19c0,.84.22,1.51.66,1.98.44.47,1.15.71,2.11.71h14.45c.38,0,.69-.12.92-.36.23-.24.34-.53.34-.87,0-.36-.11-.66-.34-.9-.23-.24-.54-.36-.92-.36h-13.37c-.35,0-.59-.07-.72-.22-.13-.15-.2-.42-.2-.79v-5.38c0-.44-.15-.8-.43-1.05Z" style="fill: #666;"/>
        <path d="M466.03,901.08h-13.52c-.35,0-.59-.07-.72-.22-.13-.15-.2-.42-.2-.79v-3.78c0-.44-.15-.8-.43-1.05-.28-.25-.63-.38-1.03-.38s-.74.13-1.03.38c-.29.26-.43.61-.43,1.05v4.59c0,.84.22,1.51.66,1.97.44.47,1.15.71,2.11.71h14.59c.38,0,.69-.12.92-.36.23-.24.34-.53.34-.87,0-.36-.11-.67-.34-.9-.23-.24-.54-.36-.92-.36Z" style="fill: #666;"/>
        <path d="M469.06,890.3h-22.47c-.4,0-.72.12-.95.36-.23.24-.34.54-.34.9s.12.66.34.89c.23.23.54.34.95.34h22.47c.4,0,.72-.12.95-.34.23-.23.34-.53.34-.89s-.11-.66-.34-.9c-.23-.24-.55-.36-.95-.36Z" style="fill: #666;"/>
        <path d="M492.16,879.37h-8.37c-.4,0-.72.12-.95.36-.23.24-.34.54-.34.9s.12.66.34.89c.23.23.54.34.95.34h7.64c.27,0,.49.05.67.14.14.08.19.36.14.79-.15,1.32-.51,2.62-1.07,3.87-.55,1.25-1.28,2.46-2.15,3.58s-1.88,2.17-3,3.11c-1.12.94-2.34,1.77-3.63,2.46-.1.06-.22.14-.35.24-.14.11-.25.23-.35.38-.1.15-.16.33-.18.53-.02.21.03.43.16.67.13.24.31.41.52.5.21.09.42.14.62.14s.39-.03.56-.09c.17-.06.3-.11.41-.15,1.59-.83,3.07-1.81,4.4-2.91,1.33-1.1,2.5-2.33,3.49-3.67.99-1.34,1.8-2.82,2.4-4.39s.98-3.28,1.11-5.06c.06-.91-.16-1.58-.65-2.01-.49-.42-1.29-.63-2.38-.63Z" style="fill: #666;"/>
        <path d="M502.16,876.67c-.4,0-.74.13-1.02.4-.28.27-.42.62-.42,1.06v8.74h-4.18c-.38,0-.69.13-.92.38-.22.25-.34.54-.34.88,0,.36.11.66.34.9.23.24.54.36.92.36h4.18v12.75c0,.44.14.79.42,1.05.27.25.62.38,1.01.38s.74-.13,1.03-.38c.29-.26.43-.61.43-1.05v-24.01c0-.44-.15-.8-.43-1.07-.28-.26-.63-.4-1.03-.4Z" style="fill: #666;"/>
        <path d="M526.09,894.35c0-.44-.15-.8-.43-1.05-.28-.25-.63-.38-1.03-.38s-.74.13-1.03.38c-.29.26-.43.61-.43,1.05v3.25h-4.98v-3.25c0-.44-.15-.8-.43-1.05-.28-.25-.63-.38-1.03-.38s-.74.13-1.03.38c-.29.26-.43.61-.43,1.05v3.25h-5.89c-.4,0-.72.12-.95.36-.23.24-.34.54-.34.9s.12.66.34.89c.23.23.54.34.95.34h22.47c.4,0,.72-.11.95-.34.23-.23.34-.53.34-.89s-.11-.66-.34-.9c-.23-.24-.55-.36-.95-.36h-5.75v-3.25Z" style="fill: #666;"/>
        <path d="M512.3,878.7c-.84,0-1.29.42-1.29,1.2,0,.36.12.66.34.89.23.23.54.34.95.34h6.88v.28c0,1.2-.22,2.27-.64,3.2-.43.93-1.01,1.76-1.73,2.45-.72.69-1.57,1.28-2.51,1.74-.95.46-1.95.83-2.98,1.1-.09.02-.2.07-.33.14-.14.07-.27.17-.39.3-.13.13-.23.29-.28.47-.06.19-.04.41.04.64.08.28.21.48.38.61.16.13.33.21.5.26.11.03.23.04.33.04.06,0,.11,0,.16-.01.16-.02.26-.04.32-.06.97-.23,1.92-.55,2.82-.94.9-.39,1.75-.86,2.51-1.39.76-.53,1.44-1.14,2.03-1.81.52-.59.95-1.24,1.27-1.92.31.67.71,1.31,1.22,1.89.56.66,1.24,1.27,2,1.81.76.53,1.59,1,2.49,1.39.89.39,1.84.7,2.8.93.07.02.17.04.33.06.16.02.33.01.51-.03.18-.04.36-.13.52-.26.16-.13.29-.34.37-.61.09-.24.1-.46.05-.64-.05-.19-.15-.35-.28-.48-.12-.12-.26-.22-.39-.3-.14-.07-.25-.12-.33-.14-1.03-.27-2.03-.64-2.97-1.11-.93-.47-1.77-1.05-2.48-1.74-.71-.68-1.29-1.5-1.7-2.42-.42-.92-.63-1.99-.63-3.19v-.28h6.82c.4,0,.72-.11.95-.34.23-.23.34-.53.34-.89,0-.79-.45-1.2-1.29-1.2h-16.68Z" style="fill: #666;"/>
        <path d="M538.52,901.16c.56,0,1.03-.19,1.41-.57.38-.38.57-.86.57-1.41s-.19-1.03-.57-1.42c-.38-.39-.86-.59-1.41-.59s-1.04.2-1.43.59c-.39.39-.59.87-.59,1.43s.2,1.03.59,1.41c.39.38.87.57,1.42.57Z" style="fill: #666;"/>
        <path d="M537.49,294.31l-19.87,48.11,14.56,14.51,25.96-62.86c-2.19.16-4.41.24-6.64.24h-14.02Z" style="fill: #d3d3d3;"/>
        <path d="M372.82,404.6s-.02-.02-.02-.02v-.02s0,0,0,0v.02s0,.02.02.02h0Z" style="fill: #ececec;"/>
        <path d="M399.83,492.76c-.21-2.6-3.06-3.44-3.5-5.31-.38-.4-.69-.95-.96-1.87-.83-2.9,2.03-3.71,1.2-6.61-.83-2.9-3.68-2.08-4.5-4.98-.83-2.9,2.03-3.71,1.2-6.61-.22-.76-.67-1.31-1.21-1.75-.65-.54-1.48-.81-2.33-.81h0c-.84,0-1.67.27-2.33.81-.54.44-.99.99-1.21,1.75-.83,2.9,2.03,3.71,1.2,6.61-.83,2.9-3.68,2.08-4.5,4.98-.83,2.9,2.03,3.71,1.2,6.61-.26.92-.58,1.47-.96,1.87-.43,1.87-3.29,2.71-3.5,5.31-.25,3.17,2.7,3.41,2.45,6.58-.25,3.17-3.21,2.94-3.46,6.11-.25,3.17,2.7,3.41,2.45,6.58-.17,2.14-.92,2.63-1.85,3.59.71.77,1.25,1.7,1.56,2.74l17.1-17.33c-.26-.44-.46-.97-.51-1.68-.25-3.17,2.7-3.41,2.45-6.58Z" style="fill: #359b37;"/>
        <path d="M411.44,487.28l.09-.09c-.08-.04-.17-.08-.25-.12.05.08.11.14.16.21Z" style="fill: #359b37;"/>
        <path d="M372.61,470.6c-1.59-.28-1.69-1.8-1.61-2.5.02-.16-.11-.29-.27-.3,0,0,0,0-.01,0-.17,0-.29.14-.28.3.06.66-.2,1.3-.62,1.73-.12.12-.09.32.05.41,1.04.62,1.04,1.59.85,2.29.19.15.2.16.39.31.47-.28.97-.53,1.41-.87.07-.05.1-.13.1-.21,0-.28.07-.55.18-.79.07-.15-.03-.34-.19-.37Z" style="fill: #359b37;"/>
        <path d="M367.28,566.95l-.46.47c.39.12.88.35,1.38.59-.32-.44-.63-.77-.92-1.06Z" style="fill: #359b37;"/>
        <path d="M369.87,584.83c-.14.09-.17.29-.05.41.34.34.71.93.62,1.72-.02.17.11.31.28.3,0,0,0,0,.01,0,.16,0,.28-.14.27-.29-.07-.69.02-2.22,1.6-2.5.16-.03.26-.21.2-.36-.11-.24-.17-.51-.18-.79,0-.08-.04-.16-.1-.21-.44-.34-.94-.59-1.41-.87-.21-.12-.46.07-.39.3.19.7.19,1.66-.84,2.29Z" style="fill: #359b37;"/>
        <path d="M409.61,470.25c.14-.09.17-.29.05-.41-.34-.34-.71-.93-.62-1.72.02-.17-.11-.31-.28-.3,0,0,0,0-.01,0-.16,0-.29.14-.27.29.07.69-.02,2.22-1.6,2.5-.16.03-.26.21-.2.36.11.24.17.51.18.79,0,.08.04.16.1.21.44.34.94.59,1.41.87.21.12.46-.07.39-.3-.19-.7-.19-1.66.84-2.29Z" style="fill: #359b37;"/>
        <path d="M379.65,562.32c.21,2.6,3.06,3.44,3.5,5.31.38.4.69.95.96,1.87.83,2.9-2.03,3.71-1.2,6.61.83,2.9,3.68,2.08,4.5,4.98.83,2.9-2.03,3.71-1.2,6.61.22.76.67,1.31,1.21,1.75.65.54,1.48.81,2.33.81s1.67-.27,2.33-.81c.54-.44.99-.99,1.21-1.75.83-2.9-2.03-3.71-1.2-6.61s3.68-2.08,4.5-4.98c.83-2.9-2.03-3.71-1.2-6.61.26-.92.58-1.47.96-1.87.43-1.87,3.29-2.71,3.5-5.31.25-3.17-2.7-3.41-2.45-6.58.25-3.17,3.21-2.94,3.46-6.11.25-3.17-2.7-3.41-2.45-6.58.17-2.14.92-2.63,1.85-3.59-1.01-1.1-1.67-2.51-1.83-4.07l-17.54,17.78c.61.61,1.12,1.33,1.22,2.57.25,3.17-2.7,3.41-2.45,6.58Z" style="fill: #359b37;"/>
        <path d="M406.87,584.48c1.59.28,1.69,1.8,1.61,2.5-.02.16.11.29.27.3,0,0,.01,0,.01,0,.17,0,.29-.14.28-.3-.06-.66.2-1.3.62-1.73.12-.12.09-.32-.05-.41-1.04-.62-1.04-1.59-.85-2.29-.19-.15-.2-.16-.39-.31-.47.28-.97.53-1.41.87-.07.05-.1.13-.1.21,0,.28-.07.55-.18.79-.07.15.03.34.19.37Z" style="fill: #359b37;"/>
        <path d="M288.83,611.57l68.87-69.82h-4.92c-3.92,0-7.09-3.17-7.09-7.09s3.17-7.09,7.09-7.09h18.91l.07-.08h-18.98c-3.92,0-7.09-3.17-7.09-7.09s3.17-7.09,7.09-7.09h13c.59-.65,1.09-1.4,1.17-2.42.25-3.17-2.7-3.41-2.45-6.58.25-3.17,3.21-2.94,3.46-6.11.25-3.17-2.7-3.41-2.45-6.58.22-2.75,1.38-2.78,2.68-4.56-1.11.53-2.14,1.05-2.27.25-.49-2.97,3.71-2.73,4.54-5.63.53-1.87-.46-2.87-1.02-4.12-.06-.01-.12-.03-.19-.05-1.13-.36-1.75-1.56-1.4-2.69.08-.27.22-.51.39-.71-.08-.02-.15-.03-.23-.06-1.13-.36-1.75-1.56-1.4-2.69.15-.46.44-.84.81-1.1-.98-.44-1.5-1.55-1.17-2.6,0,0,0,0,0-.01.23-.71.06-1.49-.48-2-.92-.88-1.68-2.01-2.17-3.33-.62-1.65-.73-3.35-.42-4.88-1.05-1.85-5.88-10.35-9.72-17.1-2.08-3.66.53-8.21,4.73-8.26l16.94-.23c1.94-.03,3.64,1.03,4.53,2.61.4.72.64,1.55.65,2.43.04,2.82-2.22,5.14-5.04,5.18l-9.01.12,3.02,5.32c1.39,2.44,3.19,4.59,5.23,6.51.07.06.14.13.2.2.66.67,1.64.94,2.53.65.07-.02.14-.04.21-.06,1.15-.24,1.99-1.23,2.05-2.4l.72-14.19c.26-5.06,4.43-9.03,9.5-9.03h0c5.07,0,9.25,3.97,9.5,9.03l.71,14.13c.06,1.18.88,2.23,2.03,2.47.05.01.09.02.14.04.93.27,1.93.06,2.61-.62.07-.07.14-.14.21-.2,2.04-1.92,3.84-4.08,5.23-6.51l3.02-5.32-9.01-.12c-2.82-.04-5.08-2.36-5.04-5.18.01-.88.25-1.71.65-2.43.89-1.58,2.59-2.63,4.53-2.61l16.94.23c4.21.06,6.81,4.61,4.73,8.26-3.84,6.75-8.67,15.25-9.72,17.1.31,1.54.2,3.23-.42,4.88-.49,1.32-1.25,2.45-2.17,3.33-.54.52-.71,1.29-.48,2,0,0,0,0,0,.01.33,1.05-.19,2.17-1.17,2.6.37.26.66.64.81,1.1.36,1.13-.27,2.33-1.4,2.69-.08.02-.15.04-.23.06.17.2.3.44.39.71.36,1.13-.27,2.33-1.4,2.69-.06.02-.13.04-.19.05-.55,1.25-1.54,2.25-1.01,4.11.61,2.15,3.09,2.57,4.12,3.87l60.14-60.97-25.74-25.64c-2.11-2.1-4.97-3.28-7.94-3.28h-99.7c-2.98,0-5.83,1.18-7.94,3.28l-70.47,70.19c-2.12,2.11-3.31,4.98-3.31,7.98v99.22c0,2.99,1.19,5.86,3.31,7.98l27.36,27.25ZM389.46,426.24c-3.62-.15-6.42-3.21-6.27-6.83.15-3.62,3.21-6.42,6.83-6.27,3.62.15,6.42,3.21,6.27,6.83-.15,3.62-3.21,6.42-6.83,6.27ZM372.8,404.56s0,0,0,0h0s.02.02.02.02v.02h0s0,0,0,0c-.02,0-.02-.02-.02-.02v-.02Z" style="fill: #359b37;"/>
        <path d="M490.64,441.89l-70.46,71.43h6.51c3.92,0,7.09,3.17,7.09,7.09s-3.17,7.09-7.09,7.09h-20.5l-.07.08h20.57c3.92,0,7.09,3.17,7.09,7.09s-3.17,7.09-7.09,7.09h-13c-.59.65-1.09,1.4-1.17,2.42-.25,3.17,2.7,3.41,2.45,6.58-.25,3.17-3.21,2.94-3.46,6.11-.25,3.17,2.7,3.41,2.45,6.58-.22,2.75-1.38,2.78-2.68,4.56,1.11-.53,2.14-1.05,2.27-.25.49,2.97-3.71,2.73-4.54,5.63-.53,1.87.46,2.87,1.02,4.12.06.01.12.03.19.05,1.13.36,1.75,1.56,1.4,2.69-.08.27-.22.51-.39.71.08.02.15.03.23.06,1.13.36,1.75,1.56,1.4,2.69-.15.46-.44.84-.81,1.1.98.44,1.5,1.55,1.17,2.6,0,0,0,0,0,.01-.23.71-.06,1.49.48,2,.92.88,1.68,2.01,2.17,3.33.62,1.65.73,3.35.42,4.88,1.05,1.85,5.88,10.35,9.72,17.1,2.08,3.66-.53,8.21-4.73,8.26l-16.94.23c-1.94.03-3.64-1.03-4.53-2.61-.4-.72-.64-1.54-.65-2.43-.04-2.82,2.22-5.14,5.04-5.18l9.01-.12-3.02-5.32c-1.38-2.44-3.19-4.59-5.23-6.51-.07-.07-.14-.13-.2-.2-.66-.67-1.64-.94-2.53-.65-.07.02-.14.04-.21.06-1.15.24-1.99,1.23-2.05,2.4l-.72,14.19c-.25,5.06-4.43,9.03-9.5,9.03s-9.25-3.97-9.5-9.03l-.71-14.13c-.06-1.18-.88-2.23-2.03-2.47-.05-.01-.09-.02-.14-.04-.93-.27-1.93-.06-2.61.62-.07.07-.14.14-.21.2-2.04,1.92-3.84,4.08-5.23,6.51l-3.02,5.32,9.01.12c2.82.04,5.08,2.36,5.04,5.18-.01.88-.25,1.71-.65,2.43-.89,1.58-2.59,2.63-4.53,2.61l-16.94-.23c-4.21-.06-6.81-4.61-4.73-8.27,3.84-6.75,8.67-15.25,9.72-17.1-.31-1.54-.2-3.23.42-4.88.49-1.32,1.25-2.45,2.17-3.33.54-.52.71-1.29.48-2,0,0,0,0,0-.01-.33-1.05.19-2.17,1.17-2.6-.37-.26-.66-.64-.81-1.1-.36-1.13.27-2.33,1.4-2.69.08-.02.15-.04.23-.06-.17-.2-.3-.44-.39-.71-.36-1.13.27-2.33,1.4-2.69.06-.02.13-.04.19-.05.55-1.25,1.54-2.25,1.01-4.11-.76-2.68-4.43-2.68-4.57-5.02l-59.69,60.51,25.74,25.64c2.11,2.1,4.97,3.28,7.94,3.28h99.7c2.98,0,5.83-1.18,7.94-3.28l70.47-70.19c2.12-2.11,3.31-4.98,3.31-7.98v-99.22c0-2.99-1.19-5.86-3.31-7.98l-27.36-27.25ZM397.5,639.09l-4.08-.79,1.7,3.79-3.33-2.48-.11,4.15-1.93-3.68-1.9,3.69-.14-4.15-3.31,2.5,1.68-3.8-4.07.82,3.16-2.7-4.02-1.03,4.02-1.06-3.18-2.67,4.08.79-1.7-3.79,3.33,2.48.11-4.15,1.93,3.68,1.9-3.69.14,4.15,3.31-2.5-1.68,3.8,4.07-.82-3.16,2.7,4.02,1.03-4.02,1.06,3.18,2.67Z" style="fill: #359b37;"/>
        <path d="M244.18,601.68l22.13,22.04,19,18.93,15.2,15.14,14.14,14.08c2.35,2.34,4.97,4.3,7.78,5.88,5.28,2.96,11.25,4.54,17.46,4.54h99.7c3.78,0,7.46-.59,10.96-1.71.79-.25,1.56-.53,2.33-.84.26-.11.53-.22.79-.33.66-.28,1.31-.59,1.95-.91.48-.24.96-.5,1.43-.76.61-.34,1.2-.7,1.79-1.07.39-.25.77-.5,1.15-.77.54-.38,1.08-.77,1.6-1.18,1.13-.88,2.22-1.83,3.25-2.86l70.33-70.05.14-.14c5.85-5.83,9.52-13.63,10.35-21.82.12-1.17.18-2.35.18-3.53v-99.22c0-1.77-.13-3.53-.4-5.27-.09-.58-.19-1.16-.31-1.73-.23-1.15-.52-2.29-.86-3.4-.68-2.24-1.59-4.41-2.69-6.47-1.65-3.1-3.76-5.96-6.27-8.46l-35.23-35.1-35.23-35.1c-2.95-2.94-6.33-5.3-9.99-7.03-3.14-1.48-6.49-2.5-9.96-3.01-1.74-.26-3.5-.39-5.29-.39h-99.7c-9.53,0-18.49,3.7-25.24,10.43l-70.47,70.19c-1.25,1.25-2.41,2.59-3.46,4-1.75,2.36-3.19,4.92-4.32,7.62-.45,1.08-.85,2.18-1.19,3.3-.51,1.68-.91,3.4-1.17,5.14-.26,1.74-.4,3.5-.4,5.27v99.22c0,1.18.06,2.36.18,3.53s.29,2.33.53,3.48c.12.57.25,1.15.39,1.71.29,1.14.63,2.26,1.03,3.36.59,1.65,1.31,3.26,2.14,4.81.55,1.03,1.15,2.04,1.8,3.01,1.3,1.95,2.79,3.78,4.47,5.44ZM518,469.15c2.12,2.11,3.31,4.98,3.31,7.98v99.22c0,2.99-1.19,5.86-3.31,7.98l-70.47,70.19c-2.11,2.1-4.97,3.28-7.94,3.28h-99.7c-2.98,0-5.83-1.18-7.94-3.28l-25.74-25.64,59.69-60.51.93-.94.46-.47,13.59-13.78,17.54-17.78,7.71-7.81.07-.08,13.99-14.18,70.46-71.43,27.36,27.25ZM258.16,477.12c0-2.99,1.19-5.86,3.31-7.98l70.47-70.19c2.11-2.1,4.97-3.28,7.94-3.28h99.7c2.98,0,5.83,1.18,7.94,3.28l25.74,25.64-60.14,60.97-1.6,1.63-.09.09-13.55,13.73-17.1,17.33-9.03,9.15-.07.08-13.99,14.18-68.87,69.82-27.36-27.25c-2.12-2.11-3.31-4.98-3.31-7.98v-99.22Z" style="fill: #cbcbcb;"/>
        <path d="M390.02,413.15c-3.62-.15-6.67,2.65-6.83,6.27-.15,3.62,2.65,6.67,6.27,6.83,3.62.15,6.67-2.65,6.83-6.27.15-3.62-2.65-6.67-6.27-6.83Z" style="fill: #fae585;"/>
        <path d="M409.01,481.7c-.53-1.86.46-2.86,1.01-4.11.06-.01.13-.03.19-.05,1.13-.36,1.75-1.56,1.4-2.69-.08-.27-.22-.51-.39-.71.08-.02.15-.03.23-.06,1.13-.36,1.75-1.56,1.4-2.69-.15-.46-.44-.84-.81-1.1.98-.44,1.5-1.55,1.17-2.6,0,0,0,0,0-.01-.23-.71-.06-1.49.48-2,.92-.89,1.68-2.01,2.17-3.33.62-1.65.73-3.35.42-4.88,1.05-1.85,5.88-10.35,9.72-17.1,2.08-3.66-.53-8.21-4.73-8.26l-16.94-.23c-1.94-.03-3.64,1.03-4.53,2.61-.4.72-.64,1.55-.65,2.43-.04,2.82,2.22,5.14,5.04,5.18l9.01.12-3.02,5.32c-1.38,2.44-3.19,4.59-5.23,6.51-.07.07-.14.14-.21.2-.68.69-1.68.89-2.61.62-.05-.01-.09-.03-.14-.04-1.16-.25-1.97-1.29-2.03-2.47l-.71-14.13c-.25-5.06-4.43-9.03-9.5-9.03h0c-5.07,0-9.25,3.97-9.5,9.03l-.72,14.19c-.06,1.17-.9,2.16-2.05,2.4-.07.01-.14.03-.21.06-.89.29-1.88.01-2.53-.65-.07-.07-.13-.13-.2-.2-2.04-1.93-3.84-4.08-5.23-6.51l-3.02-5.32,9.01-.12c2.82-.04,5.08-2.36,5.04-5.18-.01-.88-.25-1.71-.65-2.43-.89-1.58-2.59-2.63-4.53-2.61l-16.94.23c-4.21.06-6.81,4.61-4.73,8.26,3.84,6.75,8.67,15.25,9.72,17.1-.31,1.54-.2,3.23.42,4.88.49,1.32,1.25,2.45,2.17,3.33.54.52.71,1.29.48,2,0,0,0,0,0,.01-.33,1.05.19,2.17,1.17,2.6-.37.26-.66.64-.81,1.1-.36,1.13.27,2.33,1.4,2.69.08.02.15.04.23.06-.17.2-.3.44-.39.71-.36,1.13.27,2.33,1.4,2.69.06.02.12.03.19.05.55,1.25,1.55,2.25,1.02,4.12-.83,2.9-5.03,2.66-4.54,5.63.13.8,1.16.27,2.27-.25-1.3,1.78-2.46,1.81-2.68,4.56-.25,3.17,2.7,3.41,2.45,6.58-.25,3.17-3.21,2.94-3.46,6.11-.25,3.17,2.7,3.41,2.45,6.58-.08,1.03-.58,1.78-1.17,2.42h-13c-3.92,0-7.09,3.17-7.09,7.09s3.17,7.09,7.09,7.09h18.98l9.03-9.15c-.31-1.03-.85-1.96-1.56-2.74.94-.95,1.68-1.45,1.85-3.59.25-3.17-2.7-3.41-2.45-6.58.25-3.17,3.21-2.94,3.46-6.11.25-3.17-2.7-3.41-2.45-6.58.21-2.6,3.06-3.44,3.5-5.31.38-.4.69-.95.96-1.87.83-2.9-2.03-3.71-1.2-6.61.83-2.9,3.68-2.08,4.5-4.98.83-2.9-2.03-3.71-1.2-6.61.22-.76.67-1.31,1.21-1.75.65-.54,1.48-.81,2.33-.81h0c.84,0,1.67.27,2.33.81.54.44.99.99,1.21,1.75.83,2.9-2.03,3.71-1.2,6.61.83,2.9,3.68,2.08,4.5,4.98.83,2.9-2.03,3.71-1.2,6.61.26.92.58,1.47.96,1.87.43,1.87,3.29,2.71,3.5,5.31.25,3.17-2.7,3.41-2.45,6.58.06.7.25,1.24.51,1.68l13.55-13.73c-.05-.07-.11-.14-.16-.21.09.04.17.08.25.12l1.6-1.63c-1.03-1.29-3.51-1.71-4.12-3.87ZM372.8,470.96c-.11.24-.17.51-.18.79,0,.08-.04.16-.1.21-.44.34-.93.58-1.41.87-.19-.15-.2-.16-.39-.31.2-.7.19-1.66-.85-2.29-.14-.09-.17-.29-.05-.41.42-.43.68-1.07.62-1.73-.02-.17.11-.3.28-.3,0,0,0,0,.01,0,.16,0,.29.14.27.3-.08.69.02,2.22,1.61,2.5.17.03.26.21.19.37ZM408.37,472.83c-.47-.28-.97-.53-1.41-.87-.06-.05-.1-.13-.1-.21,0-.28-.07-.54-.18-.79-.07-.15.03-.33.2-.36,1.58-.28,1.68-1.81,1.6-2.5-.02-.16.11-.29.27-.29,0,0,0,0,.01,0,.17,0,.3.14.28.3-.09.79.28,1.38.62,1.72.12.12.1.32-.05.41-1.03.62-1.03,1.59-.84,2.29.06.23-.19.42-.39.3Z" style="fill: #fae585;"/>
        <path d="M433.78,520.41c0-3.92-3.17-7.09-7.09-7.09h-6.51l-13.99,14.18h20.5c3.92,0,7.09-3.17,7.09-7.09Z" style="fill: #fae585;"/>
        <polygon points="394.31 634.32 397.47 631.62 393.4 632.44 395.08 628.64 391.76 631.14 391.62 626.99 389.72 630.68 387.8 627.01 387.68 631.16 384.35 628.68 386.05 632.47 381.98 631.68 385.15 634.35 381.14 635.41 385.16 636.44 382 639.14 386.08 638.32 384.4 642.12 387.71 639.62 387.85 643.77 389.75 640.08 391.68 643.76 391.79 639.61 395.12 642.09 393.42 638.3 397.5 639.09 394.32 636.41 398.34 635.35 394.31 634.32" style="fill: #ff73b0;"/>
        <path d="M370.46,573.38c.53,1.86-.46,2.86-1.01,4.11-.06.01-.13.03-.19.05-1.13.36-1.75,1.56-1.4,2.69.09.27.22.51.39.71-.08.02-.15.03-.23.06-1.13.36-1.75,1.56-1.4,2.69.15.46.44.84.81,1.1-.98.44-1.5,1.55-1.17,2.6,0,0,0,0,0,.01.23.71.06,1.49-.48,2-.92.88-1.68,2.01-2.17,3.33-.62,1.65-.73,3.35-.42,4.88-1.05,1.85-5.88,10.35-9.72,17.1-2.08,3.66.53,8.21,4.73,8.27l16.94.23c1.94.03,3.64-1.03,4.53-2.61.4-.72.64-1.55.65-2.43.04-2.82-2.22-5.14-5.04-5.18l-9.01-.12,3.02-5.32c1.39-2.44,3.19-4.59,5.23-6.51.07-.07.14-.14.21-.2.68-.69,1.68-.89,2.61-.62.05.01.09.03.14.04,1.16.25,1.97,1.29,2.03,2.47l.71,14.13c.26,5.06,4.43,9.03,9.5,9.03s9.25-3.97,9.5-9.03l.72-14.19c.06-1.17.9-2.16,2.05-2.4.07-.02.14-.03.21-.06.89-.29,1.88-.01,2.53.65.07.07.13.13.2.2,2.04,1.92,3.84,4.08,5.23,6.51l3.02,5.32-9.01.12c-2.82.04-5.08,2.36-5.04,5.18.01.88.25,1.71.65,2.43.89,1.58,2.59,2.63,4.53,2.61l16.94-.23c4.21-.06,6.81-4.61,4.73-8.26-3.84-6.75-8.67-15.25-9.72-17.1.31-1.54.2-3.23-.42-4.88-.49-1.32-1.25-2.45-2.17-3.33-.54-.52-.71-1.29-.48-2,0,0,0,0,0-.01.33-1.05-.19-2.17-1.17-2.6.37-.26.66-.64.81-1.1.36-1.13-.27-2.33-1.4-2.69-.08-.02-.15-.04-.23-.06.17-.2.3-.44.39-.71.36-1.13-.27-2.33-1.4-2.69-.06-.02-.12-.04-.19-.05-.55-1.25-1.55-2.25-1.02-4.12.83-2.9,5.03-2.65,4.54-5.63-.13-.8-1.16-.27-2.27.25,1.3-1.78,2.46-1.81,2.68-4.56.25-3.17-2.7-3.41-2.45-6.58.25-3.17,3.21-2.94,3.46-6.11.25-3.17-2.7-3.41-2.45-6.58.08-1.03.58-1.78,1.17-2.42h13c3.92,0,7.09-3.17,7.09-7.09s-3.17-7.09-7.09-7.09h-20.57l-7.71,7.81c.16,1.56.82,2.98,1.83,4.07-.94.96-1.68,1.45-1.85,3.59-.25,3.17,2.7,3.41,2.45,6.58-.25,3.17-3.21,2.94-3.46,6.11-.25,3.17,2.7,3.41,2.45,6.58-.21,2.6-3.06,3.44-3.5,5.31-.38.4-.69.95-.96,1.87-.83,2.9,2.03,3.71,1.2,6.61-.83,2.9-3.68,2.08-4.5,4.98s2.03,3.71,1.2,6.61c-.22.76-.67,1.31-1.21,1.75-.65.54-1.48.81-2.33.81s-1.67-.27-2.33-.81c-.54-.44-.99-.99-1.21-1.75-.83-2.9,2.03-3.71,1.2-6.61-.83-2.9-3.68-2.08-4.5-4.98-.83-2.9,2.03-3.71,1.2-6.61-.26-.92-.58-1.47-.96-1.87-.43-1.87-3.29-2.71-3.5-5.31-.25-3.17,2.7-3.41,2.45-6.58-.1-1.25-.62-1.96-1.22-2.57l-13.59,13.78c.29.29.6.62.92,1.06-.5-.24-.99-.47-1.38-.59l-.93.94c.15,2.35,3.81,2.34,4.57,5.02ZM406.67,584.11c.11-.24.17-.51.18-.79,0-.08.04-.16.1-.21.44-.34.93-.58,1.41-.87.19.15.2.16.39.31-.2.7-.19,1.67.85,2.29.14.09.17.29.05.41-.42.43-.68,1.07-.62,1.73.02.17-.11.3-.28.3,0,0-.01,0-.01,0-.16,0-.29-.14-.27-.3.08-.69-.02-2.22-1.61-2.5-.17-.03-.26-.21-.19-.37ZM371.11,582.24c.47.28.97.53,1.41.87.06.05.1.13.1.21,0,.28.07.54.18.79.07.15-.03.33-.2.36-1.58.28-1.68,1.81-1.6,2.5.02.16-.11.29-.27.29,0,0,0,0-.01,0-.17,0-.3-.14-.28-.3.09-.79-.28-1.38-.62-1.72-.12-.12-.1-.32.05-.41,1.03-.62,1.03-1.59.84-2.29-.06-.23.19-.42.39-.3Z" style="fill: #ff73b0;"/>
        <path d="M345.69,534.67c0,3.92,3.17,7.09,7.09,7.09h4.92l13.99-14.18h-18.91c-3.92,0-7.09,3.17-7.09,7.09Z" style="fill: #ff73b0;"/>
        <path d="M449.98,680.77c-1.11.34-2.24.62-3.38.84,1.14-.23,2.27-.51,3.38-.84Z" style="fill: #ececec;"/>
        <path d="M439.59,682.3c1.79,0,3.55-.13,5.29-.39-1.74.26-3.5.39-5.29.39h0Z" style="fill: #ececec;"/>
        <path d="M453.25,679.61c.8-.33,1.59-.7,2.37-1.09-.64.32-1.29.63-1.95.91-.14.06-.28.13-.42.18Z" style="fill: #ececec;"/>
        <path d="M314.65,671.87c2.53,2.52,5.37,4.62,8.44,6.25-.22-.12-.44-.25-.66-.37-2.81-1.58-5.43-3.54-7.78-5.88l-14.14-14.08-15.2-15.14-19-18.93-22.13-22.04,70.47,70.19Z" style="fill: #ececec;"/>
        <path d="M285.31,731.27c16.13,10.43,34.93,16.03,54.58,16.03h99.7c19.58,0,38.32-5.56,54.41-15.92,5.96-3.84,11.56-8.33,16.7-13.45l2.3-2.29,68.17-67.91c18.85-18.77,29.65-44.8,29.65-71.39v-99.22c0-26.6-10.81-52.62-29.66-71.4l-48.99-48.79-14.56-14.51-6.92-6.89c-19.02-18.94-44.27-29.37-71.11-29.37h-99.7c-4.45,0-8.85.29-13.19.86,7.43-13.12,11.67-28.26,11.67-44.38,0-9.75-1.56-19.14-4.43-27.94-2.19-6.71-5.13-13.08-8.75-19-15.88-26.01-44.53-43.41-77.18-43.41h-1.39c-49.82,0-90.35,40.53-90.35,90.35s40.53,90.35,90.35,90.35h1.39c1.1,0,2.2-.03,3.29-.07l-53.01,52.8c-18.85,18.77-29.65,44.79-29.65,71.39v99.22c0,26.6,10.81,52.62,29.65,71.39l68,67.74,2.47,2.46c5.09,5.07,10.64,9.53,16.53,13.34ZM182.28,262.65c0-35.54,28.81-64.35,64.35-64.35h1.39c35.54,0,64.35,28.81,64.35,64.35h0c0,35.54-28.81,64.35-64.35,64.35h-1.39c-35.54,0-64.35-28.81-64.35-64.35h0ZM230.77,615.14c-10.24-10.2-16.12-24.35-16.12-38.8v-99.22c0-14.46,5.87-28.6,16.12-38.8l70.47-70.19c10.34-10.29,24.06-15.96,38.65-15.96h99.7c14.59,0,28.31,5.67,38.65,15.96l70.47,70.19c10.24,10.2,16.12,24.35,16.12,38.8v99.22c0,14.46-5.87,28.6-16.12,38.8l-70.47,70.19c-10.34,10.29-24.06,15.96-38.65,15.96h-99.7c-14.59,0-28.31-5.67-38.65-15.96l-70.47-70.19Z" style="fill: #ececec;"/>
        <path d="M458.84,676.68c-.59.38-1.18.73-1.79,1.07.61-.34,1.2-.7,1.79-1.07Z" style="fill: #ececec;"/>
        <path d="M461.58,674.73c-.52.41-1.06.8-1.6,1.18.54-.38,1.08-.77,1.6-1.18Z" style="fill: #ececec;"/>
        <path d="M500.06,416.69l-35.23-35.1c-2.95-2.94-6.33-5.3-9.99-7.03,3.66,1.73,7.04,4.09,9.99,7.03l35.23,35.1Z" style="fill: #ececec;"/>
        <path d="M235.22,466.71c.34-1.12.74-2.22,1.19-3.3-.45,1.08-.85,2.18-1.19,3.3Z" style="fill: #ececec;"/>
        <path d="M544.26,466.71c.34,1.12.63,2.26.86,3.4-.23-1.15-.52-2.29-.86-3.4Z" style="fill: #ececec;"/>
        <path d="M237.91,593.23c1.1,2.06,2.41,4.02,3.9,5.84-.74-.91-1.44-1.85-2.09-2.83s-1.25-1.98-1.8-3.01Z" style="fill: #ececec;"/>
        <path d="M236.41,463.41c1.12-2.7,2.57-5.27,4.32-7.62-1.75,2.36-3.19,4.92-4.32,7.62Z" style="fill: #ececec;"/>
        <path d="M439.59,371.16h0c1.79,0,3.55.13,5.29.39-1.74-.26-3.5-.39-5.29-.39Z" style="fill: #ececec;"/>
        <path d="M301.24,685.34c10.34,10.3,24.06,15.96,38.65,15.96h99.7c14.59,0,28.31-5.67,38.65-15.96l70.47-70.19c10.24-10.2,16.12-24.35,16.12-38.8v-99.22c0-14.46-5.87-28.6-16.12-38.8l-70.47-70.19c-10.34-10.3-24.06-15.96-38.65-15.96h-99.7c-14.59,0-28.31,5.67-38.65,15.96l-70.47,70.19c-10.24,10.2-16.12,24.35-16.12,38.8v99.22c0,14.46,5.87,28.6,16.12,38.8l70.47,70.19ZM244.18,601.68c-.84-.83-1.63-1.71-2.37-2.61-1.49-1.82-2.79-3.78-3.9-5.84-.83-1.55-1.54-3.16-2.14-4.81-.4-1.1-.74-2.22-1.03-3.36-.14-.57-.27-1.14-.39-1.71-.23-1.15-.41-2.31-.53-3.48s-.18-2.35-.18-3.53v-99.22c0-1.77.13-3.53.4-5.27.26-1.74.65-3.46,1.17-5.14.34-1.12.74-2.22,1.19-3.3,1.12-2.7,2.57-5.27,4.32-7.62,1.05-1.41,2.2-2.75,3.46-4l70.47-70.19c6.75-6.72,15.71-10.43,25.24-10.43h99.7c1.79,0,3.55.13,5.29.39,3.47.51,6.82,1.53,9.96,3.01,3.66,1.73,7.04,4.09,9.99,7.03l35.23,35.1,35.23,35.1c2.51,2.5,4.62,5.36,6.27,8.46,1.1,2.07,2,4.24,2.69,6.47.34,1.12.63,2.26.86,3.4.12.57.22,1.15.31,1.73.26,1.74.4,3.5.4,5.27v99.22c0,1.18-.06,2.36-.18,3.53-.83,8.18-4.49,15.98-10.35,21.82h0l-.14.14-70.33,70.05c-1.03,1.03-2.12,1.97-3.25,2.86-.52.41-1.06.8-1.6,1.18-.38.26-.76.52-1.15.77-.59.38-1.18.73-1.79,1.07-.47.26-.95.52-1.43.76-.78.39-1.56.76-2.37,1.09-.12.05-.25.09-.37.14-.77.31-1.54.58-2.33.84-.19.06-.37.13-.56.19-1.11.34-2.24.62-3.38.84-.57.11-1.15.21-1.73.3-1.74.26-3.5.39-5.29.39h-99.7c-5.95,0-11.69-1.45-16.8-4.17-3.07-1.64-5.91-3.73-8.44-6.25l-70.47-70.19Z" style="fill: #99f464;"/>
        <path d="M372.82,404.6h0s0-.02,0-.02c0,0,0-.02-.02-.02h0v.02s0,.02.02.02Z" style="fill: #99f464;"/>
        <path d="M387.35,234.71c-2.2-6.06-3.77-12.42-4.63-19h-57.52c3.61,5.92,6.56,12.29,8.75,19h53.4Z" style="fill: #d3d3d3;"/>
        <path d="M551.51,139.61h-79.2c-35.54,0-64.35,28.82-64.35,64.35h0c0,35.55,28.81,64.36,64.35,64.36h79.2c35.54,0,64.35-28.81,64.35-64.35h0c0-35.54-28.81-64.36-64.35-64.36ZM560.91,195.56c0,3.53-1.97,6.78-5.1,8.42l-4.73,2.46c-.41,2.88-2.14,5.54-4.9,7.02l-6.34,3.41c-1.92,1.09-4.07,1.66-6.26,1.66-.09,0-.28,0-.38,0-.07,0-.14-.01-.21-.01-.72,3.23-1.99,6.11-3.78,8.55-2.03,2.77-4.71,4.91-7.98,6.37-2.99,1.35-6.54,2.03-10.54,2.03-1.97,0-3.97-.2-5.94-.59-1.96-.38-3.84-.96-5.56-1.7-.83-.33-1.63-.78-2.43-1.37-1.05-.76-1.98-1.72-2.76-2.83-.85-1.24-1.45-2.6-1.79-4.07-.18-.76-.28-1.59-.28-2.43,0-1.64.37-3.25,1.1-4.78.85-1.82,2.15-3.37,3.76-4.49.07-.05.15-.1.22-.15-.81-1.25-1.76-2.45-2.41-3.85-.05.25-.15.52-.31.79-.28.48-.71.73-1.29.75h-.09c-.52,0-1.03-.14-1.49-.42l-8.05-4.33c-1.74,3.08-4.95,4.83-8.27,4.83-1.51,0-3.05-.37-4.48-1.14l-6.7-3.6c-.07-.03-.15-.07-.21-.11-1.24-.71-2.33-1.53-3.26-2.46-2.11-2.11-3.26-4.95-3.26-8.01,0-3.35,1.31-6.38,3.68-8.52.95-.85,2-1.58,3.14-2.16l20.1-10.81c2.04-1.08,4.23-1.59,6.49-1.53,3.92.12,7.4,2.19,9.33,5.55.22.38.4.76.57,1.15.5-.27,1-.55,1.52-.78,2.78-1.26,5.77-1.9,8.89-1.9,2.61,0,5.05.41,7.28,1.21,1.17-.37,2.41-.56,3.68-.56,1,0,1.99.13,2.94.37,1.72-1.85,4.16-3.02,6.89-3.04h.06c3.22,0,6.06,1.6,7.78,4.06l16.27,8.49c3.13,1.63,5.1,4.88,5.1,8.42v.11Z" style="fill: #fff;"/>
        <path d="M551.51,113.61h-79.2c-49.82,0-90.35,40.54-90.35,90.35,0,3.98.26,7.9.76,11.75.86,6.58,2.43,12.94,4.63,19,12.61,34.73,45.93,59.61,84.96,59.61h79.2c2.23,0,4.44-.09,6.64-.25,46.73-3.41,83.71-42.52,83.71-90.1s-40.53-90.36-90.35-90.36ZM551.51,268.32h-79.2c-35.54,0-64.35-28.81-64.35-64.35h0c0-35.54,28.81-64.36,64.35-64.36h79.2c35.54,0,64.35,28.82,64.35,64.35h0c0,35.55-28.81,64.36-64.35,64.36Z" style="fill: #cbcbcb;"/>
        <path d="M517.95,204.41c.32-.82.49-1.69.49-2.58v-4.4c0-.93-.16-1.84-.47-2.7-.31-.87-.75-1.64-1.3-2.31-.56-.66-1.24-1.21-2.02-1.63-.78-.41-1.66-.62-2.62-.62-1.33,0-2.49.24-3.45.72-.96.48-1.76,1.14-2.4,1.95-.63.82-1.1,1.79-1.4,2.89-.3,1.1-.45,2.28-.45,3.5,0,1.4.17,2.7.49,3.85.33,1.15.81,2.15,1.45,2.96.63.82,1.41,1.46,2.3,1.91.89.45,1.93.67,3.07.67.99,0,1.91-.19,2.74-.56.83-.37,1.56-.87,2.16-1.49.6-.62,1.07-1.34,1.39-2.16Z" style="fill: #99f464;"/>
        <path d="M494.51,208.25c-.12-.29-.29-.54-.49-.73.02.12.05.24.08.36.13.46.3.9.5,1.32.06-.34.03-.65-.09-.95Z" style="fill: #99f464;"/>
        <path d="M555.81,187.03l-16.27-8.49c-1.72-2.46-4.56-4.06-7.78-4.06h-.06c-2.73.02-5.17,1.19-6.89,3.04-.95-.24-1.94-.37-2.94-.37-1.27,0-2.51.19-3.68.56-2.23-.8-4.67-1.21-7.28-1.21-3.12,0-6.11.64-8.89,1.9-.52.23-1.02.51-1.52.78-.17-.39-.35-.77-.57-1.15-1.93-3.36-5.41-5.43-9.33-5.55-2.26-.06-4.45.45-6.49,1.53l-20.1,10.81c-1.14.58-2.19,1.31-3.14,2.16-2.37,2.14-3.68,5.17-3.68,8.52,0,3.06,1.15,5.9,3.26,8.01.93.93,2.02,1.75,3.26,2.46.06.04.14.08.21.11l6.7,3.6c1.43.77,2.97,1.14,4.48,1.14,3.32,0,6.53-1.75,8.27-4.83l-9.66-5.18c-.45-.26-.82-.54-1.11-.83-.31-.31-.47-.72-.47-1.23,0-.6.18-1.06.52-1.37.32-.29.68-.53,1.07-.73l17.7-9.51c.49-.26,1.03-.39,1.58-.37.58.02,1.01.27,1.29.75.36.63.44,1.22.22,1.74-.22.52-.56.9-1.03,1.13l-16.02,8.36,7.08,3.7,8.94,4.67c.21.1.39.23.54.39h0c.2.2.37.45.49.74.12.3.15.61.09.95.65,1.4,1.37,2.71,2.41,3.85-.07.05-.15.1-.22.15-1.61,1.12-2.91,2.67-3.76,4.49-.73,1.53-1.1,3.14-1.1,4.78,0,.84.1,1.67.28,2.43.34,1.47.94,2.83,1.79,4.07.78,1.11,1.71,2.07,2.76,2.83.8.59,1.6,1.04,2.43,1.37,1.72.74,3.6,1.32,5.56,1.7,1.97.39,3.97.59,5.94.59,4,0,7.55-.68,10.54-2.03,3.27-1.46,5.95-3.6,7.98-6.37,1.79-2.44,3.06-5.32,3.78-8.55.07,0,.14.01.21.01.1,0,.29,0,.38,0,2.19,0,4.34-.57,6.26-1.66l6.34-3.41c2.76-1.48,4.49-4.14,4.9-7.02l4.73-2.46c3.13-1.64,5.1-4.89,5.1-8.42v-.11c0-3.54-1.97-6.79-5.1-8.42ZM523,207.14c0,2.14-.2,4.13-.57,5.89-.39,1.78-1.05,3.32-1.97,4.57-.92,1.26-2.18,2.26-3.74,2.96-1.56.69-3.53,1.05-5.87,1.05-1.21,0-2.43-.12-3.63-.36-1.2-.24-2.32-.58-3.34-1.03-.09-.03-.24-.11-.42-.25-.19-.13-.36-.31-.51-.52-.15-.22-.26-.47-.32-.75-.07-.3-.02-.62.15-.97.13-.3.31-.53.54-.68.21-.15.44-.25.66-.3.22-.06.44-.06.67,0,.21.04.36.08.46.12.85.34,1.75.62,2.68.82.94.2,2.01.31,3.2.31,1.08,0,2.1-.17,3.01-.49.91-.33,1.71-.84,2.39-1.54.68-.69,1.21-1.6,1.58-2.69.37-1.11.56-2.45.56-4.01v-.27c-.91,1.26-2,2.15-3.23,2.66-1.34.54-2.85.81-4.5.81-1.4,0-2.78-.28-4.1-.84s-2.51-1.4-3.55-2.51c-1.03-1.12-1.87-2.52-2.51-4.19-.63-1.66-.95-3.63-.95-5.84,0-1.9.3-3.65.88-5.21.59-1.55,1.41-2.9,2.44-4.01,1.03-1.12,2.25-1.99,3.62-2.61,1.36-.62,2.85-.94,4.4-.94,1.72,0,3.23.32,4.49.96,1.15.58,2.13,1.33,2.92,2.23v-.27c0-.73.21-1.31.63-1.72.41-.42.94-.63,1.58-.63s1.18.21,1.64.62c.47.42.71,1,.71,1.73v17.9ZM551.22,199.98c-.28.29-.66.57-1.11.82l-17.71,9.52c-.46.28-.96.42-1.49.42h-.09c-.58-.02-1.01-.27-1.29-.75-.36-.63-.44-1.22-.22-1.74.22-.52.57-.9,1.03-1.13l16.03-8.37-16.03-8.36c-.46-.23-.81-.61-1.03-1.13-.22-.52-.14-1.11.22-1.74.28-.48.71-.73,1.29-.75.56-.02,1.09.11,1.58.37l17.71,9.52c.38.19.74.43,1.06.72.34.31.52.77.52,1.37,0,.51-.16.92-.47,1.23Z" style="fill: #99f464;"/>
        <path d="M494.6,209.2c-.05.25-.15.52-.31.79-.28.48-.71.73-1.29.75h-.09c-.52,0-1.03-.14-1.49-.42l-8.05-4.33-9.66-5.18c-.45-.26-.82-.54-1.11-.83-.31-.31-.47-.72-.47-1.23,0-.6.18-1.06.52-1.37.32-.29.68-.53,1.07-.73l17.7-9.51c.49-.26,1.03-.39,1.58-.37.58.02,1.01.27,1.29.75.36.63.44,1.22.22,1.74-.22.52-.56.9-1.03,1.13l-16.02,8.36,7.08,3.7,8.94,4.67c.21.1.39.23.54.39h0c.2.2.37.45.49.74.12.3.15.61.09.95Z" style="fill: #8e8e8e;"/>
        <path d="M522.29,187.51c-.46-.41-1.02-.62-1.64-.62s-1.17.21-1.58.63c-.42.41-.63.99-.63,1.72v.27c-.79-.9-1.77-1.65-2.92-2.23-1.26-.64-2.77-.96-4.49-.96-1.55,0-3.04.32-4.4.94-1.37.62-2.59,1.49-3.62,2.61-1.03,1.11-1.85,2.46-2.44,4.01-.58,1.56-.88,3.31-.88,5.21,0,2.21.32,4.18.95,5.84.64,1.67,1.48,3.07,2.51,4.19,1.04,1.11,2.23,1.95,3.55,2.51s2.7.84,4.1.84c1.65,0,3.16-.27,4.5-.81,1.23-.51,2.32-1.4,3.23-2.66v.27c0,1.56-.19,2.9-.56,4.01-.37,1.09-.9,2-1.58,2.69-.68.7-1.48,1.21-2.39,1.54-.91.32-1.93.49-3.01.49-1.19,0-2.26-.11-3.2-.31-.93-.2-1.83-.48-2.68-.82-.1-.04-.25-.08-.46-.12-.23-.06-.45-.06-.67,0-.22.05-.45.15-.66.3-.23.15-.41.38-.54.68-.17.35-.22.67-.15.97.06.28.17.53.32.75.15.21.32.39.51.52.18.14.33.22.42.25,1.02.45,2.14.79,3.34,1.03,1.2.24,2.42.36,3.63.36,2.34,0,4.31-.36,5.87-1.05,1.56-.7,2.82-1.7,3.74-2.96.92-1.25,1.58-2.79,1.97-4.57.37-1.76.57-3.75.57-5.89v-17.9c0-.73-.24-1.31-.71-1.73ZM518.44,201.83c0,.9-.17,1.77-.49,2.59-.32.81-.79,1.54-1.39,2.16-.61.61-1.33,1.11-2.17,1.48-.83.37-1.75.56-2.74.56-1.14,0-2.18-.22-3.07-.67-.89-.45-1.67-1.09-2.3-1.91-.63-.81-1.12-1.81-1.45-2.96-.32-1.15-.49-2.45-.49-3.85,0-1.22.15-2.39.45-3.49.29-1.1.76-2.08,1.4-2.9.63-.81,1.43-1.47,2.39-1.95s2.12-.72,3.45-.72c.95,0,1.83.21,2.62.62.78.42,1.46.97,2.02,1.63.55.66.99,1.44,1.3,2.31.31.86.47,1.77.47,2.7v4.4Z" style="fill: #8e8e8e;"/>
        <path d="M551.69,198.75c0,.51-.16.92-.47,1.23-.28.29-.66.57-1.11.82l-17.71,9.52c-.46.28-.96.42-1.49.42h-.09c-.58-.02-1.01-.27-1.29-.75-.36-.63-.44-1.22-.22-1.74.22-.52.57-.9,1.03-1.13l16.03-8.37-16.03-8.36c-.46-.23-.81-.61-1.03-1.13-.22-.52-.14-1.11.22-1.74.28-.48.71-.73,1.29-.75.56-.02,1.09.11,1.58.37l17.71,9.52c.38.19.74.43,1.06.72.34.31.52.77.52,1.37Z" style="fill: #8e8e8e;"/>
        <path d="M261.35,238.6s-.03-.01-.04-.02c0,0,0,0,0,0l.04.02Z" style="fill: #359b37;"/>
        <path d="M246.63,327h1.39c35.54,0,64.35-28.81,64.35-64.35h0c0-35.54-28.81-64.35-64.35-64.35h-1.39c-35.54,0-64.35,28.81-64.35,64.35h0c0,35.54,28.81,64.35,64.35,64.35ZM236.81,234.71c3.76-1.82,8.06-2.74,12.77-2.74,5.2,0,9.98,1.22,14.2,3.64.81.45,1.57.97,2.34,1.59,1.53,1.26,2.77,2.77,3.7,4.53,1.02,1.91,1.6,4,1.72,6.19.1,1.98-.2,3.94-.89,5.81,1.72,2.31,3.35,5.76,3.35,10.55v9.04c0,4.52-1.24,8.41-3.69,11.58h0c-2.14,2.77-5.16,4.9-8.95,6.33-1.94.73-3.99,1.28-6.07,1.63-1.95.32-3.86.48-5.69.48-4.71,0-9-.92-12.77-2.74-3.75-1.81-6.92-4.34-9.45-7.5-2.35-2.94-4.1-6.33-5.21-10.07-.98-3.32-1.48-6.82-1.48-10.4s.5-7.08,1.48-10.4c1.11-3.76,2.88-7.15,5.25-10.1,2.52-3.12,5.68-5.62,9.4-7.42Z" style="fill: #359b37;"/>
        <path d="M222.15,252.23c-.98,3.32-1.48,6.81-1.48,10.4s.5,7.08,1.48,10.4c1.11,3.74,2.86,7.13,5.21,10.07,2.52,3.16,5.7,5.69,9.45,7.5,3.76,1.82,8.06,2.74,12.77,2.74,1.83,0,3.74-.16,5.69-.48,2.08-.34,4.14-.89,6.07-1.63,3.8-1.43,6.81-3.55,8.95-6.32h0c2.45-3.17,3.69-7.07,3.69-11.58v-9.04c0-4.79-1.63-8.24-3.35-10.55.69-1.87,1-3.84.89-5.81-.12-2.2-.7-4.28-1.72-6.19-.93-1.75-2.17-3.27-3.7-4.53-.76-.62-1.53-1.15-2.34-1.59-4.22-2.41-9-3.64-14.2-3.64-4.71,0-9.01.92-12.77,2.74-3.72,1.8-6.89,4.3-9.4,7.42-2.37,2.94-4.14,6.34-5.25,10.1ZM261.35,238.6l-.04-.02s0,0,0,0c.01,0,.03.01.04.02ZM234.49,255.89c.63-2.14,1.62-4.05,2.93-5.68,1.31-1.63,2.99-2.95,4.99-3.92,2-.97,4.4-1.46,7.16-1.46,2.98,0,5.64.67,7.92,2.01.13.06.29.17.47.32.19.15.35.36.48.61.13.25.21.54.23.86.02.32-.09.69-.33,1.09-.23.4-.51.67-.81.81-.3.13-.61.19-.91.18-.3-.02-.58-.08-.83-.2-.24-.11-.42-.2-.55-.26-.75-.44-1.62-.78-2.6-1.03-.98-.25-2.05-.38-3.17-.38-1.96,0-3.67.39-5.1,1.15-1.43.76-2.62,1.78-3.53,3.04-.92,1.26-1.61,2.74-2.06,4.41-.45,1.67-.68,3.42-.68,5.2s.23,3.52.68,5.18c.45,1.65,1.15,3.14,2.06,4.44.92,1.29,2.1,2.33,3.53,3.09,1.43.76,3.14,1.15,5.1,1.15,1,0,1.97-.06,2.9-.19.92-.12,1.79-.34,2.6-.66.6-.24,1.04-.54,1.29-.9.25-.36.38-.94.38-1.73v-7.29c0-.63-.12-1.08-.35-1.34-.23-.25-.64-.38-1.23-.38h-5.63c-.63,0-1.14-.19-1.51-.56-.37-.37-.56-.84-.56-1.41s.19-1.05.56-1.44c.37-.39.88-.58,1.51-.58h7.24c1.54,0,2.68.38,3.38,1.13.7.75,1.05,1.81,1.05,3.16v9.04c0,1.6-.34,2.84-1,3.7-.66.85-1.77,1.57-3.3,2.15-1.17.44-2.4.77-3.65.98-1.25.21-2.46.31-3.6.31-2.75,0-5.16-.49-7.16-1.46-2-.97-3.68-2.29-4.99-3.94-1.31-1.64-2.3-3.56-2.93-5.7-.63-2.13-.95-4.4-.95-6.74s.32-4.61.95-6.73Z" style="fill: #ececec;"/>
        <path d="M237.43,275.06c1.31,1.65,2.99,2.97,4.99,3.94,2,.97,4.4,1.46,7.16,1.46,1.13,0,2.34-.1,3.6-.31,1.25-.21,2.48-.54,3.65-.98,1.53-.57,2.64-1.3,3.3-2.15.66-.86,1-2.1,1-3.7v-9.04c0-1.35-.35-2.42-1.05-3.16-.7-.75-1.84-1.13-3.38-1.13h-7.24c-.63,0-1.14.2-1.51.58-.37.38-.56.87-.56,1.44s.19,1.04.56,1.41c.37.37.88.56,1.51.56h5.63c.59,0,1.01.13,1.23.38.23.26.35.71.35,1.34v7.29c0,.79-.13,1.37-.38,1.73-.25.36-.69.66-1.29.9-.81.31-1.68.53-2.6.66-.92.12-1.9.19-2.9.19-1.96,0-3.68-.39-5.1-1.15-1.43-.76-2.62-1.8-3.53-3.09-.92-1.29-1.61-2.78-2.06-4.44-.45-1.65-.68-3.39-.68-5.18s.23-3.53.68-5.2c.45-1.67,1.15-3.15,2.06-4.41.91-1.26,2.1-2.28,3.53-3.04,1.43-.76,3.15-1.15,5.1-1.15,1.12,0,2.18.13,3.17.38.98.25,1.85.59,2.6,1.03.13.06.31.15.55.26.25.12.53.18.83.2.3.02.61-.04.91-.18.31-.14.58-.41.81-.81.23-.4.34-.77.33-1.09-.02-.32-.09-.61-.23-.86-.13-.25-.29-.45-.48-.61-.18-.15-.34-.25-.47-.32-2.28-1.33-4.95-2.01-7.92-2.01-2.75,0-5.16.49-7.16,1.46-2,.97-3.68,2.28-4.99,3.92-1.31,1.63-2.3,3.54-2.93,5.68-.63,2.13-.95,4.39-.95,6.73s.32,4.61.95,6.74c.63,2.14,1.62,4.06,2.93,5.7Z" style="fill: #8e8e8e;"/>
      </g>
    </g>
  </g>
</svg>