<?xml version="1.0" encoding="UTF-8"?>
<svg id="_레이어_2" data-name="레이어 2" xmlns="http://www.w3.org/2000/svg" viewBox="0 0 779.48 1207.79">
  <g id="_레이어_1-2" data-name="레이어 1">
    <g>
      <rect width="779.48" height="1207.79" style="fill: none;"/>
      <g>
        <path d="M275.44,319.51h9.74c10.77,0,20.8,3.27,29.14,8.86l-16.54-22.37c-6.73,5.49-14.24,10.06-22.33,13.51Z" style="fill: none;"/>
        <path d="M440.3,284.53c-35.28,0-65.9-20.33-80.76-49.88l-27.79,5.07c-1.16,19.88-8.62,38.09-20.41,52.67l34.73,46.96c.26,0,.51-.02.76-.02h19.01c22.2,0,41.22,13.87,48.86,33.4.02,0,.04.01.06.02.38-.18.77-.35,1.15-.53,3.84-17.9,16.82-32.43,33.81-38.45l18.22-49.24h-27.64Z" style="fill: none;"/>
        <path d="M297.78,306l16.54,22.37c5.63,3.78,10.49,8.61,14.3,14.22,5.45-2.02,11.32-3.16,17.45-3.24l-34.73-46.96c-4.04,4.99-8.58,9.56-13.56,13.62Z" style="fill: #d3d3d3;"/>
        <path d="M331.75,239.71l27.79-5.07c-2.87-5.71-5.16-11.76-6.78-18.08l-21.86,3.98c.67,4.47,1.01,9.04,1.01,13.7,0,1.83-.06,3.65-.17,5.46Z" style="fill: #d3d3d3;"/>
        <path d="M238.09,151.65c-2.85,0-5.66.14-8.43.43,2.77-.28,5.59-.43,8.43-.43h0Z" style="fill: #ff73b0;"/>
        <path d="M321.91,234.25c0,45.55-37.05,82.6-82.6,82.6h0c45.55,0,82.6-37.05,82.6-82.6s-37.05-82.6-82.6-82.6h0c45.55,0,82.6,37.05,82.6,82.6Z" style="fill: #ff73b0;"/>
        <path d="M238.09,316.85h0c-2.85,0-5.66-.14-8.43-.43,2.77.28,5.59.43,8.43.43Z" style="fill: #ff73b0;"/>
        <path d="M449.72,333.77c5.21-1.85,10.8-2.89,16.61-2.98,2.4-3.68,5.24-7.04,8.46-10l13.42-36.25h-20.26l-18.22,49.24Z" style="fill: #d3d3d3;"/>
        <path d="M604.78,177.32c-1.22-1.1-2.59-2.05-4.05-2.81l-20.11-10.81c-2.68-1.42-5.69-2.13-8.74-2.04-1.81.05-3.55.41-5.16,1.03-2.98-2.49-6.73-3.87-10.62-3.87-4.3,0-8.35,1.62-11.39,4.53-.92.89-1.72,1.88-2.4,2.93-.1,0-.2-.01-.3-.01-3.32,0-6.53.99-9.24,2.82-2.68-1.84-5.86-2.82-9.23-2.82-3.03,0-5.97.83-8.52,2.36-.65-.34-1.3-.65-1.98-.93-3.22-1.35-6.57-2.03-9.97-2.03-2.72,0-5.32.37-7.76,1.09-1.22-.29-2.49-.44-3.79-.44-2.9,0-5.57.71-7.87,1.96-.97-.48-1.97-.92-3.02-1.27-4.7-1.56-9.9-1.82-15.08-.4-.83-2.46-2.19-4.73-4.05-6.64-3.3-3.39-7.73-5.26-12.48-5.26s-9.08,1.82-12.39,5.14c-.59.59-1.12,1.22-1.61,1.88-2.31.21-4.57.88-6.67,1.99l-20.07,10.79c-1.47.76-2.83,1.7-4.03,2.79-3.35,3-5.19,7.22-5.19,11.88,0,4.26,1.62,8.24,4.58,11.19h0c1.2,1.21,2.61,2.28,4.19,3.18.1.06.21.12.32.17l20.02,10.76c2.52,1.43,5.34,2.18,8.2,2.22.33.39.67.77,1.03,1.14,3.06,3.05,7.17,4.73,11.55,4.73,2.17,0,4.29-.44,6.26-1.25,1.97.82,4.11,1.25,6.33,1.25,3.3,0,6.51-.99,9.23-2.82,1.62,1.1,3.42,1.9,5.33,2.35.77,2.55,2.14,4.87,4.04,6.78,3.07,3.07,7.18,4.75,11.58,4.75,3.97,0,7.82-1.42,10.84-4.02,2.1-1.79,3.67-4.07,4.61-6.61,2.68-.34,5.23-1.1,7.62-2.29.93-.45,1.82-.97,2.68-1.54,1.68,1.1,3.49,2,5.44,2.65,2.67.89,5.49,1.34,8.39,1.34,2.31,0,4.65-.34,7-1.01,1.2.27,2.44.42,3.7.42,2.87,0,5.61-.73,8.02-2.09.08.05.15.11.23.15,2.78,1.56,5.96,2.43,9.45,2.57.38.02.77.03,1.17.03.86,0,1.76-.05,2.71-.16.86-.09,1.72-.21,2.54-.35,2.3-.36,4.53-1.24,6.64-2.62,1.67-1.09,3.06-2.45,4.16-4.01,1.35-.37,2.66-.91,3.9-1.61l20.02-10.75c.11-.06.22-.12.32-.18,1.58-.9,2.99-1.97,4.2-3.18,2.95-2.95,4.58-6.93,4.58-11.19,0-4.64-1.83-8.85-5.17-11.86ZM445.55,202.13c.46.24.81.62,1.02,1.13.22.53.15,1.11-.22,1.75-.27.48-.71.73-1.28.74-.03.01-.06.01-.09.01-.53,0-1.03-.15-1.5-.43l-17.7-9.51c-.45-.26-.83-.54-1.12-.83-.31-.3-.46-.72-.46-1.22,0-.6.17-1.07.51-1.37.33-.29.69-.54,1.07-.73l17.71-9.52c.49-.26,1.03-.38,1.58-.37.57.02,1.01.27,1.28.75.37.64.44,1.22.22,1.75-.22.51-.56.89-1.03,1.13l-16.02,8.36,16.03,8.36ZM458.06,204.71c0,.66-.23,1.21-.68,1.61-.44.4-.97.6-1.57.6-.63,0-1.16-.21-1.56-.61-.4-.4-.6-.94-.6-1.6v-20.6c0-.69.2-1.25.6-1.65.4-.4.93-.6,1.56-.6s1.13.2,1.57.6c.45.4.68.96.68,1.65v20.6ZM458.1,177.17c-.61.61-1.36.91-2.25.91s-1.64-.3-2.26-.91c-.62-.6-.94-1.36-.94-2.24s.32-1.65.94-2.27c.62-.62,1.38-.94,2.26-.94s1.64.32,2.25.94c.6.62.91,1.39.91,2.27s-.31,1.63-.91,2.24ZM485.29,204.71c0,.66-.23,1.21-.68,1.61s-.98.6-1.58.6c-.63,0-1.15-.21-1.53-.61-.39-.4-.58-.94-.58-1.6v-14.96c0-.86-.16-1.61-.48-2.22-.32-.61-.75-1.11-1.27-1.49-.52-.39-1.13-.67-1.8-.84-.69-.17-1.41-.25-2.15-.25-.49,0-1.04.08-1.62.25-.59.17-1.17.43-1.73.77-.55.34-1.09.77-1.58,1.26s-.89,1.06-1.2,1.69v15.79c0,.66-.23,1.21-.68,1.61-.44.4-.97.6-1.57.6-.63,0-1.16-.21-1.56-.61-.4-.4-.6-.94-.6-1.6v-20.6c0-.69.2-1.25.6-1.65.4-.4.93-.6,1.56-.6s1.13.2,1.57.6c.45.4.68.96.68,1.65v.27c.84-.99,1.9-1.73,3.17-2.23,1.38-.54,2.71-.81,3.95-.81s2.42.18,3.52.55c1.1.36,2.07.91,2.89,1.63.81.72,1.47,1.61,1.94,2.65.48,1.03.73,2.22.73,3.53v15.01ZM513.59,199.92c-.5,1.55-1.23,2.9-2.15,4.02-.92,1.11-2.03,1.99-3.28,2.61-1.26.62-2.68.94-4.2.94-2,0-3.73-.38-5.15-1.13-1.29-.69-2.37-1.64-3.2-2.84v10.89c0,.67-.24,1.21-.71,1.61-.46.4-1,.6-1.59.6-.64,0-1.16-.2-1.56-.6-.4-.4-.61-.94-.61-1.61v-30.3c0-1.46.67-2.21,1.98-2.21.6,0,1.09.2,1.46.59.37.38.55.93.55,1.62v1.31c.92-1.43,2.03-2.46,3.31-3.08,1.38-.67,3-1,4.81-1,1.36,0,2.73.28,4.07.83,1.33.56,2.54,1.41,3.57,2.52,1.03,1.11,1.88,2.52,2.51,4.18.64,1.67.96,3.63.96,5.85,0,1.9-.26,3.65-.77,5.2ZM539.55,204.66c0,.7-.21,1.25-.61,1.65-.4.4-.92.61-1.55.61s-1.13-.2-1.58-.6-.68-.96-.68-1.66v-.26c-.83.98-1.9,1.73-3.17,2.22-1.38.54-2.71.82-3.95.82s-2.42-.19-3.52-.55c-1.1-.37-2.07-.92-2.88-1.64-.82-.72-1.47-1.61-1.95-2.64-.48-1.04-.72-2.23-.72-3.54v-15c0-.67.23-1.21.68-1.61.45-.4.98-.6,1.57-.6.63,0,1.15.2,1.54.6.38.4.58.94.58,1.61v14.96c0,.89.16,1.64.48,2.23.32.6.74,1.1,1.26,1.48.53.38,1.13.66,1.81.83s1.4.26,2.15.26c1.04,0,2.17-.35,3.34-1.03,1.17-.67,2.1-1.67,2.78-2.95v-15.78c0-.67.23-1.21.68-1.61.45-.4.98-.6,1.58-.6.63,0,1.15.2,1.55.6.4.4.61.94.61,1.61v20.59ZM557.72,206.73c-.43.28-.8.44-1.1.47-.51.09-1.07.17-1.66.24-.38.04-.72.06-1.02.06-.15,0-.29-.01-.42-.02-1.18-.03-2.17-.26-2.94-.7-.77-.43-1.39-1.01-1.84-1.72s-.77-1.51-.94-2.39c-.18-.87-.27-1.77-.27-2.7v-14.45h-2.14c-.64,0-1.12-.17-1.44-.49-.32-.32-.49-.76-.49-1.3,0-1.24.65-1.87,1.93-1.87h2.14v-4.28c0-.7.22-1.25.63-1.65.42-.4.95-.61,1.58-.61s1.13.2,1.58.6c.45.41.68.96.68,1.66v4.28h3.99c1.28,0,1.93.63,1.93,1.87,0,.54-.17.98-.49,1.3-.32.32-.8.49-1.44.49h-3.99v14.45c0,.78.05,1.43.14,1.92.09.48.3.89.63,1.21.35.36.84.57,1.43.63.63.06,1.34.06,2.11,0h.46c.22,0,.44.04.64.13.21.09.4.23.57.44.18.21.28.51.32.92.06.71-.13,1.22-.58,1.51ZM584.35,194.99c-.29.29-.67.57-1.12.83l-17.71,9.52c-.46.27-.96.42-1.49.42-.03,0-.06,0-.09-.01-.58-.01-1.01-.26-1.29-.74-.36-.64-.44-1.22-.22-1.75.22-.51.57-.89,1.03-1.13l16.03-8.36-16.03-8.37c-.46-.23-.81-.61-1.03-1.12-.22-.53-.14-1.11.22-1.75.28-.48.71-.73,1.29-.75.57-.01,1.09.11,1.58.37l17.71,9.52c.38.19.74.44,1.06.73.35.31.52.77.52,1.37,0,.51-.16.92-.46,1.22Z" style="fill: #fae585;"/>
        <path d="M568.71,129.82h-128.41c-35.54,0-64.35,28.81-64.35,64.35s28.81,64.35,64.35,64.35h128.41c35.54,0,64.35-28.81,64.35-64.35s-28.81-64.35-64.35-64.35ZM605.37,200.37c-1.21,1.21-2.62,2.28-4.2,3.18-.1.06-.21.12-.32.18l-20.02,10.75c-1.24.7-2.55,1.24-3.9,1.61-1.1,1.56-2.49,2.92-4.16,4.01-2.11,1.38-4.34,2.26-6.64,2.62-.82.14-1.68.26-2.54.35-.95.11-1.85.16-2.71.16-.4,0-.79-.01-1.17-.03-3.49-.14-6.67-1.01-9.45-2.57-.08-.04-.15-.1-.23-.15-2.41,1.36-5.15,2.09-8.02,2.09-1.26,0-2.5-.15-3.7-.42-2.35.67-4.69,1.01-7,1.01-2.9,0-5.72-.45-8.39-1.34-1.95-.65-3.76-1.55-5.44-2.65-.86.57-1.75,1.09-2.68,1.54-2.39,1.19-4.94,1.95-7.62,2.29-.94,2.54-2.51,4.82-4.61,6.61-3.02,2.6-6.87,4.02-10.84,4.02-4.4,0-8.51-1.68-11.58-4.75-1.9-1.91-3.27-4.23-4.04-6.78-1.91-.45-3.71-1.25-5.33-2.35-2.72,1.83-5.93,2.82-9.23,2.82-2.22,0-4.36-.43-6.33-1.25-1.97.81-4.09,1.25-6.26,1.25-4.38,0-8.49-1.68-11.55-4.73-.36-.37-.7-.75-1.03-1.14-2.86-.04-5.68-.79-8.2-2.22l-20.02-10.76c-.11-.05-.22-.11-.32-.17-1.58-.9-2.99-1.97-4.19-3.17h0c-2.96-2.96-4.58-6.94-4.58-11.2,0-4.66,1.84-8.88,5.19-11.88,1.2-1.09,2.56-2.03,4.03-2.79l20.07-10.79c2.1-1.11,4.36-1.78,6.67-1.99.49-.66,1.02-1.29,1.61-1.88,3.31-3.32,7.71-5.14,12.39-5.14s9.18,1.87,12.48,5.26c1.86,1.91,3.22,4.18,4.05,6.64,5.18-1.42,10.38-1.16,15.08.4,1.05.35,2.05.79,3.02,1.27,2.3-1.25,4.97-1.96,7.87-1.96,1.3,0,2.57.15,3.79.44,2.44-.72,5.04-1.09,7.76-1.09,3.4,0,6.75.68,9.97,2.03.68.28,1.33.59,1.98.93,2.55-1.53,5.49-2.36,8.52-2.36,3.37,0,6.55.98,9.23,2.82,2.71-1.83,5.92-2.82,9.24-2.82.1,0,.2.01.3.01.68-1.05,1.48-2.04,2.4-2.93,3.04-2.91,7.09-4.53,11.39-4.53,3.89,0,7.64,1.38,10.62,3.87,1.61-.62,3.35-.98,5.16-1.03,3.05-.09,6.06.62,8.74,2.04l20.11,10.81c1.46.76,2.83,1.71,4.05,2.81,3.34,3.01,5.17,7.22,5.17,11.86,0,4.26-1.63,8.24-4.58,11.19Z" style="fill: #ff73b0;"/>
        <path d="M568.71,103.82h-128.41c-49.82,0-90.35,40.53-90.35,90.35,0,7.73.97,15.23,2.81,22.39,1.61,6.32,3.9,12.37,6.77,18.08,14.87,29.56,45.49,49.88,80.77,49.88h128.41c49.82,0,90.35-40.53,90.35-90.35s-40.53-90.35-90.35-90.35ZM568.71,258.52h-128.41c-35.54,0-64.35-28.81-64.35-64.35s28.81-64.35,64.35-64.35h128.41c35.54,0,64.35,28.81,64.35,64.35s-28.81,64.35-64.35,64.35Z" style="fill: #ececec;"/>
        <path d="M497.59,201.53c.6.69,1.33,1.27,2.16,1.7.83.43,1.75.65,2.74.65,1.2,0,2.27-.26,3.18-.77.91-.51,1.68-1.2,2.28-2.05.6-.85,1.07-1.85,1.38-2.97.31-1.12.47-2.31.47-3.52,0-1.4-.16-2.7-.47-3.87-.31-1.16-.78-2.19-1.4-3.04-.62-.85-1.4-1.52-2.32-2-.92-.48-2-.72-3.21-.72-.99,0-1.89.19-2.69.56-.8.37-1.51.88-2.12,1.51-.6.63-1.08,1.37-1.42,2.19-.34.82-.53,1.67-.56,2.54v4.64c0,.93.18,1.85.53,2.75.36.9.84,1.71,1.45,2.4Z" style="fill: #fae585;"/>
        <path d="M446.57,203.26c.22.53.15,1.11-.22,1.75-.27.48-.71.73-1.28.74-.03.01-.06.01-.09.01-.53,0-1.03-.15-1.5-.43l-17.7-9.51c-.45-.26-.83-.54-1.12-.83-.31-.3-.46-.72-.46-1.22,0-.6.17-1.07.51-1.37.33-.29.69-.54,1.07-.73l17.71-9.52c.49-.26,1.03-.38,1.58-.37.57.02,1.01.27,1.28.75.37.64.44,1.22.22,1.75-.22.51-.56.89-1.03,1.13l-16.02,8.36,16.03,8.36c.46.24.81.62,1.02,1.13Z" style="fill: #7f7f7f;"/>
        <path d="M459.01,174.93c0,.88-.31,1.63-.91,2.24-.61.61-1.36.91-2.25.91s-1.64-.3-2.26-.91c-.62-.6-.94-1.36-.94-2.24s.32-1.65.94-2.27c.62-.62,1.38-.94,2.26-.94s1.64.32,2.25.94c.6.62.91,1.39.91,2.27Z" style="fill: #7f7f7f;"/>
        <path d="M458.06,184.11v20.6c0,.66-.23,1.21-.68,1.61-.44.4-.97.6-1.57.6-.63,0-1.16-.21-1.56-.61-.4-.4-.6-.94-.6-1.6v-20.6c0-.69.2-1.25.6-1.65.4-.4.93-.6,1.56-.6s1.13.2,1.57.6c.45.4.68.96.68,1.65Z" style="fill: #7f7f7f;"/>
        <path d="M485.29,189.7v15.01c0,.66-.23,1.21-.68,1.61s-.98.6-1.58.6c-.63,0-1.15-.21-1.53-.61-.39-.4-.58-.94-.58-1.6v-14.96c0-.86-.16-1.61-.48-2.22-.32-.61-.75-1.11-1.27-1.49-.52-.39-1.13-.67-1.8-.84-.69-.17-1.41-.25-2.15-.25-.49,0-1.04.08-1.62.25-.59.17-1.17.43-1.73.77-.55.34-1.09.77-1.58,1.26s-.89,1.06-1.2,1.69v15.79c0,.66-.23,1.21-.68,1.61-.44.4-.97.6-1.57.6-.63,0-1.16-.21-1.56-.61-.4-.4-.6-.94-.6-1.6v-20.6c0-.69.2-1.25.6-1.65.4-.4.93-.6,1.56-.6s1.13.2,1.57.6c.45.4.68.96.68,1.65v.27c.84-.99,1.9-1.73,3.17-2.23,1.38-.54,2.71-.81,3.95-.81s2.42.18,3.52.55c1.1.36,2.07.91,2.89,1.63.81.72,1.47,1.61,1.94,2.65.48,1.03.73,2.22.73,3.53Z" style="fill: #7f7f7f;"/>
        <path d="M513.4,188.87c-.63-1.66-1.48-3.07-2.51-4.18-1.03-1.11-2.24-1.96-3.57-2.52-1.34-.55-2.71-.83-4.07-.83-1.81,0-3.43.33-4.81,1-1.28.62-2.39,1.65-3.31,3.08v-1.31c0-.69-.18-1.24-.55-1.62-.37-.39-.86-.59-1.46-.59-1.31,0-1.98.75-1.98,2.21v30.3c0,.67.21,1.21.61,1.61.4.4.92.6,1.56.6.59,0,1.13-.2,1.59-.6.47-.4.71-.94.71-1.61v-10.89c.83,1.2,1.91,2.15,3.2,2.84,1.42.75,3.15,1.13,5.15,1.13,1.52,0,2.94-.32,4.2-.94,1.25-.62,2.36-1.5,3.28-2.61.92-1.12,1.65-2.47,2.15-4.02.51-1.55.77-3.3.77-5.2,0-2.22-.32-4.18-.96-5.85ZM509.33,198.09c-.31,1.12-.77,2.12-1.38,2.97-.6.85-1.36,1.54-2.28,2.05-.91.51-1.98.76-3.18.76-.98,0-1.9-.22-2.74-.65-.83-.43-1.56-1-2.16-1.69-.6-.7-1.09-1.51-1.45-2.41-.35-.89-.53-1.81-.53-2.74v-4.64c.03-.86.22-1.72.56-2.54.34-.81.81-1.55,1.42-2.18.6-.64,1.31-1.14,2.11-1.52.8-.37,1.71-.55,2.7-.55,1.2,0,2.28.24,3.21.72.92.48,1.7,1.15,2.32,2,.62.85,1.09,1.87,1.4,3.03.31,1.17.47,2.48.47,3.88,0,1.21-.16,2.39-.47,3.51Z" style="fill: #7f7f7f;"/>
        <path d="M539.55,184.07v20.59c0,.7-.21,1.25-.61,1.65-.4.4-.92.61-1.55.61s-1.13-.2-1.58-.6-.68-.96-.68-1.66v-.26c-.83.98-1.9,1.73-3.17,2.22-1.38.54-2.71.82-3.95.82s-2.42-.19-3.52-.55c-1.1-.37-2.07-.92-2.88-1.64-.82-.72-1.47-1.61-1.95-2.64-.48-1.04-.72-2.23-.72-3.54v-15c0-.67.23-1.21.68-1.61.45-.4.98-.6,1.57-.6.63,0,1.15.2,1.54.6.38.4.58.94.58,1.61v14.96c0,.89.16,1.64.48,2.23.32.6.74,1.1,1.26,1.48.53.38,1.13.66,1.81.83s1.4.26,2.15.26c1.04,0,2.17-.35,3.34-1.03,1.17-.67,2.1-1.67,2.78-2.95v-15.78c0-.67.23-1.21.68-1.61.45-.4.98-.6,1.58-.6.63,0,1.15.2,1.55.6.4.4.61.94.61,1.61Z" style="fill: #7f7f7f;"/>
        <path d="M558.3,205.22c.06.71-.13,1.22-.58,1.51-.43.28-.8.44-1.1.47-.51.09-1.07.17-1.66.24-.38.04-.72.06-1.02.06-.15,0-.29-.01-.42-.02-1.18-.03-2.17-.26-2.94-.7-.77-.43-1.39-1.01-1.84-1.72s-.77-1.51-.94-2.39c-.18-.87-.27-1.77-.27-2.7v-14.45h-2.14c-.64,0-1.12-.17-1.44-.49-.32-.32-.49-.76-.49-1.3,0-1.24.65-1.87,1.93-1.87h2.14v-4.28c0-.7.22-1.25.63-1.65.42-.4.95-.61,1.58-.61s1.13.2,1.58.6c.45.41.68.96.68,1.66v4.28h3.99c1.28,0,1.93.63,1.93,1.87,0,.54-.17.98-.49,1.3-.32.32-.8.49-1.44.49h-3.99v14.45c0,.78.05,1.43.14,1.92.09.48.3.89.63,1.21.35.36.84.57,1.43.63.63.06,1.34.06,2.11,0h.46c.22,0,.44.04.64.13.21.09.4.23.57.44.18.21.28.51.32.92Z" style="fill: #7f7f7f;"/>
        <path d="M584.81,193.77c0,.51-.16.92-.46,1.22-.29.29-.67.57-1.12.83l-17.71,9.52c-.46.27-.96.42-1.49.42-.03,0-.06,0-.09-.01-.58-.01-1.01-.26-1.29-.74-.36-.64-.44-1.22-.22-1.75.22-.51.57-.89,1.03-1.13l16.03-8.36-16.03-8.37c-.46-.23-.81-.61-1.03-1.12-.22-.53-.14-1.11.22-1.75.28-.48.71-.73,1.29-.75.57-.01,1.09.11,1.58.37l17.71,9.52c.38.19.74.44,1.06.73.35.31.52.77.52,1.37Z" style="fill: #7f7f7f;"/>
        <path d="M239.31,290.85c31.26,0,56.6-25.34,56.6-56.6s-25.34-56.6-56.6-56.6h-1.22c-31.26,0-56.6,25.34-56.6,56.6s25.34,56.6,56.6,56.6h1.22ZM226.29,249.07v-29.59c0-3.53,1.35-6.75,3.82-9.07,2.3-2.17,5.35-3.37,8.57-3.37s6.04,1.1,8.38,3.19c2.61,2.33,4.05,5.61,4.05,9.24v29.59c0,3.68-1.48,6.99-4.16,9.31h0c-2.32,2.01-5.18,3.07-8.27,3.07s-6.17-1.15-8.46-3.24c-2.53-2.32-3.92-5.56-3.92-9.15Z" style="fill: #ececec;"/>
        <path d="M238.09,316.85h1.22c45.55,0,82.6-37.05,82.6-82.6s-37.05-82.6-82.6-82.6h-1.22c-2.85,0-5.66.14-8.43.43-2.08.21-4.14.5-6.17.87-2.03.36-4.04.8-6.02,1.31-3.96,1.02-7.8,2.33-11.5,3.9-2.47,1.05-4.88,2.21-7.22,3.48-2.34,1.27-4.61,2.66-6.81,4.14-21.98,14.86-36.45,40.01-36.45,68.47s14.47,53.62,36.45,68.47c2.2,1.49,4.47,2.87,6.81,4.14,2.34,1.27,4.75,2.44,7.22,3.48,3.7,1.57,7.55,2.88,11.5,3.9,1.98.51,3.98.95,6.02,1.31,2.03.36,4.09.65,6.17.87,2.77.28,5.59.43,8.43.43ZM181.49,234.25c0-31.26,25.34-56.6,56.6-56.6h1.22c31.26,0,56.6,25.34,56.6,56.6s-25.34,56.6-56.6,56.6h-1.22c-31.26,0-56.6-25.34-56.6-56.6Z" style="fill: #d3d3d3;"/>
        <path d="M380.31,1036.84h-32.32c-6.35,0-11.73,4.67-12.63,10.95l-17.54,122.64c-1.1,7.69,4.87,14.57,12.63,14.57h118.72c7.77,0,13.73-6.88,12.63-14.57l-17.54-122.64c-.9-6.29-6.28-10.95-12.63-10.95h-32.32v-100.08h-19v100.08Z" style="fill: #d3d3d3;"/>
        <path d="M399.31,616.89c-1.18.08-2.36.13-3.56.13h-15.44v34.7h19v-34.84Z" style="fill: #d3d3d3;"/>
        <path d="M427.42,863.14c.95,0,1.7-.29,2.24-.86.55-.57.82-1.34.82-2.29s-.28-1.72-.82-2.29c-.54-.57-1.3-.86-2.24-.86-.89,0-1.63.29-2.19.85-.57.56-.85,1.33-.85,2.28,0,.48.08.92.23,1.3.15.39.36.72.63,1,.26.28.59.5.96.65.38.15.79.23,1.23.23Z" style="fill: #ff73b0;"/>
        <path d="M472.85,745.58c-.47-.19-1.03-.28-1.67-.28s-1.21.1-1.68.28c-.45.17-.66.46-.66.87s.22.72.66.89c.48.18,1.05.27,1.69.27s1.2-.09,1.67-.27c.43-.17.65-.46.65-.89s-.21-.7-.65-.87Z" style="fill: #ff73b0;"/>
        <path d="M461.88,733.69c1.43,0,2.5-.36,3.18-1.07.68-.71,1.03-1.61,1.03-2.67s-.35-1.97-1.03-2.67c-.68-.71-1.75-1.07-3.18-1.07-.68,0-1.28.1-1.8.28-.51.19-.95.45-1.31.79-.35.34-.62.73-.8,1.18-.18.45-.27.94-.27,1.47,0,1.09.36,1.99,1.07,2.7.71.71,1.75,1.07,3.11,1.07Z" style="fill: #ff73b0;"/>
        <path d="M399.04,732.16c1.18.65,2.86.97,5,.97s3.79-.33,4.97-.97c1.17-.64,1.74-1.53,1.74-2.71s-.57-2.09-1.74-2.72c-1.18-.64-2.85-.96-4.97-.96s-3.82.32-5,.96c-1.17.63-1.74,1.52-1.74,2.72s.57,2.07,1.74,2.71Z" style="fill: #ff73b0;"/>
        <path d="M489.21,734.57c1.21.81,2.87,1.21,4.93,1.21,1.03,0,1.97-.11,2.79-.32.81-.21,1.52-.52,2.11-.91.58-.39,1.03-.88,1.34-1.45.31-.57.46-1.23.46-1.96s-.16-1.42-.46-1.99c-.31-.57-.76-1.06-1.34-1.45-.58-.4-1.29-.7-2.11-.9-.82-.2-1.76-.3-2.79-.3-2.06,0-3.72.4-4.93,1.2-1.2.79-1.81,1.94-1.81,3.44s.61,2.63,1.81,3.43Z" style="fill: #ff73b0;"/>
        <path d="M523.33,787.86c0,.37.07.64.2.79.13.15.37.22.72.22h2.27c.35,0,.59-.07.72-.22.13-.15.2-.42.2-.79v-2.03h-4.11v2.03Z" style="fill: #ff73b0;"/>
        <path d="M336.84,769.12c-1.4,0-2.46.59-3.15,1.74-.7,1.18-1.06,2.91-1.06,5.14s.36,3.96,1.06,5.14c.69,1.16,1.75,1.74,3.15,1.74s2.45-.57,3.15-1.74c.7-1.18,1.06-2.91,1.06-5.14s-.36-3.96-1.06-5.14c-.7-1.17-1.73-1.74-3.15-1.74Z" style="fill: #ff73b0;"/>
        <path d="M519.54,726.67h-5.67c-.35,0-.59.07-.72.22-.13.15-.2.42-.2.79v5.99c0,.37.07.64.2.79.13.15.37.22.72.22h5.67c.35,0,.59-.07.72-.22.13-.15.2-.42.2-.79v-5.99c0-.37-.07-.64-.2-.79-.13-.15-.37-.22-.72-.22Z" style="fill: #ff73b0;"/>
        <path d="M254.41,727.22c-1.4,0-2.46.59-3.15,1.74-.7,1.18-1.06,2.9-1.06,5.14s.36,3.96,1.06,5.14c.69,1.16,1.75,1.74,3.15,1.74s2.46-.59,3.15-1.74c.7-1.17,1.06-2.9,1.06-5.14s-.36-3.96-1.06-5.14c-.69-1.15-1.75-1.74-3.15-1.74Z" style="fill: #ff73b0;"/>
        <path d="M210.59,774.06c1.18.65,2.86.97,5,.97s3.79-.33,4.97-.97c1.17-.64,1.74-1.53,1.74-2.71s-.57-2.09-1.74-2.72c-1.18-.64-2.85-.96-4.97-.96s-3.82.32-5,.96c-1.17.63-1.74,1.52-1.74,2.72s.57,2.07,1.74,2.71Z" style="fill: #ff73b0;"/>
        <path d="M528.01,774.52c.68-.71,1.03-1.61,1.03-2.67s-.35-1.96-1.03-2.67c-.68-.71-1.75-1.07-3.18-1.07-.68,0-1.29.1-1.8.28-.51.19-.95.45-1.31.79-.35.34-.62.73-.8,1.18-.18.45-.27.94-.27,1.47,0,1.09.36,1.99,1.07,2.7.71.71,1.75,1.07,3.11,1.07,1.43,0,2.5-.36,3.18-1.07Z" style="fill: #ff73b0;"/>
        <path d="M367.04,863.14c.95,0,1.7-.29,2.24-.86.55-.57.82-1.34.82-2.29s-.28-1.72-.82-2.29c-.54-.57-1.3-.86-2.24-.86-.89,0-1.63.29-2.19.85-.57.56-.85,1.33-.85,2.28,0,.48.08.92.23,1.3.15.39.36.72.63,1,.26.28.59.5.96.65.38.15.79.23,1.23.23Z" style="fill: #ff73b0;"/>
        <path d="M371.08,788.95c.83-.11,1.55-.3,2.15-.54.59-.24,1.05-.55,1.36-.92.31-.36.46-.82.46-1.34s-.16-.96-.47-1.33c-.32-.38-.77-.7-1.36-.94-.6-.25-1.32-.43-2.15-.54-.83-.12-1.76-.17-2.76-.17s-1.95.06-2.77.17c-.82.11-1.54.3-2.13.54-.59.24-1.05.56-1.36.94-.31.37-.47.82-.47,1.33,0,.54.15.98.46,1.34.31.37.77.68,1.36.92.6.25,1.32.43,2.13.54.82.12,1.76.17,2.77.17s1.92-.06,2.76-.17Z" style="fill: #ff73b0;"/>
        <path d="M455.53,777.36c.42-.09.76-.22,1-.39.24-.16.41-.35.51-.56.1-.21.15-.44.15-.67s-.05-.45-.15-.66c-.1-.2-.27-.39-.51-.55-.25-.17-.58-.3-.99-.4-.41-.1-.95-.16-1.6-.16-1.21,0-2.06.18-2.53.54-.47.36-.69.75-.69,1.19s.23.87.69,1.24c.47.37,1.32.56,2.52.56.63,0,1.16-.05,1.59-.14Z" style="fill: #ff73b0;"/>
        <path d="M346.52,857.58c-1.03,0-1.78.41-2.29,1.27-.51.86-.78,2.13-.78,3.77s.26,2.91.78,3.77c.51.85,1.26,1.27,2.29,1.27s1.78-.41,2.29-1.27c.51-.86.78-2.13.78-3.77s-.26-2.91-.78-3.77c-.51-.85-1.26-1.27-2.29-1.27Z" style="fill: #ff73b0;"/>
        <path d="M281.39,732.64h10.46c.35,0,.59-.07.72-.22.13-.15.2-.42.2-.79v-4.33c0-.37-.07-.64-.2-.79-.13-.15-.37-.22-.72-.22h-10.46c-.35,0-.59.07-.72.22-.13.15-.2.41-.2.79v4.33c0,.37.07.64.2.79.13.15.37.22.72.22Z" style="fill: #ff73b0;"/>
        <path d="M531.3,679.73H248.18c-63.25,0-114.52,51.27-114.52,114.52h0c0,63.25,51.27,114.52,114.52,114.52h283.12c63.25,0,114.52-51.27,114.52-114.52h0c0-63.25-51.27-114.52-114.52-114.52ZM532.92,770.73c.23-.25.54-.38.92-.38h3.02v-4.5c0-.44.14-.8.42-1.06.28-.26.62-.4,1.02-.4s.75.13,1.03.4c.29.27.43.62.43,1.07v11.57c0,.44-.15.8-.43,1.05-.28.25-.63.38-1.03.38s-.74-.13-1.01-.38c-.28-.26-.42-.61-.42-1.05v-4.55h-3.02c-.38,0-.69-.12-.92-.36-.23-.24-.34-.54-.34-.9,0-.34.11-.64.34-.88ZM525.53,729.26c-.38,0-.69-.12-.92-.36-.23-.24-.34-.54-.34-.9,0-.34.11-.64.34-.88.23-.25.54-.38.92-.38h3.3v-2.78c0-.44.14-.8.42-1.06.27-.26.62-.4,1.02-.4s.75.13,1.03.4c.29.27.43.62.43,1.07v17.12c0,.44-.15.8-.43,1.05-.28.25-.63.38-1.03.38s-.74-.13-1.01-.38c-.28-.26-.42-.61-.42-1.05v-6.33h-3.3c-.38,0-.69-.12-.92-.36-.23-.24-.34-.54-.34-.9,0-.34.11-.64.34-.88.23-.25.54-.38.92-.38h3.3v-2.98h-3.3ZM485.16,728.26c.46-.87,1.11-1.62,1.94-2.24.83-.62,1.85-1.1,3.03-1.43,1.18-.33,2.52-.5,4-.5s2.83.17,4.02.5c1.19.33,2.21.81,3.04,1.43.82.62,1.47,1.37,1.91,2.24.44.87.67,1.83.67,2.88s-.22,2.01-.67,2.88c-.44.87-1.09,1.62-1.91,2.24-.82.62-1.85,1.1-3.04,1.43-1.19.33-2.54.5-4.02.5s-2.82-.17-4-.5c-1.18-.33-2.2-.81-3.03-1.43-.83-.62-1.49-1.37-1.94-2.24-.45-.87-.68-1.83-.68-2.88s.23-2.01.68-2.88ZM455.35,727.4c.34-.77.83-1.44,1.45-1.99.62-.55,1.37-.98,2.22-1.29.85-.3,1.81-.46,2.85-.46s2,.15,2.86.46c.86.3,1.62.74,2.23,1.29.62.55,1.11,1.22,1.46,1.99.34.77.52,1.63.52,2.55s-.17,1.78-.52,2.55c-.35.77-.84,1.44-1.46,1.99-.62.55-1.37.98-2.23,1.29-.86.3-1.82.46-2.86.46s-1.99-.15-2.85-.46c-.85-.3-1.6-.74-2.22-1.29-.62-.55-1.11-1.22-1.45-1.99-.34-.77-.52-1.62-.52-2.55s.17-1.79.52-2.55ZM473.82,736.94c.36,0,.66.12.87.34.22.23.33.51.33.83,0,.34-.11.63-.33.86-.22.23-.51.34-.87.34h-5.35c-.36,0-.66-.12-.87-.34-.22-.22-.33-.51-.33-.86,0-.32.11-.6.33-.83.22-.23.51-.34.87-.34h5.35ZM459.5,746.58c.11.14.36.21.74.21.51,0,1.09-.03,1.7-.09.61-.06,1.22-.14,1.79-.23.07-.02.2-.03.38-.04.18-.01.35,0,.53.05.18.04.35.13.5.26.16.14.26.34.3.63.06.29.05.54-.04.74-.08.19-.21.35-.38.46-.16.1-.33.18-.51.22-.17.04-.3.07-.4.09-.87.16-1.79.27-2.72.35-.93.08-1.75.12-2.42.12-.91,0-1.58-.27-1.99-.79-.4-.51-.61-1.16-.61-1.92v-6.42c0-.44.14-.79.42-1.05.27-.25.62-.38,1.01-.38s.75.13,1.04.38c.3.26.45.61.45,1.05v5.64c0,.34.06.58.18.74ZM449.62,764.98c.23-.24.55-.36.95-.36h6.77c.4,0,.72.12.95.36.23.24.34.54.34.9s-.11.66-.34.9c-.23.24-.54.36-.95.36h-6.77c-.4,0-.72-.12-.95-.36-.22-.24-.34-.54-.34-.9s.11-.66.34-.9ZM438.73,723.96c0-.44.14-.8.42-1.06.28-.26.62-.4,1.02-.4s.75.13,1.03.4c.29.27.43.62.43,1.07v24.01c0,.44-.15.8-.43,1.05-.28.25-.63.38-1.03.38s-.74-.13-1.01-.38c-.28-.26-.42-.61-.42-1.05v-24.01ZM438.62,765.86c0-.44.14-.8.42-1.06.27-.26.62-.4,1.02-.4s.75.13,1.03.4c.29.27.43.62.43,1.07v17.12c0,.44-.15.8-.43,1.05-.28.25-.63.38-1.03.38s-.74-.13-1.01-.38c-.28-.26-.42-.61-.42-1.05v-17.12ZM419.02,741.74c.07-.15.16-.29.27-.41.11-.12.2-.2.28-.26.94-.65,1.81-1.4,2.57-2.22.77-.82,1.43-1.72,1.98-2.67.54-.94.97-1.95,1.28-3.01.31-1.05.46-2.15.46-3.28v-2.17h-4.7c-.4,0-.72-.12-.95-.36-.23-.24-.34-.54-.34-.9s.11-.66.34-.9c.23-.24.55-.36.95-.36h12.32c.4,0,.72.12.95.36.23.24.34.54.34.9s-.11.66-.34.9c-.23.24-.55.36-.95.36h-4.67v2.17c0,2.31.53,4.39,1.58,6.17,1.05,1.79,2.52,3.36,4.38,4.68.09.07.18.16.28.27.11.12.19.26.26.42.06.17.09.35.08.55-.01.21-.09.42-.24.63-.17.22-.36.36-.57.43-.2.06-.39.09-.58.08-.19-.01-.37-.05-.52-.13-.15-.07-.27-.14-.36-.2-.6-.42-1.2-.92-1.8-1.46-.59-.54-1.16-1.14-1.68-1.77-.53-.63-1-1.3-1.42-1.98-.36-.58-.66-1.18-.9-1.78-.26.64-.58,1.27-.95,1.88-.44.71-.94,1.4-1.49,2.05-.55.65-1.14,1.26-1.75,1.83-.61.56-1.24,1.07-1.86,1.49-.08.06-.2.13-.37.2-.16.07-.35.12-.55.14-.05,0-.1,0-.15,0-.15,0-.3-.02-.45-.07-.21-.07-.39-.21-.54-.42-.17-.21-.26-.42-.27-.62-.01-.19.02-.38.1-.54ZM395.05,726.86c.44-.75,1.09-1.39,1.92-1.9.82-.51,1.84-.9,3.03-1.18,1.19-.27,2.54-.41,4.04-.41,3.05,0,5.44.52,7.1,1.56,1.68,1.05,2.53,2.57,2.53,4.52s-.85,3.48-2.53,4.52c-1.66,1.03-4.05,1.56-7.1,1.56-1.49,0-2.85-.13-4.04-.4-1.19-.26-2.21-.66-3.03-1.18-.83-.52-1.47-1.17-1.92-1.92-.45-.75-.67-1.63-.67-2.59s.23-1.84.67-2.59ZM391.78,738.38c.23-.24.55-.36.95-.36h22.47c.4,0,.72.12.95.36.23.24.34.54.34.9s-.11.66-.34.89c-.23.23-.55.34-.95.34h-9.79v7.61c0,.44-.15.8-.43,1.05-.28.25-.63.38-1.03.38s-.74-.13-1.03-.38c-.29-.26-.43-.61-.43-1.05v-7.61h-9.76c-.4,0-.72-.11-.95-.34-.23-.23-.34-.53-.34-.89s.11-.66.34-.9ZM407.12,773.8c-.38,0-.69-.12-.92-.36-.23-.24-.34-.54-.34-.9,0-.34.11-.64.34-.88.23-.25.54-.38.92-.38h4.18v-5.43c0-.44.14-.8.42-1.06.27-.26.62-.4,1.02-.4s.75.13,1.03.4c.29.27.43.62.43,1.07v17.12c0,.44-.15.8-.43,1.05-.28.25-.63.38-1.03.38s-.74-.13-1.01-.38c-.28-.26-.42-.61-.42-1.05v-9.18h-4.18ZM393.43,768.65c-.4,0-.72-.12-.95-.36-.23-.24-.34-.54-.34-.9s.11-.66.34-.9c.23-.24.55-.36.95-.36h12.32c.4,0,.72.12.95.36.23.24.34.54.34.9s-.11.66-.34.9c-.23.24-.54.36-.95.36h-4.67v1.44c0,.89.16,1.71.47,2.44.32.73.73,1.4,1.24,1.99.51.59,1.11,1.1,1.76,1.53.66.43,1.35.78,2.05,1.05.1.05.19.11.3.19.11.09.21.19.29.32.09.13.14.29.15.48.01.19-.04.39-.14.6-.1.23-.25.41-.44.52-.17.1-.36.17-.55.2-.19.03-.37.03-.54,0-.17-.03-.29-.07-.38-.11-1.04-.39-2.1-.99-3.13-1.79-.97-.75-1.8-1.71-2.44-2.85-.27.54-.6,1.06-.98,1.55-.43.55-.92,1.06-1.46,1.53-.54.47-1.12.9-1.74,1.29-.62.39-1.26.73-1.9,1.02-.09.04-.21.08-.38.11-.12.02-.25.03-.39.03-.04,0-.09,0-.13,0-.2-.01-.38-.07-.55-.18-.18-.11-.32-.28-.43-.52-.1-.21-.15-.42-.13-.6.02-.18.08-.34.16-.48.09-.13.19-.24.32-.34.12-.09.23-.17.33-.23.84-.41,1.61-.87,2.3-1.36.69-.49,1.3-1.06,1.81-1.69.5-.63.9-1.33,1.19-2.09.28-.76.43-1.6.43-2.51v-1.56h-4.73ZM389.23,856.15v-.21c0-.36.11-.65.34-.85.22-.2.5-.3.81-.3s.58.1.79.3.32.49.32.85v.21c0,.73.15,1.4.46,1.98.31.58.72,1.11,1.25,1.57.52.46,1.14.86,1.83,1.19.7.33,1.44.6,2.2.82.07.02.15.05.25.11.1.06.2.13.3.23.1.1.17.22.21.36.04.15.03.31-.04.5-.06.2-.16.36-.29.46-.12.1-.25.16-.38.2-.14.04-.27.05-.4.04-.11-.02-.19-.03-.24-.05-.72-.17-1.41-.4-2.07-.68-.66-.28-1.28-.62-1.83-1-.56-.38-1.05-.81-1.48-1.27-.37-.4-.67-.82-.9-1.26-.24.46-.54.89-.92,1.28-.43.46-.94.89-1.5,1.26-.56.37-1.18.71-1.85.99-.67.28-1.36.51-2.06.68-.04.01-.12.03-.24.05-.04,0-.08,0-.13,0-.08,0-.17-.01-.25-.03-.13-.03-.26-.1-.38-.19-.13-.1-.22-.26-.29-.47-.06-.17-.08-.34-.03-.49.04-.14.11-.26.21-.36.09-.09.19-.17.3-.23.11-.06.19-.09.26-.11.76-.21,1.5-.49,2.19-.82.69-.33,1.31-.73,1.83-1.19.52-.46.94-.99,1.26-1.58.31-.59.47-1.26.47-1.99ZM379.3,724.51c0-.44.14-.79.4-1.05.27-.25.6-.38,1-.38.38,0,.71.13.99.38.28.26.42.61.42,1.05v8.22h2.66v-8.8c0-.44.14-.8.42-1.05.27-.25.62-.38,1.02-.38.38,0,.71.13.99.38.28.26.42.61.42,1.05v24.15c0,.44-.14.79-.42,1.04-.28.24-.61.37-.98.37-.4,0-.74-.12-1.01-.37-.28-.25-.42-.6-.42-1.04v-12.87h-2.66v11.53c0,.44-.14.79-.42,1.04-.28.24-.61.37-.98.37-.4,0-.74-.12-1-.37-.27-.25-.4-.6-.4-1.04v-22.23ZM367.05,724.25c.23-.24.55-.36.95-.36h5.9c.4,0,.72.12.95.36.23.24.34.54.34.9s-.11.66-.34.9c-.23.24-.54.36-.95.36h-5.9c-.4,0-.72-.12-.95-.36-.22-.24-.34-.54-.34-.9s.11-.66.34-.9ZM364.25,742.7c.06-.16.15-.3.26-.42.1-.11.19-.19.26-.24,1.71-1.26,2.96-2.81,3.7-4.61.75-1.81,1.13-3.81,1.13-5.95v-.86h-3.86c-.4,0-.72-.12-.95-.36-.23-.24-.34-.54-.34-.9s.11-.66.34-.9c.23-.24.55-.36.95-.36h10.58c.4,0,.72.12.95.36.23.24.34.54.34.9s-.11.66-.34.9c-.23.24-.54.36-.95.36h-3.89v.81c0,2.05.36,3.97,1.08,5.71.71,1.73,1.94,3.26,3.64,4.54.06.04.14.12.24.24.09.11.17.25.24.41.06.16.09.34.08.53-.01.2-.09.4-.24.62-.15.21-.33.36-.52.44-.19.08-.39.1-.58.08-.18-.02-.36-.06-.51-.12-.16-.06-.28-.13-.36-.19-.43-.31-.87-.7-1.31-1.15-.44-.45-.87-.96-1.26-1.5-.39-.54-.77-1.13-1.11-1.76-.28-.52-.53-1.05-.74-1.58-.18.58-.42,1.14-.7,1.68-.34.65-.73,1.28-1.14,1.85-.42.58-.88,1.11-1.37,1.59-.48.48-.98.9-1.47,1.25-.09.06-.2.13-.36.19-.16.06-.33.1-.51.12-.04,0-.09,0-.13,0-.15,0-.3-.03-.45-.09-.2-.08-.37-.22-.52-.44-.15-.21-.23-.42-.24-.62-.01-.19.02-.37.08-.53ZM355.94,778.12c.07-.18.15-.33.26-.45.1-.12.21-.2.3-.25.86-.5,1.66-1.06,2.37-1.68.72-.62,1.34-1.31,1.85-2.04.51-.73.92-1.53,1.22-2.38.29-.84.44-1.75.44-2.71v-1.31c0-.44.14-.8.43-1.06.29-.26.63-.4,1.03-.4s.75.13,1.04.4c.3.27.45.63.45,1.07v1.19c0,1.01.16,1.96.47,2.81.32.86.74,1.65,1.26,2.34.52.7,1.13,1.32,1.79,1.85.67.54,1.37.99,2.07,1.35.09.05.19.12.29.23.11.11.2.25.26.41.06.16.09.35.08.56-.01.22-.09.44-.24.65-.15.22-.33.36-.54.44-.2.07-.4.1-.61.08-.19-.02-.37-.06-.54-.12-.17-.06-.28-.11-.36-.15-1.05-.56-2.07-1.32-3.04-2.24-.91-.87-1.68-1.97-2.31-3.26-.56,1.24-1.34,2.37-2.33,3.35-1.05,1.04-2.23,1.94-3.51,2.68h0c-.08.04-.19.1-.34.16-.16.07-.33.12-.52.14-.05,0-.11,0-.16,0-.14,0-.28-.02-.42-.06-.21-.06-.4-.19-.55-.41-.17-.19-.26-.4-.26-.61,0-.2.03-.39.1-.56ZM316.21,730.58c.23-.25.54-.38.92-.38h4.18v-6.24c0-.44.14-.8.42-1.06.27-.26.62-.4,1.02-.4s.75.13,1.03.4c.29.27.43.62.43,1.07v14.62c0,.44-.15.8-.43,1.05-.28.25-.63.38-1.03.38s-.74-.13-1.01-.38c-.28-.26-.42-.61-.42-1.05v-5.86h-4.18c-.38,0-.69-.12-.92-.36-.23-.24-.34-.54-.34-.9,0-.34.11-.64.34-.88ZM302.22,737.93c.04-.18.12-.34.23-.47.1-.12.22-.23.34-.31.13-.08.24-.15.34-.19,1.13-.42,2.23-.96,3.27-1.59,1.03-.63,1.98-1.35,2.81-2.14.83-.78,1.56-1.65,2.16-2.56.6-.92,1.04-1.87,1.31-2.84.11-.39.1-.67-.04-.85-.12-.16-.36-.24-.72-.24h-7.56c-.4,0-.72-.12-.95-.34-.23-.23-.34-.53-.34-.89s.11-.66.34-.9c.23-.24.55-.36.95-.36h8.78c.96,0,1.67.22,2.12.65.46.44.62,1.12.47,2.03-.19,1.38-.62,2.71-1.28,3.95-.65,1.24-1.49,2.39-2.49,3.43-1,1.04-2.16,1.98-3.45,2.79-1.29.82-2.69,1.5-4.17,2.05-.09.04-.22.08-.38.13-.14.04-.29.07-.46.07-.03,0-.07,0-.1,0-.21-.01-.41-.07-.61-.18-.2-.11-.36-.3-.49-.58-.11-.24-.14-.45-.09-.65ZM277.54,726.49c0-.84.22-1.51.66-1.97.44-.47,1.15-.71,2.11-.71h12.61c.96,0,1.67.24,2.11.71.44.47.66,1.13.66,1.97v5.93c0,.84-.22,1.51-.66,1.97-.44.47-1.15.71-2.11.71h-12.61c-.96,0-1.67-.24-2.11-.71-.44-.47-.66-1.13-.66-1.97v-5.93ZM265.22,723.96c0-.44.14-.8.42-1.06.27-.26.62-.4,1.02-.4s.75.13,1.03.4c.29.27.43.62.43,1.07v8.74h3.45c.38,0,.69.13.92.38.22.25.34.54.34.88,0,.36-.11.66-.34.9-.23.24-.53.36-.92.36h-3.45v12.75c0,.44-.15.8-.43,1.05-.28.25-.63.38-1.03.38s-.74-.13-1.01-.38c-.28-.26-.42-.61-.42-1.05v-24.01ZM262.76,765c.4,0,.74.13,1.03.38.29.26.43.61.43,1.05v5.38c0,.37.07.64.2.79.13.15.37.22.72.22h13.37c.38,0,.69.12.92.36.23.24.34.54.34.9,0,.34-.11.64-.34.87-.23.24-.54.36-.92.36h-14.45c-.96,0-1.67-.24-2.11-.71-.44-.47-.66-1.13-.66-1.97v-6.19c0-.44.15-.8.43-1.05.28-.25.63-.38,1.03-.38ZM206.6,768.76c.44-.75,1.09-1.39,1.92-1.9.82-.51,1.84-.9,3.03-1.18,1.19-.27,2.54-.41,4.04-.41,3.05,0,5.44.52,7.1,1.56,1.68,1.05,2.53,2.57,2.53,4.52s-.85,3.48-2.53,4.52c-1.66,1.03-4.05,1.56-7.1,1.56-1.49,0-2.85-.13-4.04-.4-1.19-.26-2.21-.66-3.03-1.18-.83-.52-1.47-1.17-1.92-1.92-.45-.75-.67-1.62-.67-2.59s.23-1.84.67-2.59ZM227.69,782.06c-.23.23-.55.34-.95.34h-9.79v7.61c0,.44-.15.8-.43,1.05-.28.25-.63.38-1.03.38s-.74-.13-1.03-.38c-.29-.26-.43-.61-.43-1.05v-7.61h-9.76c-.4,0-.72-.11-.95-.34-.23-.23-.34-.53-.34-.89s.11-.66.34-.9c.23-.24.55-.36.95-.36h22.47c.4,0,.72.12.95.36.23.24.34.54.34.9s-.11.66-.34.89ZM247.35,782.94c-.09.19-.21.35-.36.47-.15.11-.3.2-.47.27-.17.06-.31.1-.43.12-1.86.44-3.83.77-5.83.97-2,.2-3.97.32-5.84.33-.91,0-1.58-.27-2-.79-.41-.52-.62-1.16-.62-1.92v-5.26c0-.84.22-1.51.66-1.97.44-.47,1.15-.71,2.11-.71h6.28c.21,0,.39-.04.55-.13.16-.09.2-.37.2-.59v-3.55c0-.22-.03-.5-.2-.59-.15-.09-.34-.13-.55-.13h-7.85c-.38,0-.69-.13-.92-.37-.23-.24-.34-.55-.34-.91,0-.34.11-.64.34-.87.23-.24.54-.36.92-.36h8.78c.96,0,1.67.24,2.11.71.44.47.66,1.13.66,1.97v4.65c0,.84-.22,1.51-.66,1.98-.44.47-1.15.71-2.11.71h-6.31c-.21,0-.4.04-.55.13-.16.09-.2.37-.2.59v3.95c0,.34.06.58.19.73.12.14.38.22.76.22,1.56-.04,3.22-.16,4.94-.35,1.72-.19,3.41-.48,5.03-.87.1-.02.23-.04.39-.06.17-.02.35-.01.52.03.18.04.35.13.5.26.16.14.27.33.33.59.06.3.05.55-.03.75ZM253.17,789.86c0,.44-.15.8-.43,1.05-.28.25-.63.38-1.03.38s-.74-.13-1.01-.38c-.28-.26-.42-.61-.42-1.05v-24.01c0-.44.14-.8.42-1.06.27-.26.62-.4,1.02-.4s.75.13,1.03.4c.29.27.43.62.43,1.07v24.01ZM254.41,743.59c-1.22,0-2.28-.23-3.17-.68-.88-.45-1.63-1.1-2.21-1.93-.58-.82-1.01-1.83-1.3-2.99-.28-1.15-.42-2.46-.42-3.88s.14-2.73.42-3.88c.28-1.16.72-2.17,1.3-2.99.58-.83,1.33-1.48,2.21-1.93.89-.45,1.95-.68,3.17-.68s2.25.23,3.15.68c.9.45,1.64,1.1,2.23,1.93.58.82,1.01,1.83,1.3,2.99.28,1.16.43,2.46.43,3.88s-.14,2.72-.43,3.88c-.28,1.16-.72,2.17-1.3,2.99-.58.83-1.33,1.48-2.23,1.93-.9.45-1.96.68-3.15.68ZM279.28,790.94c-.23.24-.54.36-.92.36h-14.59c-.96,0-1.67-.24-2.11-.71-.44-.47-.66-1.13-.66-1.98v-4.59c0-.44.15-.8.43-1.05.28-.25.63-.38,1.03-.38s.74.13,1.03.38c.29.26.43.61.43,1.05v3.78c0,.37.07.64.2.79.13.15.37.22.72.22h13.52c.38,0,.69.12.92.36.23.24.34.54.34.9,0,.34-.11.63-.34.87ZM282.33,780.17c-.23.23-.55.34-.95.34h-22.47c-.4,0-.72-.11-.95-.34-.23-.23-.34-.53-.34-.89s.11-.66.34-.9c.23-.24.55-.36.95-.36h22.47c.4,0,.72.12.95.36.23.24.34.54.34.9s-.11.66-.34.89ZM287.99,748.11c0,.44-.15.8-.43,1.05-.28.25-.63.38-1.03.38s-.74-.13-1.03-.38c-.29-.26-.43-.61-.43-1.05v-7.61h-9.76c-.4,0-.72-.11-.95-.34-.23-.23-.34-.53-.34-.89s.11-.66.34-.9c.23-.24.55-.36.95-.36h22.47c.4,0,.72.12.95.36.23.24.34.54.34.9s-.11.66-.34.89c-.23.23-.55.34-.95.34h-9.79v7.61ZM310.13,782.65c-.09.19-.21.35-.36.47-.15.11-.31.2-.47.27-.17.06-.31.1-.43.12-1.86.44-3.83.77-5.83.97-2,.2-3.96.32-5.84.33-.91,0-1.58-.27-2-.79-.41-.52-.62-1.16-.62-1.92v-12.18c0-.84.22-1.51.66-1.98.44-.47,1.15-.71,2.11-.71h9.59c.38,0,.69.13.92.37.22.25.34.54.34.88,0,.36-.11.66-.34.9-.23.24-.54.36-.92.36h-8.52c-.35,0-.59.07-.72.22-.13.15-.2.42-.2.79v10.58c0,.34.06.58.19.73.12.14.38.22.76.22,1.56-.04,3.22-.16,4.94-.35,1.72-.19,3.41-.48,5.03-.87.1-.02.23-.04.39-.06.17-.02.35-.01.52.03.18.04.35.13.5.26.16.14.27.33.33.59.06.3.05.55-.03.75ZM315.95,789.86c0,.44-.15.8-.43,1.05-.28.25-.63.38-1.03.38s-.74-.13-1.01-.38c-.28-.26-.42-.61-.42-1.05v-13.22h-5.63c-.38,0-.69-.12-.92-.36-.23-.24-.34-.54-.34-.9,0-.34.11-.64.34-.88.23-.25.54-.38.92-.38h5.63v-8.27c0-.44.14-.8.42-1.06.27-.26.62-.4,1.02-.4s.75.13,1.03.4c.29.27.43.62.43,1.07v24.01ZM325.48,748.65c-.11.3-.26.52-.46.65-.19.13-.4.21-.62.24-.11.02-.21.02-.32.02s-.21,0-.31-.02c-.2-.03-.36-.07-.49-.11-.8-.19-1.63-.44-2.44-.73-.81-.29-1.6-.65-2.33-1.06-.73-.41-1.41-.89-2-1.41-.54-.48-1-1.01-1.36-1.57-.37.56-.83,1.09-1.37,1.56-.58.52-1.24.98-1.97,1.4-.72.41-1.5.77-2.31,1.07-.81.3-1.64.55-2.46.75-.11.04-.28.07-.49.1-.21.03-.43.03-.65,0-.22-.03-.43-.11-.62-.24-.2-.13-.34-.35-.43-.65-.07-.28-.06-.52.02-.71.08-.18.18-.34.32-.47.13-.12.29-.23.47-.3.17-.07.31-.12.43-.16.95-.21,1.89-.51,2.8-.88.91-.37,1.73-.83,2.44-1.36.71-.53,1.29-1.15,1.73-1.85.43-.7.65-1.49.65-2.38v-.32c0-.44.14-.8.42-1.06.27-.26.62-.4,1.02-.4s.75.13,1.03.4c.29.27.43.62.43,1.07v.32c0,.88.22,1.68.65,2.38.44.7,1.02,1.33,1.73,1.87.71.54,1.54,1,2.44,1.36s1.85.66,2.79.87c.15.04.3.1.47.17.17.07.34.17.48.3.15.13.26.3.33.49.07.2.06.43-.03.69ZM336.84,785.48c-1.22,0-2.28-.23-3.17-.68-.89-.45-1.63-1.1-2.21-1.93-.58-.82-1.01-1.83-1.3-2.99-.28-1.16-.43-2.46-.43-3.88s.14-2.72.43-3.88c.28-1.16.72-2.17,1.3-2.99.58-.83,1.32-1.47,2.21-1.93.89-.45,1.95-.68,3.17-.68s2.25.23,3.15.68c.9.45,1.65,1.1,2.23,1.93.58.83,1.02,1.83,1.3,2.99.28,1.16.42,2.47.42,3.88s-.14,2.72-.42,3.88c-.28,1.16-.72,2.17-1.3,2.99-.58.83-1.33,1.48-2.23,1.93-.9.45-1.96.68-3.15.68ZM351.47,865.49c-.21.86-.53,1.6-.96,2.22-.43.61-.99,1.1-1.65,1.43-.67.34-1.45.51-2.34.51s-1.69-.17-2.35-.51c-.66-.34-1.21-.82-1.64-1.43-.43-.61-.75-1.35-.96-2.22-.21-.85-.31-1.82-.31-2.87s.11-2.01.31-2.87c.21-.86.53-1.61.96-2.22.43-.61.98-1.1,1.64-1.43.66-.34,1.45-.51,2.35-.51s1.67.17,2.34.51c.66.34,1.22.82,1.65,1.43.43.61.75,1.36.96,2.22.21.86.31,1.82.31,2.87s-.11,2.01-.31,2.87ZM348.52,789.86v-24.01c0-.44.14-.8.42-1.06.27-.26.62-.4,1.02-.4s.75.13,1.03.4c.29.27.43.62.43,1.07v24.01c0,.44-.15.8-.43,1.05-.28.25-.63.38-1.03.38s-.74-.13-1.01-.38c-.28-.26-.42-.61-.42-1.05ZM353.37,745.57c-.23.23-.55.34-.95.34h-22.47c-.4,0-.72-.11-.95-.34-.23-.23-.34-.53-.34-.89s.11-.66.34-.9c.23-.24.55-.36.95-.36h9.85v-5.74h-4.85c-.96,0-1.67-.24-2.11-.71-.44-.47-.66-1.13-.66-1.97v-7.79c0-.84.22-1.51.66-1.97.44-.47,1.15-.71,2.11-.71h14.01c.38,0,.69.13.92.37h0c.22.25.34.54.34.88,0,.36-.11.66-.34.89-.23.23-.53.34-.92.34h-12.93c-.35,0-.59.07-.72.22-.13.15-.2.41-.2.79v6.16c0,.38.07.64.2.79.13.15.37.22.72.22h13.2c.38,0,.69.12.92.36.23.24.34.54.34.9,0,.34-.11.64-.34.87-.23.24-.54.36-.92.36h-6.5v5.74h9.7c.4,0,.72.12.95.36.23.24.34.54.34.9s-.11.66-.34.89ZM359.86,863.2c-.17.18-.41.27-.7.27h-2.51v9.36c0,.34-.11.61-.33.8-.22.19-.48.29-.78.29s-.56-.1-.77-.29c-.21-.2-.32-.46-.32-.8v-17.69c0-.33.11-.6.32-.81.21-.2.47-.3.77-.3s.56.1.78.3c.22.2.33.47.33.81v6.41h2.51c.29,0,.53.1.7.29.17.19.26.41.26.67,0,.28-.09.51-.26.69ZM358.69,786.14c0-1.75.87-3.11,2.58-4.05,1.69-.93,4.06-1.4,7.05-1.4s5.36.47,7.05,1.4c1.71.94,2.58,2.3,2.58,4.05s-.87,3.11-2.58,4.05c-1.69.93-4.06,1.4-7.05,1.4s-5.36-.47-7.05-1.4c-1.71-.94-2.58-2.3-2.58-4.05ZM377.85,855.15v12.61c0,.34-.11.61-.33.8-.22.19-.48.29-.78.29s-.56-.1-.77-.29c-.21-.2-.32-.46-.32-.8v-12.61c0-.33.11-.6.32-.81.21-.2.47-.3.77-.3s.56.1.78.3c.22.2.33.47.33.81ZM362.23,862.08c-.28-.62-.42-1.32-.42-2.1s.14-1.46.42-2.08c.28-.63.65-1.17,1.12-1.61.47-.44,1.03-.79,1.66-1.03,1.26-.48,2.78-.48,4.06,0,.64.24,1.2.58,1.67,1.02s.84.98,1.12,1.6c.28.63.42,1.34.42,2.11s-.14,1.48-.42,2.11c-.28.63-.65,1.17-1.12,1.6-.47.44-1.03.78-1.67,1.02-.64.24-1.32.36-2.04.36s-1.39-.12-2.02-.36c-.63-.24-1.19-.59-1.66-1.03-.47-.44-.84-.98-1.12-1.6ZM378.02,873.43c-.17.18-.41.27-.7.27h-10.64c-.72,0-1.25-.18-1.58-.53-.33-.35-.49-.85-.49-1.48v-3.85c0-.33.11-.6.33-.8.22-.19.48-.29.78-.29s.56.1.78.29c.22.19.33.46.33.8v3.25c0,.27.05.46.14.56.09.1.26.15.51.15h9.85c.29,0,.53.09.7.27.17.18.26.41.26.69,0,.26-.09.48-.26.67ZM377.28,773.33v5.69c0,.44-.15.8-.43,1.05-.28.25-.63.38-1.03.38s-.74-.13-1.01-.38c-.28-.26-.42-.61-.42-1.05v-13.17c0-.44.14-.8.42-1.06.27-.26.62-.4,1.02-.4s.75.13,1.03.4c.29.27.43.62.43,1.07v4.99h3.16c.38,0,.69.12.92.36.23.24.34.53.34.87,0,.36-.11.67-.34.9-.23.24-.54.36-.92.36h-3.16ZM399.32,867.11c-.17.17-.42.26-.72.26h-3.77v5.57c0,.34-.11.61-.33.8-.21.19-.48.29-.78.29s-.56-.1-.78-.29c-.22-.19-.33-.46-.33-.8v-5.57h-4.46v5.57c0,.34-.11.61-.33.8-.22.19-.48.29-.78.29s-.56-.1-.78-.29c-.22-.2-.33-.47-.33-.8v-5.57h-3.88c-.31,0-.55-.09-.72-.26-.17-.17-.26-.4-.26-.68s.09-.51.26-.69c.17-.18.41-.27.72-.27h16.55c.3,0,.55.09.72.27.17.18.26.41.26.69s-.09.5-.26.68ZM413.17,867.79c-.06.15-.16.27-.27.36-.11.09-.23.15-.36.2-.12.05-.23.08-.32.09-1.37.33-2.79.56-4.19.7-1.41.14-2.82.21-4.2.23-.68,0-1.18-.2-1.5-.59-.31-.38-.47-.87-.47-1.44v-9.4c0-.63.17-1.13.49-1.48.33-.35.86-.53,1.58-.53h7.07c.29,0,.53.1.7.29.17.19.26.41.26.67,0,.27-.09.5-.26.69-.17.18-.41.27-.7.27h-6.27c-.25,0-.42.05-.51.15-.09.1-.14.29-.14.56v2.77h6.71c.29,0,.53.1.7.29.17.19.26.41.26.67,0,.28-.09.51-.26.69-.17.18-.41.27-.7.27h-6.71v3.54c0,.24.04.42.13.52.08.1.27.15.54.15,1.14-.03,2.33-.11,3.53-.24,1.2-.13,2.4-.33,3.59-.62.08-.02.17-.03.29-.05.13-.02.26,0,.4.02.14.03.27.1.39.2.12.1.21.26.25.45.05.23.04.42-.03.57ZM414.43,790.65c-.23.24-.54.36-.92.36h-14.45c-.96,0-1.67-.24-2.11-.71-.44-.47-.66-1.13-.66-1.97v-5.23c0-.44.15-.8.43-1.05.28-.25.63-.38,1.03-.38s.74.13,1.03.38c.29.26.43.61.43,1.05v4.42c0,.38.07.64.2.79.13.15.37.22.72.22h13.37c.38,0,.69.12.92.36.23.24.34.54.34.9,0,.34-.11.63-.34.87ZM420.24,863.2c-.17.18-.41.27-.7.27h-2.51v9.36c0,.34-.11.61-.33.8-.22.19-.48.29-.78.29s-.56-.1-.77-.29c-.21-.2-.32-.46-.32-.8v-17.69c0-.33.11-.6.32-.81.21-.2.47-.3.77-.3s.56.1.78.3c.22.2.33.47.33.81v6.41h2.51c.29,0,.53.1.7.29.17.19.26.41.26.67,0,.28-.09.51-.26.69ZM420.86,779.89c-.13.02-.26.03-.39.03-.05,0-.09,0-.14,0-.2-.01-.38-.07-.55-.18-.18-.11-.32-.28-.43-.52-.1-.21-.15-.42-.13-.6.02-.19.08-.35.17-.48.09-.13.19-.24.32-.34.12-.09.23-.17.33-.23.83-.41,1.6-.86,2.3-1.36.69-.49,1.3-1.06,1.8-1.69.5-.63.9-1.33,1.19-2.09.28-.76.43-1.6.43-2.51v-1.27h-4.73c-.4,0-.72-.12-.95-.36-.23-.24-.34-.54-.34-.9s.11-.66.34-.9c.23-.24.55-.36.95-.36h12.32c.4,0,.72.12.95.36.23.24.34.54.34.9s-.11.66-.34.9c-.23.24-.55.36-.95.36h-4.67v1.15c0,.89.16,1.71.47,2.44.31.73.73,1.4,1.24,1.99s1.11,1.1,1.76,1.53c.66.43,1.35.78,2.05,1.05.09.05.19.11.29.19.11.09.2.19.29.32.09.13.14.3.15.48.01.19-.04.39-.14.6-.11.23-.25.41-.44.52-.18.1-.36.17-.55.2-.19.03-.37.03-.54,0-.17-.03-.29-.07-.38-.11-1.04-.38-2.1-.99-3.13-1.79-.98-.76-1.8-1.71-2.45-2.85-.27.55-.6,1.07-.98,1.55-.43.55-.92,1.06-1.46,1.53-.54.47-1.12.9-1.74,1.29-.62.39-1.26.73-1.9,1.02-.08.04-.21.08-.38.11ZM422.62,862.08c-.28-.62-.42-1.32-.42-2.1s.14-1.46.42-2.08c.28-.63.65-1.17,1.12-1.61.47-.44,1.03-.79,1.66-1.03,1.26-.48,2.78-.48,4.06,0,.64.24,1.2.58,1.67,1.02s.84.98,1.12,1.6c.28.63.42,1.34.42,2.11s-.14,1.48-.42,2.11c-.28.63-.65,1.17-1.12,1.6-.47.44-1.03.78-1.67,1.02-.64.24-1.32.36-2.04.36s-1.39-.12-2.02-.36c-.63-.24-1.19-.59-1.66-1.03-.47-.44-.84-.98-1.12-1.6ZM438.4,873.43c-.17.18-.41.27-.7.27h-10.64c-.72,0-1.25-.18-1.58-.53-.33-.35-.49-.85-.49-1.48v-3.85c0-.33.11-.6.33-.8.22-.19.48-.29.78-.29s.56.1.78.29c.22.19.33.46.33.8v3.25c0,.27.05.46.14.56.09.1.26.15.51.15h9.85c.29,0,.53.09.7.27.17.18.26.41.26.69,0,.26-.09.48-.26.67ZM436.03,867.76v-12.61c0-.33.11-.6.32-.81.21-.2.47-.3.77-.3s.56.1.78.3c.22.2.33.47.33.81v12.61c0,.34-.11.61-.33.8-.22.19-.48.29-.78.29s-.56-.1-.77-.29c-.21-.2-.32-.46-.32-.8ZM441.75,790.65c-.23.24-.54.36-.92.36h-14.45c-.96,0-1.67-.24-2.11-.71-.44-.47-.66-1.13-.66-1.97v-5.23c0-.44.15-.8.43-1.05.28-.25.63-.38,1.03-.38s.74.13,1.03.38c.29.26.43.61.43,1.05v4.42c0,.38.07.64.2.79.13.15.37.22.72.22h13.37c.38,0,.69.12.92.36.23.24.34.54.34.9,0,.34-.11.63-.34.87ZM446.4,770.42c-.23-.24-.34-.54-.34-.9s.11-.66.34-.9c.23-.24.55-.36.95-.36h13.2c.4,0,.72.12.95.36.23.24.34.54.34.9s-.11.66-.34.9c-.23.24-.55.36-.95.36h-13.2c-.4,0-.72-.12-.95-.36ZM447.86,775.74c0-1.34.56-2.38,1.67-3.11,1.09-.72,2.58-1.08,4.41-1.08s3.37.35,4.46,1.05c1.1.71,1.66,1.77,1.66,3.14s-.56,2.43-1.66,3.14c-1.08.7-2.58,1.05-4.46,1.05s-3.32-.36-4.41-1.08c-1.11-.73-1.67-1.78-1.67-3.11ZM467.62,790.95c-.23.23-.54.34-.92.34h-14.15c-.96,0-1.67-.24-2.11-.71-.44-.47-.66-1.13-.66-1.98v-1.02c0-.84.22-1.51.66-1.97.44-.47,1.15-.71,2.11-.71h11.31c.21,0,.39-.03.51-.09.09-.04.14-.21.14-.48v-.26c0-.27-.05-.44-.15-.48-.13-.06-.3-.09-.51-.09h-12.82c-.38,0-.69-.12-.92-.34-.23-.23-.34-.53-.34-.89,0-.34.11-.63.34-.86.23-.23.53-.34.92-.34h13.57c.96,0,1.67.24,2.11.71.44.47.66,1.13.66,1.98v.9c0,.84-.22,1.51-.66,1.97-.44.47-1.15.71-2.11.71h-11.25c-.21,0-.39.03-.53.09-.13.06-.16.29-.16.48v.38c0,.19.03.42.16.48.14.06.32.09.53.09h13.34c.38,0,.69.12.92.34.23.23.34.53.34.89,0,.34-.11.63-.34.86ZM471.46,773.27c-.23.24-.53.36-.92.36h-3.16v5.11c0,.44-.15.8-.43,1.05-.28.25-.63.38-1.03.38s-.74-.13-1.01-.38c-.28-.26-.42-.61-.42-1.05v-12.88c0-.44.14-.8.42-1.06.27-.26.62-.4,1.02-.4s.75.13,1.03.4c.29.27.43.62.43,1.07v5.28h3.16c.38,0,.69.12.92.36.23.24.34.53.34.87,0,.36-.11.67-.34.9ZM475.82,748.01c-.28.44-.66.8-1.12,1.09-.45.28-.99.49-1.61.63-.61.14-1.25.21-1.92.21s-1.34-.07-1.95-.21c-.61-.14-1.16-.35-1.62-.62-.47-.28-.85-.65-1.12-1.09-.27-.44-.41-.96-.41-1.55s.14-1.13.41-1.56c.27-.43.65-.79,1.12-1.07.46-.28,1.01-.49,1.62-.62,1.2-.27,2.63-.28,3.86,0,.61.14,1.15.35,1.61.63.46.28.84.64,1.12,1.07.28.43.43.96.43,1.57s-.14,1.11-.43,1.55ZM477.6,742.1c-.22.22-.51.33-.87.33h-11.16c-.36,0-.65-.11-.87-.33-.22-.21-.33-.5-.33-.84,0-.32.11-.6.33-.83.22-.23.51-.34.87-.34h11.16c.36,0,.66.12.88.34.21.23.32.5.32.83,0,.34-.11.63-.33.84ZM479.71,730.5c-.23.24-.53.36-.92.36h-3.16v3.65c0,.44-.15.8-.43,1.05-.28.25-.63.38-1.03.38s-.74-.13-1.01-.38c-.28-.26-.42-.61-.42-1.05v-10.55c0-.44.14-.8.42-1.06.27-.26.62-.4,1.02-.4s.75.13,1.03.4c.29.27.43.62.43,1.07v4.41h3.16c.38,0,.69.12.92.36.23.24.34.53.34.87,0,.36-.11.67-.34.9ZM506.13,782.06c-.23.23-.55.34-.95.34h-9.79v7.61c0,.44-.15.8-.43,1.05-.28.25-.63.38-1.03.38s-.74-.13-1.03-.38c-.29-.26-.43-.61-.43-1.05v-7.61h-9.76c-.4,0-.72-.11-.95-.34-.23-.23-.34-.53-.34-.89s.11-.66.34-.9c.23-.24.55-.36.95-.36h22.47c.4,0,.72.12.95.36.23.24.34.54.34.9s-.11.66-.34.89ZM496.11,769.92c.42.79.99,1.52,1.7,2.14.72.63,1.56,1.18,2.5,1.62.95.45,1.95.82,2.99,1.11.08.02.19.07.33.14.14.07.27.17.39.3.13.13.22.29.28.47.06.19.04.41-.04.64-.08.27-.21.48-.37.61-.16.13-.33.22-.51.27-.18.05-.36.07-.52.05-.15-.02-.26-.04-.32-.06-.97-.23-1.91-.54-2.8-.92-.89-.38-1.73-.83-2.48-1.35-.75-.52-1.42-1.09-2-1.72-.51-.56-.94-1.16-1.26-1.78-.32.64-.75,1.25-1.28,1.81-.59.63-1.27,1.2-2.03,1.7-.76.51-1.6.96-2.51,1.33-.91.38-1.85.69-2.79.92-.06.02-.17.04-.32.06-.05,0-.11.01-.16.01-.11,0-.22-.01-.33-.04-.17-.04-.34-.13-.5-.26-.17-.13-.29-.34-.38-.61-.08-.23-.1-.45-.04-.64.05-.18.14-.34.28-.47.13-.13.26-.23.39-.3.13-.07.24-.12.33-.14,1.03-.29,2.04-.66,2.99-1.11.94-.45,1.78-.99,2.5-1.62.71-.63,1.29-1.35,1.72-2.16.42-.8.64-1.72.64-2.72v-.29c0-.48.15-.86.45-1.12.29-.26.65-.4,1.07-.4s.77.13,1.05.4c.28.27.42.64.42,1.12v.29c0,1,.21,1.91.62,2.7ZM506.25,745.57c-.23.23-.55.34-.95.34h-22.47c-.4,0-.72-.11-.95-.34-.23-.23-.34-.53-.34-.89s.11-.66.34-.9c.23-.24.55-.36.95-.36h22.47c.4,0,.72.12.95.36.23.24.34.54.34.9s-.11.66-.34.89ZM510.71,736.4c-.44-.47-.66-1.13-.66-1.97v-7.5c0-.84.22-1.51.66-1.97.44-.47,1.15-.71,2.11-.71h7.76c.96,0,1.67.24,2.11.71.44.47.66,1.13.66,1.97v7.5c0,.84-.22,1.51-.66,1.97-.44.47-1.15.71-2.11.71h-7.76c-.96,0-1.67-.24-2.11-.71ZM514.49,748.4c-.44-.47-.66-1.13-.66-1.97v-5.23c0-.44.15-.8.43-1.05.28-.25.63-.38,1.03-.38s.74.13,1.03.38c.29.26.43.61.43,1.05v4.42c0,.38.07.64.2.79.13.15.37.22.72.22h13.37c.38,0,.69.12.92.36.22.24.34.54.34.9,0,.34-.11.63-.34.87-.23.24-.54.36-.92.36h-14.45c-.96,0-1.67-.24-2.11-.71ZM518.31,774.39c-.35-.77-.52-1.63-.52-2.55s.18-1.78.52-2.55c.34-.77.83-1.44,1.45-1.99.62-.55,1.37-.98,2.22-1.29.85-.3,1.81-.46,2.85-.46s2,.15,2.86.46c.87.3,1.62.74,2.23,1.29.62.55,1.11,1.22,1.46,1.99.35.77.52,1.63.52,2.55s-.18,1.78-.52,2.55c-.34.77-.83,1.44-1.45,1.99-.62.55-1.37.98-2.23,1.29-.86.3-1.82.46-2.86.46s-1.99-.15-2.85-.46c-.85-.3-1.6-.74-2.22-1.29-.62-.55-1.11-1.22-1.46-1.99ZM530.33,788.61c0,.84-.22,1.51-.66,1.98-.44.47-1.15.71-2.11.71h-4.39c-.96,0-1.67-.24-2.11-.71-.44-.47-.66-1.13-.66-1.98v-7.12c0-.44.15-.8.43-1.05.28-.25.63-.38,1.03-.38s.74.13,1.03.38c.29.26.43.61.43,1.05v1.91h4.11v-1.91c0-.44.14-.8.42-1.05.27-.25.62-.38,1.02-.38s.74.13,1.03.38c.29.26.43.61.43,1.05v7.12ZM542.01,790.56c-.16.26-.34.43-.55.51-.2.07-.41.1-.62.08-.21-.02-.41-.07-.59-.16-.19-.08-.32-.15-.42-.21-.69-.39-1.34-.94-1.94-1.62-.53-.61-.96-1.25-1.28-1.91-.7,1.48-1.86,2.76-3.45,3.82-.1.06-.24.13-.43.2-.19.07-.38.12-.57.14-.04,0-.09,0-.13,0-.16,0-.32-.03-.48-.09-.21-.08-.39-.24-.52-.48-.13-.21-.18-.42-.14-.61.03-.17.1-.33.19-.48.09-.15.21-.27.34-.37.1-.08.19-.15.25-.21.65-.42,1.19-.87,1.62-1.36.44-.5.81-1.02,1.09-1.56.28-.54.5-1.1.63-1.66.13-.56.2-1.11.2-1.64v-1.51c0-.42.14-.76.4-1.02.27-.25.59-.38.97-.38s.71.13.99.38c.28.26.42.6.42,1.02v1.63c0,1.08.25,2.14.73,3.16.48,1.01,1.34,1.9,2.55,2.64.08.04.19.11.31.21.12.1.23.22.34.35.11.14.18.31.21.49.03.19,0,.4-.11.62ZM560.96,782.65c-.09.19-.21.35-.36.47-.15.11-.31.2-.47.27-.17.06-.31.1-.43.12-1.86.44-3.83.77-5.83.97-2,.2-3.96.32-5.84.33-.91,0-1.58-.26-2-.79-.41-.52-.62-1.16-.62-1.92v-12.18c0-.84.22-1.51.66-1.98.44-.47,1.15-.71,2.11-.71h9.59c.38,0,.69.13.92.37.23.25.34.54.34.88,0,.36-.11.67-.34.9-.23.24-.53.36-.92.36h-8.52c-.35,0-.59.07-.72.22-.13.15-.2.42-.2.79v10.58c0,.33.06.58.19.73.12.14.38.22.76.22,1.56-.04,3.22-.16,4.94-.35,1.72-.19,3.41-.48,5.03-.87.1-.02.23-.04.39-.06.17-.02.34-.01.52.03.18.04.35.13.5.26.16.13.27.33.33.59.06.3.05.55-.04.75ZM569.99,776.75c-.23.24-.54.36-.92.36h-3.45v12.75c0,.44-.15.8-.43,1.05-.28.25-.63.38-1.03.38s-.74-.13-1.01-.38c-.28-.26-.42-.61-.42-1.05v-24.01c0-.44.14-.8.42-1.06.27-.26.62-.4,1.02-.4s.75.13,1.03.4c.29.27.43.62.43,1.07v8.74h3.45c.38,0,.69.13.92.38.22.25.34.54.34.88,0,.36-.11.66-.34.9ZM576.06,788.31c-.38.38-.86.57-1.41.57s-1.03-.19-1.42-.57c-.39-.38-.59-.86-.59-1.41s.2-1.03.59-1.43c.39-.39.87-.59,1.43-.59s1.03.2,1.41.59c.38.39.57.87.57,1.42s-.19,1.03-.57,1.41Z" style="fill: #ff73b0;"/>
        <path d="M632.07,693.47c-26.92-26.92-62.71-41.74-100.77-41.74H248.18c-38.07,0-73.86,14.82-100.77,41.74-26.92,26.92-41.74,62.71-41.74,100.77s14.82,73.86,41.74,100.77,62.71,41.74,100.77,41.74h283.12c38.07,0,73.86-14.82,100.77-41.74,26.92-26.92,41.74-62.71,41.74-100.77s-14.82-73.86-41.74-100.77ZM531.3,908.76H248.18c-63.25,0-114.52-51.27-114.52-114.52h0c0-63.25,51.27-114.52,114.52-114.52h283.12c63.25,0,114.52,51.27,114.52,114.52h0c0,63.25-51.27,114.52-114.52,114.52Z" style="fill: #fae585;"/>
        <path d="M266.65,749.4c.4,0,.74-.13,1.03-.38.29-.26.43-.61.43-1.05v-12.75h3.45c.38,0,.69-.12.92-.36.23-.24.34-.54.34-.9,0-.34-.11-.64-.34-.88-.23-.25-.54-.38-.92-.38h-3.45v-8.74c0-.44-.15-.8-.43-1.07-.28-.26-.63-.4-1.03-.4s-.74.13-1.02.4c-.28.27-.42.62-.42,1.06v24.01c0,.44.14.8.42,1.05.27.25.62.38,1.01.38Z" style="fill: #fff;"/>
        <path d="M259.79,740.98c.58-.82,1.01-1.83,1.3-2.99.28-1.16.43-2.46.43-3.88s-.14-2.72-.43-3.88c-.28-1.16-.72-2.17-1.3-2.99-.58-.83-1.33-1.48-2.23-1.93-.9-.45-1.96-.68-3.15-.68s-2.28.23-3.17.68c-.89.45-1.63,1.1-2.21,1.93-.58.82-1.01,1.83-1.3,2.99-.28,1.15-.42,2.46-.42,3.88s.14,2.73.42,3.88c.28,1.16.72,2.17,1.3,2.99.58.83,1.33,1.48,2.21,1.93.88.45,1.95.68,3.17.68s2.26-.23,3.15-.68c.9-.45,1.64-1.1,2.23-1.93ZM257.56,739.24c-.69,1.16-1.75,1.74-3.15,1.74s-2.46-.59-3.15-1.74c-.7-1.17-1.06-2.9-1.06-5.14s.36-3.96,1.06-5.14c.69-1.15,1.75-1.74,3.15-1.74s2.46.59,3.15,1.74c.7,1.18,1.06,2.9,1.06,5.14s-.36,3.96-1.06,5.14Z" style="fill: #fff;"/>
        <path d="M280.31,735.1h12.61c.96,0,1.67-.24,2.11-.71.44-.47.66-1.13.66-1.97v-5.93c0-.84-.22-1.51-.66-1.97-.44-.47-1.15-.71-2.11-.71h-12.61c-.96,0-1.67.24-2.11.71-.44.47-.66,1.13-.66,1.97v5.93c0,.84.22,1.51.66,1.97.44.47,1.15.71,2.11.71ZM280.46,727.3c0-.37.07-.64.2-.79.13-.15.37-.22.72-.22h10.46c.35,0,.59.07.72.22.13.15.2.42.2.79v4.33c0,.37-.07.64-.2.79-.13.15-.37.22-.72.22h-10.46c-.35,0-.59-.07-.72-.22-.13-.15-.2-.41-.2-.79v-4.33Z" style="fill: #fff;"/>
        <path d="M298.72,740.17c.23-.23.34-.53.34-.89s-.11-.66-.34-.9c-.23-.24-.55-.36-.95-.36h-22.47c-.4,0-.72.12-.95.36-.23.24-.34.54-.34.9s.11.66.34.89c.23.23.55.34.95.34h9.76v7.61c0,.44.15.8.43,1.05.28.25.63.38,1.03.38s.74-.13,1.03-.38c.29-.26.43-.61.43-1.05v-7.61h9.79c.4,0,.72-.11.95-.34Z" style="fill: #fff;"/>
        <path d="M302.8,739.15c.19.11.4.17.61.18.04,0,.07,0,.1,0,.17,0,.32-.02.46-.07.16-.05.29-.09.38-.13,1.47-.54,2.87-1.23,4.17-2.05,1.29-.81,2.45-1.75,3.45-2.79,1-1.04,1.84-2.19,2.49-3.43.65-1.24,1.08-2.57,1.28-3.95.14-.91-.02-1.59-.47-2.03-.45-.43-1.16-.65-2.12-.65h-8.78c-.4,0-.72.12-.95.36-.23.24-.34.54-.34.9s.11.66.34.89c.23.23.54.34.95.34h7.56c.35,0,.59.08.72.24.13.17.15.46.04.85-.27.97-.71,1.93-1.31,2.84-.6.92-1.33,1.78-2.16,2.56-.83.78-1.78,1.5-2.81,2.14-1.04.63-2.13,1.17-3.27,1.59-.1.04-.22.1-.34.19-.13.09-.24.19-.34.31-.11.13-.19.29-.23.47-.05.19-.01.41.09.65.13.28.29.47.49.58Z" style="fill: #fff;"/>
        <path d="M317.13,732.72h4.18v5.86c0,.44.14.8.42,1.05.27.25.62.38,1.01.38s.74-.13,1.03-.38c.29-.26.43-.61.43-1.05v-14.62c0-.44-.15-.8-.43-1.07-.28-.26-.63-.4-1.03-.4s-.74.13-1.02.4c-.28.27-.42.62-.42,1.06v6.24h-4.18c-.38,0-.69.13-.92.38-.22.25-.34.54-.34.88,0,.36.11.66.34.9.23.24.54.36.92.36Z" style="fill: #fff;"/>
        <path d="M325.18,747.47c-.15-.12-.31-.22-.48-.3-.17-.07-.32-.12-.47-.17-.94-.21-1.88-.5-2.79-.87s-1.73-.82-2.44-1.36c-.71-.54-1.29-1.17-1.73-1.87-.43-.69-.65-1.49-.65-2.38v-.32c0-.44-.15-.8-.43-1.07-.28-.26-.63-.4-1.03-.4s-.74.13-1.02.4c-.28.27-.42.62-.42,1.06v.32c0,.88-.22,1.68-.65,2.38-.44.7-1.02,1.32-1.73,1.85-.71.53-1.54.99-2.44,1.36-.91.37-1.84.67-2.8.88-.12.04-.26.09-.43.16-.18.07-.34.18-.47.3-.14.13-.25.28-.32.47-.08.19-.08.42-.02.71.08.3.23.52.43.65.19.13.4.21.62.24.22.03.43.03.65,0,.21-.03.38-.07.49-.1.82-.19,1.64-.45,2.46-.75.82-.3,1.6-.66,2.31-1.07.72-.41,1.39-.88,1.97-1.4.54-.47,1-1,1.37-1.56.36.57.82,1.09,1.36,1.57.59.52,1.27,1,2,1.41.73.41,1.52.77,2.33,1.06.82.29,1.64.54,2.44.73.12.04.28.08.49.11.1.02.21.02.31.02s.21,0,.32-.02c.22-.03.43-.11.62-.24.2-.13.35-.34.46-.65.08-.26.09-.49.03-.69-.06-.19-.17-.36-.33-.49Z" style="fill: #fff;"/>
        <path d="M352.42,743.43h-9.7v-5.74h6.5c.38,0,.69-.12.92-.36.23-.24.34-.53.34-.87,0-.36-.11-.66-.34-.9-.23-.24-.54-.36-.92-.36h-13.2c-.35,0-.59-.07-.72-.22-.13-.15-.2-.41-.2-.79v-6.16c0-.38.07-.64.2-.79.13-.15.37-.22.72-.22h12.93c.38,0,.69-.12.92-.34.23-.23.34-.52.34-.89,0-.34-.11-.64-.34-.88h0c-.23-.25-.54-.38-.92-.38h-14.01c-.96,0-1.67.24-2.11.71-.44.47-.66,1.13-.66,1.97v7.79c0,.84.22,1.51.66,1.97.44.47,1.15.71,2.11.71h4.85v5.74h-9.85c-.4,0-.72.12-.95.36-.23.24-.34.54-.34.9s.11.66.34.89c.23.23.55.34.95.34h22.47c.4,0,.72-.11.95-.34.23-.23.34-.53.34-.89s-.11-.66-.34-.9c-.23-.24-.55-.36-.95-.36Z" style="fill: #fff;"/>
        <path d="M364.93,744.29c.15.06.3.09.45.09.04,0,.09,0,.13,0,.18-.02.36-.06.51-.12.16-.06.27-.13.36-.19.49-.35.98-.77,1.47-1.25.48-.47.94-1.01,1.37-1.59.42-.57.8-1.19,1.14-1.85.28-.54.52-1.1.7-1.68.21.54.45,1.07.74,1.58.35.63.72,1.22,1.11,1.76.39.54.82,1.04,1.26,1.5.44.45.88.83,1.31,1.15.08.06.2.13.36.19.16.06.33.1.51.12.19.02.39,0,.58-.08.2-.08.37-.22.52-.44.15-.21.23-.42.24-.62.01-.19-.02-.37-.08-.53-.06-.16-.14-.3-.24-.41-.1-.12-.18-.2-.24-.24-1.7-1.28-2.92-2.81-3.64-4.54-.72-1.74-1.08-3.66-1.08-5.71v-.81h3.89c.4,0,.72-.12.95-.36.23-.24.34-.54.34-.9s-.11-.66-.34-.9c-.23-.24-.55-.36-.95-.36h-10.58c-.4,0-.72.12-.95.36-.23.24-.34.54-.34.9s.11.66.34.9c.23.24.54.36.95.36h3.86v.86c0,2.14-.38,4.15-1.13,5.95-.74,1.8-1.99,3.35-3.7,4.61-.07.05-.15.12-.26.24-.11.12-.2.26-.26.42-.07.16-.09.34-.08.53.01.2.09.4.24.62.15.21.32.36.52.44Z" style="fill: #fff;"/>
        <path d="M380.7,748.15c.38,0,.71-.12.98-.37.28-.25.42-.6.42-1.04v-11.53h2.66v12.87c0,.44.14.79.42,1.04.27.24.62.37,1.01.37.38,0,.71-.12.98-.37.28-.25.42-.6.42-1.04v-24.15c0-.44-.14-.8-.42-1.05-.27-.25-.61-.38-.99-.38-.4,0-.74.13-1.02.38-.28.26-.42.61-.42,1.05v8.8h-2.66v-8.22c0-.44-.14-.79-.42-1.05-.27-.25-.61-.38-.99-.38-.4,0-.74.13-1,.38-.27.26-.4.61-.4,1.05v22.23c0,.44.14.79.4,1.04.27.24.6.37,1,.37Z" style="fill: #fff;"/>
        <path d="M368,726.41h5.9c.4,0,.72-.12.95-.36.23-.24.34-.54.34-.9s-.11-.66-.34-.9c-.23-.24-.55-.36-.95-.36h-5.9c-.4,0-.72.12-.95.36-.23.24-.34.54-.34.9s.11.66.34.9c.23.24.55.36.95.36Z" style="fill: #fff;"/>
        <path d="M396.97,733.96c.82.52,1.84.92,3.03,1.18,1.18.26,2.54.4,4.04.4,3.05,0,5.44-.52,7.1-1.56,1.68-1.05,2.53-2.57,2.53-4.52s-.85-3.48-2.53-4.52c-1.66-1.03-4.05-1.56-7.1-1.56-1.49,0-2.85.14-4.04.41-1.19.27-2.21.67-3.03,1.18-.83.51-1.47,1.15-1.92,1.9-.45.75-.67,1.63-.67,2.59s.23,1.84.67,2.59c.44.75,1.09,1.4,1.92,1.92ZM399.04,726.73c1.18-.64,2.86-.96,5-.96s3.79.32,4.97.96c1.17.63,1.74,1.52,1.74,2.72s-.57,2.07-1.74,2.71c-1.18.65-2.85.97-4.97.97s-3.82-.33-5-.97c-1.17-.64-1.74-1.53-1.74-2.71s.57-2.09,1.74-2.72Z" style="fill: #fff;"/>
        <path d="M392.73,740.51h9.76v7.61c0,.44.15.8.43,1.05.28.25.63.38,1.03.38s.74-.13,1.03-.38c.29-.26.43-.61.43-1.05v-7.61h9.79c.4,0,.72-.11.95-.34.23-.23.34-.53.34-.89s-.11-.66-.34-.9c-.23-.24-.55-.36-.95-.36h-22.47c-.4,0-.72.12-.95.36-.23.24-.34.54-.34.9s.11.66.34.89c.23.23.55.34.95.34Z" style="fill: #fff;"/>
        <path d="M440.17,749.4c.4,0,.74-.13,1.03-.38.29-.26.43-.61.43-1.05v-24.01c0-.44-.15-.8-.43-1.07-.28-.26-.63-.4-1.03-.4s-.74.13-1.02.4c-.28.27-.42.62-.42,1.06v24.01c0,.44.14.8.42,1.05.27.25.62.38,1.01.38Z" style="fill: #fff;"/>
        <path d="M419.74,743.32c.15.05.3.07.45.07.05,0,.1,0,.15,0,.2-.02.38-.07.55-.14.17-.07.29-.14.37-.2.62-.43,1.25-.93,1.86-1.49.61-.56,1.2-1.18,1.75-1.83.55-.65,1.05-1.34,1.49-2.05.38-.61.7-1.24.95-1.88.24.6.54,1.2.9,1.78.42.68.89,1.34,1.42,1.98.53.63,1.09,1.23,1.68,1.77.59.55,1.2,1.04,1.8,1.46.08.06.21.13.36.2.16.08.33.12.52.13.19.01.38-.01.58-.08.21-.07.4-.21.57-.43.15-.21.23-.43.24-.63.01-.2-.02-.38-.08-.55-.06-.16-.15-.3-.26-.42-.1-.11-.19-.2-.28-.27-1.86-1.32-3.33-2.9-4.38-4.68-1.05-1.78-1.58-3.86-1.58-6.17v-2.17h4.67c.4,0,.72-.12.95-.36.23-.24.34-.54.34-.9s-.11-.66-.34-.9c-.23-.24-.55-.36-.95-.36h-12.32c-.4,0-.72.12-.95.36-.23.24-.34.54-.34.9s.11.66.34.9c.23.24.55.36.95.36h4.7v2.17c0,1.13-.15,2.23-.46,3.28-.31,1.06-.74,2.07-1.28,3.01-.55.95-1.21,1.84-1.98,2.67-.76.82-1.63,1.57-2.57,2.22-.08.06-.17.14-.28.26-.11.12-.2.25-.27.41-.08.16-.11.35-.1.54.01.2.1.41.27.62.15.22.34.36.54.42Z" style="fill: #fff;"/>
        <path d="M478.79,728.37h-3.16v-4.41c0-.44-.15-.8-.43-1.07-.28-.26-.63-.4-1.03-.4s-.74.13-1.02.4c-.28.27-.42.62-.42,1.06v10.55c0,.44.14.8.42,1.05.27.25.62.38,1.01.38s.74-.13,1.03-.38c.29-.26.43-.61.43-1.05v-3.65h3.16c.38,0,.69-.12.92-.36.23-.24.34-.54.34-.9,0-.34-.11-.64-.34-.87-.23-.24-.54-.36-.92-.36Z" style="fill: #fff;"/>
        <path d="M474.7,743.82c-.45-.28-1-.49-1.61-.63-1.24-.28-2.66-.27-3.86,0-.61.14-1.16.35-1.62.62-.47.28-.84.64-1.12,1.07-.27.43-.41.96-.41,1.56s.14,1.1.41,1.55c.27.44.65.81,1.12,1.09.46.28,1.01.49,1.62.62.61.14,1.26.21,1.95.21s1.31-.07,1.92-.21c.61-.14,1.15-.35,1.61-.63.46-.28.84-.65,1.12-1.09.28-.44.43-.96.43-1.55s-.14-1.13-.43-1.57c-.28-.43-.66-.79-1.12-1.07ZM472.85,747.34c-.47.18-1.03.27-1.67.27s-1.21-.09-1.69-.27c-.44-.17-.66-.46-.66-.89s.22-.7.66-.87c.48-.19,1.04-.28,1.68-.28s1.2.09,1.67.28c.44.17.65.46.65.87s-.21.72-.65.89Z" style="fill: #fff;"/>
        <path d="M456.81,734.49c.62.55,1.37.98,2.22,1.29.85.3,1.81.46,2.85.46s2-.15,2.86-.46c.87-.3,1.62-.74,2.23-1.29.62-.55,1.11-1.22,1.46-1.99.34-.77.52-1.63.52-2.55s-.17-1.78-.52-2.55c-.35-.77-.84-1.44-1.46-1.99-.62-.55-1.37-.98-2.23-1.29-.86-.3-1.83-.46-2.86-.46s-1.99.15-2.85.46c-.85.3-1.6.74-2.22,1.29-.62.55-1.11,1.22-1.45,1.99-.34.77-.52,1.62-.52,2.55s.17,1.79.52,2.55c.35.77.83,1.44,1.45,1.99ZM457.97,728.45c.18-.44.44-.84.8-1.18.36-.34.8-.6,1.31-.79.52-.19,1.13-.28,1.8-.28,1.43,0,2.5.36,3.18,1.07.68.71,1.03,1.61,1.03,2.67s-.35,1.97-1.03,2.67c-.68.71-1.75,1.07-3.18,1.07-1.35,0-2.4-.36-3.11-1.07-.71-.71-1.07-1.62-1.07-2.7,0-.52.09-1.02.27-1.47Z" style="fill: #fff;"/>
        <path d="M476.73,740.08h-11.16c-.36,0-.66.12-.87.34-.22.22-.33.5-.33.83,0,.34.11.63.33.84.22.22.51.33.87.33h11.16c.36,0,.65-.11.87-.33.22-.22.33-.5.33-.84,0-.32-.11-.6-.32-.83-.22-.23-.51-.34-.88-.34Z" style="fill: #fff;"/>
        <path d="M458.88,739.15c-.29-.25-.64-.38-1.04-.38s-.74.13-1.01.38c-.28.26-.42.61-.42,1.05v6.42c0,.76.2,1.41.61,1.92.41.52,1.08.79,1.99.79.67,0,1.49-.04,2.42-.12.93-.08,1.85-.2,2.72-.35.1-.02.23-.05.4-.09.18-.04.35-.12.51-.22.17-.11.29-.27.38-.46.09-.2.1-.45.04-.74-.04-.29-.14-.49-.3-.63-.15-.13-.32-.22-.5-.26-.18-.04-.35-.06-.53-.05-.18.01-.3.03-.38.04-.58.1-1.18.17-1.79.23-.62.06-1.19.09-1.7.09-.38,0-.63-.07-.74-.21-.12-.15-.18-.4-.18-.74v-5.64c0-.44-.15-.8-.45-1.05Z" style="fill: #fff;"/>
        <path d="M467.27,738.12c0,.34.11.63.33.86.22.23.51.34.87.34h5.35c.36,0,.66-.12.87-.34.22-.23.33-.52.33-.86,0-.32-.11-.6-.33-.83-.22-.23-.51-.34-.87-.34h-5.35c-.36,0-.66.12-.87.34-.22.23-.33.5-.33.83Z" style="fill: #fff;"/>
        <path d="M505.3,743.43h-22.47c-.4,0-.72.12-.95.36-.23.24-.34.54-.34.9s.11.66.34.89c.23.23.55.34.95.34h22.47c.4,0,.72-.11.95-.34.23-.23.34-.53.34-.89s-.11-.66-.34-.9c-.23-.24-.55-.36-.95-.36Z" style="fill: #fff;"/>
        <path d="M487.1,736.25c.83.62,1.85,1.1,3.03,1.43,1.18.33,2.52.5,4,.5s2.83-.17,4.02-.5c1.19-.33,2.21-.81,3.04-1.43.82-.62,1.47-1.37,1.91-2.24.44-.86.67-1.83.67-2.88s-.22-2.01-.67-2.88c-.44-.87-1.09-1.62-1.91-2.24-.82-.62-1.84-1.1-3.04-1.43-1.19-.33-2.54-.5-4.02-.5s-2.82.17-4,.5c-1.18.33-2.2.81-3.03,1.43-.83.62-1.49,1.37-1.94,2.24-.45.87-.68,1.83-.68,2.88s.23,2.01.68,2.88c.46.87,1.11,1.62,1.94,2.24ZM489.21,727.7c1.21-.8,2.87-1.2,4.93-1.2,1.03,0,1.97.1,2.79.3.81.2,1.52.5,2.11.9.58.39,1.03.88,1.34,1.45.31.57.46,1.24.46,1.99s-.16,1.39-.46,1.96c-.31.57-.76,1.06-1.34,1.45-.59.4-1.3.7-2.11.91-.82.21-1.76.32-2.79.32-2.06,0-3.72-.41-4.93-1.21-1.2-.8-1.81-1.95-1.81-3.43s.61-2.66,1.81-3.44Z" style="fill: #fff;"/>
        <path d="M525.53,732.24c-.38,0-.69.13-.92.38-.22.25-.34.54-.34.88,0,.36.11.66.34.9.23.24.54.36.92.36h3.3v6.33c0,.44.14.8.42,1.05.27.25.62.38,1.01.38s.74-.13,1.03-.38c.29-.26.43-.61.43-1.05v-17.12c0-.44-.15-.8-.43-1.07-.28-.26-.63-.4-1.03-.4s-.74.13-1.02.4c-.28.27-.42.62-.42,1.06v2.78h-3.3c-.38,0-.69.13-.92.38-.22.25-.34.54-.34.88,0,.36.11.66.34.9.23.24.54.36.92.36h3.3v2.98h-3.3Z" style="fill: #fff;"/>
        <path d="M522.7,736.4c.44-.47.66-1.13.66-1.97v-7.5c0-.84-.22-1.51-.66-1.97-.44-.47-1.15-.71-2.11-.71h-7.76c-.96,0-1.67.24-2.11.71-.44.47-.66,1.13-.66,1.97v7.5c0,.84.22,1.51.66,1.97.44.47,1.15.71,2.11.71h7.76c.96,0,1.67-.24,2.11-.71ZM520.46,733.67c0,.37-.07.64-.2.79-.13.15-.37.22-.72.22h-5.67c-.35,0-.59-.07-.72-.22-.13-.15-.2-.42-.2-.79v-5.99c0-.37.07-.64.2-.79.13-.15.37-.22.72-.22h5.67c.35,0,.59.07.72.22.13.15.2.42.2.79v5.99Z" style="fill: #fff;"/>
        <path d="M531.97,748.75c.22-.24.34-.53.34-.87,0-.36-.11-.66-.34-.9-.23-.24-.54-.36-.92-.36h-13.37c-.35,0-.59-.07-.72-.22-.13-.15-.2-.41-.2-.79v-4.42c0-.44-.15-.8-.43-1.05-.28-.25-.63-.38-1.03-.38s-.74.13-1.03.38c-.29.26-.43.61-.43,1.05v5.23c0,.84.22,1.51.66,1.97.44.47,1.15.71,2.11.71h14.45c.38,0,.69-.12.92-.36Z" style="fill: #fff;"/>
        <path d="M226.75,779.91h-22.47c-.4,0-.72.12-.95.36-.23.24-.34.54-.34.9s.11.66.34.89c.23.23.55.34.95.34h9.76v7.61c0,.44.15.8.43,1.05.28.25.63.38,1.03.38s.74-.13,1.03-.38c.29-.26.43-.61.43-1.05v-7.61h9.79c.4,0,.72-.11.95-.34.23-.23.34-.53.34-.89s-.11-.66-.34-.9c-.23-.24-.55-.36-.95-.36Z" style="fill: #fff;"/>
        <path d="M208.51,775.86c.82.52,1.84.92,3.03,1.18,1.19.26,2.54.4,4.04.4,3.05,0,5.44-.52,7.1-1.56,1.68-1.05,2.53-2.57,2.53-4.52s-.85-3.48-2.53-4.52c-1.66-1.03-4.05-1.56-7.1-1.56-1.49,0-2.85.14-4.04.41-1.19.27-2.21.67-3.03,1.18-.83.51-1.47,1.15-1.92,1.9-.45.75-.67,1.63-.67,2.59s.23,1.84.67,2.59c.44.75,1.09,1.4,1.92,1.92ZM210.59,768.62c1.18-.64,2.86-.96,5-.96s3.79.32,4.97.96c1.17.63,1.74,1.52,1.74,2.72s-.57,2.07-1.74,2.71c-1.18.65-2.85.97-4.97.97s-3.82-.33-5-.97c-1.17-.64-1.74-1.53-1.74-2.71s.57-2.09,1.74-2.72Z" style="fill: #fff;"/>
        <path d="M247.05,781.6c-.15-.13-.32-.22-.5-.26-.18-.04-.35-.05-.52-.03-.16.02-.29.04-.39.06-1.61.38-3.31.68-5.03.87-1.72.19-3.38.31-4.94.35-.39,0-.64-.07-.76-.22-.13-.15-.19-.4-.19-.73v-3.95c0-.22.03-.5.2-.59.15-.09.34-.13.55-.13h6.31c.96,0,1.67-.24,2.11-.71.44-.47.66-1.13.66-1.98v-4.65c0-.84-.22-1.51-.66-1.97-.44-.47-1.15-.71-2.11-.71h-8.78c-.38,0-.69.12-.92.36-.23.24-.34.53-.34.87,0,.36.11.67.34.91.23.25.54.37.92.37h7.85c.21,0,.39.04.55.13.16.09.2.37.2.59v3.55c0,.22-.03.5-.2.59-.15.09-.34.13-.55.13h-6.28c-.96,0-1.67.24-2.11.71-.44.47-.66,1.13-.66,1.97v5.26c0,.76.21,1.41.62,1.92.42.52,1.09.79,2,.79,1.87-.02,3.84-.13,5.84-.33,2-.2,3.97-.53,5.83-.97.12-.02.26-.06.43-.12.17-.06.32-.15.47-.27.15-.12.27-.28.36-.47.09-.2.1-.45.03-.75-.06-.26-.17-.45-.33-.59Z" style="fill: #fff;"/>
        <path d="M251.71,764.39c-.4,0-.74.13-1.02.4-.28.27-.42.62-.42,1.06v24.01c0,.44.14.8.42,1.05.28.25.62.38,1.01.38s.74-.13,1.03-.38c.29-.26.43-.61.43-1.05v-24.01c0-.44-.15-.8-.43-1.07-.28-.26-.63-.4-1.03-.4Z" style="fill: #fff;"/>
        <path d="M281.39,778.02h-22.47c-.4,0-.72.12-.95.36-.23.24-.34.54-.34.9s.11.66.34.89c.23.23.55.34.95.34h22.47c.4,0,.72-.11.95-.34.23-.23.34-.53.34-.89s-.11-.66-.34-.9c-.23-.24-.55-.36-.95-.36Z" style="fill: #fff;"/>
        <path d="M278.36,788.81h-13.52c-.35,0-.59-.07-.72-.22-.13-.15-.2-.42-.2-.79v-3.78c0-.44-.15-.8-.43-1.05-.28-.25-.63-.38-1.03-.38s-.74.13-1.03.38c-.29.26-.43.61-.43,1.05v4.59c0,.84.22,1.51.66,1.98.44.47,1.15.71,2.11.71h14.59c.38,0,.69-.12.92-.36.23-.24.34-.53.34-.87,0-.36-.11-.66-.34-.9-.23-.24-.54-.36-.92-.36Z" style="fill: #fff;"/>
        <path d="M261.29,772.63c0,.84.22,1.51.66,1.97.44.47,1.15.71,2.11.71h14.45c.38,0,.69-.12.92-.36.23-.24.34-.53.34-.87,0-.36-.11-.66-.34-.9-.23-.24-.54-.36-.92-.36h-13.37c-.35,0-.59-.07-.72-.22-.13-.15-.2-.42-.2-.79v-5.38c0-.44-.15-.8-.43-1.05-.28-.25-.63-.38-1.03-.38s-.74.13-1.03.38c-.29.26-.43.61-.43,1.05v6.19Z" style="fill: #fff;"/>
        <path d="M314.49,764.39c-.4,0-.74.13-1.02.4-.28.27-.42.62-.42,1.06v8.27h-5.63c-.38,0-.69.13-.92.38-.22.25-.34.54-.34.88,0,.36.11.66.34.9.23.24.54.36.92.36h5.63v13.22c0,.44.14.8.42,1.05.28.25.62.38,1.01.38s.74-.13,1.03-.38c.29-.26.43-.61.43-1.05v-24.01c0-.44-.15-.8-.43-1.07-.28-.26-.63-.4-1.03-.4Z" style="fill: #fff;"/>
        <path d="M309.83,781.31c-.15-.13-.32-.22-.5-.26-.18-.04-.35-.05-.52-.03-.16.02-.29.04-.39.06-1.61.38-3.31.68-5.03.87-1.72.19-3.38.31-4.94.35-.39,0-.64-.07-.76-.22-.13-.15-.19-.4-.19-.73v-10.58c0-.37.07-.64.2-.79.13-.15.37-.22.72-.22h8.52c.38,0,.69-.12.92-.36.23-.24.34-.54.34-.9,0-.34-.11-.64-.34-.88-.23-.25-.54-.37-.92-.37h-9.59c-.96,0-1.67.24-2.11.71-.44.47-.66,1.13-.66,1.98v12.18c0,.76.21,1.41.62,1.92.42.52,1.09.79,2,.79,1.87-.02,3.84-.13,5.84-.33,2-.2,3.97-.53,5.83-.97.12-.02.26-.06.43-.12.16-.06.32-.15.47-.27.15-.12.27-.28.36-.47.09-.2.1-.45.03-.75-.06-.26-.17-.45-.33-.59Z" style="fill: #fff;"/>
        <path d="M342.22,782.87c.58-.83,1.02-1.83,1.3-2.99.28-1.16.42-2.47.42-3.88s-.14-2.72-.42-3.88c-.28-1.16-.72-2.17-1.3-2.99-.58-.83-1.33-1.48-2.23-1.93-.9-.45-1.96-.68-3.15-.68s-2.28.23-3.17.68c-.89.46-1.63,1.1-2.21,1.93-.58.82-1.01,1.83-1.3,2.99-.28,1.16-.43,2.46-.43,3.88s.14,2.72.43,3.88c.28,1.16.72,2.17,1.3,2.99.58.83,1.32,1.48,2.21,1.93.89.45,1.95.68,3.17.68s2.26-.23,3.15-.68c.9-.45,1.64-1.1,2.23-1.93ZM339.99,781.14c-.7,1.17-1.73,1.74-3.15,1.74s-2.46-.59-3.15-1.74c-.7-1.18-1.06-2.91-1.06-5.14s.36-3.96,1.06-5.14c.69-1.15,1.75-1.74,3.15-1.74s2.45.57,3.15,1.74c.7,1.18,1.06,2.91,1.06,5.14s-.36,3.96-1.06,5.14Z" style="fill: #fff;"/>
        <path d="M349.95,791.3c.4,0,.74-.13,1.03-.38.29-.26.43-.61.43-1.05v-24.01c0-.44-.15-.8-.43-1.07-.28-.26-.63-.4-1.03-.4s-.74.13-1.02.4c-.28.27-.42.62-.42,1.06v24.01c0,.44.14.8.42,1.05.28.25.62.38,1.01.38Z" style="fill: #fff;"/>
        <path d="M375.37,790.19c1.71-.94,2.58-2.3,2.58-4.05s-.87-3.11-2.58-4.05c-1.69-.93-4.06-1.4-7.05-1.4s-5.36.47-7.05,1.4c-1.71.94-2.58,2.3-2.58,4.05s.87,3.11,2.58,4.05c1.69.93,4.06,1.4,7.05,1.4s5.36-.47,7.05-1.4ZM363.41,788.41c-.59-.24-1.05-.55-1.36-.92-.31-.37-.46-.81-.46-1.34s.16-.96.47-1.33c.31-.38.77-.69,1.36-.94.6-.25,1.31-.43,2.13-.54.82-.12,1.76-.17,2.77-.17s1.92.06,2.76.17c.83.11,1.55.3,2.15.54.59.24,1.05.56,1.36.94.31.37.47.82.47,1.33s-.16.98-.46,1.34c-.32.37-.77.68-1.36.92-.6.25-1.32.43-2.15.54-.83.12-1.76.17-2.76.17s-1.95-.06-2.77-.17c-.82-.11-1.54-.3-2.13-.54Z" style="fill: #fff;"/>
        <path d="M356.65,779.71c.14.04.28.06.42.06.06,0,.11,0,.16,0,.19-.02.36-.07.52-.14.15-.07.26-.12.34-.16h0c1.28-.74,2.46-1.64,3.51-2.68.99-.98,1.77-2.1,2.33-3.35.62,1.29,1.4,2.39,2.31,3.26.97.93,1.99,1.68,3.04,2.24.08.04.19.09.36.15.17.06.35.1.54.12.2.02.41,0,.61-.08.21-.08.39-.22.54-.44.15-.21.23-.43.24-.65,0-.21-.02-.4-.08-.56-.06-.16-.15-.3-.26-.41-.1-.1-.2-.18-.29-.23-.71-.36-1.4-.82-2.07-1.35-.67-.53-1.27-1.16-1.79-1.85-.52-.69-.95-1.48-1.26-2.34-.31-.85-.47-1.79-.47-2.81v-1.19c0-.44-.15-.8-.45-1.07-.29-.26-.65-.4-1.04-.4s-.75.13-1.03.4c-.29.27-.43.62-.43,1.06v1.31c0,.95-.15,1.86-.44,2.71-.3.85-.71,1.65-1.22,2.38-.51.73-1.14,1.42-1.85,2.04-.71.62-1.52,1.19-2.37,1.68-.09.05-.19.13-.3.25-.11.12-.19.26-.26.45-.06.18-.1.37-.1.56,0,.21.09.42.26.61.15.22.34.36.55.41Z" style="fill: #fff;"/>
        <path d="M381.7,772.07c0-.34-.11-.64-.34-.87-.23-.24-.54-.36-.92-.36h-3.16v-4.99c0-.44-.15-.8-.43-1.07-.28-.26-.63-.4-1.03-.4s-.74.13-1.02.4c-.28.27-.42.62-.42,1.06v13.17c0,.44.14.8.42,1.05.27.25.62.38,1.01.38s.74-.13,1.03-.38c.29-.26.43-.61.43-1.05v-5.69h3.16c.38,0,.69-.12.92-.36.23-.24.34-.54.34-.9Z" style="fill: #fff;"/>
        <path d="M413.51,788.52h-13.37c-.35,0-.59-.07-.72-.22-.13-.15-.2-.41-.2-.79v-4.42c0-.44-.15-.8-.43-1.05-.28-.25-.63-.38-1.03-.38s-.74.13-1.03.38c-.29.26-.43.61-.43,1.05v5.23c0,.84.22,1.51.66,1.97.44.47,1.15.71,2.11.71h14.45c.38,0,.69-.12.92-.36.23-.24.34-.53.34-.87,0-.36-.11-.66-.34-.9-.23-.24-.54-.36-.92-.36Z" style="fill: #fff;"/>
        <path d="M411.72,784.03c.27.25.62.38,1.01.38s.74-.13,1.03-.38c.29-.26.43-.61.43-1.05v-17.12c0-.44-.15-.8-.43-1.07-.28-.26-.63-.4-1.03-.4s-.74.13-1.02.4c-.28.27-.42.62-.42,1.06v5.43h-4.18c-.38,0-.69.13-.92.38-.22.25-.34.54-.34.88,0,.36.11.66.34.9.23.24.54.36.92.36h4.18v9.18c0,.44.14.8.42,1.05Z" style="fill: #fff;"/>
        <path d="M397.73,772.73c-.28.76-.68,1.46-1.19,2.09-.5.63-1.11,1.2-1.81,1.69-.69.49-1.47.95-2.3,1.36-.1.06-.21.14-.33.23-.13.1-.23.21-.32.34-.09.13-.14.29-.16.48-.02.19.02.39.13.6.11.24.25.41.43.52.17.11.36.17.55.18.04,0,.09,0,.13,0,.13,0,.27-.01.39-.03.17-.03.29-.07.38-.11.64-.29,1.28-.63,1.9-1.02.62-.39,1.21-.82,1.74-1.29.53-.46,1.02-.98,1.46-1.53.38-.49.71-1.01.98-1.55.65,1.14,1.47,2.1,2.44,2.85,1.03.8,2.09,1.4,3.13,1.79.09.04.21.08.38.11.17.03.35.03.54,0,.19-.03.38-.1.55-.2.19-.11.34-.29.44-.52.11-.21.15-.41.14-.6-.01-.19-.06-.35-.15-.48-.08-.13-.18-.23-.29-.32-.1-.08-.2-.15-.3-.19-.7-.27-1.39-.62-2.05-1.05-.66-.43-1.25-.94-1.76-1.53-.51-.58-.93-1.25-1.24-1.99-.31-.73-.47-1.55-.47-2.44v-1.44h4.67c.4,0,.72-.12.95-.36.23-.24.34-.54.34-.9s-.11-.66-.34-.9c-.23-.24-.55-.36-.95-.36h-12.32c-.4,0-.72.12-.95.36-.23.24-.34.54-.34.9s.11.66.34.9c.23.24.54.36.95.36h4.73v1.56c0,.91-.14,1.76-.43,2.51Z" style="fill: #fff;"/>
        <path d="M424.89,777.46c.53-.46,1.02-.98,1.46-1.53.38-.48.71-1,.98-1.55.65,1.14,1.47,2.1,2.45,2.85,1.03.8,2.09,1.4,3.13,1.79.09.04.21.08.38.11.17.03.35.03.54,0,.19-.03.37-.1.55-.2.19-.11.33-.28.44-.52.11-.21.15-.41.14-.6-.01-.19-.06-.35-.15-.48-.09-.13-.18-.23-.29-.32-.11-.08-.2-.15-.29-.19-.71-.27-1.4-.62-2.05-1.05-.65-.43-1.25-.94-1.76-1.53s-.93-1.26-1.24-1.99c-.31-.73-.47-1.55-.47-2.44v-1.15h4.67c.4,0,.72-.12.95-.36.23-.24.34-.54.34-.9s-.11-.66-.34-.9c-.23-.24-.55-.36-.95-.36h-12.32c-.4,0-.72.12-.95.36-.23.24-.34.54-.34.9s.11.66.34.9c.23.24.54.36.95.36h4.73v1.27c0,.91-.14,1.76-.43,2.51-.28.76-.68,1.46-1.19,2.09-.5.63-1.11,1.2-1.8,1.69-.7.5-1.47.95-2.3,1.36-.1.06-.21.14-.33.23-.13.09-.23.2-.32.34-.09.13-.14.29-.17.48-.02.19.02.39.13.6.11.24.25.41.43.52.17.11.36.17.55.18.05,0,.09,0,.14,0,.13,0,.26-.01.39-.03.17-.03.29-.07.38-.11.64-.29,1.28-.64,1.9-1.02.62-.39,1.21-.82,1.74-1.29Z" style="fill: #fff;"/>
        <path d="M440.05,784.41c.4,0,.74-.13,1.03-.38.29-.26.43-.61.43-1.05v-17.12c0-.44-.15-.8-.43-1.07-.28-.26-.63-.4-1.03-.4s-.74.13-1.02.4c-.28.27-.42.62-.42,1.06v17.12c0,.44.14.8.42,1.05.27.25.62.38,1.01.38Z" style="fill: #fff;"/>
        <path d="M440.84,788.52h-13.37c-.35,0-.59-.07-.72-.22-.13-.15-.2-.41-.2-.79v-4.42c0-.44-.15-.8-.43-1.05-.28-.25-.63-.38-1.03-.38s-.74.13-1.03.38c-.29.26-.43.61-.43,1.05v5.23c0,.84.22,1.51.66,1.97.44.47,1.15.71,2.11.71h14.45c.38,0,.69-.12.92-.36.23-.24.34-.53.34-.87,0-.36-.11-.66-.34-.9-.23-.24-.54-.36-.92-.36Z" style="fill: #fff;"/>
        <path d="M466.7,788.87h-13.34c-.21,0-.39-.03-.53-.09-.13-.06-.16-.29-.16-.48v-.38c0-.19.03-.42.16-.48.14-.06.31-.09.53-.09h11.25c.96,0,1.67-.24,2.11-.71.44-.47.66-1.13.66-1.97v-.9c0-.84-.22-1.51-.66-1.98-.44-.47-1.15-.71-2.11-.71h-13.57c-.38,0-.69.11-.92.34-.23.23-.34.52-.34.86,0,.36.11.66.34.89.23.23.53.34.92.34h12.82c.21,0,.38.03.51.09.09.04.15.22.15.48v.26c0,.27-.05.44-.14.48-.13.06-.3.09-.51.09h-11.31c-.96,0-1.67.24-2.11.71-.44.47-.66,1.13-.66,1.97v1.02c0,.84.22,1.51.66,1.98.44.47,1.15.71,2.11.71h14.15c.38,0,.69-.11.92-.34s.34-.52.34-.86c0-.36-.11-.66-.34-.89-.23-.23-.53-.34-.92-.34Z" style="fill: #fff;"/>
        <path d="M470.54,771.14h-3.16v-5.28c0-.44-.15-.8-.43-1.07-.28-.26-.63-.4-1.03-.4s-.74.13-1.02.4c-.28.27-.42.62-.42,1.06v12.88c0,.44.14.8.42,1.05.27.25.62.38,1.01.38s.74-.13,1.03-.38c.29-.26.43-.61.43-1.05v-5.11h3.16c.38,0,.69-.12.92-.36.23-.24.34-.54.34-.9,0-.34-.11-.64-.34-.87-.23-.24-.54-.36-.92-.36Z" style="fill: #fff;"/>
        <path d="M450.57,767.14h6.77c.4,0,.72-.12.95-.36.23-.24.34-.54.34-.9s-.11-.66-.34-.9c-.23-.24-.55-.36-.95-.36h-6.77c-.4,0-.72.12-.95.36-.23.24-.34.54-.34.9s.11.66.34.9c.23.24.55.36.95.36Z" style="fill: #fff;"/>
        <path d="M458.4,778.88c1.1-.71,1.66-1.77,1.66-3.14s-.56-2.43-1.66-3.14c-1.08-.7-2.58-1.05-4.46-1.05s-3.32.36-4.41,1.08c-1.11.73-1.67,1.78-1.67,3.11s.56,2.38,1.67,3.11c1.09.72,2.58,1.08,4.41,1.08s3.37-.35,4.46-1.05ZM450.73,775.71c0-.45.23-.84.69-1.19.47-.36,1.32-.54,2.53-.54.65,0,1.18.05,1.6.16.41.1.75.24.99.4.24.16.41.34.51.55.1.2.15.43.15.66s-.05.46-.15.67c-.1.21-.27.4-.51.56-.25.17-.59.3-1,.39-.42.09-.96.14-1.59.14-1.21,0-2.06-.19-2.52-.56-.47-.36-.69-.77-.69-1.24Z" style="fill: #fff;"/>
        <path d="M461.49,770.42c.23-.24.34-.54.34-.9s-.11-.66-.34-.9c-.23-.24-.55-.36-.95-.36h-13.2c-.4,0-.72.12-.95.36-.23.24-.34.54-.34.9s.11.66.34.9c.23.24.55.36.95.36h13.2c.4,0,.72-.12.95-.36Z" style="fill: #fff;"/>
        <path d="M505.18,779.91h-22.47c-.4,0-.72.12-.95.36-.23.24-.34.54-.34.9s.11.66.34.89c.23.23.55.34.95.34h9.76v7.61c0,.44.15.8.43,1.05.28.25.63.38,1.03.38s.74-.13,1.03-.38c.29-.26.43-.61.43-1.05v-7.61h9.79c.4,0,.72-.11.95-.34.23-.23.34-.53.34-.89s-.11-.66-.34-.9c-.23-.24-.55-.36-.95-.36Z" style="fill: #fff;"/>
        <path d="M495.07,765.81c-.27-.26-.63-.4-1.05-.4s-.78.13-1.07.4c-.3.27-.45.64-.45,1.12v.29c0,1-.22,1.91-.64,2.72-.43.8-1,1.53-1.72,2.16-.72.63-1.56,1.18-2.5,1.62-.95.45-1.96.82-2.99,1.11-.09.02-.2.07-.33.14-.14.07-.26.17-.39.3-.13.13-.23.29-.28.47-.06.19-.04.41.04.64.08.27.21.48.38.61.16.13.33.21.5.26.11.03.22.04.33.04.05,0,.11,0,.16-.01.15-.02.26-.04.32-.06.95-.23,1.89-.54,2.79-.92.9-.38,1.75-.83,2.51-1.33.76-.51,1.44-1.08,2.03-1.7.52-.56.95-1.17,1.28-1.81.32.62.74,1.22,1.26,1.78.58.62,1.25,1.2,2,1.72.75.52,1.59.97,2.48,1.35.89.38,1.83.69,2.8.92.07.02.17.04.32.06.16.02.33,0,.52-.05.18-.05.35-.14.51-.27.16-.13.29-.34.37-.61.09-.24.1-.46.04-.64-.05-.18-.15-.34-.28-.47-.12-.12-.26-.22-.39-.3-.14-.07-.25-.12-.33-.14-1.04-.29-2.04-.66-2.99-1.11-.94-.45-1.78-.99-2.5-1.62-.71-.63-1.29-1.35-1.7-2.14-.41-.79-.62-1.7-.62-2.7v-.29c0-.48-.14-.86-.42-1.12Z" style="fill: #fff;"/>
        <path d="M533.84,772.87h3.02v4.55c0,.44.14.8.42,1.05.27.25.62.38,1.01.38s.74-.13,1.03-.38c.29-.26.43-.61.43-1.05v-11.57c0-.44-.15-.8-.43-1.07-.28-.26-.63-.4-1.03-.4s-.74.13-1.02.4c-.28.27-.42.62-.42,1.06v4.5h-3.02c-.38,0-.69.13-.92.38-.22.25-.34.54-.34.88,0,.36.11.66.34.9.23.24.54.36.92.36Z" style="fill: #fff;"/>
        <path d="M541.57,789.1c-.12-.1-.23-.18-.31-.21-1.21-.74-2.07-1.63-2.55-2.64-.48-1.02-.73-2.08-.73-3.16v-1.63c0-.42-.14-.76-.42-1.02-.27-.25-.61-.38-.99-.38s-.71.13-.97.38c-.27.26-.4.6-.4,1.02v1.51c0,.53-.07,1.08-.2,1.64-.13.56-.34,1.12-.63,1.66-.28.54-.65,1.06-1.09,1.56-.44.49-.97.94-1.62,1.36-.06.06-.14.13-.25.21-.13.1-.24.22-.34.37-.1.15-.16.31-.19.48-.03.19.02.39.14.61.13.24.31.4.52.48.16.06.32.09.48.09.04,0,.09,0,.13,0,.19-.02.38-.07.57-.14.19-.07.33-.14.43-.2,1.59-1.05,2.75-2.34,3.45-3.82.32.66.76,1.3,1.28,1.91.6.68,1.25,1.23,1.94,1.62.1.06.23.13.42.21.19.08.38.13.59.16.21.02.42,0,.62-.08.21-.08.39-.25.55-.51.11-.22.14-.42.11-.62-.03-.18-.1-.35-.21-.49-.11-.14-.22-.25-.34-.35Z" style="fill: #fff;"/>
        <path d="M524.83,778.13c1.04,0,2-.15,2.86-.46.87-.3,1.62-.74,2.23-1.29.62-.55,1.11-1.22,1.45-1.99.35-.77.52-1.63.52-2.55s-.18-1.78-.52-2.55c-.34-.77-.83-1.44-1.46-1.99-.62-.55-1.37-.98-2.23-1.29-.86-.3-1.83-.46-2.86-.46s-1.99.15-2.85.46c-.85.3-1.6.74-2.22,1.29-.62.55-1.11,1.22-1.45,1.99-.35.77-.52,1.63-.52,2.55s.18,1.78.52,2.55c.34.77.83,1.44,1.46,1.99.62.55,1.37.98,2.22,1.29.85.3,1.81.46,2.85.46ZM520.66,771.81c0-.52.09-1.02.27-1.47.18-.44.44-.84.8-1.18.35-.34.8-.6,1.31-.79.52-.19,1.12-.28,1.8-.28,1.43,0,2.5.36,3.18,1.07.68.71,1.03,1.61,1.03,2.67s-.35,1.96-1.03,2.67c-.68.71-1.75,1.07-3.18,1.07-1.35,0-2.4-.36-3.11-1.07-.71-.71-1.07-1.62-1.07-2.7Z" style="fill: #fff;"/>
        <path d="M528.87,780.06c-.4,0-.74.13-1.02.38-.28.26-.42.61-.42,1.05v1.91h-4.11v-1.91c0-.44-.15-.8-.43-1.05-.28-.25-.63-.38-1.03-.38s-.74.13-1.03.38c-.29.26-.43.61-.43,1.05v7.12c0,.84.22,1.51.66,1.98.44.47,1.15.71,2.11.71h4.39c.96,0,1.67-.24,2.11-.71.44-.47.66-1.13.66-1.98v-7.12c0-.44-.15-.8-.43-1.05-.28-.25-.63-.38-1.03-.38ZM527.44,787.86c0,.37-.07.64-.2.79-.13.15-.37.22-.72.22h-2.27c-.35,0-.59-.07-.72-.22-.13-.15-.2-.41-.2-.79v-2.03h4.11v2.03Z" style="fill: #fff;"/>
        <path d="M569.07,774.6h-3.45v-8.74c0-.44-.15-.8-.43-1.07-.28-.26-.63-.4-1.03-.4s-.74.13-1.02.4c-.28.27-.42.62-.42,1.06v24.01c0,.44.14.8.42,1.05.28.25.62.38,1.01.38s.74-.13,1.03-.38c.29-.26.43-.61.43-1.05v-12.75h3.45c.38,0,.69-.12.92-.36.23-.24.34-.54.34-.9,0-.34-.11-.64-.34-.88-.23-.25-.54-.38-.92-.38Z" style="fill: #fff;"/>
        <path d="M560.66,781.31c-.15-.13-.32-.22-.5-.26-.18-.04-.35-.05-.52-.03-.16.02-.29.04-.39.06-1.61.38-3.31.68-5.03.87-1.72.19-3.38.31-4.94.35-.38,0-.64-.07-.76-.22-.13-.15-.19-.4-.19-.73v-10.58c0-.37.07-.64.2-.79.13-.15.37-.22.72-.22h8.52c.38,0,.69-.12.92-.36.23-.24.34-.54.34-.9,0-.34-.11-.64-.34-.88-.23-.25-.54-.37-.92-.37h-9.59c-.96,0-1.67.24-2.11.71-.44.47-.66,1.13-.66,1.98v12.18c0,.76.21,1.41.62,1.92.42.52,1.09.79,2,.79,1.87-.02,3.84-.13,5.84-.33,2-.2,3.97-.53,5.83-.97.12-.02.26-.06.43-.12.16-.06.32-.15.47-.27.15-.12.27-.28.36-.47.09-.2.1-.45.04-.75-.06-.26-.18-.45-.33-.59Z" style="fill: #fff;"/>
        <path d="M574.65,784.88c-.55,0-1.03.2-1.43.59-.39.39-.59.87-.59,1.43s.2,1.03.59,1.41c.39.38.87.57,1.42.57s1.03-.19,1.41-.57c.38-.38.57-.86.57-1.41s-.19-1.03-.57-1.42c-.38-.39-.86-.59-1.41-.59Z" style="fill: #fff;"/>
        <path d="M359.16,861.55h-2.51v-6.41c0-.34-.11-.61-.33-.81-.22-.2-.48-.3-.78-.3s-.56.1-.77.3c-.21.2-.32.47-.32.81v17.69c0,.33.11.6.32.8.21.19.47.29.77.29s.56-.1.78-.29c.22-.19.33-.46.33-.8v-9.36h2.51c.29,0,.53-.09.7-.27.17-.18.26-.41.26-.69,0-.26-.09-.49-.26-.67-.17-.19-.41-.29-.7-.29Z" style="fill: #fff;"/>
        <path d="M350.51,857.54c-.43-.61-.99-1.1-1.65-1.43-.67-.34-1.45-.51-2.34-.51s-1.69.17-2.35.51c-.66.34-1.21.82-1.64,1.43-.43.61-.75,1.35-.96,2.22-.21.86-.31,1.82-.31,2.87s.11,2.01.31,2.87c.21.86.53,1.61.96,2.22.43.61.98,1.1,1.64,1.43.66.34,1.45.51,2.35.51s1.67-.17,2.34-.51c.66-.34,1.22-.82,1.65-1.43.43-.61.75-1.36.96-2.22.21-.85.31-1.82.31-2.87s-.11-2.01-.31-2.87c-.21-.86-.53-1.6-.96-2.22ZM348.82,866.39c-.51.85-1.26,1.27-2.29,1.27s-1.78-.41-2.29-1.27c-.51-.86-.78-2.13-.78-3.77s.26-2.91.78-3.77c.51-.85,1.26-1.27,2.29-1.27s1.78.41,2.29,1.27c.51.86.78,2.13.78,3.77s-.26,2.91-.78,3.77Z" style="fill: #fff;"/>
        <path d="M367.04,865.08c.71,0,1.4-.12,2.04-.36.64-.24,1.2-.58,1.67-1.02.47-.44.84-.98,1.12-1.6.28-.63.42-1.34.42-2.11s-.14-1.48-.42-2.11c-.28-.63-.65-1.17-1.12-1.6s-1.03-.78-1.67-1.02c-1.28-.48-2.8-.48-4.06,0-.63.24-1.19.59-1.66,1.03-.47.44-.84.99-1.12,1.61-.28.63-.42,1.33-.42,2.08s.14,1.48.42,2.1c.28.62.65,1.16,1.12,1.6.47.45,1.03.79,1.66,1.03.63.24,1.31.36,2.02.36ZM364.22,861.27c-.15-.38-.23-.82-.23-1.3,0-.95.29-1.71.85-2.28.56-.57,1.3-.85,2.19-.85.95,0,1.7.29,2.24.86.55.57.82,1.34.82,2.29s-.28,1.72-.82,2.29c-.54.57-1.3.86-2.24.86-.44,0-.85-.08-1.23-.23-.37-.15-.7-.37-.96-.65-.26-.28-.48-.61-.63-1Z" style="fill: #fff;"/>
        <path d="M377.32,871.81h-9.85c-.25,0-.42-.05-.51-.15-.09-.1-.14-.29-.14-.56v-3.25c0-.34-.11-.61-.33-.8-.22-.19-.48-.29-.78-.29s-.56.1-.78.29c-.22.2-.33.47-.33.8v3.85c0,.63.17,1.12.49,1.48.33.35.86.53,1.58.53h10.64c.29,0,.53-.09.7-.27.17-.18.26-.4.26-.67,0-.28-.09-.51-.26-.69-.17-.18-.41-.27-.7-.27Z" style="fill: #fff;"/>
        <path d="M375.97,854.34c-.21.2-.32.47-.32.81v12.61c0,.33.11.6.32.8.21.19.47.29.77.29s.56-.1.78-.29c.22-.19.33-.46.33-.8v-12.61c0-.34-.11-.61-.33-.81-.22-.2-.48-.3-.78-.3s-.56.1-.77.3Z" style="fill: #fff;"/>
        <path d="M398.6,865.47h-16.55c-.31,0-.55.09-.72.27-.17.18-.26.41-.26.69s.09.5.26.68c.17.17.41.26.72.26h3.88v5.57c0,.33.11.6.33.8.22.19.48.29.78.29s.56-.1.78-.29c.22-.19.33-.46.33-.8v-5.57h4.46v5.57c0,.34.11.61.33.8.21.19.48.29.78.29s.56-.1.78-.29c.22-.19.33-.46.33-.8v-5.57h3.77c.3,0,.55-.09.72-.26.17-.17.26-.4.26-.68s-.09-.51-.26-.69c-.17-.18-.42-.27-.72-.27Z" style="fill: #fff;"/>
        <path d="M385.67,860.91c-.7.33-1.43.6-2.19.82-.07.02-.15.05-.26.11-.1.06-.2.13-.3.23-.1.1-.17.22-.21.36-.04.15-.03.32.03.49.06.21.16.37.29.47.12.1.25.16.38.19.08.02.17.03.25.03.04,0,.08,0,.13,0,.12-.02.2-.03.24-.05.7-.17,1.4-.4,2.06-.68.67-.28,1.29-.61,1.85-.99.56-.37,1.07-.8,1.5-1.26.37-.4.68-.83.92-1.28.23.44.54.86.9,1.26.42.46.92.89,1.48,1.27.55.38,1.17.72,1.83,1,.66.28,1.35.51,2.07.68.05.02.13.03.24.05.12.02.25,0,.4-.04.14-.04.27-.11.38-.2.13-.1.22-.26.29-.46.07-.18.08-.35.04-.5-.04-.14-.12-.26-.21-.36-.09-.09-.19-.17-.3-.23-.1-.05-.18-.09-.25-.11-.76-.21-1.5-.49-2.2-.82-.69-.33-1.31-.73-1.83-1.19-.52-.46-.94-.99-1.25-1.57-.3-.58-.46-1.24-.46-1.98v-.21c0-.36-.11-.65-.32-.85s-.48-.3-.79-.3-.59.1-.81.3c-.23.2-.34.49-.34.85v.21c0,.73-.16,1.4-.47,1.99-.31.59-.74,1.12-1.26,1.58-.52.46-1.14.86-1.83,1.19Z" style="fill: #fff;"/>
        <path d="M419.54,861.55h-2.51v-6.41c0-.34-.11-.61-.33-.81-.22-.2-.48-.3-.78-.3s-.56.1-.77.3c-.21.2-.32.47-.32.81v17.69c0,.33.11.6.32.8.21.19.47.29.77.29s.56-.1.78-.29c.22-.19.33-.46.33-.8v-9.36h2.51c.29,0,.53-.09.7-.27.17-.18.26-.41.26-.69,0-.26-.09-.49-.26-.67-.17-.19-.41-.29-.7-.29Z" style="fill: #fff;"/>
        <path d="M412.94,866.77c-.11-.1-.24-.16-.39-.2-.14-.03-.27-.04-.4-.02-.12.01-.21.03-.29.05-1.19.28-2.4.49-3.59.62-1.2.13-2.39.21-3.53.24-.27,0-.46-.05-.54-.15-.09-.1-.13-.28-.13-.52v-3.54h6.71c.29,0,.53-.09.7-.27.17-.18.26-.41.26-.69,0-.26-.09-.49-.26-.67-.17-.19-.41-.29-.7-.29h-6.71v-2.77c0-.27.05-.46.14-.56.09-.1.26-.15.51-.15h6.27c.29,0,.53-.09.7-.27.17-.18.26-.41.26-.69,0-.26-.09-.49-.26-.67-.17-.19-.41-.29-.7-.29h-7.07c-.72,0-1.25.18-1.58.53-.33.35-.49.85-.49,1.48v9.4c0,.57.16,1.05.47,1.44.32.39.82.59,1.5.59,1.38-.01,2.79-.09,4.2-.23,1.41-.14,2.82-.37,4.19-.7.09-.02.2-.05.32-.09.13-.05.25-.11.36-.2.12-.09.21-.21.27-.36.07-.15.08-.34.03-.57-.05-.2-.13-.35-.25-.45Z" style="fill: #fff;"/>
        <path d="M437.9,868.56c.22-.19.33-.46.33-.8v-12.61c0-.34-.11-.61-.33-.81-.22-.2-.48-.3-.78-.3s-.56.1-.77.3c-.21.2-.32.47-.32.81v12.61c0,.33.11.6.32.8.21.19.47.29.77.29s.56-.1.78-.29Z" style="fill: #fff;"/>
        <path d="M427.42,865.08c.71,0,1.4-.12,2.04-.36.64-.24,1.2-.58,1.67-1.02.47-.44.84-.98,1.12-1.6.28-.63.42-1.34.42-2.11s-.14-1.48-.42-2.11c-.28-.63-.65-1.17-1.12-1.6s-1.03-.78-1.67-1.02c-1.28-.48-2.8-.48-4.06,0-.63.24-1.19.59-1.66,1.03-.47.44-.84.99-1.12,1.61-.28.63-.42,1.33-.42,2.08s.14,1.48.42,2.1c.28.62.65,1.16,1.12,1.6.47.45,1.03.79,1.66,1.03.63.24,1.31.36,2.02.36ZM424.6,861.27c-.15-.38-.23-.82-.23-1.3,0-.95.29-1.71.85-2.28.56-.57,1.3-.85,2.19-.85.95,0,1.7.29,2.24.86.55.57.82,1.34.82,2.29s-.28,1.72-.82,2.29c-.54.57-1.3.86-2.24.86-.44,0-.85-.08-1.23-.23-.37-.15-.7-.37-.96-.65-.26-.28-.48-.61-.63-1Z" style="fill: #fff;"/>
        <path d="M437.7,871.81h-9.85c-.25,0-.42-.05-.51-.15-.09-.1-.14-.29-.14-.56v-3.25c0-.34-.11-.61-.33-.8-.22-.19-.48-.29-.78-.29s-.56.1-.78.29c-.22.2-.33.47-.33.8v3.85c0,.63.17,1.12.49,1.48.33.35.86.53,1.58.53h10.64c.29,0,.53-.09.7-.27.17-.18.26-.4.26-.67,0-.28-.09-.51-.26-.69-.17-.18-.41-.27-.7-.27Z" style="fill: #fff;"/>
        <rect x="311.98" y="413.46" width="8.8" height="0" style="fill: #89ff53;"/>
        <path d="M399.31,616.89c4.22-.28,8.3-1.06,12.19-2.29l3.37.72c3.67.78,7.36,1.17,11.03,1.17,6.87,0,13.64-1.36,19.99-4.01,6.52,2.91,13.72,4.54,21.31,4.54h10.64c1.84,0,3.66-.1,5.45-.28,1.79.19,3.61.28,5.45.28h10.64c1.84,0,3.66-.1,5.45-.28,1.79.19,3.61.28,5.45.28h15.14c28.93,0,52.46-23.54,52.46-52.46v-205.2c0-28.93-23.54-52.46-52.46-52.46h-15.14c-13.68,0-26.15,5.27-35.5,13.88-3.22,2.96-6.06,6.32-8.46,10-5.81.1-11.4,1.14-16.61,2.98-16.99,6.02-29.97,20.56-33.81,38.45-.39.17-.77.35-1.15.53-.02,0-.04-.02-.06-.02-7.65-19.53-26.66-33.4-48.86-33.4h-19.01c-.26,0-.51.02-.76.02-6.12.09-12,1.22-17.45,3.24-3.81-5.61-8.67-10.44-14.3-14.22-8.34-5.59-18.36-8.86-29.14-8.86h-9.74c8.1-3.45,15.61-8.01,22.33-13.51,4.97-4.06,9.52-8.63,13.56-13.62,11.79-14.58,19.25-32.79,20.41-52.67.11-1.81.17-3.63.17-5.46,0-4.65-.35-9.23-1.01-13.7-6.64-44.59-45.18-78.9-91.59-78.9h-1.22c-51.06,0-92.6,41.54-92.6,92.6,0,47.88,36.52,87.39,83.17,92.12-15.85,9.04-26.57,26.08-26.57,45.6v192.59c0,28.93,23.53,52.46,52.46,52.46h30.62c1.84,0,3.66-.1,5.45-.28,1.79.19,3.61.28,5.45.28h39.83c1.84,0,3.66-.1,5.46-.28,1.79.19,3.61.28,5.46.28h19.01c1.84,0,3.66-.1,5.45-.28,1.79.19,3.61.28,5.45.28h19.01c1.2,0,2.38-.06,3.56-.13ZM217.47,314.24c-3.96-1.02-7.8-2.33-11.5-3.9-2.47-1.05-4.88-2.21-7.22-3.48-2.34-1.27-4.61-2.66-6.81-4.14-21.98-14.86-36.45-40.01-36.45-68.47s14.47-53.62,36.45-68.47c2.2-1.49,4.47-2.87,6.81-4.14,2.34-1.27,4.75-2.44,7.22-3.48,3.7-1.57,7.55-2.88,11.5-3.9,1.98-.51,3.98-.95,6.02-1.31,2.03-.36,4.09-.65,6.17-.87,2.77-.28,5.59-.43,8.43-.43h1.22c45.55,0,82.6,37.05,82.6,82.6s-37.05,82.6-82.6,82.6h-1.22c-2.85,0-5.66-.14-8.43-.43-2.08-.21-4.14-.5-6.17-.87-2.03-.36-4.04-.8-6.02-1.31ZM377.12,590.99c-1.87,0-3.69-.2-5.45-.57-1.76.37-3.58.57-5.45.57h-19.01c-1.87,0-3.69-.2-5.45-.57-1.76.37-3.59.57-5.45.57h-39.83c-1.87,0-3.69-.2-5.45-.57-1.76.37-3.58.57-5.45.57h-30.62c-14.57,0-26.42-11.85-26.42-26.42v-192.59c0-14.57,11.85-26.42,26.42-26.42h30.62c14.57,0,26.42,11.85,26.42,26.42v18.02h8.87c.92-13.74,12.39-24.63,26.36-24.63h19.01c14.57,0,26.42,11.85,26.42,26.42v3.42h3.49c8.03,0,15.23,3.61,20.08,9.28,4.88-6.51,12.67-10.66,21.17-10.66,1.26,0,2.53.1,3.78.28v-10.89c0-14.57,11.85-26.42,26.42-26.42h10.64c2.1,0,4.14.25,6.1.72.95-13.71,12.4-24.58,26.35-24.58h15.14c14.57,0,26.42,11.85,26.42,26.42v205.2c0,14.57-11.85,26.42-26.42,26.42h-15.14c-1.87,0-3.69-.2-5.45-.57-1.76.37-3.58.57-5.45.57h-10.64c-1.87,0-3.69-.2-5.45-.57-1.76.37-3.58.57-5.45.57h-10.64c-8.52,0-16.11-4.06-20.94-10.34-4.91,6-12.35,9.79-20.46,9.79-1.85,0-3.7-.2-5.51-.58l-11.34-2.42c-3.89,2.25-8.4,3.55-13.2,3.55h-19.01Z" style="fill: #99f464;"/>
        <path d="M346.67,388.87c-1.2.22-2.15,1.17-2.38,2.37h0c.23-1.2,1.17-2.15,2.38-2.37Z" style="fill: #89ff53;"/>
        <path d="M369.17,391.79h0c0-.41-.08-.8-.23-1.15.15.35.23.74.23,1.15Z" style="fill: #89ff53;"/>
        <path d="M510.66,356.4c-.13,0-.25.01-.37.03.12-.02.24-.03.37-.03h0Z" style="fill: #89ff53;"/>
        <path d="M507.7,359.36c0-.36.07-.7.19-1.02-.12.32-.19.66-.19,1.02v8.73h0s0-8.73,0-8.73Z" style="fill: #89ff53;"/>
        <path d="M398.22,419.54c-.54-.54-1.28-.87-2.1-.87h-3.49s3.49,0,3.49,0c.82,0,1.56.33,2.1.87Z" style="fill: #89ff53;"/>
        <path d="M426.17,566.97c.18,0,.36-.02.53-.05-.18.03-.36.05-.54.05,0,0,0,0,.01,0Z" style="fill: #89ff53;"/>
        <path d="M437.38,417.29c-.18,0-.36.02-.53.05.18-.03.36-.05.54-.05,0,0,0,0-.01,0Z" style="fill: #89ff53;"/>
        <path d="M409.33,587.44l11.34,2.42c1.81.39,3.66.58,5.51.58,8.11,0,15.55-3.78,20.46-9.79,4.84,6.28,12.42,10.34,20.94,10.34h10.64c1.87,0,3.69-.2,5.45-.57,1.76.37,3.58.57,5.45.57h10.64c1.87,0,3.69-.2,5.45-.57,1.76.37,3.58.57,5.45.57h15.14c14.57,0,26.42-11.85,26.42-26.42v-205.2c0-14.57-11.85-26.42-26.42-26.42h-15.14c-13.95,0-25.4,10.87-26.35,24.58-1.96-.46-4-.72-6.1-.72h-10.64c-14.57,0-26.42,11.85-26.42,26.42v10.89c-1.25-.18-2.52-.28-3.78-.28-8.5,0-16.28,4.14-21.17,10.66-4.85-5.67-12.05-9.28-20.08-9.28h-3.49v-3.42c0-14.57-11.85-26.42-26.42-26.42h-19.01c-13.97,0-25.43,10.9-26.36,24.63h-8.87v-18.02c0-14.57-11.85-26.42-26.42-26.42h-30.62c-14.57,0-26.42,11.85-26.42,26.42v192.59c0,14.57,11.85,26.42,26.42,26.42h30.62c1.87,0,3.69-.2,5.45-.57,1.76.37,3.58.57,5.45.57h39.83c1.87,0,3.69-.2,5.45-.57,1.76.37,3.59.57,5.45.57h19.01c1.87,0,3.69-.2,5.45-.57,1.76.37,3.58.57,5.45.57h19.01c4.81,0,9.31-1.3,13.2-3.55ZM507.7,359.36c0-.36.07-.7.19-1.02.04-.11.09-.21.14-.31.1-.2.23-.39.38-.57.39-.47.92-.81,1.53-.97.12-.03.24-.06.36-.07.12-.02.24-.03.37-.03h15.14c.2,0,.4.02.6.06,1.16.24,2.07,1.15,2.31,2.31.04.19.06.39.06.6v205.2c0,1.64-1.33,2.96-2.96,2.96h-15.14c-.41,0-.8-.08-1.15-.23-.35-.15-.67-.37-.94-.64-.54-.54-.87-1.28-.87-2.1v-196.47h0v-8.73ZM486.16,393.29c0-1.64,1.33-2.96,2.96-2.96h10.64c1.64,0,2.96,1.33,2.96,2.96h0v171.27c0,.41-.08.8-.23,1.15-.15.35-.37.67-.64.94-.27.27-.59.49-.94.64-.35.15-.74.23-1.15.23h-10.64c-1.64,0-2.96-1.33-2.96-2.96v-171.27ZM288.52,564.56c0,1.64-1.33,2.96-2.96,2.96h-30.62c-.2,0-.4-.02-.6-.06-1.16-.24-2.07-1.15-2.31-2.31-.04-.19-.06-.39-.06-.6v-192.59c0-.2.02-.4.06-.6.24-1.16,1.15-2.07,2.31-2.31.19-.04.39-.06.6-.06h30.62c1.64,0,2.96,1.33,2.96,2.96v192.59ZM339.26,564.56c0,.2-.02.4-.06.6-.28,1.35-1.47,2.37-2.9,2.37h-39.83c-.41,0-.8-.08-1.15-.23-1.06-.45-1.81-1.5-1.81-2.73v-148.14c0-1.64,1.33-2.96,2.96-2.96h15.52s8.8,0,8.8,0h0s15.51,0,15.51,0c1.64,0,2.96,1.33,2.96,2.96v148.14ZM369.17,391.79v172.77c0,.82-.33,1.56-.87,2.1s-1.28.87-2.1.87h-19.01c-.41,0-.8-.08-1.15-.23-.18-.07-.35-.17-.5-.27-.79-.53-1.31-1.43-1.31-2.46v-172.77c0-.19.02-.37.06-.55h0c.23-1.2,1.17-2.15,2.38-2.37.17-.03.35-.05.53-.05h19.01c.51,0,.99.13,1.41.36s.78.55,1.04.95c.11.16.2.33.27.5.15.35.23.74.23,1.15h0ZM464.61,383.22c0-1.64,1.33-2.96,2.96-2.96h10.64c1.64,0,2.96,1.33,2.96,2.96v181.34c0,1.64-1.33,2.96-2.96,2.96h-10.64c-1.64,0-2.96-1.33-2.96-2.96v-181.34ZM404.69,559.43l29.79-139.79c.04-.19.1-.37.17-.54.02-.06.05-.11.08-.16.06-.11.11-.22.18-.32.04-.06.08-.11.12-.17.07-.09.14-.17.22-.25.05-.05.1-.1.16-.15.08-.07.17-.14.26-.2.06-.04.11-.08.18-.12.1-.06.2-.11.3-.16.06-.03.12-.06.18-.08.12-.05.24-.08.37-.11.05-.01.1-.03.15-.04.17-.03.35-.05.53-.05,0,0,0,0,.01,0,.2,0,.39.02.59.06,0,0,0,0,.01,0l3.16.67,15.43,3.29c1.6.34,2.62,1.92,2.28,3.52l-17.71,83.1-12.08,56.69c-.04.19-.1.37-.17.54-.02.06-.05.11-.08.16-.06.11-.11.22-.18.32-.04.06-.08.11-.12.17-.07.09-.14.17-.22.25-.05.05-.1.1-.16.15-.08.07-.17.14-.25.2-.06.04-.12.08-.18.12-.1.06-.2.11-.3.15-.06.03-.12.06-.18.08-.12.05-.24.08-.37.11-.05.01-.1.03-.15.04-.17.03-.35.05-.53.05,0,0,0,0-.01,0-.2,0-.41-.02-.61-.06l-18.59-3.96c-1.6-.34-2.62-1.92-2.28-3.52ZM375.96,567.29c-.18-.07-.35-.17-.5-.27-.79-.53-1.31-1.43-1.31-2.46v-142.93c0-1.64,1.33-2.96,2.96-2.96h15.52s3.49,0,3.49,0c.82,0,1.56.33,2.1.87.54.54.87,1.28.87,2.1v142.93c0,1.02-.52,1.92-1.31,2.46-.47.32-1.04.51-1.66.51h-19.01c-.41,0-.8-.08-1.15-.23Z" style="fill: #cbcbcb;"/>
        <path d="M285.56,369.01h-30.62c-.2,0-.4.02-.6.06-1.16.24-2.07,1.15-2.31,2.31-.04.19-.06.39-.06.6v192.59c0,.2.02.4.06.6.24,1.16,1.15,2.07,2.31,2.31.19.04.39.06.6.06h30.62c1.64,0,2.96-1.33,2.96-2.96v-192.59c0-1.64-1.33-2.96-2.96-2.96Z" style="fill: #ff73b0;"/>
        <path d="M336.3,413.46h-39.83c-1.64,0-2.96,1.33-2.96,2.96v148.14c0,1.23.75,2.28,1.81,2.73.35.15.74.23,1.15.23h39.83c1.43,0,2.63-1.02,2.9-2.37.04-.19.06-.39.06-.6v-148.14c0-1.64-1.33-2.96-2.96-2.96Z" style="fill: #fae585;"/>
        <path d="M368.67,390.13c-.27-.39-.62-.72-1.04-.95s-.9-.36-1.41-.36h-19.01c-.18,0-.36.02-.53.05-1.2.22-2.15,1.17-2.38,2.37-.03.18-.06.36-.06.55v172.77c0,1.02.52,1.92,1.31,2.46.16.11.33.2.5.27.35.15.74.23,1.15.23h19.01c.82,0,1.56-.33,2.1-.87s.87-1.28.87-2.1v-172.77c0-.41-.08-.8-.23-1.15-.07-.18-.17-.35-.27-.5Z" style="fill: #ff73b0;"/>
        <path d="M397.78,567.02c.79-.53,1.31-1.43,1.31-2.46v-142.93c0-.82-.33-1.56-.87-2.1-.54-.54-1.28-.87-2.1-.87h-19.01c-1.64,0-2.96,1.33-2.96,2.96v142.93c0,1.02.52,1.92,1.31,2.46.16.11.33.2.5.27.35.15.74.23,1.15.23h19.01c.61,0,1.18-.19,1.66-.51Z" style="fill: #ff73b0;"/>
        <path d="M467.58,567.52h10.64c1.64,0,2.96-1.33,2.96-2.96v-181.34c0-1.64-1.33-2.96-2.96-2.96h-10.64c-1.64,0-2.96,1.33-2.96,2.96v181.34c0,1.64,1.33,2.96,2.96,2.96Z" style="fill: #ff73b0;"/>
        <path d="M489.12,567.52h10.64c.41,0,.8-.08,1.15-.23.35-.15.67-.37.94-.64.27-.27.49-.59.64-.94.15-.35.23-.74.23-1.15v-171.27h0c0-1.64-1.33-2.96-2.96-2.96h-10.64c-1.64,0-2.96,1.33-2.96,2.96v171.27c0,1.64,1.33,2.96,2.96,2.96Z" style="fill: #ff73b0;"/>
        <path d="M507.7,368.09v196.47c0,.82.33,1.56.87,2.1.27.27.59.49.94.64.35.15.74.23,1.15.23h15.14c1.64,0,2.96-1.33,2.96-2.96v-205.2c0-.2-.02-.4-.06-.6-.24-1.16-1.15-2.07-2.31-2.31-.19-.04-.39-.06-.6-.06h-15.14c-.13,0-.25.01-.37.03-.12.02-.24.04-.36.07-.61.16-1.14.5-1.53.97-.15.17-.27.36-.38.57-.05.1-.1.2-.14.31-.12.32-.19.66-.19,1.02v8.73Z" style="fill: #ff73b0;"/>
        <path d="M406.97,562.94l18.59,3.96c.2.04.41.06.61.06.18,0,.37-.02.54-.05.05,0,.1-.03.15-.04.12-.03.25-.06.37-.11.06-.02.12-.05.18-.08.1-.05.2-.1.3-.15.06-.04.12-.08.18-.12.09-.06.17-.13.25-.2.05-.05.11-.1.16-.15.08-.08.15-.17.22-.25.04-.05.09-.11.12-.17.07-.1.13-.21.18-.32.03-.05.06-.1.08-.16.07-.17.13-.35.17-.54l12.08-56.69,17.71-83.1c.34-1.6-.68-3.17-2.28-3.52l-15.43-3.29-3.16-.67s0,0-.01,0c-.2-.04-.4-.06-.59-.06-.18,0-.37.02-.54.05-.05,0-.1.03-.15.04-.13.03-.25.06-.37.11-.06.02-.12.05-.18.08-.1.05-.2.1-.3.16-.06.04-.12.08-.18.12-.09.06-.17.13-.26.2-.05.05-.11.1-.16.15-.08.08-.15.17-.22.25-.04.05-.09.11-.12.17-.07.1-.13.21-.18.32-.03.05-.06.1-.08.16-.07.17-.13.35-.17.54l-29.79,139.79c-.34,1.6.68,3.17,2.28,3.52Z" style="fill: #ff73b0;"/>
        <path d="M246.94,258.39h0c2.68-2.33,4.16-5.64,4.16-9.32v-29.59c0-3.63-1.44-6.92-4.05-9.24-2.34-2.09-5.24-3.19-8.38-3.19s-6.27,1.2-8.57,3.37c-2.46,2.32-3.82,5.54-3.82,9.07v29.59c0,3.58,1.39,6.83,3.92,9.15,2.29,2.09,5.3,3.24,8.46,3.24s5.94-1.06,8.27-3.07ZM237.05,251.05c-.42-.4-.63-.96-.63-1.65v-30.25c0-.69.21-1.26.63-1.67.42-.42.95-.63,1.58-.63s1.18.21,1.65.62c.47.42.7.98.7,1.68v30.25c0,.7-.24,1.26-.71,1.66h0c-.46.4-1.02.6-1.64.6s-1.16-.2-1.58-.6Z" style="fill: #fff;"/>
        <path d="M240.27,251.06c.47-.4.71-.96.71-1.66v-30.25c0-.7-.24-1.26-.7-1.68-.47-.41-1.02-.62-1.65-.62s-1.16.21-1.58.63c-.42.42-.63.98-.63,1.67v30.25c0,.7.21,1.25.63,1.65.42.4.95.6,1.58.6s1.18-.2,1.64-.6h0Z" style="fill: #8e8e8e;"/>
      </g>
    </g>
  </g>
</svg>